<?xml version="1.0" encoding="UTF-8" standalone="no"?>
<svg
   xmlns:dc="http://purl.org/dc/elements/1.1/"
   xmlns:cc="http://creativecommons.org/ns#"
   xmlns:rdf="http://www.w3.org/1999/02/22-rdf-syntax-ns#"
   xmlns:svg="http://www.w3.org/2000/svg"
   xmlns="http://www.w3.org/2000/svg"
   xmlns:xlink="http://www.w3.org/1999/xlink"
   xmlns:sodipodi="http://sodipodi.sourceforge.net/DTD/sodipodi-0.dtd"
   xmlns:inkscape="http://www.inkscape.org/namespaces/inkscape"
   width="1080"
   height="1080"
   viewBox="0 0 285.75 285.75"
   version="1.1"
   id="svg8"
   inkscape:version="1.0.2-2 (e86c870879, 2021-01-15)"
   sodipodi:docname="accesories-icon-game-club.svg">
  <defs
     id="defs2">
    <linearGradient
       inkscape:collect="always"
       id="linearGradient925">
      <stop
         style="stop-color:#fff6d5;stop-opacity:0"
         offset="0"
         id="stop921" />
      <stop
         style="stop-color:#000000;stop-opacity:1"
         offset="0.36426461"
         id="stop1071" />
      <stop
         style="stop-color:#000000;stop-opacity:1"
         offset="0.61855876"
         id="stop929" />
      <stop
         style="stop-color:#fff6d5;stop-opacity:0;"
         offset="1"
         id="stop923" />
    </linearGradient>
    <linearGradient
       inkscape:collect="always"
       id="linearGradient866">
      <stop
         style="stop-color:#fff6d5;stop-opacity:1"
         offset="0"
         id="stop862" />
      <stop
         style="stop-color:#ffd42a;stop-opacity:1"
         offset="0.21524739"
         id="stop878" />
      <stop
         style="stop-color:#d38d5f;stop-opacity:1"
         offset="0.48112038"
         id="stop880" />
      <stop
         style="stop-color:#c87137;stop-opacity:1"
         offset="0.70929497"
         id="stop882" />
      <stop
         style="stop-color:#502d16;stop-opacity:1"
         offset="1"
         id="stop864" />
    </linearGradient>
    <linearGradient
       inkscape:collect="always"
       id="linearGradient839">
      <stop
         style="stop-color:#666666;stop-opacity:1;"
         offset="0"
         id="stop835" />
      <stop
         style="stop-color:#999999;stop-opacity:1"
         offset="1"
         id="stop837" />
    </linearGradient>
    <linearGradient
       inkscape:collect="always"
       xlink:href="#linearGradient839"
       id="linearGradient841"
       x1="24.019018"
       y1="21.463789"
       x2="267.27539"
       y2="264.72015"
       gradientUnits="userSpaceOnUse" />
    <linearGradient
       inkscape:collect="always"
       xlink:href="#linearGradient866"
       id="linearGradient868"
       x1="54.584019"
       y1="53.474239"
       x2="236.7104"
       y2="235.60062"
       gradientUnits="userSpaceOnUse"
       gradientTransform="scale(3.7795276)" />
    <linearGradient
       inkscape:collect="always"
       xlink:href="#linearGradient866"
       id="linearGradient917"
       x1="734.85724"
       y1="721.10193"
       x2="368.82938"
       y2="367.36563"
       gradientUnits="userSpaceOnUse" />
    <linearGradient
       inkscape:collect="always"
       xlink:href="#linearGradient925"
       id="linearGradient927"
       x1="241.81184"
       y1="236.25104"
       x2="848.21704"
       y2="837.19299"
       gradientUnits="userSpaceOnUse"
       gradientTransform="matrix(0.26458333,0,0,0.26458333,-3.8277539e-6,-2.6163802e-6)" />
    <filter
       inkscape:collect="always"
       style="color-interpolation-filters:sRGB"
       id="filter1337"
       x="-0.15663684"
       width="1.3132737"
       y="-0.15663683"
       height="1.3132737">
      <feGaussianBlur
         inkscape:collect="always"
         stdDeviation="23.35416"
         id="feGaussianBlur1339" />
    </filter>
  </defs>
  <sodipodi:namedview
     id="base"
     pagecolor="#ffffff"
     bordercolor="#666666"
     borderopacity="1.0"
     inkscape:pageopacity="0.0"
     inkscape:pageshadow="2"
     inkscape:zoom="0.73218391"
     inkscape:cx="481.7612"
     inkscape:cy="487.98132"
     inkscape:document-units="mm"
     inkscape:current-layer="layer1"
     inkscape:document-rotation="0"
     showgrid="false"
     inkscape:window-width="1920"
     inkscape:window-height="1080"
     inkscape:window-x="1085"
     inkscape:window-y="825"
     inkscape:window-maximized="1"
     units="px"
     width="1080px" />
  <metadata
     id="metadata5">
    <rdf:RDF>
      <cc:Work
         rdf:about="">
        <dc:format>image/svg+xml</dc:format>
        <dc:type
           rdf:resource="http://purl.org/dc/dcmitype/StillImage" />
        <dc:title></dc:title>
      </cc:Work>
    </rdf:RDF>
  </metadata>
  <g
     inkscape:label="Layer 1"
     inkscape:groupmode="layer"
     id="layer1">
    <rect
       style="opacity:1;fill:url(#linearGradient841);stroke-width:0.264999;fill-opacity:1"
       id="rect833"
       width="243.25638"
       height="243.25638"
       x="24.019018"
       y="21.463789" />
    <path
       id="path1075"
       style="opacity:0.74193548;fill:#000000;stroke-width:1.00157;fill-opacity:1;filter:url(#filter1337)"
       d="M 415.23438 361.90234 C 391.03973 361.90234 371.56055 381.38153 371.56055 405.57617 L 371.56055 676.06445 C 371.56055 700.2591 391.03973 719.73633 415.23438 719.73633 L 685.72266 719.73633 C 709.9173 719.73633 729.39453 700.2591 729.39453 676.06445 L 729.39453 405.57617 C 729.39453 381.38153 709.9173 361.90234 685.72266 361.90234 L 415.23438 361.90234 z M 442.07617 397.41406 L 658.87891 397.41406 C 678.27159 397.41406 693.88477 413.02533 693.88477 432.41797 L 693.88477 649.22266 C 693.88477 668.6153 678.27159 684.22656 658.87891 684.22656 L 442.07617 684.22656 C 422.68353 684.22656 407.07031 668.6153 407.07031 649.22266 L 407.07031 432.41797 C 407.07031 413.02533 422.68353 397.41406 442.07617 397.41406 z "
       transform="scale(0.26458333)" />
    <path
       id="rect843"
       style="opacity:1;fill:url(#linearGradient868);fill-opacity:1;stroke:none;stroke-width:1.00157"
       d="M 288.24805 193.91211 C 241.33634 193.91211 203.57031 231.68009 203.57031 278.5918 L 203.57031 803.04883 C 203.57031 849.96055 241.33634 887.72656 288.24805 887.72656 L 812.70703 887.72656 C 859.61875 887.72656 897.38477 849.96055 897.38477 803.04883 L 897.38477 278.5918 C 897.38477 231.68009 859.61875 193.91211 812.70703 193.91211 L 288.24805 193.91211 z M 442.07617 397.41406 L 658.87891 397.41406 C 678.27159 397.41406 693.88477 413.02533 693.88477 432.41797 L 693.88477 649.22266 C 693.88477 668.6153 678.27159 684.22656 658.87891 684.22656 L 442.07617 684.22656 C 422.68353 684.22656 407.07031 668.6153 407.07031 649.22266 L 407.07031 432.41797 C 407.07031 413.02533 422.68353 397.41406 442.07617 397.41406 z "
       transform="scale(0.26458333)" />
    <path
       id="path846"
       style="opacity:1;fill:#fff6d5;stroke-width:1.00157"
       d="M 310.96094 223.95898 C 268.11244 223.95898 233.61719 258.45424 233.61719 301.30273 L 233.61719 780.33594 C 233.61719 823.18444 268.11244 857.67969 310.96094 857.67969 L 789.99414 857.67969 C 832.84264 857.67969 867.33789 823.18444 867.33789 780.33594 L 867.33789 301.30273 C 867.33789 258.45424 832.84264 223.95898 789.99414 223.95898 L 310.96094 223.95898 z M 442.07617 397.41406 L 658.87891 397.41406 C 660.09095 397.41406 661.28913 397.47467 662.46875 397.59375 C 663.64837 397.71283 664.80976 397.89066 665.95117 398.12305 C 666.52189 398.23923 667.0864 398.36829 667.64648 398.51172 C 667.6471 398.51188 667.64783 398.51156 667.64844 398.51172 C 671.00826 399.37231 674.17042 400.71682 677.05664 402.4668 C 678.01886 403.05025 678.95159 403.67885 679.84961 404.34961 C 680.74763 405.02037 681.61141 405.73404 682.43945 406.48633 C 686.99387 410.62378 690.44678 415.95051 692.31641 421.98633 C 692.65634 423.08375 692.94338 424.2043 693.17578 425.3457 C 693.29197 425.91641 693.39419 426.4936 693.48242 427.07422 C 693.57053 427.65421 693.6456 428.23897 693.70508 428.82812 C 693.70514 428.82877 693.70501 428.82943 693.70508 428.83008 C 693.82404 430.00906 693.88477 431.20659 693.88477 432.41797 L 693.88477 649.22266 C 693.88477 650.43404 693.82404 651.63156 693.70508 652.81055 C 693.70501 652.81119 693.70514 652.81186 693.70508 652.8125 C 693.58593 653.9921 693.40823 655.15353 693.17578 656.29492 C 692.94338 657.43633 692.65634 658.55688 692.31641 659.6543 C 690.7868 664.59276 688.19781 669.05506 684.8125 672.78125 C 684.81217 672.78161 684.81283 672.78284 684.8125 672.7832 C 680.67504 677.33692 675.34599 680.78883 669.31055 682.6582 C 666.01817 683.67789 662.51503 684.22656 658.87891 684.22656 L 442.07617 684.22656 C 439.04673 684.22656 436.10841 683.84578 433.30859 683.12891 C 433.30799 683.12875 433.30725 683.12906 433.30664 683.12891 C 427.14583 681.55112 421.65067 678.34598 417.30078 673.99609 C 416.50986 673.20523 415.7572 672.3774 415.04492 671.51367 C 412.55244 668.491 410.55776 665.03902 409.1875 661.2832 C 409.18729 661.28263 409.18771 661.28183 409.1875 661.28125 C 408.99175 660.74461 408.80863 660.20302 408.63867 659.6543 C 408.29874 658.55688 408.0117 657.43633 407.7793 656.29492 C 407.77917 656.2943 407.77942 656.29359 407.7793 656.29297 C 407.6631 655.72226 407.56088 655.14703 407.47266 654.56641 C 407.20796 652.82456 407.07031 651.04072 407.07031 649.22266 L 407.07031 432.41797 C 407.07031 430.60057 407.20815 428.81546 407.47266 427.07422 C 407.47275 427.07358 407.47256 427.0729 407.47266 427.07227 C 407.56089 426.49165 407.6631 425.9164 407.7793 425.3457 C 408.0117 424.2043 408.29874 423.08375 408.63867 421.98633 C 409.99832 417.59658 412.19593 413.58196 415.04492 410.12695 C 415.7572 409.26323 416.50986 408.43539 417.30078 407.64453 C 417.69623 407.24909 418.1016 406.86247 418.51562 406.48633 C 419.34367 405.73404 420.20745 405.02037 421.10547 404.34961 C 422.00349 403.67885 422.93622 403.05025 423.89844 402.4668 C 427.26619 400.42471 431.00895 398.93639 435.00391 398.12305 C 436.14532 397.89066 437.30671 397.71283 438.48633 397.59375 C 439.66594 397.47467 440.86413 397.41406 442.07617 397.41406 z "
       transform="scale(0.26458333)" />
    <path
       id="path919"
       style="opacity:0.33871;fill:url(#linearGradient927);fill-opacity:1;stroke-width:0.264999"
       d="m 82.27508,59.255809 c -11.336998,0 -20.463866,9.126876 -20.463866,20.463866 V 206.46388 c 0,11.337 9.126868,20.46387 20.463866,20.46387 h 126.7442 c 11.337,0 20.46387,-9.12687 20.46387,-20.46387 V 79.719675 c 0,-11.33699 -9.12687,-20.463866 -20.46387,-20.463866 z m 34.69091,45.893331 h 57.36239 c 0.32068,0 0.6377,0.016 0.94981,0.0475 0.31211,0.0315 0.61939,0.0786 0.92139,0.14004 0.151,0.0307 0.30036,0.0649 0.44855,0.10284 1.6e-4,4e-5 3.6e-4,-4e-5 5.2e-4,0 0.88895,0.2277 1.7256,0.58343 2.48925,1.04645 0.25459,0.15437 0.50137,0.32069 0.73897,0.49816 0.2376,0.17747 0.46615,0.36629 0.68523,0.56534 1.20503,1.0947 2.11861,2.50406 2.61328,4.10104 0.0899,0.29036 0.16589,0.58684 0.22738,0.88883 0.0307,0.151 0.0578,0.30372 0.0811,0.45734 0.0233,0.15346 0.0432,0.30817 0.0589,0.46405 1e-5,1.8e-4 -2e-5,3.5e-4 0,5.2e-4 0.0315,0.31194 0.0475,0.62879 0.0475,0.9493 v 57.3629 c 0,0.32052 -0.0161,0.63736 -0.0475,0.9493 -2e-5,1.7e-4 1e-5,3.5e-4 0,5.2e-4 -0.0315,0.3121 -0.0785,0.61939 -0.14005,0.92139 -0.0615,0.302 -0.13743,0.59847 -0.22737,0.88883 -0.40471,1.30664 -1.08972,2.48729 -1.98541,3.47318 -9e-5,9e-5 8e-5,4.2e-4 0,5.1e-4 -1.09471,1.20484 -2.50468,2.11816 -4.10156,2.61276 -0.87111,0.26979 -1.79798,0.41496 -2.76004,0.41496 h -57.36238 c -0.80154,0 -1.57898,-0.10074 -2.31976,-0.29042 -1.6e-4,-4e-5 -3.6e-4,4e-5 -5.2e-4,0 -1.63004,-0.41745 -3.08397,-1.26548 -4.23488,-2.41639 -0.20926,-0.20925 -0.40841,-0.42828 -0.59686,-0.65681 -0.65947,-0.79974 -1.18723,-1.71308 -1.54978,-2.70681 -5e-5,-1.5e-4 6e-5,-3.6e-4 0,-5.1e-4 -0.0518,-0.14199 -0.10024,-0.28528 -0.14521,-0.43047 -0.0899,-0.29036 -0.16589,-0.58683 -0.22738,-0.88883 -3e-5,-1.7e-4 4e-5,-3.5e-4 0,-5.2e-4 -0.0307,-0.151 -0.0578,-0.3032 -0.0811,-0.45682 -0.07,-0.46086 -0.10645,-0.93284 -0.10645,-1.41387 v -57.3629 c 0,-0.48086 0.0365,-0.95317 0.10645,-1.41387 3e-5,-1.7e-4 -2e-5,-3.5e-4 0,-5.2e-4 0.0234,-0.15362 0.0504,-0.30582 0.0811,-0.45682 0.0615,-0.30199 0.13744,-0.59847 0.22738,-0.88883 0.35974,-1.16145 0.94119,-2.22366 1.69499,-3.13779 0.18845,-0.22853 0.3876,-0.44756 0.59686,-0.65681 0.10463,-0.10463 0.21188,-0.20692 0.32143,-0.30644 0.21908,-0.19905 0.44763,-0.38787 0.68523,-0.56534 0.2376,-0.17747 0.48438,-0.34379 0.73897,-0.49816 0.89105,-0.54031 1.88132,-0.93409 2.93832,-1.14929 0.302,-0.0615 0.60929,-0.10853 0.92139,-0.14004 0.31211,-0.0315 0.62913,-0.0475 0.94982,-0.0475 z" />
    <path
       id="path897"
       style="opacity:1;fill:url(#linearGradient917);stroke-width:1.00157;fill-opacity:1"
       d="M 415.23438 361.90234 C 391.03973 361.90234 371.56055 381.38153 371.56055 405.57617 L 371.56055 676.06445 C 371.56055 700.2591 391.03973 719.73633 415.23438 719.73633 L 685.72266 719.73633 C 709.9173 719.73633 729.39453 700.2591 729.39453 676.06445 L 729.39453 405.57617 C 729.39453 381.38153 709.9173 361.90234 685.72266 361.90234 L 415.23438 361.90234 z M 442.07617 397.41406 L 658.87891 397.41406 C 678.27159 397.41406 693.88477 413.02533 693.88477 432.41797 L 693.88477 649.22266 C 693.88477 668.6153 678.27159 684.22656 658.87891 684.22656 L 442.07617 684.22656 C 422.68353 684.22656 407.07031 668.6153 407.07031 649.22266 L 407.07031 432.41797 C 407.07031 413.02533 422.68353 397.41406 442.07617 397.41406 z "
       transform="scale(0.26458333)" />
  </g>
</svg>
