<?xml version="1.0" encoding="UTF-8" standalone="no"?>
<svg
   xmlns:dc="http://purl.org/dc/elements/1.1/"
   xmlns:cc="http://creativecommons.org/ns#"
   xmlns:rdf="http://www.w3.org/1999/02/22-rdf-syntax-ns#"
   xmlns:svg="http://www.w3.org/2000/svg"
   xmlns="http://www.w3.org/2000/svg"
   xmlns:xlink="http://www.w3.org/1999/xlink"
   xmlns:sodipodi="http://sodipodi.sourceforge.net/DTD/sodipodi-0.dtd"
   xmlns:inkscape="http://www.inkscape.org/namespaces/inkscape"
   width="1920"
   height="1080"
   viewBox="0 0 508 285.75"
   version="1.1"
   id="svg8"
   inkscape:version="1.0.2-2 (e86c870879, 2021-01-15)"
   sodipodi:docname="accesories-usb.svg">
  <defs
     id="defs2">
    <linearGradient
       inkscape:collect="always"
       id="linearGradient1498">
      <stop
         style="stop-color:#000000;stop-opacity:1;"
         offset="0"
         id="stop1494" />
      <stop
         style="stop-color:#4d4d4d;stop-opacity:1"
         offset="1"
         id="stop1496" />
    </linearGradient>
    <linearGradient
       inkscape:collect="always"
       id="linearGradient1468">
      <stop
         style="stop-color:#b3b3b3;stop-opacity:1"
         offset="0"
         id="stop1464" />
      <stop
         style="stop-color:#e6e6e6;stop-opacity:1"
         offset="1"
         id="stop1466" />
    </linearGradient>
    <linearGradient
       inkscape:collect="always"
       id="linearGradient1417">
      <stop
         style="stop-color:#cccccc;stop-opacity:1"
         offset="0"
         id="stop1413" />
      <stop
         style="stop-color:#999999;stop-opacity:1"
         offset="0.24879526"
         id="stop1429" />
      <stop
         style="stop-color:#333333;stop-opacity:1"
         offset="0.66208661"
         id="stop1431" />
      <stop
         style="stop-color:#000000;stop-opacity:1"
         offset="1"
         id="stop1415" />
    </linearGradient>
    <linearGradient
       inkscape:collect="always"
       xlink:href="#linearGradient1417"
       id="linearGradient1419"
       x1="99.626488"
       y1="37.181068"
       x2="110.98776"
       y2="47.888996"
       gradientUnits="userSpaceOnUse"
       gradientTransform="matrix(1.4784216,0,-0.2135261,1.2591541,-49.1539,-12.780541)" />
    <linearGradient
       inkscape:collect="always"
       xlink:href="#linearGradient1417"
       id="linearGradient1462"
       gradientUnits="userSpaceOnUse"
       gradientTransform="matrix(1.4784216,0,-0.2135261,1.2591541,-49.1539,-12.780541)"
       x1="99.626488"
       y1="37.181068"
       x2="110.98776"
       y2="47.888996" />
    <linearGradient
       inkscape:collect="always"
       xlink:href="#linearGradient1468"
       id="linearGradient1470"
       x1="109.73684"
       y1="166.22646"
       x2="109.94451"
       y2="139.38576"
       gradientUnits="userSpaceOnUse"
       gradientTransform="matrix(0.80548074,0,0,0.65983081,-40.689224,74.619444)" />
    <linearGradient
       inkscape:collect="always"
       xlink:href="#linearGradient1498"
       id="linearGradient1500"
       x1="156.02583"
       y1="124.12039"
       x2="156.15741"
       y2="120.68081"
       gradientUnits="userSpaceOnUse"
       gradientTransform="matrix(0.65983081,0,0,0.65983081,-46.66903,80.502074)" />
    <linearGradient
       inkscape:collect="always"
       xlink:href="#linearGradient1498"
       id="linearGradient1514"
       gradientUnits="userSpaceOnUse"
       gradientTransform="matrix(0.65983136,0,0,0.65983081,-36.971899,12.189677)"
       x1="156.02583"
       y1="124.12039"
       x2="156.15741"
       y2="120.68081" />
  </defs>
  <sodipodi:namedview
     id="base"
     pagecolor="#ffffff"
     bordercolor="#666666"
     borderopacity="1.0"
     inkscape:pageopacity="0.0"
     inkscape:pageshadow="2"
     inkscape:zoom="0.36609195"
     inkscape:cx="727.79027"
     inkscape:cy="503.55643"
     inkscape:document-units="mm"
     inkscape:current-layer="layer1"
     inkscape:document-rotation="0"
     showgrid="false"
     inkscape:window-width="1920"
     inkscape:window-height="1080"
     inkscape:window-x="1085"
     inkscape:window-y="825"
     inkscape:window-maximized="1"
     units="px"
     inkscape:showpageshadow="false"
     inkscape:snap-bbox="true"
     inkscape:bbox-paths="true"
     inkscape:bbox-nodes="true"
     inkscape:snap-bbox-edge-midpoints="true"
     inkscape:snap-bbox-midpoints="true"
     inkscape:object-paths="true"
     inkscape:snap-intersection-paths="true"
     inkscape:snap-smooth-nodes="true"
     inkscape:snap-midpoints="true"
     inkscape:snap-object-midpoints="true"
     inkscape:snap-global="true" />
  <metadata
     id="metadata5">
    <rdf:RDF>
      <cc:Work
         rdf:about="">
        <dc:format>image/svg+xml</dc:format>
        <dc:type
           rdf:resource="http://purl.org/dc/dcmitype/StillImage" />
        <dc:title></dc:title>
      </cc:Work>
    </rdf:RDF>
  </metadata>
  <g
     inkscape:label="Layer 1"
     inkscape:groupmode="layer"
     id="layer1">
    <path
       id="path1531"
       style="opacity:1;fill:#112b00;fill-opacity:1;stroke-width:1.00158"
       d="M 1921.8438 455.7832 C 1921.4764 459.39696 1921.0908 463.03715 1920.6602 466.73047 C 1921.0902 463.04252 1921.4791 459.40293 1921.8457 455.79492 C 1921.8451 455.79114 1921.8438 455.78698 1921.8438 455.7832 z M 1925.4473 488.44336 C 1924.471 506.4406 1922.9253 525.15793 1920.6602 544.58398 C 1897.3436 744.54526 1794.8066 849.45117 1794.8066 849.45117 L 1798.5332 849.45117 L 1798.5332 921.9082 C 1816.805 901.27819 1899.9367 798.85245 1920.6602 621.12891 C 1927.145 565.51486 1927.824 522.14197 1925.4473 488.44336 z "
       transform="scale(0.26458333)" />
    <path
       id="rect1402"
       style="opacity:1;fill:#b3b3b3;fill-opacity:1;stroke-width:0.265"
       d="M 126.7008,86.169394 113.50527,166.59045 H 2.594542 L 15.790086,86.169394 Z" />
    <rect
       style="opacity:1;fill:url(#linearGradient1470);fill-opacity:1;stroke:none;stroke-width:0.264999"
       id="rect1405"
       width="110.77388"
       height="17.710323"
       x="2.7313671"
       y="166.59045" />
    <g
       id="g1452"
       transform="matrix(0.65983081,0,0,0.65983081,-35.52833,78.146733)"
       style="stroke-width:1.51554">
      <path
         id="rect1407"
         style="opacity:1;fill:#000000;fill-opacity:1;stroke:none;stroke-width:0.403728"
         transform="matrix(1,0,-0.14403439,0.98957268,0,0)"
         d="m 89.580688,30.126492 h 22.043072 v 17.89331 H 89.580688 Z" />
      <path
         id="rect1409"
         style="opacity:1;fill:#ffffff;fill-opacity:1;stroke:none;stroke-width:0.403797"
         transform="matrix(1,0,-0.14635637,0.98923193,0,0)"
         d="M 89.652161,28.338812 H 111.69523 V 30.13687 H 89.652161 Z" />
      <path
         id="rect1411"
         style="opacity:1;fill:url(#linearGradient1419);fill-opacity:1;stroke:none;stroke-width:0.401618;stroke-opacity:1"
         d="m 90.196916,34.036154 h 16.472814 l -1.96247,13.48293 H 87.910494 Z"
         sodipodi:nodetypes="ccccc" />
    </g>
    <g
       id="g1460"
       transform="matrix(0.65983081,0,0,0.65983081,-41.366951,125.03759)"
       style="stroke-width:1.51554">
      <path
         id="path1454"
         style="opacity:1;fill:#000000;fill-opacity:1;stroke:none;stroke-width:0.403728"
         transform="matrix(1,0,-0.14403439,0.98957268,0,0)"
         d="m 89.580688,30.126492 h 22.043072 v 17.89331 H 89.580688 Z" />
      <path
         id="path1456"
         style="opacity:1;fill:#ffffff;fill-opacity:1;stroke:none;stroke-width:0.403797"
         transform="matrix(1,0,-0.14635637,0.98923193,0,0)"
         d="M 89.652161,28.338812 H 111.69523 V 30.13687 H 89.652161 Z" />
      <path
         id="path1458"
         style="opacity:1;fill:url(#linearGradient1462);fill-opacity:1;stroke:none;stroke-width:0.401618;stroke-opacity:1"
         d="m 90.196916,34.036154 h 16.472814 l -1.96247,13.48293 H 87.910494 Z"
         sodipodi:nodetypes="ccccc" />
    </g>
    <path
       id="path1456-4"
       style="fill:#ffffff;fill-opacity:1;stroke:none;stroke-width:0.265"
       d="M 49.269748,158.95734 H 63.81445 l -0.17364,1.17363 H 49.096108 Z" />
    <path
       id="path1492"
       style="fill:url(#linearGradient1500);fill-opacity:1;stroke:none;stroke-width:0.265"
       d="M 49.096108,160.13098 H 63.64081 l -0.17364,2.26954 H 48.922468 Z" />
    <path
       id="path1510"
       style="fill:#ffffff;fill-opacity:1;stroke:none;stroke-width:0.265"
       d="M 58.966948,90.644944 H 73.51166 l -0.17364,1.17364 H 58.793308 Z" />
    <path
       id="path1512"
       style="fill:url(#linearGradient1514);fill-opacity:1;stroke:none;stroke-width:0.265"
       d="M 58.793308,91.818584 H 73.33802 l -0.17364,2.26954 H 58.619668 Z" />
    <path
       id="path1533"
       style="opacity:1;fill:#55d400;fill-opacity:1;stroke-width:0.265001"
       d="m 501.579,57.580463 -0.006,5.19e-4 c 0.012,0.02591 0.0242,0.05148 0.0362,0.07751 -0.004,-0.01047 -0.03,-0.07803 -0.03,-0.07803 z m 8.56589,46.157907 c -0.032,6.03631 -0.40751,12.60928 -1.24023,19.75073 -6.16916,52.90642 -33.29826,80.66278 -33.29826,80.66278 H 150.08389 v 20.59874 H 475.6064 c 0,0 27.1291,-27.75636 33.29826,-80.66278 1.76594,-15.1447 1.91908,-28.70396 1.24023,-40.34947 z"
       sodipodi:nodetypes="ccccccsccccsc" />
    <path
       id="path1518"
       style="opacity:1;fill:#99ff55;fill-opacity:1;stroke-width:1.00158"
       d="m 645.53711,183.71484 -78.29102,587.88282 1231.28631,0 c 0,0 102.5351,-104.90592 125.8516,-304.86719 23.3164,-199.96129 -47.5606,-283.01563 -47.5606,-283.01563 z"
       sodipodi:nodetypes="cccscc"
       transform="scale(0.26458333)" />
    <path
       id="path1524"
       style="opacity:0.58709677;fill:#55d400;fill-opacity:1;stroke-width:0.265001"
       d="M 147.41532,48.607884 126.7008,204.15188 h 23.38309 L 170.79841,48.607884 Z" />
    <rect
       style="opacity:0.587097;fill:#55d400;fill-opacity:1;stroke:none;stroke-width:0.265"
       id="rect1535"
       width="23.382887"
       height="39.746872"
       x="126.701"
       y="204.15187" />
    <path
       id="rect1563"
       style="opacity:0.587097;fill:#668000;fill-opacity:1;stroke:none;stroke-width:0.264999"
       d="m 150.08386,204.15186 h 325.77783 c 0,0 0.9034,6.85307 0.9034,10.29937 0,3.4463 -0.9034,10.29937 -0.9034,10.29937 H 150.08386 Z"
       sodipodi:nodetypes="ccsccc" />
    <path
       id="rect1565"
       style="opacity:1;fill:#668000;fill-opacity:1;stroke:none;stroke-width:0.264998"
       d="m 150.08388,224.57761 325.77802,0 c 0,0 0.99375,6.431 0.99375,9.67197 0,3.24096 -0.99375,9.67196 -0.99375,9.67196 l -325.77802,0 z"
       sodipodi:nodetypes="ccsccc" />
  </g>
</svg>
