<?xml version="1.0" encoding="UTF-8" standalone="no"?>
<svg
   xmlns:dc="http://purl.org/dc/elements/1.1/"
   xmlns:cc="http://creativecommons.org/ns#"
   xmlns:rdf="http://www.w3.org/1999/02/22-rdf-syntax-ns#"
   xmlns:svg="http://www.w3.org/2000/svg"
   xmlns="http://www.w3.org/2000/svg"
   xmlns:xlink="http://www.w3.org/1999/xlink"
   xmlns:sodipodi="http://sodipodi.sourceforge.net/DTD/sodipodi-0.dtd"
   xmlns:inkscape="http://www.inkscape.org/namespaces/inkscape"
   width="1920"
   height="1080"
   viewBox="0 0 508 285.75"
   version="1.1"
   id="svg8"
   inkscape:version="1.0.2-2 (e86c870879, 2021-01-15)"
   sodipodi:docname="christmas-bowl.svg">
  <defs
     id="defs2">
    <linearGradient
       inkscape:collect="always"
       id="linearGradient868">
      <stop
         style="stop-color:#d5e5ff;stop-opacity:1"
         offset="0"
         id="stop864" />
      <stop
         style="stop-color:#aaccff;stop-opacity:1"
         offset="1"
         id="stop866" />
    </linearGradient>
    <linearGradient
       inkscape:collect="always"
       id="linearGradient844">
      <stop
         style="stop-color:#d5e5ff;stop-opacity:1"
         offset="0"
         id="stop840" />
      <stop
         style="stop-color:#5599ff;stop-opacity:1"
         offset="1"
         id="stop842" />
    </linearGradient>
    <radialGradient
       inkscape:collect="always"
       xlink:href="#linearGradient844"
       id="radialGradient848"
       cx="250.45317"
       cy="142.11465"
       fx="250.45317"
       fy="142.11465"
       r="130.64351"
       gradientUnits="userSpaceOnUse"
       gradientTransform="matrix(1.3512193,0.00978573,-0.01027106,1.4182339,-86.504321,-61.888038)" />
    <radialGradient
       inkscape:collect="always"
       xlink:href="#linearGradient868"
       id="radialGradient870"
       cx="250.45317"
       cy="138.29092"
       fx="250.45317"
       fy="138.29092"
       r="99.416527"
       gradientUnits="userSpaceOnUse"
       gradientTransform="matrix(1.2548232,0.01990181,-0.01942045,1.2244738,-61.135612,-36.027156)" />
    <filter
       inkscape:collect="always"
       style="color-interpolation-filters:sRGB"
       id="filter1302"
       x="-0.018120983"
       width="1.036242"
       y="-0.019932401"
       height="1.0398648">
      <feGaussianBlur
         inkscape:collect="always"
         stdDeviation="0.80550056"
         id="feGaussianBlur1304" />
    </filter>
    <filter
       inkscape:collect="always"
       style="color-interpolation-filters:sRGB"
       id="filter1386"
       x="-0.031002203"
       width="1.0620044"
       y="-0.01981181"
       height="1.0396236">
      <feGaussianBlur
         inkscape:collect="always"
         stdDeviation="1.2711262"
         id="feGaussianBlur1388" />
    </filter>
  </defs>
  <sodipodi:namedview
     id="base"
     pagecolor="#ffffff"
     bordercolor="#666666"
     borderopacity="1.0"
     inkscape:pageopacity="0.0"
     inkscape:pageshadow="2"
     inkscape:zoom="1.1742849"
     inkscape:cx="840.15685"
     inkscape:cy="493.31554"
     inkscape:document-units="mm"
     inkscape:current-layer="layer1"
     inkscape:document-rotation="0"
     showgrid="false"
     inkscape:window-width="1920"
     inkscape:window-height="1017"
     inkscape:window-x="1077"
     inkscape:window-y="817"
     inkscape:window-maximized="1"
     units="px"
     inkscape:showpageshadow="false"
     inkscape:snap-global="true"
     inkscape:snap-bbox="true"
     inkscape:snap-midpoints="true"
     inkscape:snap-object-midpoints="true"
     inkscape:bbox-paths="true"
     inkscape:bbox-nodes="true"
     inkscape:snap-bbox-edge-midpoints="true"
     inkscape:snap-bbox-midpoints="true"
     inkscape:object-paths="true"
     inkscape:snap-intersection-paths="true"
     inkscape:snap-smooth-nodes="true"
     inkscape:snap-center="true" />
  <metadata
     id="metadata5">
    <rdf:RDF>
      <cc:Work
         rdf:about="">
        <dc:format>image/svg+xml</dc:format>
        <dc:type
           rdf:resource="http://purl.org/dc/dcmitype/StillImage" />
        <dc:title></dc:title>
      </cc:Work>
    </rdf:RDF>
  </metadata>
  <g
     inkscape:label="Layer 1"
     inkscape:groupmode="layer"
     id="layer1">
    <rect
       style="opacity:1;fill:url(#radialGradient848);fill-opacity:1;stroke-width:0.765"
       id="rect838"
       width="261.28702"
       height="261.28702"
       x="119.80966"
       y="11.471137" />
    <circle
       style="opacity:1;fill:#d5e5ff;stroke-width:0.765"
       id="path850"
       cx="250.45317"
       cy="142.11464"
       r="106.42667" />
    <circle
       style="opacity:1;fill:url(#radialGradient870);fill-opacity:1;stroke-width:0.765"
       id="circle852"
       cx="250.45317"
       cy="138.29092"
       r="99.416527" />
    <path
       id="path880"
       style="opacity:1;fill:#ffffff;stroke-width:0.765"
       d="m 250.45293,191.29474 a 130.00622,83.484388 0 0 0 -71.8473,13.90716 99.416525,99.416525 0 0 0 71.8473,30.70304 99.416525,99.416525 0 0 0 71.8478,-30.70252 130.00622,83.484388 0 0 0 -71.8478,-13.90768 z" />
    <path
       style="opacity:0.141935;fill:#ffffff;stroke:none;stroke-width:0.264583px;stroke-linecap:butt;stroke-linejoin:miter;stroke-opacity:1;filter:url(#filter1386)"
       d="m 179.12497,197.37543 c 0,0 -2.94558,-39.72942 2.00608,-58.65573 3.97428,-15.19056 10.71402,-30.56906 21.65192,-41.834499 12.38889,-12.759859 38.32837,-17.690671 46.64009,-25.911159 5.26506,-5.207267 9.72745,-12.632157 6.8192,-18.539833 -4.07604,-8.279875 -17.44067,-10.397233 -26.42155,-8.272582 -29.7725,7.043424 -57.2201,34.461693 -66.01712,63.763983 -3.58397,11.93796 -6.76513,31.9802 -3.99041,47.68886 2.66772,15.10288 19.31179,41.76096 19.31179,41.76096 z"
       id="path885"
       sodipodi:nodetypes="caasaasac" />
    <ellipse
       style="opacity:0.225806;fill:#ffffff;stroke:none;stroke-width:0.613374;filter:url(#filter1302)"
       id="path887"
       cx="111.69944"
       cy="215.67136"
       rx="57.992973"
       ry="42.538803"
       transform="matrix(0.9789852,-0.78321291,0.82660887,0.9275896,-64.045427,-9.9311953)" />
    <path
       id="circle1141"
       style="opacity:0.2;fill:#ffffff;fill-opacity:1;stroke-width:0.765"
       d="m 253.57692,45.54272 a 92.748427,92.748427 0 0 0 -4.71835,0.121975 92.748427,92.748427 0 0 1 87.99357,92.626105 92.748427,92.748427 0 0 1 -87.99213,92.62611 92.748427,92.748427 0 0 0 4.75596,0.12245 92.748427,92.748427 0 0 0 92.74856,-92.74856 92.748427,92.748427 0 0 0 -92.74856,-92.74808 92.748427,92.748427 0 0 0 -0.0391,0 z" />
    <path
       id="rect1399"
       style="opacity:1;fill:#c87137;fill-opacity:1;stroke:none;stroke-width:0.765"
       d="m 257.30884,120.36593 -29.50983,35.48569 4.96921,4.09019 3.36155,-4.08399 v -0.56379 l 21.17907,-25.72504 21.17959,25.72504 v 0.56379 l 3.36156,4.08399 4.96919,-4.09019 z"
       sodipodi:nodetypes="ccccccccccc" />
    <path
       id="rect1392"
       style="opacity:1;fill:#deaa87;stroke:none;stroke-width:0.765"
       d="m 257.30884,129.56899 -21.17907,25.72504 v 43.56065 h 42.35866 v -43.56065 z" />
    <path
       id="path1412"
       style="opacity:0.393548;fill:#000000;stroke:none;stroke-width:0.765"
       d="m 257.30884,129.56899 -21.17907,25.72504 v 1.5875 l 21.17907,-25.72504 21.17959,25.72504 v -1.5875 z" />
  </g>
</svg>
