<?xml version="1.0" encoding="UTF-8" standalone="no"?>
<svg
   xmlns:dc="http://purl.org/dc/elements/1.1/"
   xmlns:cc="http://creativecommons.org/ns#"
   xmlns:rdf="http://www.w3.org/1999/02/22-rdf-syntax-ns#"
   xmlns:svg="http://www.w3.org/2000/svg"
   xmlns="http://www.w3.org/2000/svg"
   xmlns:xlink="http://www.w3.org/1999/xlink"
   xmlns:sodipodi="http://sodipodi.sourceforge.net/DTD/sodipodi-0.dtd"
   xmlns:inkscape="http://www.inkscape.org/namespaces/inkscape"
   width="1920"
   height="1080"
   viewBox="0 0 508 285.75"
   version="1.1"
   id="svg8"
   inkscape:version="1.0.2-2 (e86c870879, 2021-01-15)"
   sodipodi:docname="christmas-bowl.svg">
  <defs
     id="defs2">
    <linearGradient
       inkscape:collect="always"
       id="linearGradient1867">
      <stop
         style="stop-color:#a05a2c;stop-opacity:1;"
         offset="0"
         id="stop1863" />
      <stop
         style="stop-color:#a05a2c;stop-opacity:0;"
         offset="1"
         id="stop1865" />
    </linearGradient>
    <linearGradient
       inkscape:collect="always"
       id="linearGradient1859">
      <stop
         style="stop-color:#784421;stop-opacity:1"
         offset="0"
         id="stop1855" />
      <stop
         style="stop-color:#502d16;stop-opacity:1"
         offset="1"
         id="stop1857" />
    </linearGradient>
    <linearGradient
       inkscape:collect="always"
       id="linearGradient1638">
      <stop
         style="stop-color:#999999;stop-opacity:1"
         offset="0"
         id="stop1634" />
      <stop
         style="stop-color:#4d4d4d;stop-opacity:1"
         offset="1"
         id="stop1636" />
    </linearGradient>
    <linearGradient
       inkscape:collect="always"
       id="linearGradient1628">
      <stop
         style="stop-color:#999999;stop-opacity:1"
         offset="0"
         id="stop1624" />
      <stop
         style="stop-color:#4d4d4d;stop-opacity:1"
         offset="1"
         id="stop1626" />
    </linearGradient>
    <linearGradient
       inkscape:collect="always"
       id="linearGradient868">
      <stop
         style="stop-color:#d5e5ff;stop-opacity:1"
         offset="0"
         id="stop864" />
      <stop
         style="stop-color:#aaccff;stop-opacity:1"
         offset="1"
         id="stop866" />
    </linearGradient>
    <linearGradient
       inkscape:collect="always"
       id="linearGradient844">
      <stop
         style="stop-color:#d5e5ff;stop-opacity:1"
         offset="0"
         id="stop840" />
      <stop
         style="stop-color:#5599ff;stop-opacity:1"
         offset="1"
         id="stop842" />
    </linearGradient>
    <radialGradient
       inkscape:collect="always"
       xlink:href="#linearGradient844"
       id="radialGradient848"
       cx="250.45317"
       cy="142.11465"
       fx="250.45317"
       fy="142.11465"
       r="130.64351"
       gradientUnits="userSpaceOnUse"
       gradientTransform="matrix(1.3512193,0.00978573,-0.01027106,1.4182339,-86.504321,-61.888038)" />
    <radialGradient
       inkscape:collect="always"
       xlink:href="#linearGradient868"
       id="radialGradient870"
       cx="250.45317"
       cy="138.29092"
       fx="250.45317"
       fy="138.29092"
       r="99.416527"
       gradientUnits="userSpaceOnUse"
       gradientTransform="matrix(1.2548232,0.01990181,-0.01942045,1.2244738,-61.135612,-36.027156)" />
    <filter
       inkscape:collect="always"
       style="color-interpolation-filters:sRGB"
       id="filter1302"
       x="-0.018120983"
       width="1.036242"
       y="-0.019932401"
       height="1.0398648">
      <feGaussianBlur
         inkscape:collect="always"
         stdDeviation="0.80550056"
         id="feGaussianBlur1304" />
    </filter>
    <filter
       inkscape:collect="always"
       style="color-interpolation-filters:sRGB"
       id="filter1386"
       x="-0.031002203"
       width="1.0620044"
       y="-0.01981181"
       height="1.0396236">
      <feGaussianBlur
         inkscape:collect="always"
         stdDeviation="1.2711262"
         id="feGaussianBlur1388" />
    </filter>
    <linearGradient
       inkscape:collect="always"
       xlink:href="#linearGradient1628"
       id="linearGradient1630"
       x1="248.35284"
       y1="192.41852"
       x2="248.35284"
       y2="195.03128"
       gradientUnits="userSpaceOnUse" />
    <linearGradient
       inkscape:collect="always"
       xlink:href="#linearGradient1638"
       id="linearGradient1632"
       x1="248.35284"
       y1="195.03128"
       x2="248.35284"
       y2="197.64404"
       gradientUnits="userSpaceOnUse" />
    <radialGradient
       inkscape:collect="always"
       xlink:href="#linearGradient1859"
       id="radialGradient1861"
       cx="251.46992"
       cy="180.33008"
       fx="251.46992"
       fy="180.33008"
       r="0.71106768"
       gradientUnits="userSpaceOnUse" />
    <radialGradient
       inkscape:collect="always"
       xlink:href="#linearGradient1867"
       id="radialGradient1869"
       cx="248.35284"
       cy="180.42736"
       fx="248.35284"
       fy="180.42736"
       r="5.1452317"
       gradientTransform="matrix(1,0,0,2.3305383,0,-240.06551)"
       gradientUnits="userSpaceOnUse" />
  </defs>
  <sodipodi:namedview
     id="base"
     pagecolor="#ffffff"
     bordercolor="#666666"
     borderopacity="1.0"
     inkscape:pageopacity="0.0"
     inkscape:pageshadow="2"
     inkscape:zoom="16"
     inkscape:cx="920.3686"
     inkscape:cy="682.92582"
     inkscape:document-units="mm"
     inkscape:current-layer="layer1"
     inkscape:document-rotation="0"
     showgrid="false"
     inkscape:window-width="1920"
     inkscape:window-height="1017"
     inkscape:window-x="1077"
     inkscape:window-y="817"
     inkscape:window-maximized="1"
     units="px"
     inkscape:showpageshadow="false"
     inkscape:snap-global="false"
     inkscape:snap-bbox="true"
     inkscape:snap-midpoints="true"
     inkscape:snap-object-midpoints="true"
     inkscape:bbox-paths="true"
     inkscape:bbox-nodes="true"
     inkscape:snap-bbox-edge-midpoints="true"
     inkscape:snap-bbox-midpoints="true"
     inkscape:object-paths="true"
     inkscape:snap-intersection-paths="true"
     inkscape:snap-smooth-nodes="true"
     inkscape:snap-center="true" />
  <metadata
     id="metadata5">
    <rdf:RDF>
      <cc:Work
         rdf:about="">
        <dc:format>image/svg+xml</dc:format>
        <dc:type
           rdf:resource="http://purl.org/dc/dcmitype/StillImage" />
        <dc:title></dc:title>
      </cc:Work>
    </rdf:RDF>
  </metadata>
  <g
     inkscape:label="Layer 1"
     inkscape:groupmode="layer"
     id="layer1">
    <rect
       style="opacity:1;fill:url(#radialGradient848);fill-opacity:1;stroke-width:0.765"
       id="rect838"
       width="261.28702"
       height="261.28702"
       x="119.80966"
       y="11.471137"
       sodipodi:insensitive="true" />
    <circle
       style="opacity:1;fill:#d5e5ff;stroke-width:0.765"
       id="path850"
       cx="250.45317"
       cy="142.11464"
       r="106.42667" />
    <circle
       style="opacity:1;fill:url(#radialGradient870);fill-opacity:1;stroke-width:0.765"
       id="circle852"
       cx="250.45317"
       cy="138.29092"
       r="99.416527" />
    <path
       id="path880"
       style="opacity:1;fill:#ffffff;stroke-width:0.765"
       d="m 250.45293,191.29474 a 130.00622,83.484388 0 0 0 -71.8473,13.90716 99.416525,99.416525 0 0 0 71.8473,30.70304 99.416525,99.416525 0 0 0 71.8478,-30.70252 130.00622,83.484388 0 0 0 -71.8478,-13.90768 z" />
    <path
       style="opacity:0.141935;fill:#ffffff;stroke:none;stroke-width:0.264583px;stroke-linecap:butt;stroke-linejoin:miter;stroke-opacity:1;filter:url(#filter1386)"
       d="m 179.12497,197.37543 c 0,0 -2.94558,-39.72942 2.00608,-58.65573 3.97428,-15.19056 10.71402,-30.56906 21.65192,-41.834499 12.38889,-12.759859 38.32837,-17.690671 46.64009,-25.911159 5.26506,-5.207267 9.72745,-12.632157 6.8192,-18.539833 -4.07604,-8.279875 -17.44067,-10.397233 -26.42155,-8.272582 -29.7725,7.043424 -57.2201,34.461693 -66.01712,63.763983 -3.58397,11.93796 -6.76513,31.9802 -3.99041,47.68886 2.66772,15.10288 19.31179,41.76096 19.31179,41.76096 z"
       id="path885"
       sodipodi:nodetypes="caasaasac" />
    <ellipse
       style="opacity:0.225806;fill:#ffffff;stroke:none;stroke-width:0.613374;filter:url(#filter1302)"
       id="path887"
       cx="111.69944"
       cy="215.67136"
       rx="57.992973"
       ry="42.538803"
       transform="matrix(0.9789852,-0.78321291,0.82660887,0.9275896,-64.045427,-9.9311953)" />
    <path
       id="circle1141"
       style="opacity:0.2;fill:#ffffff;fill-opacity:1;stroke-width:0.765"
       d="m 253.57692,45.54272 a 92.748427,92.748427 0 0 0 -4.71835,0.121975 92.748427,92.748427 0 0 1 87.99357,92.626105 92.748427,92.748427 0 0 1 -87.99213,92.62611 92.748427,92.748427 0 0 0 4.75596,0.12245 92.748427,92.748427 0 0 0 92.74856,-92.74856 92.748427,92.748427 0 0 0 -92.74856,-92.74808 92.748427,92.748427 0 0 0 -0.0391,0 z" />
    <path
       id="rect1399"
       style="opacity:1;fill:#c87137;fill-opacity:1;stroke:none;stroke-width:0.765"
       d="m 257.30884,120.36593 -29.50983,35.48569 4.96921,4.09019 3.36155,-4.08399 v -0.56379 l 21.17907,-25.72504 21.17959,25.72504 v 0.56379 l 3.36156,4.08399 4.96919,-4.09019 z"
       sodipodi:nodetypes="ccccccccccc" />
    <path
       id="rect1392"
       style="opacity:1;fill:#deaa87;stroke:none;stroke-width:0.765"
       d="m 257.52553,129.60882 -21.17907,25.72504 v 43.56065 h 42.35866 v -43.56065 z" />
    <path
       id="path1412"
       style="opacity:0.393548;fill:#000000;stroke:none;stroke-width:0.765"
       d="m 257.30884,129.56899 -21.17907,25.72504 v 1.5875 l 21.17907,-25.72504 21.17959,25.72504 v -1.5875 z" />
    <g
       id="g1736"
       transform="matrix(0.72545189,0,0,0.72545189,70.522022,42.221361)"
       style="stroke-width:1.37845">
      <circle
         style="opacity:1;fill:#e9c6af;fill-opacity:1;stroke:none;stroke-width:1.05452"
         id="path1420"
         cx="256.86584"
         cy="153.78494"
         r="6.5720057" />
      <g
         id="g1486"
         transform="translate(0,-0.37838822)"
         style="stroke-width:1.37845">
        <circle
           style="opacity:1;fill:#6c5d53;fill-opacity:1;stroke:none;stroke-width:1.05452"
           id="circle1422"
           cx="256.86584"
           cy="153.9649"
           r="4.8991313" />
        <path
           id="circle1424"
           style="opacity:0.335484;fill:#000000;fill-opacity:1;stroke:none;stroke-width:1.05452"
           d="m 256.82928,149.06577 a 4.8991313,4.8991313 0 0 0 -4.86275,4.89893 4.8991313,4.8991313 0 0 0 0.004,0.17777 4.8991313,4.8991313 0 0 1 4.89583,-4.71858 4.8991313,4.8991313 0 0 1 4.89583,4.72064 4.8991313,4.8991313 0 0 0 0.003,-0.17983 4.8991313,4.8991313 0 0 0 -4.89893,-4.89893 4.8991313,4.8991313 0 0 0 -0.0367,0 z" />
        <path
           id="path1429"
           style="opacity:0.177419;fill:#ffffff;fill-opacity:1;stroke:none;stroke-width:1.05452"
           d="m 256.89906,158.86369 a 4.8991313,4.8991313 0 0 0 4.86275,-4.89893 4.8991313,4.8991313 0 0 0 -0.004,-0.17776 4.8991313,4.8991313 0 0 1 -4.89583,4.71857 4.8991313,4.8991313 0 0 1 -4.89582,-4.72064 4.8991313,4.8991313 0 0 0 -0.003,0.17983 4.8991313,4.8991313 0 0 0 4.89893,4.89893 4.8991313,4.8991313 0 0 0 0.0367,0 z" />
      </g>
      <path
         id="circle1431"
         style="opacity:0.0580645;fill:#ffffff;fill-opacity:1;stroke:none;stroke-width:3.98557"
         d="m 970.79102,556.39453 a 24.839077,24.839077 0 0 0 -24.79883,24.83985 24.839077,24.839077 0 0 0 0.01,0.67773 24.839077,24.839077 0 0 1 24.83008,-24.1582 24.839077,24.839077 0 0 1 24.82813,24.17382 24.839077,24.839077 0 0 0 0.01,-0.69335 24.839077,24.839077 0 0 0 -24.83789,-24.83985 24.839077,24.839077 0 0 0 -0.041,0 z"
         transform="scale(0.26458333)" />
      <path
         id="path1436"
         style="opacity:0.0580645;fill:#ffffff;fill-opacity:1;stroke:none;stroke-width:3.98557"
         d="m 970.79102,556.39453 a 24.839077,24.839077 0 0 0 -24.79883,24.83985 24.839077,24.839077 0 0 0 0.01,0.67773 24.839077,24.839077 0 0 1 24.83008,-24.1582 24.839077,24.839077 0 0 1 24.82813,24.17382 24.839077,24.839077 0 0 0 0.01,-0.69335 24.839077,24.839077 0 0 0 -24.83789,-24.83985 24.839077,24.839077 0 0 0 -0.041,0 z"
         transform="scale(0.26458333)" />
      <path
         id="circle1438"
         style="opacity:0.435484;fill:#000000;fill-opacity:1;stroke:none;stroke-width:3.98557"
         d="m 946.00391,580.48242 a 24.839077,24.839077 0 0 0 -0.0117,0.75196 24.839077,24.839077 0 0 0 24.83984,24.83984 24.839077,24.839077 0 0 0 24.83789,-24.83984 24.839077,24.839077 0 0 0 -0.0117,-0.73047 24.839077,24.839077 0 0 1 -24.82617,24.08007 24.839077,24.839077 0 0 1 -24.82812,-24.10156 z"
         transform="scale(0.26458333)" />
    </g>
    <rect
       style="opacity:1;fill:#e9c6af;fill-opacity:1;stroke:none;stroke-width:0.765"
       id="rect1488"
       width="14.08215"
       height="26.023815"
       x="241.31088"
       y="166.3947" />
    <rect
       style="opacity:1;fill:url(#radialGradient1869);fill-opacity:1;stroke:none;stroke-width:0.765"
       id="rect1490"
       width="10.290463"
       height="23.982319"
       x="243.20761"
       y="168.4362" />
    <path
       id="rect1492"
       style="opacity:0.141935;fill:#ffffff;fill-opacity:1;stroke:none;stroke-width:0.765003"
       d="m 240.9259,166.0947 h 14.46624 v 0.3 h -14.08037 z"
       sodipodi:nodetypes="ccccc" />
    <rect
       style="opacity:0.141935;fill:#ffffff;fill-opacity:1;stroke:none;stroke-width:0.765002"
       id="rect1606"
       width="0.40000001"
       height="26.324266"
       x="255.39392"
       y="166.09425"
       ry="0"
       rx="0" />
    <path
       id="rect1608"
       style="opacity:0.067742;fill:#000000;fill-opacity:1;stroke:none;stroke-width:0.764996"
       d="m 240.91177,166.09653 0.4,0.29817 v 26.02381 h -0.4 z"
       sodipodi:nodetypes="ccccc" />
    <path
       id="rect1612"
       style="opacity:0.2;fill:#ffffff;fill-opacity:1;stroke:none;stroke-width:0.764999"
       d="m 243.2076,168.43106 0.4,0.40514 v 23.58232 h -0.4 z"
       sodipodi:nodetypes="ccccc" />
    <path
       id="rect1615"
       style="opacity:0.151613;fill:#000000;fill-opacity:1;stroke:none;stroke-width:0.765"
       d="m 243.21267,168.4362 h 10.28539 v 0.4 h -9.89047 z"
       sodipodi:nodetypes="ccccc" />
    <rect
       style="opacity:0.2;fill:#000000;fill-opacity:1;stroke:none;stroke-width:0.765001"
       id="rect1618"
       width="0.40000001"
       height="23.582325"
       x="253.09805"
       y="168.8362" />
    <rect
       style="opacity:1;fill:url(#linearGradient1630);fill-opacity:1;stroke:none;stroke-width:0.765"
       id="rect1620"
       width="18.785416"
       height="2.6127603"
       x="238.96013"
       y="192.41852" />
    <rect
       style="opacity:1;fill:url(#linearGradient1632);fill-opacity:1;stroke:none;stroke-width:0.765"
       id="rect1622"
       width="22.158854"
       height="2.6127603"
       x="237.27342"
       y="195.03128" />
    <g
       id="g1761"
       transform="translate(0,0.91205726)">
      <circle
         style="opacity:1;fill:url(#radialGradient1861);fill-opacity:1;stroke:none;stroke-width:0.765"
         id="path1738"
         cx="251.46992"
         cy="180.33008"
         r="0.71106768" />
      <path
         id="circle1748"
         style="opacity:0.0516129;fill:#000000;fill-opacity:1;stroke:none;stroke-width:2.89134"
         d="m 953.11523,681.34375 a 2.6874999,2.6874999 0 0 1 -2.67773,2.46875 2.6874999,2.6874999 0 0 1 -2.67773,-2.46484 2.6874999,2.6874999 0 0 0 -0.01,0.21484 2.6874999,2.6874999 0 0 0 2.6875,2.6875 2.6874999,2.6874999 0 0 0 2.6875,-2.6875 2.6874999,2.6874999 0 0 0 -0.01,-0.21875 z"
         transform="scale(0.26458333)" />
      <path
         id="circle1753"
         style="opacity:0.174194;fill:#ffffff;fill-opacity:1;stroke:none;stroke-width:2.89134"
         d="m 950.4375,678.875 a 2.6874999,2.6874999 0 0 0 -2.6875,2.6875 2.6874999,2.6874999 0 0 0 0.004,0.11133 2.6874999,2.6874999 0 0 1 2.68359,-2.54883 2.6874999,2.6874999 0 0 1 2.68359,2.57031 2.6874999,2.6874999 0 0 0 0.004,-0.13281 2.6874999,2.6874999 0 0 0 -2.6875,-2.6875 z"
         transform="scale(0.26458333)" />
    </g>
  </g>
</svg>
