<?xml version="1.0" encoding="UTF-8" standalone="no"?>
<svg
   xmlns:dc="http://purl.org/dc/elements/1.1/"
   xmlns:cc="http://creativecommons.org/ns#"
   xmlns:rdf="http://www.w3.org/1999/02/22-rdf-syntax-ns#"
   xmlns:svg="http://www.w3.org/2000/svg"
   xmlns="http://www.w3.org/2000/svg"
   xmlns:xlink="http://www.w3.org/1999/xlink"
   xmlns:sodipodi="http://sodipodi.sourceforge.net/DTD/sodipodi-0.dtd"
   xmlns:inkscape="http://www.inkscape.org/namespaces/inkscape"
   width="1920"
   height="1080"
   viewBox="0 0 508 285.75"
   version="1.1"
   id="svg8"
   inkscape:version="1.0.2-2 (e86c870879, 2021-01-15)"
   sodipodi:docname="window.svg">
  <defs
     id="defs2">
    <linearGradient
       inkscape:collect="always"
       id="linearGradient1064">
      <stop
         style="stop-color:#666666;stop-opacity:1"
         offset="0"
         id="stop1060" />
      <stop
         style="stop-color:#ffffff;stop-opacity:1"
         offset="1"
         id="stop1062" />
    </linearGradient>
    <linearGradient
       inkscape:collect="always"
       xlink:href="#linearGradient1064"
       id="linearGradient1066"
       x1="123.08302"
       y1="20.683153"
       x2="380.9488"
       y2="20.683153"
       gradientUnits="userSpaceOnUse"
       gradientTransform="translate(-7.6125382,1.669528)" />
    <linearGradient
       inkscape:collect="always"
       xlink:href="#linearGradient1064"
       id="linearGradient1074"
       x1="366.5369"
       y1="27.862825"
       x2="366.5369"
       y2="256.54727"
       gradientUnits="userSpaceOnUse"
       gradientTransform="translate(-7.6125382,1.669528)" />
    <linearGradient
       inkscape:collect="always"
       xlink:href="#linearGradient1064"
       id="linearGradient1094"
       gradientUnits="userSpaceOnUse"
       x1="137.49493"
       y1="256.54727"
       x2="137.49493"
       y2="27.862825"
       gradientTransform="translate(-7.6125382,1.669528)" />
  </defs>
  <sodipodi:namedview
     id="base"
     pagecolor="#ffffff"
     bordercolor="#666666"
     borderopacity="1.0"
     inkscape:pageopacity="0.0"
     inkscape:pageshadow="2"
     inkscape:zoom="0.77009633"
     inkscape:cx="1111.3565"
     inkscape:cy="580.50781"
     inkscape:document-units="mm"
     inkscape:current-layer="g1005"
     inkscape:document-rotation="0"
     showgrid="false"
     inkscape:window-width="1920"
     inkscape:window-height="1017"
     inkscape:window-x="1075"
     inkscape:window-y="817"
     inkscape:window-maximized="1"
     units="px"
     inkscape:showpageshadow="false"
     showborder="true"
     inkscape:snap-global="true"
     inkscape:snap-bbox="true"
     inkscape:snap-bbox-edge-midpoints="true"
     inkscape:snap-bbox-midpoints="true"
     inkscape:bbox-nodes="true"
     inkscape:bbox-paths="true" />
  <metadata
     id="metadata5">
    <rdf:RDF>
      <cc:Work
         rdf:about="">
        <dc:format>image/svg+xml</dc:format>
        <dc:type
           rdf:resource="http://purl.org/dc/dcmitype/StillImage" />
        <dc:title />
      </cc:Work>
    </rdf:RDF>
  </metadata>
  <g
     inkscape:label="Layer 1"
     inkscape:groupmode="layer"
     id="layer1">
    <g
       id="g1054"
       transform="translate(267.66511,24.16635)">
      <g
         id="g1005"
         transform="translate(-433.0955,6.4488666)">
        <rect
           style="opacity:1;fill:#9feeff;fill-opacity:1;stroke:none;stroke-width:1;stroke-miterlimit:4;stroke-dasharray:none;stroke-opacity:1"
           id="rect1014"
           width="257.86578"
           height="257.01489"
           x="296.12595"
           y="-18.913555" />
        <path
           id="path1035"
           style="fill:#005522;stroke:none;stroke-width:0.264583px;stroke-linecap:butt;stroke-linejoin:miter;stroke-opacity:1"
           d="m 535.46173,153.40981 c 0,0 -0.16695,0.16733 -4.34806,2.84324 -4.1811,2.67592 -1.33831,2.50865 -2.17453,3.67936 -0.83624,1.17071 -2.0066,1.17099 -2.0066,1.17099 0,0 -1.33815,1.33751 -6.18826,4.6824 -4.85007,3.34488 -3.34505,1.50561 -3.84677,2.67633 -0.50173,1.17071 -0.33454,2.00686 -0.50179,5.01726 -0.16727,3.0104 -1.8397,1.50533 -1.8397,1.50533 0,0 -0.83605,0.5014 -2.17403,2.0066 -1.33794,1.5052 -0.50146,1.00332 -1.17046,2.17403 -0.66897,1.17071 -0.66905,1.8401 -1.00354,2.67632 -0.33451,0.83622 -1.17086,1.83936 -3.34502,2.0066 -2.17418,0.16724 -3.6795,-0.33411 -5.18469,-1.50482 -1.50522,-1.17071 -2.00668,-2.00735 -3.01017,-2.67632 -1.00345,-0.66898 -2.3414,0.66911 -3.67934,1.50533 -1.33798,0.83622 -1.50511,1.50529 -2.67581,2.84324 -1.17071,1.33796 -0.54727,-4.38936 -1.71798,-3.72038 -1.17072,0.66897 -4.01386,-0.66897 -5.51905,-1.83968 -1.50521,-1.17071 -0.66921,-2.34146 -0.66921,-2.34146 -3.94481,-1.67135 -6.50899,-1.96878 -6.69157,-1.73943 -0.29567,0.23652 -0.4141,0.35506 -0.65061,0.62115 -0.23654,0.26608 -0.50245,0.4727 -1.3007,0.65009 -0.79824,0.17739 -0.91667,-0.0293 -1.21234,-0.2067 -0.29565,-0.17739 -0.62101,-0.47282 -0.79838,-0.62064 -0.17741,-0.14783 -1.27098,-0.50297 -1.62576,-0.73949 -0.35478,-0.23652 -0.53245,-0.591 -0.62114,-0.91622 -0.0887,-0.32521 -0.23656,-0.41401 -0.82785,-0.53227 -0.59132,-0.11826 -0.53203,0.32507 -0.73898,0.73897 -0.20696,0.41391 -0.29583,0.44336 -0.65061,0.59118 -0.35478,0.14784 -1.09379,0.0297 -1.56684,-0.17725 -0.473,-0.20695 -0.44318,-0.41397 -0.50228,-0.68006 -0.0591,-0.26608 -1.4785,0.50296 -1.89238,0.47336 -0.41389,-0.0296 -0.23678,-0.0296 -0.35502,-0.11834 -0.11827,-0.0887 -0.50242,-0.91664 -0.88678,-1.36012 -0.38433,-0.44347 -0.67993,-4e-5 -0.8573,0.14779 -0.17741,0.14782 -0.17733,0.3549 -0.44339,0.9462 -0.26609,0.59126 -0.65069,0.56186 -1.33067,0.53226 -0.68001,-0.0296 -0.85728,-0.2073 -1.0051,-0.32556 -0.14787,-0.11826 -0.11835,-0.23651 -0.11835,-0.56172 0,-0.32522 -2.63112,0.26605 -2.83808,0.14779 -0.20695,-0.11826 -0.29575,-0.26596 -0.53226,-0.59118 -0.23651,-0.32521 -0.20666,-0.41357 -0.35449,-0.65009 -0.14782,-0.2365 -0.70974,-0.14815 -1.21234,0.0884 -0.50261,0.23652 -0.73896,0.65061 -0.73896,0.65061 0,0 -0.73951,0.17717 -1.15342,0.0589 -0.41392,-0.11826 -0.53179,-0.29553 -0.79788,-0.59118 -0.26609,-0.29565 -0.35489,-0.35455 -0.38449,-0.62063 -0.0295,-0.26609 -0.0375,-0.55228 -0.26796,-0.68533 -5.40852,-3.12276 -4.3834,-1.05685 -5.88299,0.20868 -1.90068,1.60403 -0.92277,6.83292 -1.51406,7.30597 -0.59129,0.47303 -0.46645,1.16935 -0.82911,1.67643 -0.3173,0.44365 -1.12402,0.80573 -1.15362,1.16051 -0.0296,0.35477 -1.09371,-8.16006 -1.74413,-7.62789 -0.65043,0.53217 -0.70932,0.11818 -1.74408,-0.11834 -1.03479,-0.23653 -0.68003,-0.1774 -0.82786,-0.1478 -0.14782,0.0296 -0.38428,0.17758 -1.41904,0.23668 -1.03478,0.0591 -0.44386,-0.11841 -1.15342,-0.7984 -0.70953,-0.67999 -0.79827,-0.59132 -1.38957,-0.56172 -0.59129,0.0296 -0.23651,0.0296 -1.12344,-0.29559 -0.88697,-0.32522 -0.56137,-0.82807 -0.53176,-1.33067 0.0295,-0.50261 -0.0297,-0.56185 -0.38447,-0.9462 -0.35478,-0.38433 -0.73943,-0.0591 -1.03507,-0.14779 -0.29565,-0.0887 -0.41392,-0.20656 -0.56174,-0.38395 -0.14782,-0.17739 -0.23654,-0.14788 -0.26612,-0.26614 -0.0296,-0.11826 -0.0588,-0.44346 -0.0884,-0.56172 -0.0296,-0.11826 -0.37194,-0.39655 -0.69717,-0.75133 -0.32523,-0.35475 -0.47334,-0.0594 -0.47334,-0.0594 -3e-5,0 -0.13041,0.6631 -0.21908,1.04744 -0.0887,0.38435 -0.11851,0.38387 -0.20722,0.82734 -0.0887,0.44347 3.4e-4,0.4143 0.0594,0.59169 0.0591,0.17739 0.17743,0.65002 0.41394,1.5074 0.23651,0.85741 -0.14812,0.79848 -0.20722,0.91674 -0.0591,0.11826 -0.473,0.68019 -0.44339,1.06454 0.0296,0.38434 0.0886,0.23631 0.44339,1.03456 0.35478,0.79825 -0.1183,0.53199 -0.26615,0.88677 -0.14782,0.35481 -0.62087,0.35516 -0.97565,0.32556 -0.35478,-0.0296 -0.3253,-0.0889 -1.09397,-0.76895 -0.7687,-0.67999 -0.23614,-0.35448 -0.38396,-0.91622 -0.14783,-0.56177 0.0588,-0.23662 0.35448,-0.53227 0.29562,-0.29565 1.6e-4,-0.35507 -0.0294,-0.62115 -0.0296,-0.26608 -0.29559,-0.65011 -0.29559,-1.06402 0,-0.41391 0.14767,-0.29564 0.17725,-0.56172 0.0296,-0.26608 0.20722,-1.00519 0.20722,-1.12344 0,-0.11826 -0.0887,-0.26631 -0.11832,-1.47847 -0.0296,-1.21216 -0.0172,-0.36704 -0.13544,-1.01746 -0.11827,-0.65043 -0.17782,-0.56177 -0.44392,-0.82785 -0.26606,-0.26609 -0.14758,0.0296 -0.62063,0.26613 -0.47305,0.23652 -0.24895,0.42643 -0.13071,1.22468 0.11824,0.79825 3.2e-4,0.62076 -0.0884,1.00511 -0.0887,0.38434 -0.26641,0.26615 -0.47337,0.68006 -0.20698,0.41391 3.5e-4,0.2361 0.0594,0.53175 0.0591,0.29565 0.0883,0.23681 0.23617,0.62115 0.14782,0.38434 -0.0591,0.56174 -0.41391,0.97565 -0.35478,0.41391 -0.29546,0.17725 -0.47284,0.17725 -0.1774,0 -0.14811,3.4e-4 -1.18287,-0.65009 -1.03479,-0.65042 -0.29546,-0.50278 -0.32507,-0.6506 -0.0296,-0.14783 1.9e-4,-0.41387 0.0889,-0.70952 0.0887,-0.29565 0.0592,-0.32551 -0.0295,-0.62115 -0.0887,-0.29565 -0.17772,-0.35452 -0.32554,-0.76843 -0.1478,-0.41391 -0.047,-0.54434 0.0712,-0.89912 0.11826,-0.35477 0.38438,-0.7394 0.26614,-1.18287 -0.11827,-0.44348 -0.65019,-0.59116 -0.76843,-0.73898 -0.11827,-0.14783 -0.62098,0.23648 -0.9462,0.70952 -0.32525,0.47304 -0.29559,0.85731 -0.29559,0.85731 0,0 -0.0416,0.39665 -0.10071,0.72187 -0.0591,0.32521 -0.1778,0.17719 -0.59172,0.47284 -0.41391,0.29565 -0.23648,0.32561 -0.29559,0.5917 -0.0592,0.26608 3.4e-4,0.44324 0.0594,0.62063 0.0591,0.17739 0.29559,0.97586 0.29559,1.47846 0,0.50262 -0.26628,0.65036 -0.50281,0.85732 -0.23651,0.20695 -0.47318,0.2363 -0.79838,0.2067 -0.32523,-0.0296 -0.50221,-0.0591 -0.9457,-0.41393 -0.44347,-0.35478 -0.47303,-0.59115 -0.56171,-0.73897 -0.0887,-0.14782 -0.53224,-0.67992 -0.68006,-0.85731 -0.14783,-0.17739 -0.23649,-0.35488 -0.2956,-0.53227 -0.0591,-0.17739 -0.0889,-0.26613 -0.0889,-0.26613 l -0.23669,-0.65009 c 0,0 -0.2657,-0.11838 -0.38394,-0.38447 -0.11832,-0.26608 -0.0471,-0.4558 -0.0471,-0.72188 0,-0.26607 0.0889,-0.41392 0.0889,-0.97565 0,-0.56174 -0.17751,-0.9163 -0.53229,-1.03456 -0.35472,-0.11826 -0.18257,1.98211 -0.38446,0.23616 -0.0245,-0.21178 -0.38447,0.7099 -0.38447,0.88729 0,0.17739 0.0294,0.38395 0.0294,0.38395 0,0 -0.27806,0.60381 -0.3963,0.81076 -0.11827,0.20692 -0.23643,0.23668 -0.44339,0.23668 -0.20696,0 -0.20688,-0.0889 -0.29559,-0.23668 -0.0887,-0.14782 -0.0765,-0.36713 -0.0765,-0.57408 0,-0.20696 -0.0889,-0.50248 -0.20722,-0.59118 -0.11824,-0.0887 -0.0588,0.0295 -0.35449,0.29559 -0.29565,0.26608 -0.30785,0.24869 -0.75132,0.89912 -0.44346,0.65043 -0.20709,0.4733 -0.38449,0.76895 -0.17735,0.29568 -0.14811,0.20667 -0.20722,0.3545 -0.0591,0.14782 -0.44344,0.32523 -0.70951,0.41393 -0.26609,0.0887 -0.38401,1.9e-4 -0.65008,-0.0589 -0.26609,-0.0591 -0.44355,-0.11862 -0.68008,-0.32557 -0.23651,-0.20694 -0.20293,-0.14041 -0.35075,-0.37693 -0.14783,-0.23653 -0.0326,-0.20181 -0.23961,-0.23141 -0.20693,-0.0296 -0.0923,0.205 -0.18059,0.19576 -0.10048,-0.0105 -0.33629,-0.29754 -0.39537,-0.56363 -0.0591,-0.26608 -0.0298,-0.23672 -0.0889,-0.50281 -0.0591,-0.26608 -0.16902,-0.19652 -0.26232,-0.15597 -0.60444,0.26271 -0.18409,1.72497 -0.42058,1.93193 -0.23651,0.20695 1.55323,4.85252 -0.16111,5.5497 -0.10163,0.0413 -0.23646,-0.22895 -0.23646,-0.22895 0,0 -0.17733,-0.32532 -0.2956,-0.53227 -0.11827,-0.20696 -0.0591,-0.14803 -0.56173,-0.50281 -0.50258,-0.35481 -0.26599,0.0298 -0.44337,0.0594 -0.1774,0.0296 -0.56173,0.38395 -0.56173,0.38395 l -0.0889,0.23668 c 0,0 -0.0298,0.11804 -0.35502,1.03456 -0.32522,0.91651 -0.26606,0.0594 -0.56173,0.20723 -0.29565,0.14783 -0.38434,0.35463 -0.56171,0.73897 -0.17735,0.38435 -0.0589,0.2364 -0.0589,0.59118 0,0.35478 -0.0298,0.26615 -0.0889,0.68006 -0.0591,0.4139 -0.26588,0.41389 -0.47284,0.56172 -0.20695,0.14782 -0.5915,3.4e-4 -1.06455,-0.0884 -0.47302,-0.0887 -0.53207,-0.23685 -0.8573,-0.47336 -0.32523,-0.23652 -0.11832,-0.4728 -0.11832,-0.62064 0,-0.14782 -0.50247,-0.38455 -0.73898,-0.50281 -0.23654,-0.11826 -0.59119,-0.23667 -0.59119,-0.23667 0,0 -0.29593,0.03 -0.62113,0.03 -0.32523,0 -0.20678,0.11838 -0.88678,0.38447 -0.68001,0.26609 -0.23659,0.11815 -0.68006,0.17725 -0.44349,0.0591 -0.23625,1.4e-4 -0.35452,-0.0294 -0.11824,-0.0296 -0.38462,-0.14806 -0.62113,-0.35502 -0.23649,-0.20695 -0.1479,-0.17733 -0.26615,-0.29559 -0.11826,-0.11826 -0.50228,-0.35502 -0.50228,-0.35502 0,0 -0.089,3.8e-4 -0.20722,0.03 -0.11827,0.0296 -0.29546,0.0886 -0.47284,0.17725 -0.1774,0.0887 -0.0297,0.0296 -0.53229,0.26614 -0.50257,0.23652 -0.0887,0.1179 -0.14777,0.23616 -0.0591,0.11826 -0.0589,0.1183 -0.20672,0.26613 -0.14782,0.14782 -0.17761,0.23668 -0.35501,0.23668 -0.17738,0 -0.47284,-0.0295 -0.47284,-0.0295 0,0 -0.20701,-0.0888 -0.82786,0.17725 -0.62087,0.2661 -0.0295,0.11836 -0.14779,0.53227 -0.11824,0.41388 -0.089,0.17711 -0.20722,0.3545 -0.11827,0.17739 -0.41376,0.17777 -0.73899,0.17777 -0.32519,0 -0.50273,-0.0298 -0.7984,-0.0594 -0.29565,-0.0296 -0.56142,-0.17741 -0.9162,-0.41393 -0.35478,-0.23652 -0.41431,-0.26599 -0.59171,-0.44338 -0.17743,-0.17739 1.5e-4,-0.32512 -0.0294,-0.44338 -0.0296,-0.11826 -0.23667,-0.29559 -0.23667,-0.29559 0,0 -0.50237,-0.32538 -1.18237,-0.38448 -0.67998,-0.0591 -0.70967,-0.20685 -0.94621,-0.17725 -0.23651,0.0296 -0.1774,0.0885 -0.41391,0.20671 -0.23651,0.11829 -0.11793,0.0299 -0.65008,0.17777 -0.53221,0.14782 -0.26631,-0.0298 -0.50282,-0.0889 -0.23653,-0.0591 -0.14795,-0.0887 -0.38449,-0.26613 -0.23646,-0.17735 -0.26612,-0.20671 -0.26612,-0.20671 0,0 -0.17748,-0.0887 -0.53226,-0.14779 -0.35478,-0.0591 -0.11806,0.0885 -0.47284,0.32504 -0.35478,0.23653 -0.17758,0.23625 -0.23669,0.35451 -0.0591,0.11825 -0.0887,0.2073 -0.1478,0.32556 -0.0591,0.11826 3e-5,0.0588 -0.14779,0.50229 -0.1478,0.44348 -0.11809,0.14806 -0.32505,0.35502 -0.20695,0.20692 -0.38459,0.0885 -0.76893,0.0589 -0.38433,-0.0296 -0.2659,-0.17711 -0.47283,-0.20671 -0.20696,-0.0295 -0.35478,-1.4e-4 -0.56174,0.0295 -0.20696,0.0295 -0.17722,1.4e-4 -0.32504,-0.0295 -0.14782,-0.0296 -0.44387,-0.11831 -0.59169,-0.26613 -0.1478,-0.14783 -0.0293,-0.20728 -0.0589,-0.47336 -0.0296,-0.26609 -0.0296,-0.14735 -0.11832,-0.26561 -0.0887,-0.11826 -0.53192,-0.26632 -0.76843,-0.35502 -0.23654,-0.0887 -0.17759,-0.17733 -0.2367,-0.29559 -0.0591,-0.11826 -0.0293,-0.14787 -0.0589,-0.26613 -0.0296,-0.11826 -0.0889,-0.29559 -0.0889,-0.29559 0,0 -0.11837,-0.14765 -0.38446,-0.17725 -0.26609,-0.0296 -0.29575,0.059 -0.53226,0.17725 -0.23652,0.1183 -0.26559,0.0294 -0.41342,0.0294 -0.14782,0 -0.26622,-0.1183 -0.38446,-0.26613 -0.1183,-0.14782 -0.17727,-0.38396 -0.17727,-0.38396 0,0 -0.0892,-0.29566 -0.1483,-0.41392 -0.0591,-0.1183 -0.35476,-0.11849 -0.56174,-0.0889 -0.20696,0.0296 -0.0882,0.0295 -0.26561,0.1478 -0.17738,0.11826 -0.20741,0.29556 -0.2961,0.44338 -0.0887,0.14783 -0.0294,0.26641 -0.0294,0.47336 0,0.20696 0.0297,0.29545 0.23667,0.47284 0.20696,0.17739 0.23625,0.14755 0.35449,0.3545 0.11827,0.20695 0.0297,0.0591 0.11835,0.41393 0.0887,0.35478 0,0.35509 0,0.47335 0,0.11826 -0.0886,0.20679 -0.44339,0.32504 -0.35476,0.11827 -0.38447,0.26614 -0.38447,0.26614 l -0.0884,0.23668 -0.23667,0.29559 c 0,0 -0.059,0.0885 -0.17724,0.17725 -0.11827,0.0887 -0.0592,0.0296 -0.41394,0 -0.35478,-0.0296 -0.38473,-0.1181 -0.59169,-0.32505 -0.20696,-0.20695 -0.0884,-0.17774 -0.20672,-0.32556 -0.11827,-0.14782 0.0589,-0.23616 0.0589,-0.23616 0,0 3.7e-4,-0.2073 0.03,-0.32556 0.0296,-0.11826 0.26612,-0.41393 0.26612,-0.41393 v -0.17725 c 0,0 -0.3252,-0.59118 -0.97565,-0.59118 -0.6504,0 -0.85781,-0.0298 -1.41954,-0.0889 -0.56174,-0.0591 -0.6798,-0.20675 -1.03458,-0.47284 -0.35478,-0.26608 -0.4141,-0.38422 -0.50279,-0.59118 -0.0887,-0.20695 -0.11821,-0.47344 -0.14779,-0.5917 -0.0296,-0.11825 -0.38397,-0.44338 -0.38397,-0.44338 0,0 -0.29585,-0.0589 -0.50281,-0.0589 -0.20698,0 -0.14788,0.0298 -0.26614,0.0889 -0.11825,0.0591 -0.23667,0.41393 -0.23667,0.41393 l -0.42736,0.34572 c 0,0 -0.50173,0.58517 -0.91985,0.75241 -0.41815,0.16724 -0.50178,0 -0.50178,0 0,0 -0.33425,-0.16716 -1.17047,0.0837 -0.83621,0.25086 -0.50178,0.25063 -0.50178,0.25063 0,0 6e-5,0.0835 -0.41807,0.83613 -0.41809,0.75263 0.25064,0.83664 0.25064,0.83664 v 0.75241 c 0,0.58535 -0.16711,0.91969 -0.33435,1.25418 -0.16724,0.33449 -0.75292,0.33487 -0.75292,0.33487 0,0 -0.33449,-0.084 -0.91983,-0.33487 -0.58536,-0.25087 -0.58499,-0.58497 -0.58499,-0.58497 0,0 -0.1673,-0.8365 -0.0837,-1.17099 0.0836,-0.33449 0.50167,-0.75278 0.41807,-1.08727 -0.0836,-0.33448 -0.7528,-0.58498 -1.08728,-0.58498 -0.33449,0 -1.08675,0.58498 -1.08675,0.58498 0,0 -0.16756,0.66906 -0.25115,1.00355 -0.0836,0.33449 0,0.16767 0,0.83664 v 0.75241 l -0.33435,0.5855 c 0,0 -1.00341,0.33434 -1.33789,0.33434 -0.33449,0 -0.83627,-1.8e-4 -1.42163,-0.16743 -0.58537,-0.16724 -1.171,-0.58497 -1.171,-0.58497 l -0.41804,-0.75293 -0.0832,-0.66869 -1.00356,0.0832 -0.75293,0.41807 -0.50175,0.75292 -0.33436,0.5855 -1.09193,0.22944 c 0,0 -0.59135,1.9e-4 -0.82786,-0.0589 -0.23651,-0.0591 -0.41391,-0.23668 -0.41391,-0.23668 l -0.23617,-0.47284 v -0.70952 l -0.65061,-0.53226 -0.41391,-0.29559 -0.41394,-1.06454 0.0589,-0.29559 -0.35452,-1.06453 -0.76893,-1.12345 -1.18237,-0.59117 -1.30122,0.17725 c 0,0 -0.47255,0.17733 -0.82733,0.29559 -0.35478,0.11825 -0.23667,0.47335 -0.23667,0.47335 l 0.29557,0.76843 -0.76893,0.88728 -0.65008,0.53176 c 0,0 0.2363,0.29574 0.47283,0.53226 0.23651,0.23652 0.11856,0.11828 0.47334,0.41393 0.35478,0.29567 0.17722,0.11851 0.47284,0.35502 0.29564,0.23652 0.0589,0.76843 0.0589,0.76843 l -0.76843,0.41392 0.11835,0.41393 c 0,0 0.29525,0.65055 0.23614,0.9462 -0.0591,0.29565 -0.29557,0.29559 -0.29557,0.29559 l -0.9462,0.11834 c 0,0 -0.17701,-0.11854 -1.35961,-1.18288 -1.18256,-1.06434 -0.29594,-0.7686 -0.0594,-1.41903 0.23648,-0.65042 0.0594,-1.06402 0.0594,-1.06402 0,0 -0.17773,-0.11838 -0.88728,-0.9462 -0.70959,-0.82782 -0.65017,-1.59645 -0.76843,-1.83296 -0.11827,-0.23655 -0.29581,-0.76863 -1.77406,-0.29559 -1.4782,0.47303 1.8e-4,0.41365 -0.0589,0.76843 -0.0591,0.35478 -0.17772,0.35502 -0.47337,0.35502 -0.29564,0 -1.00512,-3.8e-4 -1.41904,-0.17777 -0.41391,-0.17739 -0.41391,-0.70952 -0.41391,-0.70952 0,0 -0.29575,-0.70945 -0.53226,-1.0051 -0.23654,-0.29565 -2.42401,1.6e-4 -2.60141,0.23667 -0.17738,0.23653 -0.23649,0.70947 -0.2956,1.00511 -0.0591,0.29568 -0.0594,0.35502 -0.0594,0.35502 0,0 7e-5,0.11788 -0.29559,1.35961 -0.29565,1.24173 -0.2953,0.29574 -0.65008,0.53226 -0.35477,0.23652 -0.47324,0.0591 -1.06454,0 -0.5913,-0.0591 -0.76852,-0.059 -1.30069,-0.17725 -0.53221,-0.11826 -0.5917,-0.35501 -0.5917,-0.35501 l 0.17777,-0.29559 c 0,0 0.0591,-0.35466 0,-0.59118 -0.0591,-0.23652 -0.17735,-0.35466 -0.70952,-0.59118 -0.53216,-0.23652 -0.53242,0.059 -0.76895,0.17725 -0.23652,0.11829 -0.0591,0.059 -0.41392,0.17725 -0.35478,0.11826 -0.76837,0.23654 -1.06402,0.41393 -0.29565,0.17739 -0.0592,0.0591 -1.24179,1.12344 -1.18259,1.06434 -0.76894,0.11834 -0.76894,0.11834 0,0 -1.00499,-0.11798 -1.59629,-0.3545 -0.5913,-0.23652 -1.0051,-0.53227 -1.0051,-0.53227 l -0.5917,-1.83296 c 0,0 -0.2954,-0.59133 -0.3545,-0.82786 -0.0591,-0.23651 -0.17776,-0.6506 -0.17776,-0.6506 0,0 -0.11814,-0.17749 -0.59118,-0.53227 -0.47301,-0.35478 -0.41393,-0.47284 -0.41393,-0.47284 l -1.00511,0.0589 c 0,0 -0.35466,0.35504 -0.59118,0.76895 -0.23652,0.41391 -0.17744,1.18224 -0.11834,1.77353 0.0592,0.59129 0.11848,0.23675 -0.0589,1.47847 -0.17739,1.24173 0.11798,0.17757 0.35451,0.23667 0.2365,0.0591 0,0.82786 0,0.82786 l 0.11833,0.41393 c 0,0 0.41409,0.47271 0.65061,0.65009 0.23652,0.17739 0.0588,0.41395 -0.47335,0.82786 -0.53217,0.41391 0.17776,0.70951 0.17776,0.70951 l 0.23616,0.41393 c 0,0 -0.059,0.473 -0.17725,0.70952 -0.11826,0.23652 -0.70951,0.23668 -0.70951,0.23668 h -0.35502 c 0,0 -0.23658,-0.059 -1.24179,-0.59118 -1.00521,-0.53217 -0.41377,-0.35482 -0.17725,-0.82786 0.23652,-0.47304 -0.0592,-0.59126 -0.53226,-0.70952 -0.47307,-0.11825 -0.53176,-0.23667 -0.53176,-0.23667 0,0 -0.41402,-0.11815 -0.94619,-0.59118 -0.53214,-0.47307 -0.0594,-0.17749 -0.0594,-0.53227 0,-0.35478 0.29611,-1.00526 0.29611,-1.24178 0,-0.23652 -0.41393,-1.18236 -0.41393,-1.18236 l -0.82786,0.23616 v 0.41393 c 0,0.23652 -0.29559,0.35502 -0.29559,0.35502 0,0 -0.23693,6e-5 -1.00562,-0.29559 -0.76868,-0.29565 -0.17706,-0.29575 -0.23616,-0.53227 -0.0591,-0.23652 -0.0594,-0.41393 -0.35502,-0.41393 -0.29565,0 -0.70952,0.29559 -0.70952,0.29559 l -0.41392,0.23668 c 0,0 1.8e-4,0.11837 -0.0589,0.94619 -0.0591,0.82782 1e-4,0.17727 -1.00511,0.59118 -1.0052,0.41391 -0.17767,1.2e-4 -1.18288,-0.59118 -1.00521,-0.59129 0,-0.35501 0,-0.35501 l -0.3545,-0.59118 c 0,0 -0.53223,0.0593 -1.24179,0.23668 -0.70959,0.17739 -1.9e-4,0.2361 0.0589,0.53175 0.0591,0.29565 0.0591,0.41416 0,0.76894 -0.0591,0.35478 -0.41408,0.59104 -0.6506,0.76843 -0.23652,0.17736 -0.2361,0.11834 -0.53175,0.11834 -0.29564,0 -0.23685,-1.6e-4 -0.47336,-0.23668 -0.23655,-0.23652 -0.29559,-0.53175 -0.29559,-0.53175 v -0.29559 c 0,0 -10e-5,-0.17768 -0.53227,-0.0594 -0.53217,0.11826 1.4e-4,0.17771 -0.17725,0.47336 -0.17739,0.29565 0,0.53191 0,0.76843 0,0.23651 8e-5,0.11837 0.11834,0.53227 0.11826,0.41391 0.11834,0.59118 0.11834,0.59118 0,0 0.059,0.23661 0.17725,0.53226 0.1182,0.29565 0.0589,0.70952 0.0589,0.70952 l -0.23616,0.88677 c 0,0 -0.47351,0.11866 -0.71003,0.17776 -0.23652,0.0591 -0.82734,-0.11833 -0.82734,-0.11833 l 0.11782,-1.53738 0.11834,-0.82786 -0.41393,-1.36012 -0.59118,-0.6506 -1.0728,-1.85209 -1.83968,1.67277 c 0,0 1.33809,1.00346 1.50533,1.83968 0.16725,0.83622 0,0.16713 0,2.6758 0,2.50866 -0.66921,2.17403 -0.66921,2.17403 0,0 -0.96599,0.22077 -2.35024,0.17209 v 54.91705 h 257.86609 v -75.11634 l -0.13333,-1.04541 c 0,0 -1.17057,-3.4e-4 -2.17403,0.16691 -1.00345,0.16724 -0.83613,0.33472 -2.67581,0.66921 -1.83967,0.33448 -1.5051,-2.3e-4 -2.67581,-0.66921 -1.1707,-0.66898 -1.00346,-0.83588 -1.83967,-2.00659 -0.83624,-1.17071 -1.17076,-2.34179 -2.34146,-4.01423 -1.17073,-1.67244 -1.67277,-1.67225 -1.67277,-1.67225 z"
           sodipodi:nodetypes="csscssscssssssssssccssssssssssssssssssssssscsscsasasssssssscsssssscsssssssssssssssssssssssssssssssssssscsssssssssssccsssssscsssssssssssssssssasacsssccsssssssssscsssssscsssssscsssssssscsssssscsssssssccssssssscsssscsssssssssscccsssscsccssssscssccscscscsscscssscssccssccccccccscccccccccccsccccssscccsccsscsssssscssscssssccsssssscsccscsccscssccssccsccssscsssccscsssccsssccssssssccsssscsccscccccccssccccccssssscc" />
        <path
           id="path1044"
           style="fill:#008033;stroke:none;stroke-width:0.264583px;stroke-linecap:butt;stroke-linejoin:miter;stroke-opacity:1"
           d="m 416.62884,177.6902 c 0,0 -1.30096,1.2447 -1.65574,1.74254 -0.35478,0.49784 -1.0642,0.99595 -2.12854,1.99164 -1.06434,0.9957 -4.13922,0.49777 -4.84881,-0.12454 -0.70953,-0.62231 -0.82788,-0.6226 -1.65571,-1.24491 -0.8278,-0.6223 -0.82754,-0.62214 -1.89188,-1.36891 -1.06431,-0.74678 -1.06431,-0.37309 -1.53736,-0.37309 -0.47305,0 -0.59137,0.12425 -1.65571,0.49763 -1.06434,0.37339 -1.774,0.49789 -2.48356,0.87127 -0.70956,0.37338 -0.59132,0.49772 -3.07475,2.24019 -2.48346,1.74246 -0.82775,0.37331 -2.95643,1.49346 -2.12865,1.12016 -2.01065,0.24892 -3.42974,0 -1.41912,-0.24892 -0.9461,-1.24453 -1.53739,-1.49346 -0.59129,-0.24892 -1.65526,-0.12454 -3.31091,-0.12454 -1.65563,0 -0.94629,0.12441 -3.42977,0.74672 -2.48343,0.62232 -1.53723,0.37372 -2.12855,0.49818 -0.59129,0.12447 -0.59121,0.24889 -1.41904,0.74673 -0.8278,0.49785 -0.82785,0.74673 -0.82785,0.74673 0,0 -1.7739,1.36875 -3.07475,1.11982 -1.30085,-0.24892 -1.06463,-0.49751 -2.01073,-1.11982 -0.94607,-0.62231 -0.82777,-0.62235 -3.78425,-0.87127 -2.95649,-0.24893 -2.48357,0 -2.48357,0 0,0 -0.3543,0.24896 -0.82735,0.87127 -0.47302,0.62231 -0.70956,0.74665 -1.53736,0.62219 -0.82783,-0.12447 -1.65603,-0.12455 -2.12908,-0.12455 -0.47302,0 -0.82777,-0.12412 -2.24689,-1.11982 -1.4191,-0.99569 -0.70948,0 -1.41904,0 -0.70956,0 -0.94586,0.12417 -2.0102,0.37309 -1.06434,0.24893 -0.82823,0.24888 -2.12908,0.74673 -1.30085,0.49785 -1.41904,0.37364 -1.41904,0.37364 0,0 -1.18258,0.24892 -6.14949,0 -4.9669,-0.24893 -1.30051,-1.49363 -1.77353,-1.74255 -0.47305,-0.24893 -0.94647,1.7e-4 -2.12908,0.24909 -1.18258,0.24892 -1.06434,0.24863 -1.53736,0.37309 -0.47305,0.12446 -1.89172,0.62256 -3.19257,0.37364 -1.30088,-0.24893 -1.65611,-1.24496 -2.24742,-2.11619 -0.59129,-0.87123 -0.82749,-0.12438 -2.60139,0.12455 -1.77389,0.24892 -1.41904,0.62218 -1.41904,0.62218 0,0 -1.41933,2.2406 -1.89237,2.86291 -0.47305,0.62232 -0.35497,0.49752 -1.06453,1.11983 -0.70956,0.62231 -0.94581,-0.12397 -1.89188,-0.87074 -0.94609,-0.74677 -1.18287,-1.618 -1.18287,-1.618 0,0 -0.59132,-1.74283 -1.53739,-1.36945 -0.94607,0.37338 -2.0102,1.86709 -2.0102,1.86709 0,0 -0.82782,-0.37359 -1.53738,-1.12036 -0.70956,-0.74678 -0.23633,-0.74661 -0.47284,-1.36892 -0.23651,-0.62231 -0.70996,-1.36899 -2.12908,-1.49345 -1.41911,-0.12447 -0.7095,0.49764 -0.7095,0.49764 l -1.18237,2.48927 c -0.47305,0 -3.19297,0.62235 -3.78426,0.87128 -0.59129,0.24892 0.23646,0.37334 0.70951,0.74672 0.47302,0.37339 0,0.49814 0,1.24491 0,0.74678 -0.59116,1.11986 -1.30069,1.9911 -0.70956,0.87123 -1.1829,1.36916 -2.01073,1.74255 -0.8278,0.37338 -2.71968,-1.74243 -3.42924,-2.36474 -0.70956,-0.62231 -2.01041,-0.249 -3.07475,-0.12454 -1.06434,0.12446 -0.82791,0.24904 -1.65571,0.99582 -0.82783,0.74676 -0.59158,0.37321 -1.18287,1.36891 -0.52941,0.89142 -1.44351,0.98344 -3.07062,0.9039 v 46.43857 h 257.8654 v -51.72984 c -0.7356,-0.39818 -2.4647,-1.58646 -4.32067,-1.58646 -1.89215,0 -2.48341,0.12413 -5.32165,1.11982 -2.83824,0.9957 -1.89209,2.24048 -2.9564,3.4851 -1.06434,1.24461 -1.77406,1.3e-4 -3.31142,-0.62218 -1.53739,-0.62231 -1.30066,-1.1205 -2.01022,-2.11619 -0.70956,-0.99569 -1.18272,-0.74673 -2.48357,-0.74673 -1.30087,0 -2.36503,0.37326 -2.83808,0.62219 -0.47302,0.24892 -1.65571,0.99582 -1.65571,0.99582 0,0 2.01031,3.36066 -5.55831,2.73836 -7.56862,-0.62231 -0.70951,-1.74255 -0.70951,-1.74255 0,0 -2.60172,-1.618 -3.07475,-1.618 -0.47304,0 -5.20337,-0.87102 -8.39639,-0.49764 -3.19302,0.37339 -1.41922,0.12401 -2.48356,0.12401 -1.06434,0 -1.77366,0.24917 -2.71973,0.37363 -0.9461,0.12445 -1.30112,0.37334 -1.89241,0.74673 -0.59129,0.37339 -1.53757,0.62256 -2.60191,0.37364 -1.06432,-0.24893 -2.24669,-0.37364 -2.71973,-0.37364 -0.47303,0 -1.89215,0.24867 -3.07473,1.24437 -1.18261,0.99569 -2.60172,1.49375 -3.07475,1.12036 -0.47305,-0.37339 -0.59158,-0.74677 -1.18287,-1.618 -0.59129,-0.87123 -1.06407,-0.49756 -1.89188,-0.37309 -0.82782,0.12446 -0.47291,0.37321 -0.59118,1.36891 -0.11827,0.9957 -0.94602,1.12027 -1.41904,0.99582 -0.47305,-0.12447 -1.53776,-0.37334 -2.12908,-0.74673 -0.59129,-0.37339 -1.41882,-2.8627 -1.89187,-3.36055 -0.47303,-0.49785 -0.94618,0.62218 -0.94618,0.62218 0,0 -1.41936,-0.12463 -1.89241,-0.24909 -0.47302,-0.12446 -1.06402,-0.87127 -1.06402,-0.87127 l -0.47334,-1.74255 c 0,0 -1.06434,0.24934 -1.53738,0.62273 -0.47303,0.37338 -0.70951,1.86655 -0.70951,1.86655 0,0 -0.11822,0.37363 -0.70951,0.37363 -0.59132,0 -0.9462,-0.49764 -0.9462,-0.49764 l -0.11782,-0.99581 -0.11835,-0.99582 c 0,0 -1.30101,-1.36883 -1.77406,-1.24437 -0.47302,0.12446 -0.94617,0.49764 -0.94617,0.49764 0,0 0.11832,0.62214 0.11832,1.36891 v 1.24491 c 0,0.74676 0,1.11978 -0.35449,1.86655 -0.35478,0.74677 -1.18285,5.5e-4 -1.89241,-0.124 -0.70955,-0.12447 -1.65549,-0.49807 -2.12854,-1.12037 -0.47302,-0.62231 -1.06442,-1.36933 -1.65571,-1.99164 -0.59129,-0.62231 -1.77366,-0.6221 -2.71973,-0.49763 -0.94607,0.12446 -0.94621,0.49763 -0.94621,0.49763 l -3.54808,0.74673 -3.54759,0.99582 c 0,0 -1.65587,-0.24874 -4.96716,-2.98691 -3.31126,-2.73816 -1.89187,0.24909 -1.89187,0.24909 0,0 -1.41899,0.49776 -2.12855,1.49346 -0.70956,0.99569 -1.89251,1.24474 -2.83858,0.99581 -0.94607,-0.24892 -2.60178,-0.7468 -4.73046,-2.48927 -2.12868,-1.74246 -0.70951,-1.494 -0.70951,-1.494 0,0 0,-0.74626 -0.9457,-2.48873 -0.94607,-1.74246 -4.021,-0.2493 -5.67663,0.24854 -1.65563,0.49785 -1.18237,1.74255 -1.18237,1.74255 0,0 -1.18298,1.99155 -2.12908,3.4851 -0.94607,1.49353 -1.41891,0.99548 -3.54758,0.49763 -2.12866,-0.49785 -2.12855,-1.24436 -2.12855,-1.24436 0,0 -1.65563,-1.99167 -3.07475,-4.48092 -0.86738,-1.52145 -0.586,-1.83229 -0.23617,-1.84533 z m 2.9569,0.64394 0.47234,0.10279 c 0,0 -0.2498,-0.1111 -0.47234,-0.10279 z" />
        <g
           id="g1267"
           inkscape:label="building 1"
           transform="translate(142.85765,-38.789164)">
          <rect
             style="opacity:1;fill:#164450;fill-opacity:1;stroke:none;stroke-width:0.273"
             id="rect1056"
             width="47.162918"
             height="135.46796"
             x="313.75049"
             y="113.05721" />
          <rect
             style="opacity:1;fill:#006680;fill-opacity:1;stroke:none;stroke-width:0.273"
             id="rect1191"
             width="17.542334"
             height="135.46794"
             x="328.56076"
             y="113.05721" />
          <g
             id="g1093"
             transform="translate(-25.058418,44.152521)">
            <rect
               style="fill:#cccccc;fill-opacity:1;stroke:none;stroke-width:0.273"
               id="rect1058"
               width="5.6863093"
               height="8.0277309"
               x="342.51312"
               y="93.32238" />
            <rect
               style="fill:#cccccc;fill-opacity:1;stroke:none;stroke-width:0.273"
               id="rect1060"
               width="5.6863093"
               height="8.0277309"
               x="351.03015"
               y="93.32238" />
            <rect
               style="fill:#cccccc;fill-opacity:1;stroke:none;stroke-width:0.273"
               id="rect1062"
               width="5.6863093"
               height="8.0277309"
               x="368.06427"
               y="93.32238" />
            <rect
               style="fill:#cccccc;fill-opacity:1;stroke:none;stroke-width:0.273"
               id="rect1064"
               width="5.6863093"
               height="8.0277309"
               x="376.5813"
               y="93.32238" />
            <rect
               style="fill:#cccccc;fill-opacity:1;stroke:none;stroke-width:0.273"
               id="rect1066"
               width="5.6863093"
               height="8.0277309"
               x="359.54724"
               y="93.32238" />
          </g>
          <g
             id="g1105"
             transform="translate(-25.058418,33.569187)">
            <rect
               style="fill:#cccccc;fill-opacity:1;stroke:none;stroke-width:0.273"
               id="rect1095"
               width="5.6863093"
               height="8.0277309"
               x="342.51312"
               y="93.32238" />
            <rect
               style="fill:#cccccc;fill-opacity:1;stroke:none;stroke-width:0.273"
               id="rect1097"
               width="5.6863093"
               height="8.0277309"
               x="351.03015"
               y="93.32238" />
            <rect
               style="fill:#cccccc;fill-opacity:1;stroke:none;stroke-width:0.273"
               id="rect1099"
               width="5.6863093"
               height="8.0277309"
               x="368.06427"
               y="93.32238" />
            <rect
               style="fill:#cccccc;fill-opacity:1;stroke:none;stroke-width:0.273"
               id="rect1101"
               width="5.6863093"
               height="8.0277309"
               x="376.5813"
               y="93.32238" />
            <rect
               style="fill:#cccccc;fill-opacity:1;stroke:none;stroke-width:0.273"
               id="rect1103"
               width="5.6863093"
               height="8.0277309"
               x="359.54724"
               y="93.32238" />
          </g>
          <g
             id="g1117"
             transform="translate(-25.058418,54.735855)">
            <rect
               style="fill:#cccccc;fill-opacity:1;stroke:none;stroke-width:0.273"
               id="rect1107"
               width="5.6863093"
               height="8.0277309"
               x="342.51312"
               y="93.32238" />
            <rect
               style="fill:#cccccc;fill-opacity:1;stroke:none;stroke-width:0.273"
               id="rect1109"
               width="5.6863093"
               height="8.0277309"
               x="351.03015"
               y="93.32238" />
            <rect
               style="fill:#cccccc;fill-opacity:1;stroke:none;stroke-width:0.273"
               id="rect1111"
               width="5.6863093"
               height="8.0277309"
               x="368.06427"
               y="93.32238" />
            <rect
               style="fill:#cccccc;fill-opacity:1;stroke:none;stroke-width:0.273"
               id="rect1113"
               width="5.6863093"
               height="8.0277309"
               x="376.5813"
               y="93.32238" />
            <rect
               style="fill:#cccccc;fill-opacity:1;stroke:none;stroke-width:0.273"
               id="rect1115"
               width="5.6863093"
               height="8.0277309"
               x="359.54724"
               y="93.32238" />
          </g>
          <g
             id="g1129"
             transform="translate(-25.058418,75.902523)">
            <rect
               style="fill:#cccccc;fill-opacity:1;stroke:none;stroke-width:0.273"
               id="rect1119"
               width="5.6863093"
               height="8.0277309"
               x="342.51312"
               y="93.32238" />
            <rect
               style="fill:#cccccc;fill-opacity:1;stroke:none;stroke-width:0.273"
               id="rect1121"
               width="5.6863093"
               height="8.0277309"
               x="351.03015"
               y="93.32238" />
            <rect
               style="fill:#cccccc;fill-opacity:1;stroke:none;stroke-width:0.273"
               id="rect1123"
               width="5.6863093"
               height="8.0277309"
               x="368.06427"
               y="93.32238" />
            <rect
               style="fill:#cccccc;fill-opacity:1;stroke:none;stroke-width:0.273"
               id="rect1125"
               width="5.6863093"
               height="8.0277309"
               x="376.5813"
               y="93.32238" />
            <rect
               style="fill:#cccccc;fill-opacity:1;stroke:none;stroke-width:0.273"
               id="rect1127"
               width="5.6863093"
               height="8.0277309"
               x="359.54724"
               y="93.32238" />
          </g>
          <g
             id="g1141"
             transform="translate(-25.058418,65.319189)">
            <rect
               style="fill:#cccccc;fill-opacity:1;stroke:none;stroke-width:0.273"
               id="rect1131"
               width="5.6863093"
               height="8.0277309"
               x="342.51312"
               y="93.32238" />
            <rect
               style="fill:#cccccc;fill-opacity:1;stroke:none;stroke-width:0.273"
               id="rect1133"
               width="5.6863093"
               height="8.0277309"
               x="351.03015"
               y="93.32238" />
            <rect
               style="fill:#cccccc;fill-opacity:1;stroke:none;stroke-width:0.273"
               id="rect1135"
               width="5.6863093"
               height="8.0277309"
               x="368.06427"
               y="93.32238" />
            <rect
               style="fill:#cccccc;fill-opacity:1;stroke:none;stroke-width:0.273"
               id="rect1137"
               width="5.6863093"
               height="8.0277309"
               x="376.5813"
               y="93.32238" />
            <rect
               style="fill:#cccccc;fill-opacity:1;stroke:none;stroke-width:0.273"
               id="rect1139"
               width="5.6863093"
               height="8.0277309"
               x="359.54724"
               y="93.32238" />
          </g>
          <g
             id="g1153"
             transform="translate(-25.058418,86.485857)">
            <rect
               style="fill:#cccccc;fill-opacity:1;stroke:none;stroke-width:0.273"
               id="rect1143"
               width="5.6863093"
               height="8.0277309"
               x="342.51312"
               y="93.32238" />
            <rect
               style="fill:#cccccc;fill-opacity:1;stroke:none;stroke-width:0.273"
               id="rect1145"
               width="5.6863093"
               height="8.0277309"
               x="351.03015"
               y="93.32238" />
            <rect
               style="fill:#cccccc;fill-opacity:1;stroke:none;stroke-width:0.273"
               id="rect1147"
               width="5.6863093"
               height="8.0277309"
               x="368.06427"
               y="93.32238" />
            <rect
               style="fill:#cccccc;fill-opacity:1;stroke:none;stroke-width:0.273"
               id="rect1149"
               width="5.6863093"
               height="8.0277309"
               x="376.5813"
               y="93.32238" />
            <rect
               style="fill:#cccccc;fill-opacity:1;stroke:none;stroke-width:0.273"
               id="rect1151"
               width="5.6863093"
               height="8.0277309"
               x="359.54724"
               y="93.32238" />
          </g>
          <g
             id="g1165"
             transform="translate(-25.058418,107.65253)">
            <rect
               style="fill:#cccccc;fill-opacity:1;stroke:none;stroke-width:0.273"
               id="rect1155"
               width="5.6863093"
               height="8.0277309"
               x="342.51312"
               y="93.32238" />
            <rect
               style="fill:#cccccc;fill-opacity:1;stroke:none;stroke-width:0.273"
               id="rect1157"
               width="5.6863093"
               height="8.0277309"
               x="351.03015"
               y="93.32238" />
            <rect
               style="fill:#cccccc;fill-opacity:1;stroke:none;stroke-width:0.273"
               id="rect1159"
               width="5.6863093"
               height="8.0277309"
               x="368.06427"
               y="93.32238" />
            <rect
               style="fill:#cccccc;fill-opacity:1;stroke:none;stroke-width:0.273"
               id="rect1161"
               width="5.6863093"
               height="8.0277309"
               x="376.5813"
               y="93.32238" />
            <rect
               style="fill:#cccccc;fill-opacity:1;stroke:none;stroke-width:0.273"
               id="rect1163"
               width="5.6863093"
               height="8.0277309"
               x="359.54724"
               y="93.32238" />
          </g>
          <g
             id="g1177"
             transform="translate(-25.058418,97.069193)">
            <rect
               style="fill:#cccccc;fill-opacity:1;stroke:none;stroke-width:0.273"
               id="rect1167"
               width="5.6863093"
               height="8.0277309"
               x="342.51312"
               y="93.32238" />
            <rect
               style="fill:#cccccc;fill-opacity:1;stroke:none;stroke-width:0.273"
               id="rect1169"
               width="5.6863093"
               height="8.0277309"
               x="351.03015"
               y="93.32238" />
            <rect
               style="fill:#cccccc;fill-opacity:1;stroke:none;stroke-width:0.273"
               id="rect1171"
               width="5.6863093"
               height="8.0277309"
               x="368.06427"
               y="93.32238" />
            <rect
               style="fill:#cccccc;fill-opacity:1;stroke:none;stroke-width:0.273"
               id="rect1173"
               width="5.6863093"
               height="8.0277309"
               x="376.5813"
               y="93.32238" />
            <rect
               style="fill:#cccccc;fill-opacity:1;stroke:none;stroke-width:0.273"
               id="rect1175"
               width="5.6863093"
               height="8.0277309"
               x="359.54724"
               y="93.32238" />
          </g>
          <g
             id="g1189"
             transform="translate(-25.058418,118.23587)">
            <rect
               style="fill:#cccccc;fill-opacity:1;stroke:none;stroke-width:0.273"
               id="rect1179"
               width="5.6863093"
               height="8.0277309"
               x="342.51312"
               y="93.32238" />
            <rect
               style="fill:#cccccc;fill-opacity:1;stroke:none;stroke-width:0.273"
               id="rect1181"
               width="5.6863093"
               height="8.0277309"
               x="351.03015"
               y="93.32238" />
            <rect
               style="fill:#cccccc;fill-opacity:1;stroke:none;stroke-width:0.273"
               id="rect1183"
               width="5.6863093"
               height="8.0277309"
               x="368.06427"
               y="93.32238" />
            <rect
               style="fill:#cccccc;fill-opacity:1;stroke:none;stroke-width:0.273"
               id="rect1185"
               width="5.6863093"
               height="8.0277309"
               x="376.5813"
               y="93.32238" />
            <rect
               style="fill:#cccccc;fill-opacity:1;stroke:none;stroke-width:0.273"
               id="rect1187"
               width="5.6863093"
               height="8.0277309"
               x="359.54724"
               y="93.32238" />
          </g>
          <rect
             style="opacity:1;fill:#164450;fill-opacity:1;stroke:none;stroke-width:0.273"
             id="rect1193"
             width="28.338734"
             height="12.041594"
             x="313.75046"
             y="101.01562" />
          <g
             id="g1204"
             transform="translate(2.7058289)">
            <rect
               style="opacity:1;fill:#999999;fill-opacity:1;stroke:none;stroke-width:0.273"
               id="rect1195"
               width="3.0747504"
               height="6.1495013"
               x="316.81757"
               y="103.47719" />
            <rect
               style="opacity:1;fill:#999999;fill-opacity:1;stroke:none;stroke-width:0.273"
               id="rect1197"
               width="3.0747504"
               height="6.1495013"
               x="323.67664"
               y="103.47719" />
            <rect
               style="opacity:1;fill:#999999;fill-opacity:1;stroke:none;stroke-width:0.273"
               id="rect1199"
               width="3.0747504"
               height="6.1495013"
               x="330.53568"
               y="103.47719" />
          </g>
        </g>
      </g>
    </g>
    <g
       id="g1026"
       transform="translate(7.6125382,-1.669528)"
       inkscape:label="g1026">
      <path
         id="rect837"
         style="fill:#cccccc;fill-opacity:1;stroke:#999999;stroke-width:3.67748;stroke-miterlimit:4;stroke-dasharray:none;stroke-opacity:1"
         d="M 519.66602,105.30859 V 969.62695 H 952.48633 V 105.30859 Z m 90.32226,90.47071 H 882.4375 V 879.15625 H 609.98828 Z"
         transform="scale(0.26458333)" />
      <path
         id="rect833"
         style="opacity:0.248387;fill:#e6e6e6;stroke-width:1.03181"
         d="M 539.92578,124.89258 V 950.04297 H 952.50195 V 124.89258 Z m 70.0625,70.88672 H 882.4375 V 879.15625 H 609.98828 Z"
         transform="scale(0.26458333)" />
      <path
         id="rect835"
         style="fill:#e6e6e6;stroke:#999999;stroke-width:3.77952;stroke-miterlimit:4;stroke-dasharray:none;stroke-opacity:1"
         inkscape:label="inner square"
         d="M 592.43164,178.2207 V 896.71484 H 899.99609 V 178.2207 Z m 17.55664,17.5586 H 882.4375 V 879.15625 H 609.98828 Z"
         transform="scale(0.26458333)" />
      <path
         style="fill:none;stroke:#999999;stroke-width:0.999997;stroke-linecap:butt;stroke-linejoin:miter;stroke-miterlimit:4;stroke-dasharray:none;stroke-opacity:1"
         d="m 142.85524,33.044442 13.89212,14.1098 h 81.37644 l 13.89211,-14.1098 z"
         id="path839" />
      <path
         style="fill:none;stroke:#999999;stroke-width:0.999997;stroke-linecap:butt;stroke-linejoin:miter;stroke-miterlimit:4;stroke-dasharray:none;stroke-opacity:1"
         d="m 142.85524,251.36567 13.89212,-14.1098 V 47.154242 l -13.89212,-14.1098 z"
         id="path841" />
      <path
         style="fill:none;stroke:#999999;stroke-width:0.999997;stroke-linecap:butt;stroke-linejoin:miter;stroke-miterlimit:4;stroke-dasharray:none;stroke-opacity:1"
         d="m 142.85524,251.36567 h 109.16067 l -13.89212,-14.1098 h -81.37643 z"
         id="path843" />
      <path
         style="fill:none;stroke:#999999;stroke-width:0.965002;stroke-linecap:butt;stroke-linejoin:miter;stroke-miterlimit:4;stroke-dasharray:none;stroke-opacity:1"
         d="m 252.01591,251.36567 -13.89212,-14.1098 10e-6,-190.101628 13.89211,-14.1098 z"
         id="path845" />
      <rect
         style="fill:none;stroke:#999999;stroke-width:0.999997;stroke-miterlimit:4;stroke-dasharray:none;stroke-opacity:1"
         id="rect855"
         width="72.085243"
         height="180.81046"
         x="161.39296"
         y="51.799824" />
      <rect
         style="fill:#808080;fill-opacity:1;stroke:none;stroke-width:0.999997;stroke-miterlimit:4;stroke-dasharray:none;stroke-opacity:1"
         id="rect857"
         width="1.8951504"
         height="11.370897"
         x="141.75627"
         y="41.929016" />
      <rect
         style="fill:#808080;fill-opacity:1;stroke:none;stroke-width:0.999997;stroke-miterlimit:4;stroke-dasharray:none;stroke-opacity:1"
         id="rect859"
         width="1.8951504"
         height="11.370897"
         x="141.75627"
         y="231.1102" />
      <path
         id="rect982"
         style="fill:#cccccc;fill-opacity:1;stroke:#999999;stroke-width:3.67748;stroke-miterlimit:4;stroke-dasharray:none;stroke-opacity:1"
         d="M 952.51562,105.30859 V 969.62695 H 1385.3359 V 105.30859 Z m 70.04888,90.47071 h 272.4492 v 683.37695 h -272.4492 z"
         transform="scale(0.26458333)" />
      <path
         id="rect984"
         style="opacity:0.248387;fill:#e6e6e6;stroke-width:1.03181"
         d="M 952.50195,124.89258 V 950.04297 H 1365.0762 V 124.89258 Z m 70.06255,70.88672 h 272.4492 v 683.37695 h -272.4492 z"
         transform="scale(0.26458333)" />
      <path
         id="rect986"
         style="fill:#e6e6e6;stroke:#999999;stroke-width:3.77952;stroke-miterlimit:4;stroke-dasharray:none;stroke-opacity:1"
         d="m 1005.0059,178.2207 v 718.49414 h 307.5644 V 178.2207 Z m 17.5586,17.5586 h 272.4492 v 683.37695 h -272.4492 z"
         transform="scale(0.26458333)" />
      <path
         style="fill:none;stroke:#999999;stroke-width:0.999997;stroke-linecap:butt;stroke-linejoin:miter;stroke-miterlimit:4;stroke-dasharray:none;stroke-opacity:1"
         d="m 361.17659,33.044442 -13.89213,14.1098 h -81.37644 l -13.89211,-14.1098 z"
         id="path988" />
      <path
         style="fill:none;stroke:#999999;stroke-width:0.999997;stroke-linecap:butt;stroke-linejoin:miter;stroke-miterlimit:4;stroke-dasharray:none;stroke-opacity:1"
         d="m 361.17659,251.36567 -13.89213,-14.1098 V 47.154242 l 13.89213,-14.1098 z"
         id="path990" />
      <path
         style="fill:none;stroke:#999999;stroke-width:0.999997;stroke-linecap:butt;stroke-linejoin:miter;stroke-miterlimit:4;stroke-dasharray:none;stroke-opacity:1"
         d="M 361.17659,251.36567 H 252.01591 l 13.89212,-14.1098 h 81.37643 z"
         id="path992" />
      <path
         style="fill:none;stroke:#999999;stroke-width:0.965002;stroke-linecap:butt;stroke-linejoin:miter;stroke-miterlimit:4;stroke-dasharray:none;stroke-opacity:1"
         d="m 252.01591,251.36567 13.89212,-14.1098 -10e-6,-190.101628 -13.89211,-14.1098 z"
         id="path994" />
      <rect
         style="fill:#808080;fill-opacity:1;stroke:none;stroke-width:0.999997;stroke-miterlimit:4;stroke-dasharray:none;stroke-opacity:1"
         id="rect998"
         width="1.8951504"
         height="11.370897"
         x="-362.27554"
         y="41.929016"
         transform="scale(-1,1)" />
      <rect
         style="fill:#808080;fill-opacity:1;stroke:none;stroke-width:0.999997;stroke-miterlimit:4;stroke-dasharray:none;stroke-opacity:1"
         id="rect1000"
         width="1.8951504"
         height="11.370897"
         x="-362.27554"
         y="231.1102"
         transform="scale(-1,1)" />
      <g
         id="g1010"
         inkscape:label="handle"
         transform="matrix(-0.71105356,0,0,0.71105319,480.22361,81.213169)"
         style="stroke-width:1.40637">
        <rect
           style="opacity:1;fill:#4d4d4d;fill-opacity:1;stroke:none;stroke-width:1.40637;stroke-miterlimit:4;stroke-dasharray:none;stroke-opacity:1"
           id="rect1002"
           width="10.239831"
           height="24.556183"
           x="306.05444"
           y="61.487507"
           ry="9.3844957"
           rx="9.384491" />
        <path
           id="path1004"
           style="opacity:1;fill:#999999;fill-opacity:1;stroke:none;stroke-width:1.40637;stroke-miterlimit:4;stroke-dasharray:none;stroke-opacity:1"
           d="m 311.17436,62.506643 c 2.25839,0 4.16532,2.738354 4.07652,6.136696 l -0.92207,35.286011 c -0.0889,3.40139 -0.89606,6.13669 -3.15445,6.13669 -2.25839,0 -3.06557,-2.7353 -3.15445,-6.13669 l -0.92207,-35.286011 c -0.0888,-3.398343 1.81813,-6.136696 4.07652,-6.136696 z"
           sodipodi:nodetypes="sssssss" />
        <path
           id="path1006"
           style="opacity:0.290323;fill:#000000;fill-opacity:1;stroke:none;stroke-width:5.3154;stroke-miterlimit:4;stroke-dasharray:none;stroke-opacity:1"
           d="m 1164.041,387.86523 0.1289,4.93946 c 0.3359,12.85564 3.3862,23.19336 11.9219,23.19336 8.5356,0 11.5859,-10.33772 11.9219,-23.19336 l 0.1289,-4.93946 c -3.9289,0.72553 -7.9773,1.78711 -12.0508,1.78711 -4.0733,0 -8.1221,-1.06157 -12.0508,-1.78711 z"
           transform="scale(0.26458333)" />
        <path
           id="path1008"
           style="opacity:0.858065;fill:#e6e6e6;fill-opacity:1;stroke:none;stroke-width:5.31538;stroke-miterlimit:4;stroke-dasharray:none;stroke-opacity:1"
           d="m 1176.0918,236.24609 c -8.5357,0 -15.7419,10.34923 -15.4063,23.19336 l 1.4747,56.43164 a 59.394482,70.708592 0 0 0 13.9316,1.97461 59.394482,70.708592 0 0 0 13.9336,-1.97461 l 1.4746,-56.43164 c 0.3356,-12.84412 -6.8726,-23.19336 -15.4082,-23.19336 z"
           transform="scale(0.26458333)" />
      </g>
      <g
         id="g957"
         inkscape:label="handle"
         transform="matrix(0.71105356,0,0,0.71105319,23.808218,81.213169)"
         style="stroke-width:1.40637"
         sodipodi:insensitive="true">
        <rect
           style="opacity:1;fill:#4d4d4d;fill-opacity:1;stroke:none;stroke-width:1.40637;stroke-miterlimit:4;stroke-dasharray:none;stroke-opacity:1"
           id="rect949"
           width="10.239831"
           height="24.556183"
           x="306.05444"
           y="61.487507"
           ry="9.3844957"
           rx="9.384491" />
        <path
           id="path951"
           style="opacity:1;fill:#999999;fill-opacity:1;stroke:none;stroke-width:1.40637;stroke-miterlimit:4;stroke-dasharray:none;stroke-opacity:1"
           d="m 311.17436,62.506643 c 2.25839,0 4.16532,2.738354 4.07652,6.136696 l -0.92207,35.286011 c -0.0889,3.40139 -0.89606,6.13669 -3.15445,6.13669 -2.25839,0 -3.06557,-2.7353 -3.15445,-6.13669 l -0.92207,-35.286011 c -0.0888,-3.398343 1.81813,-6.136696 4.07652,-6.136696 z"
           sodipodi:nodetypes="sssssss" />
        <path
           id="path953"
           style="opacity:0.290323;fill:#000000;fill-opacity:1;stroke:none;stroke-width:5.3154;stroke-miterlimit:4;stroke-dasharray:none;stroke-opacity:1"
           d="m 1164.041,387.86523 0.1289,4.93946 c 0.3359,12.85564 3.3862,23.19336 11.9219,23.19336 8.5356,0 11.5859,-10.33772 11.9219,-23.19336 l 0.1289,-4.93946 c -3.9289,0.72553 -7.9773,1.78711 -12.0508,1.78711 -4.0733,0 -8.1221,-1.06157 -12.0508,-1.78711 z"
           transform="scale(0.26458333)" />
        <path
           id="path955"
           style="opacity:0.858065;fill:#e6e6e6;fill-opacity:1;stroke:none;stroke-width:5.31538;stroke-miterlimit:4;stroke-dasharray:none;stroke-opacity:1"
           d="m 1176.0918,236.24609 c -8.5357,0 -15.7419,10.34923 -15.4063,23.19336 l 1.4747,56.43164 a 59.394482,70.708592 0 0 0 13.9316,1.97461 59.394482,70.708592 0 0 0 13.9336,-1.97461 l 1.4746,-56.43164 c 0.3356,-12.84412 -6.8726,-23.19336 -15.4082,-23.19336 z"
           transform="scale(0.26458333)" />
      </g>
      <rect
         style="fill:none;stroke:#999999;stroke-width:0.999997;stroke-miterlimit:4;stroke-dasharray:none;stroke-opacity:1"
         id="rect996"
         width="72.085243"
         height="180.81046"
         x="-342.63885"
         y="51.799824"
         transform="scale(-1,1)" />
      <path
         style="fill:none;stroke:#000000;stroke-width:0.264583px;stroke-linecap:butt;stroke-linejoin:miter;stroke-opacity:1"
         d="m 123.08302,13.503481 14.41191,14.359345 H 366.53689 L 380.9488,13.503481 Z"
         id="path1050" />
      <path
         style="fill:url(#linearGradient1094);fill-opacity:1;stroke:none;stroke-width:0.264583px;stroke-linecap:butt;stroke-linejoin:miter;stroke-opacity:1"
         d="m 123.08302,13.503481 14.41191,14.359345 V 256.54726 l -14.41191,13.9711 z"
         id="path1052" />
      <path
         style="fill:#999999;stroke:none;stroke-width:0.264583px;stroke-linecap:butt;stroke-linejoin:miter;stroke-opacity:1"
         d="m 123.08302,270.51836 14.41191,-13.9711 h 229.04196 l 14.41191,13.9711 z"
         id="path1054" />
      <path
         style="fill:url(#linearGradient1074);fill-opacity:1;stroke:#000000;stroke-width:0.264583px;stroke-linecap:butt;stroke-linejoin:miter;stroke-opacity:0"
         d="m 380.9488,270.51836 -14.41191,-13.9711 V 27.862826 L 380.9488,13.503481 Z"
         id="path1056" />
      <path
         style="fill:url(#linearGradient1066);fill-opacity:1;stroke:none;stroke-width:0.264583px;stroke-linecap:butt;stroke-linejoin:miter;stroke-opacity:1"
         d="m 123.08302,13.503481 14.41191,14.359345 H 366.53689 L 380.9488,13.503481 Z"
         id="path1058" />
      <rect
         style="opacity:0.858065;fill:#666666;fill-opacity:1;stroke:none;stroke-width:0.999999;stroke-miterlimit:4;stroke-dasharray:none;stroke-opacity:1"
         id="rect1096"
         width="257.86578"
         height="10.7246"
         x="123.08302"
         y="270.51837" />
    </g>
  </g>
</svg>
