<?xml version="1.0" encoding="UTF-8" standalone="no"?>
<svg
   xmlns:dc="http://purl.org/dc/elements/1.1/"
   xmlns:cc="http://creativecommons.org/ns#"
   xmlns:rdf="http://www.w3.org/1999/02/22-rdf-syntax-ns#"
   xmlns:svg="http://www.w3.org/2000/svg"
   xmlns="http://www.w3.org/2000/svg"
   xmlns:xlink="http://www.w3.org/1999/xlink"
   xmlns:sodipodi="http://sodipodi.sourceforge.net/DTD/sodipodi-0.dtd"
   xmlns:inkscape="http://www.inkscape.org/namespaces/inkscape"
   width="1080"
   height="1600"
   viewBox="0 0 285.75 423.33335"
   version="1.1"
   id="svg8"
   inkscape:version="1.0.2-2 (e86c870879, 2021-01-15)"
   sodipodi:docname="fruits-cherry.svg">
  <defs
     id="defs2">
    <linearGradient
       inkscape:collect="always"
       id="linearGradient1318">
      <stop
         style="stop-color:#008000;stop-opacity:1"
         offset="0"
         id="stop1314" />
      <stop
         style="stop-color:#00aa00;stop-opacity:1"
         offset="1"
         id="stop1316" />
    </linearGradient>
    <linearGradient
       inkscape:collect="always"
       id="linearGradient1136">
      <stop
         style="stop-color:#2b0000;stop-opacity:1"
         offset="0"
         id="stop1132" />
      <stop
         style="stop-color:#000000;stop-opacity:0"
         offset="1"
         id="stop1134" />
    </linearGradient>
    <linearGradient
       inkscape:collect="always"
       id="linearGradient7000">
      <stop
         style="stop-color:#ffffff;stop-opacity:1;"
         offset="0"
         id="stop6996" />
      <stop
         style="stop-color:#ffffff;stop-opacity:0;"
         offset="1"
         id="stop6998" />
    </linearGradient>
    <linearGradient
       inkscape:collect="always"
       id="linearGradient6988">
      <stop
         style="stop-color:#ffffff;stop-opacity:1;"
         offset="0"
         id="stop6984" />
      <stop
         style="stop-color:#ffffff;stop-opacity:0;"
         offset="1"
         id="stop6986" />
    </linearGradient>
    <linearGradient
       inkscape:collect="always"
       id="linearGradient6978">
      <stop
         style="stop-color:#ffffff;stop-opacity:0.51290323"
         offset="0"
         id="stop6974" />
      <stop
         style="stop-color:#ffffff;stop-opacity:0;"
         offset="1"
         id="stop6976" />
    </linearGradient>
    <linearGradient
       inkscape:collect="always"
       id="linearGradient6962">
      <stop
         style="stop-color:#ffffff;stop-opacity:1;"
         offset="0"
         id="stop6958" />
      <stop
         style="stop-color:#ffffff;stop-opacity:0.88709677"
         offset="1"
         id="stop6960" />
    </linearGradient>
    <linearGradient
       inkscape:collect="always"
       id="linearGradient6944">
      <stop
         style="stop-color:#ffffff;stop-opacity:1;"
         offset="0"
         id="stop6940" />
      <stop
         style="stop-color:#ffffff;stop-opacity:0;"
         offset="1"
         id="stop6942" />
    </linearGradient>
    <linearGradient
       inkscape:collect="always"
       id="linearGradient6698">
      <stop
         style="stop-color:#ff2a2a;stop-opacity:1"
         offset="0"
         id="stop6694" />
      <stop
         style="stop-color:#aa0000;stop-opacity:1"
         offset="1"
         id="stop6696" />
    </linearGradient>
    <radialGradient
       inkscape:collect="always"
       xlink:href="#linearGradient6698"
       id="radialGradient6700"
       cx="137.12631"
       cy="105.69296"
       fx="137.12631"
       fy="105.69296"
       r="47.21867"
       gradientUnits="userSpaceOnUse"
       gradientTransform="matrix(0.86016334,0,0,0.86016334,-27.900755,195.42786)" />
    <filter
       inkscape:collect="always"
       style="color-interpolation-filters:sRGB"
       id="filter6866"
       x="-0.057739854"
       width="1.1154797"
       y="-0.057739854"
       height="1.1154797">
      <feGaussianBlur
         inkscape:collect="always"
         stdDeviation="0.83218575"
         id="feGaussianBlur6868" />
    </filter>
    <filter
       inkscape:collect="always"
       style="color-interpolation-filters:sRGB"
       id="filter6936"
       x="-0.13505931"
       width="1.2701186"
       y="-0.13505931"
       height="1.2701186">
      <feGaussianBlur
         inkscape:collect="always"
         stdDeviation="1.946566"
         id="feGaussianBlur6938" />
    </filter>
    <linearGradient
       inkscape:collect="always"
       xlink:href="#linearGradient6962"
       id="linearGradient6946"
       x1="135.59514"
       y1="100.25731"
       x2="135.02272"
       y2="150.98991"
       gradientUnits="userSpaceOnUse" />
    <linearGradient
       inkscape:collect="always"
       xlink:href="#linearGradient6944"
       id="linearGradient6948"
       x1="128.58043"
       y1="102.39862"
       x2="130.71045"
       y2="165.26532"
       gradientUnits="userSpaceOnUse" />
    <linearGradient
       inkscape:collect="always"
       xlink:href="#linearGradient6978"
       id="linearGradient6980"
       x1="121.71324"
       y1="90.556992"
       x2="148.98711"
       y2="74.639145"
       gradientUnits="userSpaceOnUse"
       gradientTransform="matrix(0.86016334,0,0,0.86016334,-29.570504,195.76181)" />
    <linearGradient
       inkscape:collect="always"
       xlink:href="#linearGradient6988"
       id="linearGradient6990"
       x1="111.9198"
       y1="91.623596"
       x2="180.51451"
       y2="91.623596"
       gradientUnits="userSpaceOnUse"
       gradientTransform="matrix(0.86016334,0,0,0.86016334,-27.900755,195.42786)" />
    <linearGradient
       inkscape:collect="always"
       xlink:href="#linearGradient7000"
       id="linearGradient7002"
       x1="155.24509"
       y1="77.862762"
       x2="170.61131"
       y2="87.471207"
       gradientUnits="userSpaceOnUse"
       gradientTransform="matrix(0.86016334,0,0,0.86016334,-26.564956,195.51134)" />
    <linearGradient
       inkscape:collect="always"
       xlink:href="#linearGradient6962"
       id="linearGradient945"
       gradientUnits="userSpaceOnUse"
       x1="135.59514"
       y1="100.25731"
       x2="135.02272"
       y2="150.98991" />
    <linearGradient
       inkscape:collect="always"
       xlink:href="#linearGradient6944"
       id="linearGradient947"
       gradientUnits="userSpaceOnUse"
       x1="128.58043"
       y1="102.39862"
       x2="130.71045"
       y2="165.26532" />
    <linearGradient
       inkscape:collect="always"
       xlink:href="#linearGradient6978"
       id="linearGradient949"
       gradientUnits="userSpaceOnUse"
       gradientTransform="matrix(-0.85941017,-0.0359879,-0.0359879,0.85941017,328.47932,199.50684)"
       x1="110.84252"
       y1="88.421669"
       x2="175.77567"
       y2="88.809906" />
    <linearGradient
       inkscape:collect="always"
       xlink:href="#linearGradient6988"
       id="linearGradient951"
       gradientUnits="userSpaceOnUse"
       x1="111.9198"
       y1="91.623596"
       x2="180.51451"
       y2="91.623596"
       gradientTransform="matrix(-0.85941017,-0.0359879,-0.0359879,0.85941017,326.825,199.10332)" />
    <radialGradient
       inkscape:collect="always"
       xlink:href="#linearGradient6698"
       id="radialGradient953"
       gradientUnits="userSpaceOnUse"
       cx="137.12631"
       cy="105.69296"
       fx="137.12631"
       fy="105.69296"
       r="47.21867"
       gradientTransform="matrix(0.86016334,0,0,0.86016334,-334.86901,185.25514)" />
    <linearGradient
       inkscape:collect="always"
       xlink:href="#linearGradient6978"
       id="linearGradient957"
       gradientUnits="userSpaceOnUse"
       gradientTransform="matrix(0.50173945,-0.0210104,0.0210104,0.50173945,104.5119,232.84198)"
       x1="110.84252"
       y1="88.421669"
       x2="175.77567"
       y2="88.809906" />
    <linearGradient
       inkscape:collect="always"
       xlink:href="#linearGradient1136"
       id="linearGradient1140"
       gradientUnits="userSpaceOnUse"
       x1="606.00793"
       y1="735.31"
       x2="649.98273"
       y2="630.54852"
       gradientTransform="matrix(0.22758488,0,0,0.22758488,-38.87317,101.57955)" />
    <linearGradient
       inkscape:collect="always"
       xlink:href="#linearGradient1136"
       id="linearGradient1240"
       x1="641.40631"
       y1="733.52277"
       x2="675.18134"
       y2="640.52863"
       gradientUnits="userSpaceOnUse"
       gradientTransform="matrix(0.22758488,0,0,0.22758488,-38.763297,101.44489)" />
    <linearGradient
       inkscape:collect="always"
       xlink:href="#linearGradient1136"
       id="linearGradient1252"
       gradientUnits="userSpaceOnUse"
       gradientTransform="matrix(-0.22758488,0,0,0.22758488,335.09536,100.49652)"
       x1="641.40631"
       y1="733.52277"
       x2="675.18134"
       y2="640.52863" />
    <linearGradient
       inkscape:collect="always"
       xlink:href="#linearGradient1136"
       id="linearGradient1254"
       gradientUnits="userSpaceOnUse"
       gradientTransform="matrix(-0.22758488,0,0,0.22758488,335.20523,100.63118)"
       x1="606.00793"
       y1="735.31"
       x2="649.98273"
       y2="630.54852" />
    <linearGradient
       inkscape:collect="always"
       xlink:href="#linearGradient1318"
       id="linearGradient1320"
       x1="73.83783"
       y1="-58.088413"
       x2="4.6669612"
       y2="47.767723"
       gradientUnits="userSpaceOnUse"
       gradientTransform="matrix(0.9491423,0,0,0.9491423,5.486376,18.919189)" />
    <linearGradient
       inkscape:collect="always"
       xlink:href="#linearGradient1318"
       id="linearGradient1384"
       gradientUnits="userSpaceOnUse"
       gradientTransform="matrix(-1.3336179,0,0,0.99348487,277.56188,187.04348)"
       x1="73.83783"
       y1="-58.088413"
       x2="4.6669612"
       y2="47.767723" />
  </defs>
  <sodipodi:namedview
     id="base"
     pagecolor="#ffffff"
     bordercolor="#666666"
     borderopacity="1.0"
     inkscape:pageopacity="0.0"
     inkscape:pageshadow="2"
     inkscape:zoom="0.25"
     inkscape:cx="1504.8796"
     inkscape:cy="1062.6386"
     inkscape:document-units="mm"
     inkscape:current-layer="layer1"
     inkscape:document-rotation="0"
     showgrid="false"
     units="px"
     inkscape:showpageshadow="false"
     showborder="true"
     inkscape:window-width="1920"
     inkscape:window-height="1017"
     inkscape:window-x="1077"
     inkscape:window-y="817"
     inkscape:window-maximized="1"
     inkscape:snap-global="false" />
  <metadata
     id="metadata5">
    <rdf:RDF>
      <cc:Work
         rdf:about="">
        <dc:format>image/svg+xml</dc:format>
        <dc:type
           rdf:resource="http://purl.org/dc/dcmitype/StillImage" />
        <dc:title></dc:title>
      </cc:Work>
    </rdf:RDF>
  </metadata>
  <g
     inkscape:label="Layer 1"
     inkscape:groupmode="layer"
     id="layer1">
    <circle
       style="fill:url(#radialGradient6700);fill-opacity:1;stroke-width:0.264999"
       id="path6675"
       cx="97.25248"
       cy="300.74548"
       r="40.615768" />
    <path
       style="opacity:0.109677;fill:url(#linearGradient6990);fill-opacity:1;stroke:none;stroke-width:0.264583px;stroke-linecap:butt;stroke-linejoin:miter;stroke-opacity:1"
       d="m 88.313782,261.63341 c -4.774647,0.92726 -9.558651,3.00563 -13.188558,6.24304 -3.154916,2.81377 -6.106661,6.58388 -6.696802,10.76988 -0.177873,1.26169 0.0043,2.93927 1.042372,3.67764 2.265034,1.61056 5.664606,0.32225 8.323568,-0.4866 2.780831,-0.84592 4.610682,-4.28313 7.513871,-4.42483 3.432336,-0.16753 6.409809,2.56349 9.350595,4.34134 2.038682,1.23249 3.481015,3.41819 5.677142,4.34135 3.23992,1.36192 6.92156,1.5356 10.43593,1.50277 3.9756,-0.0371 8.26025,-0.0557 11.77173,-1.92021 1.79093,-0.9509 3.47213,-2.52261 4.17438,-4.42483 0.98425,-2.6661 0.86495,-5.97951 -0.41744,-8.51572 -0.94766,-1.87419 -3.14161,-2.80811 -4.88525,-3.97875 -3.36047,-2.25616 -6.77057,-4.69753 -10.66194,-5.81128 -7.20344,-2.06169 -15.084342,-2.74223 -22.439598,-1.3138 z"
       id="path6982"
       sodipodi:nodetypes="aaaaaaaaaaaaaaa" />
    <path
       id="circle6684"
       style="opacity:0.0516129;fill:#000000;stroke-width:0.264999"
       d="m 76.967427,265.55778 a 40.615767,40.615767 0 0 0 -20.330623,35.18765 40.615767,40.615767 0 0 0 40.615898,40.6159 40.615767,40.615767 0 0 0 34.143058,-18.61929 40.615767,40.615767 0 0 1 -20.28438,5.42825 40.615767,40.615767 0 0 1 -40.615899,-40.6159 40.615767,40.615767 0 0 1 6.471946,-21.99661 z" />
    <path
       style="opacity:1;fill:url(#linearGradient6980);fill-opacity:1;stroke:none;stroke-width:0.264583px;stroke-linecap:butt;stroke-linejoin:miter;stroke-opacity:1"
       d="m 96.528187,261.26068 c 0,0 -14.395728,1.43726 -18.812796,4.61352 -1.919274,1.38013 -4.150331,3.1936 -5.786078,5.20803 -1.838651,2.26432 -4.394291,7.56707 -4.394291,7.56707 0,0 11.006736,-4.72095 16.855064,-4.90182 5.859975,-0.18123 11.321659,4.39485 17.159864,3.85861 3.69121,-0.33905 10.22339,-4.37518 10.22339,-4.37518 0,0 -9.04839,1.04275 -13.145867,-0.39862 -2.56466,-0.90216 -4.660182,-2.27358 -6.230272,-3.58033 -1.256191,-1.04551 -2.949965,-2.61316 -2.538394,-4.19485 0.644185,-2.47562 6.66938,-3.79643 6.66938,-3.79643 z"
       id="path6972"
       sodipodi:nodetypes="csacaacssac" />
    <path
       id="circle6677"
       style="opacity:0.0741936;fill:#000000;stroke-width:0.264999"
       d="m 74.057271,267.40469 a 40.615767,40.615767 0 0 0 -17.420467,33.34074 40.615767,40.615767 0 0 0 40.615898,40.6159 40.615767,40.615767 0 0 0 23.383458,-7.40718 42.619465,42.035053 0 0 1 -13.6991,2.23095 42.619465,42.035053 0 0 1 -42.619264,-42.03519 42.619465,42.035053 0 0 1 9.739475,-26.74522 z" />
    <path
       id="path6689"
       style="fill:#800000;stroke-width:0.264998"
       d="m 114.75647,270.21859 a 14.896789,12.25318 10.518547 0 0 -10.88422,-7.91894 14.896789,12.25318 10.518547 0 0 -13.326542,2.69853 14.896789,12.25318 10.518547 0 0 10.884232,7.91895 14.896789,12.25318 10.518547 0 0 13.32653,-2.69854 z" />
    <path
       id="path6702"
       style="fill:#550000;stroke-width:0.264998"
       d="m 113.41626,269.95487 a 13.210675,10.262606 10.518547 0 0 -9.70442,-6.74173 13.210675,10.262606 10.518547 0 0 -11.772427,2.14673 13.210675,10.262606 10.518547 0 0 9.704437,6.74174 13.210675,10.262606 10.518547 0 0 11.77241,-2.14674 z" />
    <circle
       style="opacity:0.109677;fill:url(#linearGradient6948);fill-opacity:1;stroke:#000000;stroke-width:0.24093;stroke-opacity:1;filter:url(#filter6866)"
       id="path6704"
       cx="130.81218"
       cy="122.16457"
       r="17.29521"
       transform="matrix(1.1000932,0,0,1.099708,-57.61675,166.89286)" />
    <circle
       style="opacity:0.109677;fill:url(#linearGradient6946);fill-opacity:1;stroke:#000000;stroke-width:0.404762;stroke-opacity:1;filter:url(#filter6936)"
       id="circle6870"
       cx="130.81218"
       cy="122.16457"
       r="17.29521"
       transform="matrix(0.65481736,0,0,0.65458808,-2.0872995,213.8742)" />
    <path
       id="path6992"
       style="fill:#2b0000;stroke-width:0.264998"
       d="m 112.3814,269.80896 a 11.107464,9.2925725 10.301633 0 0 -8.10028,-5.97083 11.107464,9.2925725 10.301633 0 0 -9.952156,2.08158 11.107464,9.2925725 10.301633 0 0 8.100306,5.97083 11.107464,9.2925725 10.301633 0 0 9.95213,-2.08158 z" />
    <path
       style="opacity:1;fill:url(#linearGradient7002);fill-opacity:1;stroke:none;stroke-width:0.264583px;stroke-linecap:butt;stroke-linejoin:miter;stroke-opacity:1"
       d="m 106.73505,262.16135 c 0,0 4.52556,2.109 6.25766,3.83724 1.40721,1.40409 3.12882,5.07698 3.12882,5.07698 0,0 1.47177,-3.94912 0.47229,-5.49022 -1.89294,-2.91872 -9.85877,-3.424 -9.85877,-3.424 z"
       id="path6994"
       sodipodi:nodetypes="cacac" />
    <circle
       style="fill:url(#radialGradient953);fill-opacity:1;stroke-width:0.264999"
       id="circle921"
       cx="-209.71581"
       cy="290.57278"
       r="40.615768"
       transform="matrix(-0.99912439,-0.04183845,-0.04183845,0.99912439,0,0)" />
    <path
       style="opacity:0.109677;fill:url(#linearGradient951);fill-opacity:1;stroke:none;stroke-width:0.264583px;stroke-linecap:butt;stroke-linejoin:miter;stroke-opacity:1"
       d="m 207.94229,260.38867 c 4.73168,1.12621 9.42453,3.40292 12.91581,6.78937 3.03444,2.9433 5.82585,6.83361 6.24035,11.04063 0.12493,1.26803 -0.12727,2.93652 -1.19533,3.63081 -2.33043,1.51439 -5.67312,0.085 -8.29592,-0.83442 -2.743,-0.96152 -4.42744,-4.47228 -7.32217,-4.73532 -3.42232,-0.31099 -6.51144,2.29306 -9.52403,3.94633 -2.08846,1.14611 -3.62098,3.26954 -5.85381,4.10002 -3.29406,1.22517 -6.97975,1.24466 -10.48968,1.06483 -3.97055,-0.20346 -8.25066,-0.40128 -11.68108,-2.41105 -1.74957,-1.02499 -3.36354,-2.66566 -3.98559,-4.5956 -0.87184,-2.70495 -0.61402,-6.01047 0.77336,-8.4908 1.02524,-1.83291 3.25635,-2.67421 5.04743,-3.77087 3.45193,-2.11359 6.96119,-4.41014 10.89574,-5.36011 7.2834,-1.75852 15.18587,-2.10872 22.47492,-0.37382 z"
       id="path923"
       sodipodi:nodetypes="aaaaaaaaaaaaaaa" />
    <path
       id="path925"
       style="opacity:0.0516129;fill:#000000;stroke-width:0.264999"
       d="m 219.11453,264.78432 a 40.615767,40.615767 0 0 1 18.84063,36.00745 40.615767,40.615767 0 0 1 -42.27965,38.88102 40.615767,40.615767 0 0 1 -33.33417,-20.03149 40.615767,40.615767 0 0 0 20.03952,6.27218 40.615767,40.615767 0 0 0 42.27964,-38.88102 40.615767,40.615767 0 0 0 -5.54597,-22.24814 z" />
    <path
       style="opacity:1;fill:url(#linearGradient949);fill-opacity:1;stroke:none;stroke-width:0.264583px;stroke-linecap:butt;stroke-linejoin:miter;stroke-opacity:1"
       d="m 199.75067,259.6726 c 0,0 13.49651,2.33346 17.77682,5.69175 1.85985,1.45921 4.65181,3.0376 6.3896,5.15037 1.85288,2.2527 4.07386,7.7443 4.07386,7.7443 0,0 -10.79959,-5.17733 -16.63523,-5.60272 -5.84727,-0.42624 -11.49562,3.91733 -17.30628,3.13729 -3.67379,-0.49319 -10.03139,-4.79908 -10.03139,-4.79908 0,0 8.99685,1.42041 13.15103,0.15174 2.60017,-0.79408 4.75124,-2.07663 6.37462,-3.31655 1.29883,-0.99203 3.05671,-2.48743 2.71168,-4.08496 -0.54006,-2.50041 -6.50471,-4.07214 -6.50471,-4.07214 z"
       id="path927"
       sodipodi:nodetypes="csacaacssac" />
    <path
       id="path929"
       style="opacity:0.0741936;fill:#000000;stroke-width:0.264999"
       d="m 221.94486,266.75137 a 40.615767,40.615767 0 0 1 16.0103,34.0404 40.615767,40.615767 0 0 1 -42.27965,38.88102 40.615767,40.615767 0 0 1 -23.05308,-8.37901 42.619465,42.035053 2.3978664 0 0 13.59376,2.80214 42.619465,42.035053 2.3978664 0 0 44.34064,-40.21526 42.619465,42.035053 2.3978664 0 0 -8.61197,-27.12929 z" />
    <path
       id="path931"
       style="fill:#800000;stroke-width:0.264998"
       d="m 181.16357,267.86002 a 12.25318,14.896789 81.879319 0 1 11.206,-7.45664 12.25318,14.896789 81.879319 0 1 13.20198,3.25373 12.25318,14.896789 81.879319 0 1 -11.20603,7.45665 12.25318,14.896789 81.879319 0 1 -13.20195,-3.25374 z" />
    <path
       id="path933"
       style="fill:#550000;stroke-width:0.264998"
       d="m 182.51364,267.6526 a 10.262606,13.210675 81.879319 0 1 9.97799,-6.32982 10.262606,13.210675 81.879319 0 1 11.67229,2.6374 10.262606,13.210675 81.879319 0 1 -9.978,6.32982 10.262606,13.210675 81.879319 0 1 -11.67228,-2.6374 z" />
    <circle
       style="opacity:0.109677;fill:url(#linearGradient947);fill-opacity:1;stroke:#000000;stroke-width:0.24093;stroke-opacity:1;filter:url(#filter6866)"
       id="circle935"
       cx="130.81218"
       cy="122.16457"
       r="17.29521"
       transform="matrix(-1.0991299,-0.04602619,-0.04601006,1.0987451,335.50119,170.83473)" />
    <circle
       style="opacity:0.109677;fill:url(#linearGradient945);fill-opacity:1;stroke:#000000;stroke-width:0.404762;stroke-opacity:1;filter:url(#filter6936)"
       id="circle937"
       cx="130.81218"
       cy="122.16457"
       r="17.29521"
       transform="matrix(-0.654244,-0.02739654,-0.02738695,0.65401491,272.04363,215.45168)" />
    <path
       style="opacity:1;fill:url(#linearGradient957);fill-opacity:1;stroke:none;stroke-width:0.264583px;stroke-linecap:butt;stroke-linejoin:miter;stroke-opacity:1"
       d="m 189.22965,260.23432 c 0,0 -5.87685,1.50774 -8.62447,2.75656 -2.44695,1.11217 -6.90022,4.17228 -6.90022,4.17228 0,0 -4.32731,3.71243 -6.14054,5.8948 -1.58818,1.91149 -4.09039,6.23326 -4.09039,6.23326 0,0 6.48556,-7.88407 10.88671,-7.43746 4.13989,1.37096 7.98514,-1.40542 7.98514,-1.40542 0,0 -2.4377,-1.46782 -2.34498,-2.64158 0.31339,-3.96691 9.22875,-7.57244 9.22875,-7.57244 z"
       id="path955"
       sodipodi:nodetypes="cacacccac" />
    <path
       style="fill:#409f00;fill-opacity:1;stroke:none;stroke-width:0.264583px;stroke-linecap:butt;stroke-linejoin:miter;stroke-opacity:1"
       d="m 95.42415,266.78701 c 0,0 4.319863,-4.79857 6.71164,-12.23514 5.49689,-17.09097 15.15335,-48.11547 19.05477,-66.84597 5.55631,-26.6755 10.36073,-81.08482 10.36073,-81.08482 l 11.68824,1.3358 c 0,0 -5.13595,54.68575 -10.85336,81.48376 -4.07202,19.08587 -14.13631,50.85901 -19.69716,67.87722 -2.31257,7.07732 -1.13072,11.60283 -1.13072,11.60283 z"
       id="path959"
       sodipodi:nodetypes="cssccsscc" />
    <g
       id="g1372"
       transform="matrix(0.86016334,0,0,0.86016334,-29.972095,101.76001)"
       style="stroke-width:1.16257">
      <path
         style="fill:#00aa00;fill-opacity:1;stroke:none;stroke-width:0.307596px;stroke-linecap:butt;stroke-linejoin:miter;stroke-opacity:1"
         d="m 141.01808,50.7478 c 0,0 5.4632,-3.294175 8.09159,-5.098166 13.24512,-9.09079 38.63381,-28.811654 38.63381,-28.811654 l 3.55468,3.180507 c 0,0 -27.81334,16.286411 -39.56925,27.127857 -2.50953,2.314316 -6.45456,7.951269 -6.45456,7.951269 z"
         id="path1363"
         sodipodi:nodetypes="caccacc" />
      <path
         id="rect1365"
         style="opacity:0.193548;fill:#000000;fill-opacity:1;stroke:none;stroke-width:1.1644"
         inkscape:transform-center-x="4.3409953"
         inkscape:transform-center-y="3.1672447"
         d="m 709.58203,63.638672 c 0,0 -6.0718,4.707775 -14.83398,11.455078 l 7.82617,12.855469 c 12.38071,-7.557681 20.44336,-12.289063 20.44336,-12.289063 z"
         transform="scale(0.26458333)" />
    </g>
    <path
       id="path961"
       style="opacity:0.267742;fill:#000000;stroke:none;stroke-width:0.264583px;stroke-linecap:butt;stroke-linejoin:miter;stroke-opacity:1"
       d="m 139.81545,107.56565 c -0.96123,10.61128 -5.26106,56.28158 -10.15242,80.17566 -3.90142,19.05832 -13.89199,50.54228 -19.38884,67.93239 -0.43505,1.37631 -2.18576,3.49811 -2.7101,4.68267 -1.97347,4.45834 -3.85524,6.71522 -4.56876,7.58105 l 8.56315,0.98324 c 0,0 -1.18221,-4.52552 1.13037,-11.60283 5.56085,-17.01821 15.62518,-48.79132 19.6972,-67.87719 5.71741,-26.798 10.8534,-81.48384 10.8534,-81.48384 z"
       sodipodi:nodetypes="csssccsscc" />
    <path
       id="rect966"
       style="opacity:1;fill:url(#linearGradient1140);fill-opacity:1;stroke:none;stroke-width:0.264999;stroke-opacity:1"
       d="m 105.17606,244.77622 c -1.13717,3.61772 -2.20763,6.97957 -3.15019,9.91016 -2.391767,7.43657 -6.711967,12.23536 -6.711967,12.23536 l 7.681427,1.01568 c 0.77713,-0.94453 2.57023,-3.17974 4.4588,-7.44628 0.52434,-1.18457 2.27508,-3.30652 2.71013,-4.68284 0.91108,-2.88234 1.97192,-6.24795 3.08173,-9.78392 z" />
    <path
       id="path968"
       style="opacity:1;fill:url(#linearGradient1240);fill-opacity:1;stroke:none;stroke-width:0.264583px;stroke-linecap:butt;stroke-linejoin:miter;stroke-opacity:1"
       d="m 113.35586,245.88928 c -1.10985,3.53614 -2.2541,6.81842 -3.16522,9.70089 -0.43505,1.3763 -2.35276,3.91569 -2.8771,5.10026 -1.97347,4.45833 -3.60506,6.3812 -4.31857,7.24703 l 8.56332,0.98323 c 0,0 -1.18221,-4.52551 1.13037,-11.60283 1.04559,-3.1999 2.25064,-6.9224 3.5449,-10.98319 z"
       sodipodi:nodetypes="cssccscc" />
    <path
       style="fill:#00aa00;stroke:none;stroke-width:0.264583px;stroke-linecap:butt;stroke-linejoin:miter;stroke-opacity:1"
       d="m 148.68964,112.8586 c 0,0 67.35122,17.1901 88.50369,36.8197 24.80445,23.01866 34.14461,84.8217 34.14461,84.8217 0,0 -62.95544,10.13119 -103.61036,-36.00149 -19.30592,-21.90718 -19.03794,-85.63991 -19.03794,-85.63991 z"
       id="path1374"
       sodipodi:nodetypes="cacsc" />
    <path
       style="fill:url(#linearGradient1384);fill-opacity:1;stroke:none;stroke-width:0.264583px;stroke-linecap:butt;stroke-linejoin:miter;stroke-opacity:1"
       d="m 152.01817,116.18541 c 0,0 57.65481,13.74692 80.01105,33.57497 22.35623,19.82805 35.98018,81.46402 35.98018,81.46402 0,0 -59.53835,9.5813 -97.98662,-34.04741 -18.25805,-20.71811 -18.00461,-80.99158 -18.00461,-80.99158 z"
       id="path1376"
       sodipodi:nodetypes="czcsc" />
    <path
       id="path1378"
       style="fill:#007100;fill-opacity:1;stroke:none;stroke-width:0.264583px;stroke-linecap:butt;stroke-linejoin:miter;stroke-opacity:1"
       d="m 152.23977,117.34875 c 1.88704,1.6649 15.83028,13.98124 29.77473,26.72798 l 13.7537,12.76101 c 2.69406,2.54803 5.17869,4.93779 7.33065,7.06589 l 21.90033,22.56845 c 0.0898,0.0947 0.17955,0.18858 0.26946,0.28339 l 20.23185,21.61661 21.31729,23.01407 c -0.005,5.2e-4 -0.0122,0.002 -0.0172,0.002 -0.19786,0.0246 -0.44054,0.0526 -0.68572,0.0806 -0.12523,0.0143 -0.25434,0.0287 -0.39145,0.0436 -0.21345,0.0232 -0.44939,0.0471 -0.69123,0.0714 -0.22103,0.0221 -0.45496,0.0443 -0.69882,0.0667 -0.19828,0.0183 -0.40432,0.0366 -0.61749,0.055 -0.33439,0.0286 -0.69377,0.057 -1.06339,0.0847 -0.19756,0.0149 -0.39282,0.0292 -0.60025,0.0436 -0.42442,0.0293 -0.87758,0.0571 -1.34181,0.0837 -0.17732,0.0102 -0.34766,0.0212 -0.53066,0.0308 -0.60696,0.0318 -1.24614,0.0599 -1.91313,0.0842 -0.066,0.003 -0.12645,0.006 -0.19296,0.008 -0.98236,0.0342 -2.03178,0.0574 -3.13295,0.0683 -0.38968,0.004 -0.78781,0.005 -1.19157,0.006 -11.47344,0.008 -28.51454,-1.49683 -46.01494,-8.50597 -7e-4,-2.6e-4 -0.002,-7.9e-4 -0.002,-8.6e-4 -0.002,-7.9e-4 -0.003,-0.002 -0.005,-0.002 -0.65743,-0.26337 -1.31533,-0.53565 -1.97376,-0.81476 -0.0652,-0.0277 -0.1305,-0.0559 -0.19573,-0.0837 -0.60474,-0.25778 -1.20946,-0.52228 -1.81457,-0.79371 -0.0871,-0.0391 -0.17416,-0.0782 -0.2612,-0.11757 -0.5902,-0.26668 -1.18037,-0.54038 -1.77046,-0.82041 -0.094,-0.0446 -0.1879,-0.089 -0.28187,-0.13399 -0.57296,-0.27401 -1.14567,-0.55507 -1.7181,-0.84197 -0.11142,-0.0558 -0.22285,-0.11102 -0.33424,-0.16737 -0.5774,-0.29205 -1.15475,-0.5919 -1.73118,-0.89742 -0.0954,-0.0506 -0.19064,-0.1 -0.28602,-0.15094 -0.62812,-0.3355 -1.25565,-0.67898 -1.8821,-1.03091 -0.037,-0.0208 -0.074,-0.0408 -0.11096,-0.0616 -1.44233,-0.81267 -2.87954,-1.67052 -4.30867,-2.57366 -0.4132,-0.26118 -0.82596,-0.52677 -1.23774,-0.79577 -0.16802,-0.10973 -0.33602,-0.21856 -0.50379,-0.32959 -0.46305,-0.30658 -0.9249,-0.61977 -1.38591,-0.93645 -0.16638,-0.11426 -0.33286,-0.22838 -0.49895,-0.34397 -0.47111,-0.32794 -0.94069,-0.66185 -1.40935,-1.00061 -0.15217,-0.10997 -0.30433,-0.22054 -0.45623,-0.33166 -0.47608,-0.34835 -0.95124,-0.7014 -1.4245,-1.06119 -0.13918,-0.10579 -0.27803,-0.21307 -0.41695,-0.31985 -0.4955,-0.38095 -0.98964,-0.76649 -1.4817,-1.16028 -0.086,-0.0688 -0.17119,-0.13924 -0.25707,-0.20843 -0.49933,-0.40242 -0.99725,-0.8106 -1.49273,-1.22651 -0.0738,-0.0619 -0.14754,-0.12363 -0.22122,-0.18585 -0.50676,-0.42798 -1.01103,-0.86419 -1.51341,-1.30659 -0.0815,-0.0717 -0.16329,-0.14248 -0.24465,-0.21461 -0.50862,-0.45095 -1.01447,-0.91037 -1.51824,-1.37641 -0.0906,-0.0838 -0.1811,-0.16729 -0.27153,-0.25157 -0.50229,-0.46827 -1.00185,-0.94466 -1.49893,-1.42827 -0.0839,-0.0816 -0.16782,-0.16336 -0.25155,-0.24541 -0.50123,-0.49118 -0.99994,-0.98993 -1.49549,-1.49707 -0.076,-0.0778 -0.15218,-0.15639 -0.22811,-0.23462 -0.50591,-0.52119 -1.00902,-1.04976 -1.50859,-1.58793 -0.0518,-0.0557 -0.10337,-0.11246 -0.15506,-0.1684 -0.52455,-0.56771 -1.04591,-1.14284 -1.56303,-1.72964 -16.76665,-19.0257 -17.91927,-71.28065 -17.99623,-79.71162 z" />
    <path
       id="path1405"
       style="opacity:0.235484;fill:#000000;fill-opacity:1;stroke:none;stroke-width:0.264583px;stroke-linecap:butt;stroke-linejoin:miter;stroke-opacity:1"
       d="m 160.10385,116.01429 c 1.71464,16.65328 5.67254,52.39486 9.95728,72.47778 1.04342,4.8906 2.48324,10.62007 4.13697,16.71504 4.7668,4.5172 9.75613,8.37811 14.84991,11.67263 -3.15569,-10.93527 -6.04848,-21.75533 -7.79122,-30.12212 -3.78096,-18.15214 -7.20948,-49.1152 -9.01716,-67.06863 -4.51895,-1.42615 -8.643,-2.66234 -12.13578,-3.6747 z" />
    <path
       id="path1380"
       style="opacity:0.283871;fill:#000000;stroke:none;stroke-width:0.264583px;stroke-linecap:butt;stroke-linejoin:miter;stroke-opacity:1"
       d="m 152.01797,116.18531 c 0,0 0.42748,0.0955 1.07897,0.24341 1.96276,1.6736 4.48018,3.82404 7.48602,6.40595 l -0.0378,-0.11304 c 0,0 7.19752,0.54968 14.60247,2.10358 7.07481,1.48463 13.09377,4.56758 13.09377,4.56758 l -0.37176,0.27695 c 0,0 -6.51856,-2.5538 -13.78791,-3.86387 -5.7442,-1.03519 -8.03974,-0.72634 -11.44396,-1.20621 3.20197,2.75688 6.65179,5.73757 10.40927,9.01421 0.43495,0.0689 13.81308,2.19049 20.50271,3.63921 6.49634,1.40687 19.20445,4.932 19.20445,4.932 l -0.34126,0.26233 c 0,0 -13.16699,-3.02306 -19.84197,-4.26451 -5.06287,-0.9416 -13.97334,-2.26204 -17.46835,-2.77214 3.9025,3.41292 7.92328,6.95382 11.85783,10.46871 2.59285,0.6068 13.19649,3.10805 18.96919,4.80163 6.27018,1.83953 18.43915,6.19878 18.43915,6.19878 l -0.37175,0.23423 c 0,0 -12.68695,-3.89733 -19.15508,-5.5865 -4.31833,-1.12773 -11.61113,-2.76241 -15.65821,-3.65653 5.59401,5.02425 10.89308,9.88742 15.16592,14.00571 2.5994,0.61824 13.17564,3.15266 18.93361,4.86491 6.25867,1.86115 16.95502,8.31861 16.95502,8.31861 l -0.37322,0.23313 c 0,0 -11.21629,-5.997 -17.67384,-7.70846 -4.37322,-1.15905 -11.83731,-2.85831 -15.83611,-3.75606 5.56767,5.46469 12.10222,12.22561 18.84867,19.37528 3.31542,0.75321 10.08948,2.36286 13.74567,3.73767 4.42176,1.66266 12.32908,6.17824 12.32908,6.17824 l -0.29189,0.18986 c 0,0 -8.3463,-4.1463 -12.8947,-5.68169 -2.99627,-1.01145 -8.13926,-2.18747 -11.4534,-2.90413 4.94073,5.2529 9.95922,10.66982 14.76802,15.9124 2.29887,0.5543 5.87924,1.47076 7.9362,2.27073 2.84524,1.10654 7.93403,4.11143 7.93403,4.11143 l -0.18807,0.12657 c 0,0 -5.37034,-2.7591 -8.29706,-3.78094 -1.69244,-0.5909 -4.37303,-1.24523 -6.46732,-1.72495 10.97291,11.97773 20.69722,22.8531 25.5948,28.35758 0.0547,0.71965 0.09,1.22732 0.09,1.22732 0,0 -0.36398,0.056 -0.98603,0.13577 -4.96709,-5.40611 -15.81055,-17.17609 -27.81665,-30.00194 -0.49461,0.9149 -2.70763,5.10825 -2.92398,7.5251 -0.26185,2.92511 1.8254,8.71292 1.8254,8.71292 l -0.33037,0.0368 c 0,0 -2.67901,-5.75068 -2.58054,-8.70156 0.0958,-2.87172 2.94389,-8.2243 3.10913,-8.53281 -4.81901,-5.14427 -9.7943,-10.42395 -14.63732,-15.51537 -0.92111,2.07379 -2.90472,6.80745 -3.12002,9.62761 -0.30276,3.96565 2.11075,11.81178 2.11075,11.81178 l -0.38192,0.0503 c 0,0 -3.0981,-7.79659 -2.98425,-11.79718 0.0945,-3.32029 2.44018,-8.93173 3.27758,-10.84356 -7.05279,-7.40304 -13.76929,-14.34389 -19.18193,-19.72849 -0.6939,1.82166 -4.37042,7.63403 -5.19012,11.69386 -1.45835,7.22293 0.60992,21.90781 0.60992,21.90781 l -0.46398,0.10981 c 0,0 -2.79363,-14.55638 -1.68671,-21.78232 0.70704,-4.61561 4.91753,-12.41682 5.25763,-13.37501 -4.11267,-4.03912 -9.26158,-8.89288 -14.72008,-13.94458 -1.02715,2.57317 -4.39753,10.12052 -5.3397,15.36392 -1.11733,6.21831 -0.32311,18.81977 -0.32311,18.81977 l -0.46615,0.10439 c 0,0 -1.60721,-12.49993 -0.75587,-18.70564 0.79209,-5.77379 4.58291,-14.70439 5.41448,-16.93795 -4.03816,-3.72593 -8.20741,-7.52803 -12.22886,-11.17028 -0.88811,2.22508 -4.27043,7.58186 -5.17051,11.60084 -1.92653,8.60214 -0.35289,26.16204 -0.35289,26.16204 l -0.47051,0.10385 c 0,0 -2.28456,-17.44224 -0.73553,-26.05061 0.81655,-4.53773 4.57077,-11.40352 5.2286,-13.17109 -3.64621,-3.2965 -6.99345,-6.30045 -10.11303,-9.0921 -0.88825,3.05181 -2.00747,7.75178 -2.38014,11.67981 -0.41452,4.36922 -0.42301,10.98558 -0.42301,10.98558 l -0.48794,0.14659 c 0,0 -0.87136,-6.46116 -0.71767,-10.78491 0.16144,-4.54192 1.65431,-10.94774 2.33875,-13.51889 -3.48085,-3.11005 -6.14684,-5.48011 -8.19252,-7.29521 -0.003,-0.42877 -0.003,-0.66802 -0.003,-0.66802 z"
       sodipodi:nodetypes="ccccsccsccsccsccsccsccsccsccsccsccsccscccccsccsccsccsccsccsccsccsccsccsccsccsccc" />
    <path
       id="path939"
       style="fill:#2b0000;stroke-width:0.264998"
       d="m 184.09113,267.74537 a 9.2215686,10.924816 81.608964 0 1 8.20474,-5.58627 9.2215686,10.924816 81.608964 0 1 9.69166,2.47611 9.2215686,10.924816 81.608964 0 1 -8.2048,5.5863 9.2215686,10.924816 81.608964 0 1 -9.6916,-2.47614 z" />
    <path
       style="fill:#3b9100;fill-opacity:1;stroke:none;stroke-width:0.264583px;stroke-linecap:butt;stroke-linejoin:miter;stroke-opacity:1"
       d="m 200.90791,265.83865 c 0,0 -4.31986,-4.79858 -6.71164,-12.23514 -5.49689,-17.09098 -15.15335,-48.11548 -19.05477,-66.84597 -5.55631,-26.67551 -10.36073,-81.08482 -10.36073,-81.08482 l -11.68825,1.3358 c 0,0 5.13596,54.68574 10.85337,81.48375 4.07202,19.08587 14.13631,50.85902 19.69716,67.87723 2.31257,7.07731 1.13072,11.60283 1.13072,11.60283 z"
       id="path1244"
       sodipodi:nodetypes="cssccsscc" />
    <path
       id="rect1263"
       style="opacity:0.158065;fill:#000000;fill-opacity:1;stroke:none;stroke-width:0.264999"
       d="m 154.29198,118.9191 c 0.25395,2.42289 0.5408,5.09721 0.86323,8.0286 l 3.73822,1.96195 7.98062,-1.96195 c -0.30254,-2.87066 -0.58486,-5.60105 -0.82811,-8.0286 z"
       sodipodi:nodetypes="cccccc" />
    <path
       id="path1246"
       style="opacity:0.267742;fill:#000000;stroke:none;stroke-width:0.264583px;stroke-linecap:butt;stroke-linejoin:miter;stroke-opacity:1"
       d="m 156.51661,106.61728 c 0.96123,10.61129 5.26106,56.28158 10.15242,80.17567 3.90142,19.05832 13.89199,50.54229 19.38885,67.93239 0.43504,1.3763 2.18575,3.49811 2.71009,4.68267 1.97347,4.45834 3.85525,6.71523 4.56877,7.58105 l -8.56315,0.98323 c 0,0 1.1822,-4.5255 -1.13038,-11.60282 -5.56085,-17.01821 -15.62518,-48.79132 -19.6972,-67.87719 -5.71741,-26.79801 -10.8534,-81.48384 -10.8534,-81.48384 z"
       sodipodi:nodetypes="csssccsscc" />
    <path
       id="path1248"
       style="opacity:1;fill:url(#linearGradient1254);fill-opacity:1;stroke:none;stroke-width:0.264999;stroke-opacity:1"
       d="m 191.156,243.82785 c 1.13717,3.61772 2.20763,6.97958 3.15018,9.91017 2.39178,7.43657 6.71198,12.23536 6.71198,12.23536 l -7.68143,1.01568 c -0.77713,-0.94454 -2.57023,-3.17974 -4.4588,-7.44629 -0.52434,-1.18456 -2.27508,-3.30652 -2.71013,-4.68283 -0.91108,-2.88235 -1.97192,-6.24795 -3.08173,-9.78392 z" />
    <path
       id="path1250"
       style="opacity:1;fill:url(#linearGradient1252);fill-opacity:1;stroke:none;stroke-width:0.264583px;stroke-linecap:butt;stroke-linejoin:miter;stroke-opacity:1"
       d="m 182.9762,244.94091 c 1.10985,3.53614 2.2541,6.81842 3.16522,9.70089 0.43504,1.37631 2.35276,3.9157 2.8771,5.10026 1.97347,4.45834 3.60506,6.3812 4.31857,7.24703 l -8.56332,0.98324 c 0,0 1.18221,-4.52552 -1.13037,-11.60283 -1.0456,-3.1999 -2.25064,-6.92241 -3.5449,-10.98319 z"
       sodipodi:nodetypes="cssccscc" />
    <path
       id="rect1265"
       style="opacity:0.158065;fill:#000000;fill-opacity:1;stroke:none;stroke-width:0.264999"
       d="m 130.37957,118.9191 c -0.24142,2.42511 -0.51624,5.1155 -0.82144,8.0286 0,0 6.12509,1.94432 8.25473,1.92021 1.81786,-0.0206 3.46945,-1.92021 3.46945,-1.92021 0.32462,-2.96741 0.60544,-5.61854 0.85655,-8.0286 z"
       sodipodi:nodetypes="ccsccc" />
    <g
       id="g1275"
       transform="matrix(0.71674419,0,0,0.71683779,-6.699369,104.30877)"
       style="stroke-width:1.39511">
      <path
         style="fill:#d38d5f;stroke:none;stroke-width:0.369121px;stroke-linecap:butt;stroke-linejoin:miter;stroke-opacity:1"
         d="m 189.0932,19.872719 c 7.4753,6.537311 18.4527,2.665766 27.66776,3.01005 9.21506,0.344283 21.99138,1.91082 26.92306,-2.783812 4.93169,-4.694632 3.4294,-9.138569 3.31892,-13.9814009 -0.57693,-25.2886071 -16.42955,-67.0990101 -20.63385,-71.7701791 -3.33662,-3.707139 -9.13591,-3.2066 -13.78775,-2.823975 -5.02579,0.413381 -10.97536,1.050015 -14.40659,5.461196 -13.53104,17.395492 -15.48828,45.642584 -13.86091,69.3213311 0.33613,4.8907419 1.46719,10.6702239 4.77936,13.5667899 z"
         id="path1256"
         sodipodi:nodetypes="aczasaaaa" />
      <path
         id="path1258"
         style="opacity:0.203226;fill:#000000;stroke:#000000;stroke-width:0.369121px;stroke-linecap:butt;stroke-linejoin:miter;stroke-opacity:1"
         d="m 217.1684,-68.738083 c -1.56764,0.01064 -3.13351,0.141694 -4.58721,0.261265 -5.02579,0.41338 -10.97529,1.050282 -14.40652,5.461461 -0.86945,1.117761 -1.69036,2.280907 -2.46636,3.484185 0.0101,0.0091 0.10399,0.09477 0.10399,0.09477 0,0 17.14812,-3.862623 24.48341,0.909996 9.30107,6.051633 21.55951,57.2643449 22.13923,70.860288 0.15601,3.658768 -3.49911,10.162705 -3.49911,10.162705 1.92796,-0.508879 3.56541,-1.271546 4.74823,-2.397508 4.93168,-4.694632 3.42928,-9.138535 3.3188,-13.9813668 C 246.42594,-19.170894 230.57353,-60.9814 226.36923,-65.65257 c -2.29392,-2.548659 -5.75203,-3.108826 -9.20083,-3.085519 z"
         sodipodi:nodetypes="sssccsscsssss" />
    </g>
    <g
       id="g1361"
       transform="matrix(0.86016334,0,0,0.86016334,12.029804,188.49957)"
       style="stroke-width:1.16257">
      <path
         style="fill:#00aa00;stroke:none;stroke-width:0.307596px;stroke-linecap:butt;stroke-linejoin:miter;stroke-opacity:1"
         d="m 97.205369,-51.954578 c 0,0 -47.934185,16.422851 -62.988501,35.176317 C 16.56342,5.2129956 9.9159864,64.257556 9.9159864,64.257556 c 0,0 44.8056846,9.679008 73.7399876,-34.394624 13.740123,-20.9293864 13.549395,-81.81751 13.549395,-81.81751 z"
         id="path1277"
         sodipodi:nodetypes="cacsc" />
      <path
         style="opacity:1;fill:url(#linearGradient1320);fill-opacity:1;stroke:none;stroke-width:0.307596px;stroke-linecap:butt;stroke-linejoin:miter;stroke-opacity:1"
         d="m 94.836439,-48.776251 c 0,0 -41.033204,13.133347 -56.944244,32.076404 -15.91104,18.9430566 -25.607272,77.828003 -25.607272,77.828003 0,0 42.373736,9.153655 69.73755,-32.527763 12.994341,-19.7933864 12.813966,-77.376644 12.813966,-77.376644 z"
         id="path1279"
         sodipodi:nodetypes="czcsc" />
      <path
         id="path1306"
         style="opacity:1;fill:#007100;fill-opacity:1;stroke:none;stroke-width:0.307596px;stroke-linecap:butt;stroke-linejoin:miter;stroke-opacity:1"
         d="m 94.678725,-47.66484 c -1.343014,1.590602 -11.266487,13.357213 -21.190822,25.535028 l -9.788567,12.1914406 c -1.917382,2.434309 -3.685699,4.717402 -5.217266,6.750516 L 42.895504,18.373281 c -0.06394,0.09048 -0.127789,0.180167 -0.191778,0.270747 L 28.30462,39.295809 13.133004,61.282685 c 0.0035,5.02e-4 0.0087,0.0013 0.01226,0.002 0.140812,0.02351 0.313537,0.05025 0.48803,0.07701 0.08913,0.01361 0.181015,0.02747 0.278594,0.04169 0.151912,0.0222 0.319835,0.04498 0.491955,0.06818 0.157307,0.02112 0.323798,0.0423 0.497349,0.06376 0.141124,0.01753 0.287763,0.03498 0.439473,0.05248 0.237986,0.02731 0.493764,0.05445 0.756815,0.08093 0.140607,0.01421 0.279578,0.02789 0.427211,0.04169 0.302053,0.02807 0.624577,0.05458 0.95497,0.07995 0.126194,0.0097 0.247432,0.02019 0.377672,0.02943 0.431976,0.03042 0.886883,0.05724 1.36158,0.08044 0.04693,0.0023 0.09,0.0056 0.137335,0.0078 0.699149,0.03264 1.446025,0.05482 2.229736,0.06524 0.277335,0.0038 0.560686,0.005 0.848044,0.0054 8.165702,0.0076 20.293936,-1.430018 32.749051,-8.126318 5.02e-4,-2.52e-4 10e-4,-7.54e-4 0.0015,-10e-4 0.0013,-7.53e-4 0.0026,-0.0013 0.0039,-0.002 0.467901,-0.251614 0.936125,-0.51174 1.404743,-0.778396 0.04642,-0.02642 0.09287,-0.05338 0.139295,-0.07995 0.4304,-0.246271 0.860784,-0.49897 1.291442,-0.758287 0.06195,-0.03731 0.123944,-0.07474 0.185895,-0.112321 0.42005,-0.254779 0.840073,-0.516265 1.260048,-0.783791 0.06689,-0.04262 0.133723,-0.08507 0.200608,-0.128017 0.407773,-0.26177 0.815373,-0.530285 1.222774,-0.804391 0.0793,-0.05336 0.158609,-0.106058 0.237885,-0.159897 0.41094,-0.27901 0.821839,-0.565476 1.232093,-0.857364 0.0679,-0.04832 0.135677,-0.09553 0.203551,-0.144202 0.447042,-0.320524 0.893657,-0.648672 1.339508,-0.984891 0.02633,-0.01986 0.05265,-0.03894 0.07897,-0.05886 1.026515,-0.7764 2.049381,-1.595958 3.066499,-2.458791 0.294075,-0.249528 0.587839,-0.503257 0.880907,-0.760248 0.119579,-0.104833 0.239143,-0.208802 0.358544,-0.314891 0.329557,-0.292882 0.658263,-0.5921 0.98636,-0.89464 0.118414,-0.109164 0.236901,-0.218188 0.355109,-0.328623 0.335285,-0.313304 0.66949,-0.632312 1.003038,-0.955951 0.108298,-0.105057 0.216597,-0.210695 0.3247,-0.316852 0.338831,-0.332802 0.677008,-0.670103 1.013828,-1.013828 0.09905,-0.101063 0.197873,-0.203555 0.296742,-0.305571 0.35265,-0.363948 0.704331,-0.732279 1.054538,-1.108491 0.06119,-0.06573 0.121835,-0.133034 0.182952,-0.199136 0.355382,-0.384456 0.70975,-0.77441 1.062386,-1.171764 0.0525,-0.05915 0.105004,-0.118113 0.157444,-0.177555 0.360664,-0.40888 0.719557,-0.825625 1.0771,-1.248279 0.058,-0.06855 0.116214,-0.136111 0.174121,-0.205021 0.361988,-0.430824 0.722006,-0.869738 1.080535,-1.314985 0.06447,-0.08005 0.128894,-0.159812 0.19325,-0.240337 0.357483,-0.447365 0.713026,-0.902498 1.066799,-1.364523 0.0597,-0.07796 0.119434,-0.156065 0.179026,-0.234451 0.356731,-0.46926 0.711664,-0.945754 1.06435,-1.430248 0.05414,-0.07437 0.108309,-0.14942 0.162349,-0.224151 0.360056,-0.497935 0.718116,-1.002907 1.073667,-1.517063 0.03684,-0.05327 0.07357,-0.107433 0.110358,-0.160879 0.37332,-0.542365 0.744376,-1.091827 1.112415,-1.652437 11.932905,-18.176512 12.753229,-68.099156 12.808003,-76.153818 z" />
      <path
         id="path1296"
         style="opacity:0.283871;fill:#000000;stroke:none;stroke-width:0.307596px;stroke-linecap:butt;stroke-linejoin:miter;stroke-opacity:1"
         d="m 94.836587,-48.776349 c 0,0 -0.304247,0.09126 -0.76791,0.232542 -1.39691,1.598903 -3.188571,3.653364 -5.327841,6.12004 l 0.02687,-0.108003 c 0,0 -5.12251,0.525148 -10.392648,2.009695 -5.035174,1.418366 -9.318895,4.363712 -9.318895,4.363712 l 0.264584,0.264584 c 0,0 4.639291,-2.439816 9.812922,-3.691401 4.088172,-0.988996 5.721924,-0.693922 8.144721,-1.152384 -2.278853,2.633839 -4.734107,5.481489 -7.408333,8.611877 -0.309546,0.06582 -9.830826,2.092728 -14.591874,3.476789 -4.623477,1.344073 -13.667898,4.711859 -13.667898,4.711859 l 0.242879,0.250629 c 0,0 9.371005,-2.888138 14.12162,-4.07417 3.60327,-0.899576 9.944899,-2.161082 12.432315,-2.648416 -2.777429,3.26059 -5.63904,6.643447 -8.439279,10.001456 -1.845345,0.579726 -9.392005,2.969329 -13.500468,4.587317 -4.462515,1.757423 -13.12323,5.9221185 -13.12323,5.9221185 l 0.264583,0.2237607 c 0,0 9.029364,-3.7233802 13.63276,-5.3371432 3.073379,-1.077399 8.263697,-2.639121 11.144022,-3.493325 -3.981286,4.799994 -7.752654,9.4461034 -10.793656,13.3805771 -1.850001,0.5906465 -9.377166,3.011951 -13.475147,4.64777843 C 39.662359,1.3016205 32.049722,7.4708619 32.049722,7.4708619 l 0.265618,0.2227254 c 0,0 7.982691,-5.7293382 12.578559,-7.36440817 C 48.006341,-0.77813174 53.318571,-2.40155 56.16453,-3.2592323 52.202,1.9615519 47.551326,8.4207097 42.749845,15.251265 c -2.359599,0.719594 -7.180733,2.257403 -9.782865,3.570842 -3.146981,1.588454 -8.774658,5.902482 -8.774658,5.902482 l 0.207739,0.181384 c 0,0 5.940101,-3.961227 9.177217,-5.428092 2.13246,-0.966302 5.792756,-2.089837 8.15144,-2.774508 -3.516342,5.018443 -7.088021,10.193579 -10.51047,15.202173 -1.636115,0.529559 -4.184288,1.405113 -5.648233,2.169376 -2.024966,1.057149 -5.646684,3.927926 -5.646684,3.927926 l 0.133843,0.120923 c 0,0 3.8221,-2.635954 5.905065,-3.612183 1.204515,-0.564523 3.112302,-1.189657 4.602819,-1.647961 -7.809476,11.44312 -14.730309,21.833087 -18.215941,27.091887 -0.03891,0.687528 -0.06408,1.172538 -0.06408,1.172538 0,0 0.259043,0.05348 0.701766,0.129707 3.535097,-5.164812 11.252437,-16.40946 19.79724,-28.66285 0.35201,0.874065 1.927032,4.880256 2.081012,7.189225 0.186359,2.794561 -1.299147,8.32404 -1.299147,8.32404 l 0.235127,0.03514 c 0,0 1.906662,-5.494015 1.836582,-8.313187 -0.0682,-2.743546 -2.095185,-7.857224 -2.212785,-8.151956 3.429709,-4.914673 6.970652,-9.958706 10.41745,-14.822868 0.655561,1.981231 2.067304,6.50361 2.220537,9.197888 0.215477,3.788657 -1.502233,11.284582 -1.502233,11.284582 l 0.271817,0.04806 c 0,0 2.204932,-7.448606 2.123903,-11.270629 -0.06725,-3.172092 -1.736688,-8.533077 -2.332675,-10.359575 5.019506,-7.0726174 9.799675,-13.7036797 13.651881,-18.8479445 0.493847,1.7403577 3.110444,7.2933072 3.693829,11.1719277 1.037916,6.9005428 -0.43408,20.9299888 -0.43408,20.9299888 l 0.330213,0.104903 c 0,0 1.98824,-13.906674 1.200444,-20.8100992 -0.503211,-4.4095978 -3.499828,-11.8626154 -3.74189,-12.7780333 2.927014,-3.8588386 6.591516,-8.4959555 10.476362,-13.3221855 0.731025,2.458315 3.12974,9.6688012 3.800284,14.6781751 0.795216,5.9407638 0.22996,17.9797809 0.22996,17.9797809 l 0.331764,0.09973 c 0,0 1.143854,-11.9420111 0.537951,-17.8707433 -0.563732,-5.5160885 -3.261678,-14.0480917 -3.853511,-16.1819587 2.873978,-3.559627 5.841256,-7.192015 8.703344,-10.671699 0.632071,2.125756 3.039285,7.243453 3.679878,11.083044 1.371116,8.218197 0.251148,24.99434 0.251148,24.9943402 l 0.334865,0.099219 c 0,0 1.625933,-16.6637332 0.52348,-24.8878882 -0.581136,-4.335195 -3.253038,-10.894538 -3.721219,-12.58321 2.595026,-3.149369 4.97727,-6.019252 7.197492,-8.686292 0.632177,2.915598 1.428729,7.405788 1.693955,11.158493 0.295019,4.174212 0.301059,10.495264 0.301059,10.495264 l 0.347266,0.140044 c 0,0 0.620159,-6.172774 0.510778,-10.303544 -0.114901,-4.339199 -1.17738,-10.459107 -1.664499,-12.915493 2.477333,-2.971244 4.374735,-5.235519 5.830652,-6.969598 0.0016,-0.409636 0.0016,-0.638204 0.0016,-0.638204 z"
         sodipodi:nodetypes="ccccsccsccsccsccsccsccsccsccsccsccsccscccccsccsccsccsccsccsccsccsccsccsccsccsccc" />
    </g>
  </g>
</svg>
