<?xml version="1.0" encoding="UTF-8" standalone="no"?>
<svg
   xmlns:dc="http://purl.org/dc/elements/1.1/"
   xmlns:cc="http://creativecommons.org/ns#"
   xmlns:rdf="http://www.w3.org/1999/02/22-rdf-syntax-ns#"
   xmlns:svg="http://www.w3.org/2000/svg"
   xmlns="http://www.w3.org/2000/svg"
   xmlns:xlink="http://www.w3.org/1999/xlink"
   xmlns:sodipodi="http://sodipodi.sourceforge.net/DTD/sodipodi-0.dtd"
   xmlns:inkscape="http://www.inkscape.org/namespaces/inkscape"
   width="1920"
   height="1080"
   viewBox="0 0 508 285.75"
   version="1.1"
   id="svg8"
   inkscape:version="1.0.2-2 (e86c870879, 2021-01-15)"
   sodipodi:docname="nature-fields.svg">
  <defs
     id="defs2">
    <linearGradient
       inkscape:collect="always"
       id="linearGradient3161">
      <stop
         style="stop-color:#ffd42a;stop-opacity:1"
         offset="0"
         id="stop3157" />
      <stop
         style="stop-color:#ffe680;stop-opacity:1"
         offset="1"
         id="stop3159" />
    </linearGradient>
    <linearGradient
       inkscape:collect="always"
       id="linearGradient3135">
      <stop
         style="stop-color:#5aa02c;stop-opacity:1"
         offset="0"
         id="stop3131" />
      <stop
         style="stop-color:#2d5016;stop-opacity:1"
         offset="1"
         id="stop3133" />
    </linearGradient>
    <linearGradient
       inkscape:collect="always"
       id="linearGradient1173">
      <stop
         style="stop-color:#5aa02c;stop-opacity:1"
         offset="0"
         id="stop1169" />
      <stop
         style="stop-color:#2d5016;stop-opacity:1"
         offset="1"
         id="stop1171" />
    </linearGradient>
    <linearGradient
       inkscape:collect="always"
       id="linearGradient1032">
      <stop
         style="stop-color:#d7eef4;stop-opacity:1"
         offset="0"
         id="stop1028" />
      <stop
         style="stop-color:#aaccff;stop-opacity:1"
         offset="1"
         id="stop1030" />
    </linearGradient>
    <linearGradient
       inkscape:collect="always"
       id="linearGradient960">
      <stop
         style="stop-color:#22280b;stop-opacity:1;"
         offset="0"
         id="stop956" />
      <stop
         style="stop-color:#22280b;stop-opacity:0;"
         offset="1"
         id="stop958" />
    </linearGradient>
    <linearGradient
       inkscape:collect="always"
       id="linearGradient952">
      <stop
         style="stop-color:#445500;stop-opacity:1;"
         offset="0"
         id="stop948" />
      <stop
         style="stop-color:#445500;stop-opacity:0;"
         offset="1"
         id="stop950" />
    </linearGradient>
    <linearGradient
       inkscape:collect="always"
       id="linearGradient848">
      <stop
         style="stop-color:#ffffff;stop-opacity:1"
         offset="0"
         id="stop844" />
      <stop
         style="stop-color:#ffffff;stop-opacity:0"
         offset="1"
         id="stop846" />
    </linearGradient>
    <linearGradient
       inkscape:collect="always"
       xlink:href="#linearGradient848"
       id="linearGradient850"
       x1="208.42839"
       y1="95.244942"
       x2="204.04602"
       y2="129.41006"
       gradientUnits="userSpaceOnUse"
       gradientTransform="matrix(1.1380607,0,0,1.1380607,170.82674,-40.681865)" />
    <linearGradient
       inkscape:collect="always"
       xlink:href="#linearGradient848"
       id="linearGradient870"
       gradientUnits="userSpaceOnUse"
       gradientTransform="matrix(0.92036357,0,0,1.1227206,184.94501,-41.1489)"
       x1="208.42839"
       y1="95.244942"
       x2="204.04602"
       y2="129.41006" />
    <linearGradient
       inkscape:collect="always"
       xlink:href="#linearGradient848"
       id="linearGradient920"
       gradientUnits="userSpaceOnUse"
       gradientTransform="matrix(-0.92036357,0,0,1.1227206,645.5328,-41.1489)"
       x1="208.42839"
       y1="95.244942"
       x2="204.04602"
       y2="129.41006" />
    <linearGradient
       inkscape:collect="always"
       xlink:href="#linearGradient848"
       id="linearGradient924"
       gradientUnits="userSpaceOnUse"
       gradientTransform="matrix(0.81013599,0.19172187,-0.22430763,1.0976475,213.97952,-93.986427)"
       x1="208.42839"
       y1="95.244942"
       x2="204.04602"
       y2="129.41006" />
    <linearGradient
       inkscape:collect="always"
       xlink:href="#linearGradient848"
       id="linearGradient930"
       gradientUnits="userSpaceOnUse"
       gradientTransform="matrix(-0.81013599,0.19172187,0.22430763,1.0976475,613.3254,-93.986427)"
       x1="208.42839"
       y1="95.244942"
       x2="204.04602"
       y2="129.41006" />
    <linearGradient
       inkscape:collect="always"
       xlink:href="#linearGradient952"
       id="linearGradient954"
       x1="827.46039"
       y1="314.26398"
       x2="765.74127"
       y2="140.38135"
       gradientUnits="userSpaceOnUse"
       gradientTransform="matrix(0.21054789,0,0,0.24320457,59.944826,-13.050423)" />
    <linearGradient
       inkscape:collect="always"
       xlink:href="#linearGradient960"
       id="linearGradient962"
       x1="825.34863"
       y1="332.97827"
       x2="817.66174"
       y2="269.88162"
       gradientUnits="userSpaceOnUse"
       gradientTransform="matrix(0.21054789,0,0,0.34875959,59.944826,-47.958131)" />
    <radialGradient
       inkscape:collect="always"
       xlink:href="#linearGradient1032"
       id="radialGradient1034"
       cx="251.88588"
       cy="166.83455"
       fx="251.88588"
       fy="166.83455"
       r="222.91602"
       gradientTransform="matrix(1.0589392,-0.00737684,0.00502974,0.72201498,-15.555056,40.62681)"
       gradientUnits="userSpaceOnUse" />
    <clipPath
       clipPathUnits="userSpaceOnUse"
       id="clipPath1038">
      <rect
         style="opacity:1;fill:url(#radialGradient1042);fill-opacity:1;stroke:none;stroke-width:0.264999"
         id="rect1040"
         width="445.83203"
         height="250.36873"
         x="29.09988"
         y="14.275413"
         rx="2.2961414"
         ry="2.7306087" />
    </clipPath>
    <radialGradient
       inkscape:collect="always"
       xlink:href="#linearGradient1032"
       id="radialGradient1042"
       gradientUnits="userSpaceOnUse"
       gradientTransform="matrix(1.0589392,-0.00737684,0.00502974,0.72201498,-15.555056,40.626811)"
       cx="251.88588"
       cy="166.83455"
       fx="251.88588"
       fy="166.83455"
       r="222.91602" />
    <clipPath
       clipPathUnits="userSpaceOnUse"
       id="clipPath1050">
      <rect
         style="opacity:1;fill:url(#radialGradient1054);fill-opacity:1;stroke:none;stroke-width:0.264999"
         id="rect1052"
         width="445.83203"
         height="250.36873"
         x="29.09988"
         y="14.275413"
         rx="2.2961414"
         ry="2.7306087" />
    </clipPath>
    <radialGradient
       inkscape:collect="always"
       xlink:href="#linearGradient1032"
       id="radialGradient1054"
       gradientUnits="userSpaceOnUse"
       gradientTransform="matrix(1.0589392,-0.00737684,0.00502974,0.72201498,-15.555056,40.626811)"
       cx="251.88588"
       cy="166.83455"
       fx="251.88588"
       fy="166.83455"
       r="222.91602" />
    <clipPath
       clipPathUnits="userSpaceOnUse"
       id="clipPath1056">
      <rect
         style="opacity:1;fill:url(#radialGradient1060);fill-opacity:1;stroke:none;stroke-width:0.264999"
         id="rect1058"
         width="445.83203"
         height="250.36873"
         x="29.09988"
         y="14.275413"
         rx="2.2961414"
         ry="2.7306087" />
    </clipPath>
    <radialGradient
       inkscape:collect="always"
       xlink:href="#linearGradient1032"
       id="radialGradient1060"
       gradientUnits="userSpaceOnUse"
       gradientTransform="matrix(1.0589392,-0.00737684,0.00502974,0.72201498,-15.555056,40.626811)"
       cx="251.88588"
       cy="166.83455"
       fx="251.88588"
       fy="166.83455"
       r="222.91602" />
    <linearGradient
       inkscape:collect="always"
       xlink:href="#linearGradient952"
       id="linearGradient1136"
       gradientUnits="userSpaceOnUse"
       gradientTransform="matrix(0.21054789,0,0,0.24320457,59.944826,-13.050423)"
       x1="827.46039"
       y1="314.26398"
       x2="765.74127"
       y2="140.38135" />
    <linearGradient
       inkscape:collect="always"
       xlink:href="#linearGradient960"
       id="linearGradient1138"
       gradientUnits="userSpaceOnUse"
       gradientTransform="matrix(0.21054789,0,0,0.34875959,59.944826,-47.958131)"
       x1="825.34863"
       y1="332.97827"
       x2="817.66174"
       y2="269.88162" />
    <linearGradient
       inkscape:collect="always"
       xlink:href="#linearGradient848"
       id="linearGradient1140"
       gradientUnits="userSpaceOnUse"
       gradientTransform="matrix(1.1380607,0,0,1.1380607,170.82674,-40.681865)"
       x1="208.42839"
       y1="95.244942"
       x2="204.04602"
       y2="129.41006" />
    <linearGradient
       inkscape:collect="always"
       xlink:href="#linearGradient848"
       id="linearGradient1142"
       gradientUnits="userSpaceOnUse"
       gradientTransform="matrix(0.92036357,0,0,1.1227206,184.94501,-41.1489)"
       x1="208.42839"
       y1="95.244942"
       x2="204.04602"
       y2="129.41006" />
    <linearGradient
       inkscape:collect="always"
       xlink:href="#linearGradient848"
       id="linearGradient1144"
       gradientUnits="userSpaceOnUse"
       gradientTransform="matrix(-0.92036357,0,0,1.1227206,645.5328,-41.1489)"
       x1="208.42839"
       y1="95.244942"
       x2="204.04602"
       y2="129.41006" />
    <linearGradient
       inkscape:collect="always"
       xlink:href="#linearGradient848"
       id="linearGradient1146"
       gradientUnits="userSpaceOnUse"
       gradientTransform="matrix(0.81013599,0.19172187,-0.22430763,1.0976475,213.97952,-93.986427)"
       x1="208.42839"
       y1="95.244942"
       x2="204.04602"
       y2="129.41006" />
    <linearGradient
       inkscape:collect="always"
       xlink:href="#linearGradient848"
       id="linearGradient1148"
       gradientUnits="userSpaceOnUse"
       gradientTransform="matrix(-0.81013599,0.19172187,0.22430763,1.0976475,613.3254,-93.986427)"
       x1="208.42839"
       y1="95.244942"
       x2="204.04602"
       y2="129.41006" />
    <clipPath
       clipPathUnits="userSpaceOnUse"
       id="clipPath1154">
      <rect
         style="opacity:1;fill:url(#radialGradient1158);fill-opacity:1;stroke:none;stroke-width:0.264999"
         id="rect1156"
         width="445.83203"
         height="250.36873"
         x="29.09988"
         y="14.275413"
         rx="2.2961414"
         ry="2.7306087" />
    </clipPath>
    <radialGradient
       inkscape:collect="always"
       xlink:href="#linearGradient1032"
       id="radialGradient1158"
       gradientUnits="userSpaceOnUse"
       gradientTransform="matrix(1.0589392,-0.00737684,0.00502974,0.72201498,-15.555056,40.626811)"
       cx="251.88588"
       cy="166.83455"
       fx="251.88588"
       fy="166.83455"
       r="222.91602" />
    <radialGradient
       inkscape:collect="always"
       xlink:href="#linearGradient1173"
       id="radialGradient1175"
       cx="251.91478"
       cy="77.199982"
       fx="251.91478"
       fy="77.199982"
       r="222.91602"
       gradientTransform="matrix(1,0,0,0.2807882,0,114.91193)"
       gradientUnits="userSpaceOnUse" />
    <clipPath
       clipPathUnits="userSpaceOnUse"
       id="clipPath3090">
      <rect
         style="opacity:1;fill:url(#radialGradient3094);fill-opacity:1;stroke:none;stroke-width:0.264999"
         id="rect3092"
         width="1685.0344"
         height="946.27551"
         x="109.9838"
         y="53.954315"
         rx="8.6783295"
         ry="10.320411" />
    </clipPath>
    <radialGradient
       inkscape:collect="always"
       xlink:href="#linearGradient1032"
       id="radialGradient3094"
       gradientUnits="userSpaceOnUse"
       gradientTransform="matrix(4.00229,-0.02788097,0.01901004,2.7288755,-58.790764,153.55015)"
       cx="251.88588"
       cy="166.83455"
       fx="251.88588"
       fy="166.83455"
       r="222.91602" />
    <clipPath
       clipPathUnits="userSpaceOnUse"
       id="clipPath3100">
      <rect
         style="opacity:1;fill:url(#radialGradient3104);fill-opacity:1;stroke:none;stroke-width:0.264999"
         id="rect3102"
         width="445.83203"
         height="250.36873"
         x="29.09988"
         y="14.275413"
         rx="2.2961414"
         ry="2.7306087" />
    </clipPath>
    <radialGradient
       inkscape:collect="always"
       xlink:href="#linearGradient1032"
       id="radialGradient3104"
       gradientUnits="userSpaceOnUse"
       gradientTransform="matrix(1.0589392,-0.00737684,0.00502974,0.72201498,-15.555056,40.626811)"
       cx="251.88588"
       cy="166.83455"
       fx="251.88588"
       fy="166.83455"
       r="222.91602" />
    <clipPath
       clipPathUnits="userSpaceOnUse"
       id="clipPath3110">
      <rect
         style="opacity:1;fill:url(#radialGradient3114);fill-opacity:1;stroke:none;stroke-width:0.264999"
         id="rect3112"
         width="445.83203"
         height="250.36873"
         x="29.09988"
         y="14.275413"
         rx="2.2961414"
         ry="2.7306087" />
    </clipPath>
    <radialGradient
       inkscape:collect="always"
       xlink:href="#linearGradient1032"
       id="radialGradient3114"
       gradientUnits="userSpaceOnUse"
       gradientTransform="matrix(1.0589392,-0.00737684,0.00502974,0.72201498,-15.555056,40.626811)"
       cx="251.88588"
       cy="166.83455"
       fx="251.88588"
       fy="166.83455"
       r="222.91602" />
    <radialGradient
       inkscape:collect="always"
       xlink:href="#linearGradient3135"
       id="radialGradient3153"
       gradientUnits="userSpaceOnUse"
       gradientTransform="matrix(0.74327468,0.00281152,-0.00147975,0.39119896,245.29657,398.14198)"
       cx="898.46075"
       cy="503.36737"
       fx="898.46075"
       fy="503.36737"
       r="846.03827" />
    <radialGradient
       inkscape:collect="always"
       xlink:href="#linearGradient3161"
       id="radialGradient3163"
       cx="272.2739"
       cy="48.835365"
       fx="272.2739"
       fy="48.835365"
       r="14.717507"
       gradientUnits="userSpaceOnUse"
       gradientTransform="translate(-18.553438,-9.7477177)" />
  </defs>
  <sodipodi:namedview
     id="base"
     pagecolor="#ffffff"
     bordercolor="#666666"
     borderopacity="1.0"
     inkscape:pageopacity="0.0"
     inkscape:pageshadow="2"
     inkscape:zoom="0.55932716"
     inkscape:cx="762.01106"
     inkscape:cy="558.68427"
     inkscape:document-units="mm"
     inkscape:current-layer="layer1"
     inkscape:document-rotation="0"
     showgrid="false"
     inkscape:window-width="1920"
     inkscape:window-height="1017"
     inkscape:window-x="1077"
     inkscape:window-y="817"
     inkscape:window-maximized="1"
     units="px"
     inkscape:snap-global="false"
     inkscape:snap-bbox="true"
     inkscape:bbox-paths="true"
     inkscape:bbox-nodes="true"
     inkscape:snap-bbox-edge-midpoints="true"
     inkscape:snap-bbox-midpoints="true"
     inkscape:object-paths="true"
     inkscape:snap-intersection-paths="true"
     inkscape:snap-smooth-nodes="true"
     inkscape:snap-midpoints="true" />
  <metadata
     id="metadata5">
    <rdf:RDF>
      <cc:Work
         rdf:about="">
        <dc:format>image/svg+xml</dc:format>
        <dc:type
           rdf:resource="http://purl.org/dc/dcmitype/StillImage" />
        <dc:title />
      </cc:Work>
    </rdf:RDF>
  </metadata>
  <g
     inkscape:label="Layer 1"
     inkscape:groupmode="layer"
     id="layer1">
    <rect
       style="opacity:1;fill:url(#radialGradient1034);fill-opacity:1;stroke:none;stroke-width:0.264999"
       id="rect1026"
       width="445.83203"
       height="250.36873"
       x="29.09988"
       y="14.275413"
       rx="2.2961414"
       ry="2.7306087" />
    <path
       style="opacity:0.354839;fill:#447821;stroke:none;stroke-width:0.264583px;stroke-linecap:butt;stroke-linejoin:miter;stroke-opacity:1"
       d="m 24.083193,118.74352 c -0.470348,1.46215 1.343796,2.78546 2.67591,2.34142 1.295826,-0.43194 1.103805,-2.77624 2.006934,-3.67937 0.507867,-0.50787 1.697487,0.51425 2.006933,0.66897 1.471094,0.73555 7.554106,-2.20228 8.36222,-3.0104 0.256447,-0.25644 6.306378,2.18807 6.689775,2.34143 2.070645,0.82825 2.167784,-1.16432 3.0104,-2.00694 0.164132,-0.16413 1.960623,1.71876 4.013864,-0.33449 0.456779,-0.45677 2.619769,1.74652 3.0104,2.00694 1.86409,1.24272 2.851155,-0.92385 4.348353,-1.67245 0.251468,-0.12573 1.915083,0.85268 2.006933,0.66898 0.904963,-1.80992 3.572714,-1.23129 5.686309,-3.34489 0.719963,-0.71996 0.621535,-2.64428 1.672444,-3.34488 0.934945,-0.6233 0.84995,1.82596 1.672445,1.00346 0.623551,-0.62355 0.805243,-1.80871 1.337955,-2.34142 0.491125,-0.49112 3.975775,1.67244 4.013864,1.67244 1.057749,0 0.368819,-3.85659 1.003467,-3.0104 3.071942,4.09593 7.754033,3.58815 12.041597,5.01734 1.216137,0.40538 2.543067,-0.90265 3.679378,-0.33449 0.359564,0.17978 0.2876,0.87634 0.668978,1.00346 1.044633,0.34822 4.030409,-1.65589 4.348353,-1.33795 0.384074,0.38407 0.51802,1.13297 1.337956,1.33795 1.352999,0.33825 27.381499,0.63451 28.431549,0.33449 5.75359,-1.64388 8.70726,-5.69686 13.04506,-10.03466 1.14097,-1.14097 0.88582,-3.043467 2.34142,-4.013866 0.0711,-0.0474 1.71552,2.028466 2.34142,2.341426 2.56436,1.28218 1.56226,-2.004974 3.34489,0.66897 2.91787,4.3768 2.44926,0.66898 3.67938,0.66898 0.55813,0 0.30908,1.00347 1.00347,1.00347 0.3014,0 2.31184,-0.36406 2.34142,-0.33449 0.85262,0.85262 0.71612,2.69948 2.00693,3.34489 0.82433,0.41216 3.06289,-0.61649 3.67938,0 0.21928,0.21928 0.16691,1.17037 0.33448,1.33795 0.85346,0.85345 6.26486,1.30781 7.35876,1.67245 2.33416,0.77805 4.15494,-1.71947 6.0208,-2.34143 1.90912,-0.63637 1.72835,1.81174 3.34488,1.00347 0.52389,-0.26194 2.45635,-2.56098 3.34489,-1.67244 1.37686,1.37685 2.86141,2.21142 5.01733,1.67244 1.26135,-0.31534 2.1304,-1.26761 3.34489,-1.67244 0.82975,-0.27659 0.44729,0.22559 0.66898,0.66897 0.26186,0.52372 3.4569,-0.6319 3.67938,-0.66897 0.6483,-0.10805 2.6475,0.68318 2.67591,0.66897 0.74806,-0.37403 5.45712,-1.56713 5.68631,-1.33795 0.34098,0.34099 -0.36832,0.65206 0.33448,1.00346 6.05782,3.02891 8.16908,-3.82072 12.0416,-7.693237 0.20183,-0.20183 0.78041,1.003467 1.33796,1.003467 0.37582,0 1.31591,-1.315916 1.67244,-1.672445 0.33726,-0.337256 1.78261,-3.958783 2.34142,-3.679378 0.24533,0.122666 1.80463,2.411548 2.00693,2.006934 0.30491,-0.609815 1.79353,-9.244605 3.67938,-7.358753 0.3942,0.3942 0.50484,1.088641 1.00347,1.337955 2.17397,1.086983 -0.45523,-1.900057 2.67591,-0.334489 0.66183,0.330917 3.54341,-2.37812 4.01386,-1.672444 1.10012,1.650177 2.25707,0.04071 2.67592,0.668978 1.48676,2.230146 2.74159,4.838133 5.01733,6.355286 0.67651,0.451011 2.71408,0.707152 3.0104,1.003467 1.04258,1.04258 0.55873,1.85869 2.00693,2.341422 1.74611,0.582038 2.99126,-1.514769 4.68284,-0.668978 0.92418,0.462092 1.1563,2.417835 2.34142,3.010405 0.92984,0.46492 5.42259,-0.86193 5.68631,-0.33449 0.0509,0.10169 0.11983,1.48939 0.66898,1.67244 0.756,0.252 5.47886,-0.51864 5.68632,0 0.30213,0.75533 0.31168,1.99554 1.00346,2.34142 1.2573,0.62865 3.69501,-0.1141 5.01732,-0.33449 2.08608,-0.34767 2.63914,1.44537 4.68286,1.67245 5.66229,0.62914 6.25755,-2.43915 10.36915,1.67244 0.65738,0.6574 1.93307,-1.13379 2.3414,-1.33796 1.53977,-0.76987 5.92302,0.1904 7.35876,0.66898 2.02808,0.67603 2.56921,-1.55855 5.01734,-0.33449 0.76184,0.38093 1.40142,-0.97172 2.00695,-0.66897 0.28315,0.14158 2.00101,1.34385 2.3414,1.00346 0.67297,-0.67296 1.84793,-1.51343 2.34143,-2.00693 0.57396,-0.57396 1.57136,0.92566 2.34143,0.66898 0.67768,-0.2259 2.58977,-3.43102 2.67589,-3.34489 0.62286,0.62286 0.65151,2.65843 1.67246,3.67938 1.5749,1.5749 3.01643,-0.33248 4.01386,0 2.50235,0.83411 6.34346,0.20724 7.69324,2.00693 0.73345,0.97792 3.99613,-1.18402 4.68283,-0.66898 1.59697,1.19773 -0.18031,0.83186 1.33797,1.33796 1.13834,0.37944 4.59102,-1.42978 5.01732,-1.00347 0.68001,0.67999 3.24064,1.28039 4.34838,1.00347 2.66723,-0.66682 2.50666,-3.26027 4.68283,-4.34836 1.95839,-0.9792 5.21041,-2.86898 6.68978,-4.34835 0.32713,-0.32715 -0.0827,-1.296608 0.66897,-1.672446 1.27362,-0.636812 2.95764,-1.311582 4.34835,-2.006933 0.55208,-0.276038 0.64457,1.260432 1.67245,1.003466 1.87074,-0.467683 3.30367,-2.488059 5.01732,-3.344889 1.10141,-0.550698 1.01841,2.181643 2.00695,2.675911 1.27569,0.637845 2.79434,-1.704975 3.34489,-1.337955 3.61212,2.408079 4.65886,8.245396 9.70018,9.365686 3.98539,0.88565 4.13835,-1.71394 7.02426,-2.67591 2.02737,-0.6758 2.78815,2.50838 5.01732,1.67244 1.62957,-0.61108 2.62369,-2.95817 3.67938,-4.01386 0.45971,-0.459711 0.58727,1.173 1.00346,1.67244 0.30199,0.36237 2.21784,0.85221 2.67591,0.66898 1.94363,-0.77745 3.43226,-3.723053 5.35184,-4.682843 2.20138,-1.10069 5.12683,3.515113 8.3622,-1.337955 l 4.01388,-5.184575 39.13519,8.027731 c 0.39024,0.445985 0.84199,0.844872 1.17071,1.337952 1.32203,1.98306 1.8282,1.15922 2.67591,2.00694 0.45482,0.45481 -0.21155,2.821 0.16724,3.0104 1.87645,0.93822 3.56551,-2.32808 5.51907,-1.83969 0.39989,0.1 -1.22315,3.68932 -1.00347,4.34835 0.0714,0.2142 1.73954,-0.46818 2.00693,-0.33449 0.36158,0.18079 0.275,2.11469 0.83623,2.67591 0.97498,0.97499 2.37069,-1.30868 2.84315,-0.83622 0.65048,0.65048 0.19464,2.4138 1.5052,2.67591 1.41138,0.28228 1.8345,-1.70118 3.0104,-1.5052 2.5922,0.43204 1.55762,6.49633 5.18458,4.68285 0.64821,-0.32411 0.0482,1.45105 0,2.17417 -0.12894,1.9341 -0.42743,3.3324 0,5.18458 0.94013,4.07389 1.81144,11.53194 0.66897,15.72097 -0.32151,1.17888 -0.43678,1.77149 0.16725,2.17418 4.59783,7.20888 11.52329,53.15281 7.45804,55.18544 -0.70517,0.35258 -0.24932,-1.61726 0,-2.3652 0.47303,-1.41911 1.17319,2.78183 1.41911,4.25735 1.20033,7.20197 0.94608,6.96158 0.94608,13.71812 0,1.26144 -0.69972,4.83389 0,3.78431 7.73629,-11.60444 10.76706,29.21556 14.19116,32.63966 0.35258,0.35258 -0.4915,0.92083 -0.47304,1.41912 0.13435,3.62757 0.38231,7.25096 0.47304,10.87989 0.12864,5.14568 1.32733,13.04975 -0.94608,17.97546 -7.4258,16.08924 -39.92933,41.68131 -56.76463,46.35778 -10.01587,2.78219 -17.02327,-7.51875 -24.59801,-11.82596 -4.17555,-2.37433 -8.66779,-4.22005 -13.24508,-5.67646 -12.37427,-3.93727 -30.08717,-3.02108 -42.57347,-4.25735 -24.24964,-2.40095 -46.81927,-4.09432 -70.95579,-0.94608 -14.44295,1.88387 -30.30771,9.65876 -44.93867,7.56862 -37.20046,-5.31435 14.45387,-1.71346 -32.63966,-7.09558 -17.45914,-1.99533 -35.45715,1.58851 -52.98032,-0.47304 -1.15206,-0.13553 -17.16227,-1.85495 -19.39459,-5.20342 -3.47682,-5.21524 -2.95815,-5.70928 -10.87988,-7.09558 -13.10941,-2.29415 -26.11834,-0.50859 -39.262207,-1.89216 -10.076468,-1.06068 -19.573466,-3.69008 -29.801431,-3.31127 -4.633136,0.1716 -8.726019,2.04075 -13.245081,2.83824 -7.690938,1.35722 -27.160378,0.17733 -34.058779,-4.25735 -4.891397,-3.14447 -8.830053,-7.56862 -13.2450803,-11.35293 -15.0146075,-12.86966 -23.6776967,-23.47399 -27.4362387,-43.51955 -1.27829,-6.81755 -2.872678,-18.56761 -1.419115,-26.01712 0.760728,-3.89873 6.67457,-15.44092 8.041656,-18.44851 C -7.5560845,167.90113 0.64870305,151.36482 3.7843087,134.34296 6.2542638,120.93463 -1.5165482,105.7799 2.8382316,92.715564 3.256729,91.460072 15.286114,99.805863 16.083312,100.28418 c 2.272906,1.36375 16.232819,11.67646 11.825965,16.08331 -1.208235,1.20824 -2.037796,0.0466 -3.826084,2.37603 z"
       id="path3106"
       clip-path="url(#clipPath3110)" />
    <ellipse
       style="opacity:1;fill:url(#radialGradient1175);fill-opacity:1;stroke:none;stroke-width:0.264999"
       id="path1150"
       cx="247.07442"
       cy="159.77481"
       rx="312.96094"
       ry="62.592186"
       clip-path="url(#clipPath1154)"
       transform="translate(0,14.392471)" />
    <path
       style="opacity:0.422581;fill:#2d5016;stroke:none;stroke-width:0.264844px;stroke-linecap:butt;stroke-linejoin:miter;stroke-opacity:1"
       d="m 13.718119,94.607717 c 3.259652,7.209103 3.079126,-6.560129 6.149502,-4.257346 4.370954,3.278214 3.360351,1.750835 6.622539,2.83823 1.320546,0.440182 0.514971,2.221492 2.365195,2.838233 1.168318,0.38944 2.287479,-3.466695 2.83823,-2.365192 2.249572,4.499141 2.757559,5.14964 5.676464,7.095578 3.554438,2.36963 4.902797,-5.779038 6.149501,-3.78431 1.187751,1.900404 3.425044,7.28419 4.257347,5.20343 0.62263,-1.55658 1.528566,-5.258154 3.311271,-6.149506 0.51096,-0.255482 1.490289,4.659206 1.892154,4.257346 0.473038,-0.473037 0,-1.892154 0.473038,-2.365192 0.535906,-0.535905 1.114645,3.615742 1.892155,2.838232 0.897064,-0.897066 0.04901,-1.941167 0.946078,-2.838232 0.169074,-0.169076 1.786718,2.470622 3.311268,0.946076 0.649857,-0.649856 3.561104,-2.864858 3.784309,-3.311271 1.304997,-2.60999 1.17928,-7.251046 3.784309,-8.987731 1.891541,-1.261028 0.554882,3.784309 1.419117,3.784309 0.744926,0 1.505169,-3.397324 1.892154,-3.784309 0.353285,-0.353285 2.107015,2.322449 2.365193,1.892154 1.034893,-1.724821 0.710064,-2.681229 1.892154,-4.257347 1.07855,-1.438068 3.01408,5.203423 4.257347,5.203423 0.946078,0 -0.229457,-1.920401 0,-2.83823 0.216334,-0.865339 1.397378,-2.634319 1.892154,-1.892155 0.454036,0.681054 2.776943,6.539243 3.311271,5.203426 3.090979,-7.727448 5.584915,4.184107 8.041656,6.149501 3.482118,2.785695 7.282532,-3.124316 7.568618,-2.838233 3.602347,3.602347 6.587467,3.530251 10.879887,5.676463 0.10845,0.05422 2.57261,-0.354166 2.83823,0 1.44585,1.927796 2.41362,4.469656 4.73039,3.311276 0.21501,-0.10751 -0.086,-2.10718 0,-2.365197 0.88711,-2.661335 4.40594,-0.148598 5.20342,-0.946079 3.44069,-3.440684 3.96048,-8.690866 7.09558,-11.825964 1.11808,-1.118077 0.58361,-5.787033 1.41912,-6.62254 3.58069,-3.580693 10.46561,-13.659352 16.08331,-8.041655 0.47304,0.473038 1.89215,0 2.36519,0.473038 2.1181,2.118098 2.66431,7.718178 6.1495,9.460772 11.6479,5.82395 25.69878,17.859445 38.78917,8.041656 2.7965,-2.097376 5.52657,2.945107 7.60223,0.869448 3.14954,-3.149539 9.22246,-1.661065 7.56862,-6.622542 -0.96052,-2.8815 4.08517,-12.944263 0.94608,-16.083312 -1.06416,-1.06415 4.80575,-0.953591 8.23626,-2.083022 0.79307,-0.261103 2.47798,0.880022 3.27378,0.595014 0.88868,-0.318269 4.29216,-1.335857 5.12389,-1.724658 4.11362,-1.922946 4.9713,-3.72484 7.49104,-3.409873 2.00519,0.250649 3.8781,1.358395 4.58965,3.143236 0.43015,1.078973 -0.27703,2.668036 0.39446,3.716723 0.84119,1.313713 -2.10686,7.116232 -0.73512,4.03907 0.89075,-1.998163 1.48967,1.72263 3.05782,2.734065 0.57641,0.371773 -0.0549,2.256154 0.56632,2.676033 0.72675,0.491193 2.07405,-0.516784 2.97194,-0.233665 1.84862,0.582896 3.32437,2.233766 4.29216,2.84608 5.29074,3.347439 13.77654,-0.414613 17.97547,3.784309 5.80916,5.809155 3.91175,4.968083 10.37322,11.429557 0.19312,0.193109 1.07776,-0.832292 1.41912,-0.946079 1.09265,-0.36422 1.02296,0.920446 2.36519,0.473038 2.90706,-0.969018 1.74107,-6.471438 3.78431,-8.514693 1.6038,-1.603801 7.74107,8.72986 9.93381,9.460772 1.40377,0.467918 3.31099,-1.182397 4.25736,-1.892155 1.65748,-1.24312 2.58021,2.150161 3.7843,0.946076 2.22354,-2.223537 4.20183,-3.728796 6.62255,-6.149501 0.90548,-0.905505 0.96356,1.191345 1.41909,1.419117 0.97309,0.486539 1.51533,-1.354993 2.83824,-0.473038 3.08428,2.056183 5.47153,3.579373 8.51469,6.622539 9.35757,9.35757 18.17918,-3.425131 20.37429,-10.010441 0.56822,-1.704665 1.63195,0.863336 1.89215,0.473041 1.05775,-1.586611 2.29052,-2.290506 3.31128,-3.311271 2.22004,-2.220045 3.42416,-3.859567 6.1495,-5.676463 2.33606,-1.557367 5.29143,-1.611638 7.56862,-0.473038 1.82277,0.911386 5.1336,-0.490493 7.09557,0 1.02616,0.25654 0.78446,1.992034 1.41912,2.83823 0.99724,1.329642 3.80836,1.92423 5.20343,3.784309 2.95081,3.934415 1.77365,-0.481291 5.16979,2.914861 1.11498,1.114964 3.18421,-0.309235 4.73038,0 12.37909,2.475814 13.05989,-0.913296 20.84734,-4.807015 2.36932,-1.184659 18.73171,-6.843491 20.81369,-6.149502 1.09635,0.365448 2.35966,2.268371 3.78431,2.838233 2.84628,1.138513 5.35062,-0.84795 8.04167,0.946076 2.9306,1.953736 7.09027,4.728625 9.9338,5.676463 1.98676,0.662255 4.63577,-0.662254 6.62252,0 1.27448,0.424823 2.34813,2.359496 3.78431,2.838231 1.68556,0.56185 3.93192,-0.348911 5.67648,0 2.31087,0.462177 4.10684,2.403414 6.1495,3.311271 1.6814,0.747292 4.50681,-0.821354 6.1495,0 1.85901,0.929505 0.41589,-7.030708 2.33158,-6.072871 2.09257,1.046281 7.35156,0.255979 8.98771,1.892154 9.8238,9.823789 14.82585,24.921302 21.28677,37.843082 8.38665,16.77333 15.72447,30.0632 16.55632,49.19602 0.1056,2.42839 1.0192,5.96668 0,8.51469 -3.39381,8.48457 -10.06607,16.34786 -14.19114,24.59801 -11.53035,23.06071 -0.34258,6.19829 4.25734,24.598 1.02126,4.085 -2.78906,27.48736 -4.73038,31.69359 -2.83845,6.14998 -8.54321,16.00322 -14.19117,19.86762 -4.58655,3.13817 -10.31264,4.41526 -15.13723,7.09557 -14.60905,8.11615 -26.38645,14.45009 -43.0465,18.44852 -23.6497,5.67592 -46.73224,0.54631 -70.48275,4.25733 -15.17837,2.37162 -30.80305,0.99997 -45.88475,-0.94607 -18.88006,-2.43612 -38.32027,-1.98726 -57.23766,-4.25735 -10.01799,-1.20214 -19.17934,-5.64203 -29.3284,-6.1495 -17.86928,-0.89345 -36.11884,4.43611 -53.9264,1.89216 -3.91931,-0.55991 -8.33009,0.18844 -12.299,-0.47304 -36.42826,-6.07137 -74.671536,-4.19156 -112.110149,-5.20343 -20.311541,-0.54896 -40.814142,-3.92817 -61.0219768,-6.62252 -1.6391309,-0.21858 -5.7210178,-0.80981 -6.6225402,-2.83824 -5.168368,-11.62884 0.897651,-36.32923 2.8382316,-48.24994 2.926736,-17.97852 0.2338306,-36.55029 3.3112701,-54.39944 0.7805415,-4.52714 5.1458892,-24.20441 7.0955787,-28.38231 2.5927843,-5.55597 5.9488446,-10.52397 8.5146946,-16.08332 4.909382,-10.63699 3.784309,-25.67794 3.784309,-37.37004 0,-3.49553 -2.331645,-6.115956 -4.257348,-8.04166 -0.326389,-0.32639 1.383818,-5.676463 0,-5.676463 -1.114962,0 -0.02559,2.314019 0.473039,3.31127 z"
       id="path3096"
       clip-path="url(#clipPath3100)"
       sodipodi:nodetypes="csssssssssssssssssssssssssssscsssssssssssssssssssssssssssssssssssssssssssssssssssssscsssssssssssssssssssssssssc"
       transform="matrix(1,0,0,0.99803326,0,4.1863929)" />
    <path
       id="path3118"
       style="opacity:1;fill:url(#radialGradient3153);fill-opacity:1;stroke:none;stroke-width:0.999999px;stroke-linecap:butt;stroke-linejoin:miter;stroke-opacity:1"
       d="m 883.94141,421.91016 c -18.23811,0.15458 -36.45588,0.39357 -54.63868,0.71679 0,0 -46.97171,122.72189 -59.72862,186.85518 -18.42541,92.63077 -23.57802,282.35381 -23.57802,282.35381 22.05088,0.70927 44.19779,1.29349 66.41407,1.75195 0,0 0.74916,-159.19165 12.58778,-237.62138 12.00826,-79.55356 58.94347,-234.05635 58.94347,-234.05635 z m 106.44531,0.0605 c 0,0 -57.04211,196.97748 -68.84386,298.35909 -6.72559,57.7754 -0.87294,174.49443 -0.87294,174.49443 4.38459,0.0101 8.76942,0.0153 13.1543,0.0156 18.93269,-2.6e-4 37.86263,-0.0914 56.77344,-0.27343 0,0 -16.5705,-129.51146 -10.05677,-193.90459 9.62586,-95.15887 71.94541,-277.76729 71.94541,-277.76729 -20.6557,-0.41688 -41.3628,-0.72493 -62.09958,-0.92383 z m -270.41016,3.62891 c -17.33155,0.63699 -34.58977,1.35136 -51.76172,2.14258 0,0 -61.02549,174.96605 -77.42784,265.76928 -11.30601,62.58993 -14.09364,190.2874 -14.09364,190.2874 21.29012,1.34791 42.76683,2.57496 64.4043,3.67969 0,0 -0.80764,-143.23641 10.47645,-213.63506 13.58444,-84.75001 68.40245,-248.24389 68.40245,-248.24389 z m 440.09964,0.4707 c 0,0 -56.9722,166.59691 -70.4747,253.13839 -10.9933,70.45896 -8.1327,213.77958 -8.1327,213.77958 26.6813,-0.67158 53.2403,-1.52494 79.6308,-2.55859 0,0 -10.5072,-140.16877 -1.7716,-209.43388 10.8724,-86.2084 66.8556,-251.95479 66.8556,-251.95479 -21.8894,-1.11628 -43.9343,-2.10693 -66.1074,-2.97071 z m -583.40432,6.67188 c -20.7917,1.31743 -41.39724,2.74962 -61.79297,4.29492 0,0 -59.71285,160.36173 -76.05871,243.9587 -12.23651,62.58071 -16.04481,190.62333 -16.04481,190.62333 21.70314,2.07982 43.7186,4.02669 66.01563,5.83789 0,0 3.60037,-123.39724 14.39246,-183.94556 15.84682,-88.90761 73.4884,-260.76928 73.4884,-260.76928 z m 750.57032,2.42773 c 0,0 -67.0524,176.2997 -74.9454,269.06807 -5.1358,60.3625 18.4864,180.79912 18.4864,180.79912 20.5345,-1.22053 40.8995,-2.5524 61.0723,-3.99414 0,0 -13.6052,-124.23197 -6.256,-185.74443 10.4566,-87.52199 70.9122,-254.74776 70.9122,-254.74776 -22.8024,-1.93827 -45.9036,-3.73278 -69.2695,-5.38086 z m -897.59376,9.09766 c -20.06484,1.89089 -39.85978,3.89429 -59.36133,6.00781 0,0 -65.97041,135.23338 -85.22472,207.47827 -16.87187,63.30564 -25.70692,194.85771 -25.70692,194.85771 23.59536,3.27528 47.77936,6.3776 72.50391,9.30078 0,0 9.95234,-133.67297 24.71863,-198.79521 17.00708,-75.00456 73.07043,-218.84936 73.07043,-218.84936 z m 1113.52736,11.24023 c 0,0 -58.7618,143.92051 -69.1837,220.12471 -8.697,63.5915 6.2911,192.44756 6.2911,192.44756 23.59,-2.45763 46.7587,-5.0737 69.4668,-7.84375 0,0 -10.819,-115.08593 -4.2442,-172.08818 8.8722,-76.92012 58.4434,-224.81807 58.4434,-224.81807 -19.8547,-2.73062 -40.122,-5.33926 -60.7734,-7.82227 z m -1273.34963,6.98438 c -18.79733,2.5496 -37.22359,5.20695 -55.25586,7.96875 -19.6038,53.52969 -59.03672,93.95923 -76.11144,146.17158 -22.07979,67.51723 -32.27918,210.64873 -32.27918,210.64873 18.21756,3.56847 37.00733,7.01819 56.33984,10.34375 0,0 9.35842,-133.78781 27.787,-197.75029 17.9393,-62.26428 79.51964,-177.38252 79.51964,-177.38252 z m 1465.37893,21.77539 c 0,0 -41.8833,144.02193 -50.2462,218.1833 -5.1742,45.88448 0.2442,138.52568 0.2442,138.52568 24.0593,-3.95791 47.3275,-8.10437 69.75,-12.42968 0,0 -6.1928,-117.94441 1.5214,-176.15654 7.0525,-53.21865 40.6036,-155.84932 40.6036,-155.84932 -19.8635,-4.24176 -40.5019,-8.33568 -61.873,-12.27344 z"
       transform="scale(0.26458333)"
       sodipodi:nodetypes="ccaccaccacccacscccaccaccaccaccccaccaccaccaccccaccaccaccaccccaccaccaccacc" />
    <path
       style="fill:#a05a2c;stroke:none;stroke-width:0.264583px;stroke-linecap:butt;stroke-linejoin:miter;stroke-opacity:1"
       d="m 18.667845,191.61994 c -0.549054,-1.46414 -1.426021,-2.84444 -1.647162,-4.39243 -0.157439,-1.10207 0.256137,-2.2203 0.549054,-3.29433 3.727913,-13.66901 6.998246,-2.05675 8.784868,-3.84338 1.178929,-1.17893 0.495478,-2.70955 2.196217,-3.84338 1.63871,-1.09247 8.008064,3.29433 10.432031,3.29433 3.351602,0 6.136479,-2.51919 8.784868,-3.84338 1.701697,-0.85085 5.39601,1.00358 6.039599,1.64716 1.497885,1.49789 4.49893,-1.39926 5.490543,-1.64716 3.146102,-0.78653 7.518477,0.6332 9.882976,-0.54906 3.625752,-1.81287 10.734278,2.64453 15.373519,1.09811 1.449914,-0.4833 13.128043,-6.53939 13.177303,-6.58865 1.299395,-1.29939 4.666659,-7.96098 7.137709,-10.43203 1.29297,-1.29297 8.34859,0 10.43203,0 0.59137,0 6.26629,-3.38999 7.1377,-1.64716 0.73885,1.47768 3.27124,3.82029 4.39244,4.94149 1.5556,1.5556 0.78955,7.3782 2.19621,8.78486 0.45153,0.45153 2.70141,0.50519 3.29433,1.09811 0.73147,0.73147 1.31576,2.96292 2.19622,3.84338 2.43233,2.43233 7.79373,1.20509 9.88297,3.29433 0.69692,0.69691 0.73208,-1.83018 1.09811,-2.74527 0.47765,-1.19411 2.94037,-1.25697 2.19622,-2.74527 -0.2523,-0.50461 -2.79656,-2.69398 -2.19622,-3.29433 3.82777,-3.82777 13.91912,2.00346 17.02069,-1.09811 0.95839,-0.95839 1.03673,-6.38518 1.64716,-6.58865 11.94346,-3.98115 -4.47638,15.91058 14.82446,18.66785 6.82271,0.97467 3.38717,-5.37649 8.23582,-6.58866 3.49992,-0.87498 5.94865,2.44801 9.33392,3.29433 1.97637,0.49409 4.66939,-2.60679 7.68676,-1.09811 4.67198,2.33599 9.21348,3.23411 13.72636,5.49054 2.31323,1.15662 4.78415,-0.47092 7.1377,1.09811 0.58543,0.39029 3.66046,0.18264 3.84338,-0.54905 0.0951,-0.38052 -0.40124,-4.674 0,-4.94149 3.98178,-2.65452 6.49097,-5.49054 12.0792,-5.49054 1.64716,0 4.09403,-1.41243 4.94149,0 1.09765,1.82941 1.70147,4.9958 3.29432,6.58865 1.4316,1.4316 2.96001,-0.7638 3.29433,-1.09811 0.29845,-0.29845 21.50264,1.84888 25.2565,1.09811 0.11819,-0.0236 9.31724,-9.36725 10.98108,-6.0396 3.65596,7.31192 2.80471,1.15756 8.23581,6.58865 0.88945,0.88945 0.0685,2.88232 0.54907,3.84338 1.67912,3.35827 13.28399,3.7497 16.47161,3.29433 3.2944,-0.47063 -1.90275,-6.23839 12.0792,-8.23582 2.28466,-0.32638 14.55518,-1.08764 15.92258,1.64717 1.03237,2.06477 -0.15153,3.70326 3.29432,4.39243 2.32437,0.46488 32.57315,-0.45652 35.13947,-1.09811 2.46513,-0.61628 4.14322,-3.56041 6.58866,-2.74527 4.27265,1.42422 8.41396,3.71974 12.07918,4.94149 3.29433,1.09811 7.68678,-1.09811 10.98108,0 7.99031,2.66343 19.26087,0.94751 28.00178,2.19622 1.14284,0.16326 7.95938,2.47266 9.33392,1.09811 1.2528,-1.25281 1.12641,-4.13206 2.74529,-4.94149 0.59425,-0.29714 5.29182,-1.95048 5.49053,-2.74527 0.38282,-1.5313 -0.22202,-4.55596 1.64716,-5.49055 1.85637,-0.92818 4.57425,1.55626 6.58865,0.54906 1.9933,-0.99666 0.9306,-5.95584 3.29433,-7.13771 0.1845,-0.0923 -0.0241,5.77111 3.29433,4.94149 4.29845,-1.07461 13.44633,-0.96358 17.56973,1.09811 3.88414,1.94207 0.25416,7.81384 3.29433,9.33392 2.82927,1.41463 6.71719,0.3388 9.33392,1.64716 0,1.7e-4 0.43757,2.08474 0.54906,2.19622 1.29633,1.29634 11.97282,2.6389 13.17728,3.84338 0.62458,0.62456 -0.2219,4.05382 0,4.94149 0.50049,2.00186 2.71063,2.64131 3.29433,4.39243 0.61137,1.83407 -0.67593,2.3231 -1.64716,3.29433 -1.31078,1.31079 1.45534,6.89289 1.64716,8.23581 0.65884,4.61176 -2.4788,8.89389 -1.0981,13.72636 1.51284,5.29494 7.01162,8.53269 9.33392,13.1773 0.43235,0.8647 -1.86452,2.74153 -2.1962,3.29433 -2.40131,4.00218 -4.09379,11.12582 -3.29433,15.92257 1.33848,8.03089 6.42363,13.0693 4.94149,21.96219 -0.6935,4.16089 -3.80113,0.7602 -5.49055,1.0981 -0.9793,0.19584 -4.16293,12.19538 -9.88298,14.2754 -12.28125,4.46591 -24.61911,4.76885 -37.88474,7.13772 -12.24007,2.18573 -24.47507,4.21566 -36.78663,6.03959 -27.34583,4.05122 -56.31908,10.36556 -84.00532,6.03959 -14.52242,-2.26912 -27.18834,-7.91175 -41.17906,-12.07918 -15.67492,-4.66913 -32.10396,-6.89967 -48.31678,-8.78488 -20.25171,-2.35484 -40.74007,-1.06672 -60.94503,1.0981 -8.98055,0.96221 -18.32964,3.88567 -27.45271,2.74529 -3.63578,-0.45447 -7.55072,-7.06969 -10.98108,-8.78488 -4.4777,-2.23885 -11.14889,-2.57479 -15.92258,-2.74526 -45.46548,-1.62378 -89.611866,15.09418 -135.06735,16.47163 -13.801933,0.41823 -31.471942,2.52995 -43.924342,-4.94149 -2.58912,-1.55347 -0.866627,-10.1977 -1.098108,-12.62827 -0.48364,-5.0782 -2.69236,-9.19282 -4.392435,-13.72634 -3.609615,-9.62565 1.526312,-28.78258 8.235815,-36.23759 5.030376,-5.58931 12.438515,-8.71491 17.020682,-14.82446 5.1159589,-6.82128 -4.443074,-17.96688 -3.84338,-19.76596 0.873481,-2.62044 3.177684,-2.11845 4.941488,-3.29432 13.658097,-9.1054 14.0576792,-11.17278 30.197985,-7.13771 z"
       id="path1024"
       clip-path="url(#clipPath1038)" />
    <path
       style="opacity:0.203226;fill:#000000;stroke:#000000;stroke-width:0.264583px;stroke-linecap:butt;stroke-linejoin:miter;stroke-opacity:1"
       d="m 311.17436,226.92628 c 3.90853,0.46111 6.50426,2.75044 9.90013,3.8824 0.90556,0.30186 1.97279,2.08114 3.30004,2.52356 1.57909,0.52637 4.10877,-0.16187 5.24124,0.9706 0.82756,0.82758 1.71236,1.72973 2.91179,2.32944 1.07741,0.5387 6.21803,-2.78032 8.73541,-1.9412 1.46092,0.48698 1.9395,2.52271 3.49416,3.30004 0.99859,0.4993 2.77064,0.63532 3.49414,1.35884 0.25249,0.25248 2.19366,0 2.7177,0 1.53246,0 4.35623,1.12192 5.82358,0.38824 2.96717,-1.48358 5.5803,-2.85097 8.92953,-3.68828 1.72948,-0.43237 2.95177,1.24275 4.46476,1.74708 2.40292,0.80097 8.00775,0.16971 9.90013,-0.77648 0.71528,-0.35764 0.94829,-1.13127 1.35882,-1.74708 0.40839,-0.61255 0.8889,-1.5121 1.7471,-1.9412 0.83576,-0.41788 1.96749,-0.005 2.91179,-0.19412 4.12102,-0.8242 7.76481,-2.72596 7.76481,-6.60008 0,-0.61495 0.2481,-2.02735 0,-2.52356 -2.8421,-5.68421 -9.12956,-8.04931 -14.75312,-10.09424 -8.72955,-3.17438 -17.238,-3.12869 -26.40033,-4.07652 -3.88898,-0.40231 -7.93282,-1.03966 -11.84132,-0.38824 -2.56535,0.42756 -5.53829,1.70908 -7.95891,2.71768 -0.87633,0.36513 -1.63414,1.25649 -2.52357,1.55296 -2.88052,0.96018 -5.60983,1.73726 -8.34715,3.10592 -3.72851,1.86425 -7.87588,3.60524 -10.6766,6.40596 -0.40701,0.40699 -0.19413,3.07425 -0.19413,3.68828 z"
       id="path1070" />
    <path
       style="opacity:0.216129;fill:#000000;stroke:none;stroke-width:0.264583px;stroke-linecap:butt;stroke-linejoin:miter;stroke-opacity:1"
       d="m 471.08855,159.44642 c -3.80217,3.8638 -3.4349,9.41778 -7.68676,13.01824 -0.63005,0.53353 -4.91556,-2.92996 -5.49052,-3.25456 -4.82219,-2.72228 -8.8601,-2.28222 -13.72637,0.46494 -1.34618,0.75996 0.51162,-2.29298 -0.54904,-1.39481 -0.86178,0.72974 -1.92831,4.8837 -2.74529,5.11431 -15.42399,4.35366 -12.21886,-7.7148 -19.2169,-6.97406 -5.16387,0.54659 -9.82536,2.66119 -14.82445,3.7195 -0.74993,0.15875 -1.06135,-3.26079 -3.84339,-2.78963 -3.94705,0.66847 -3.27519,4.18714 -6.58865,3.71949 -4.09985,-0.57862 -3.96576,-4.23625 -7.13772,-5.57924 -1.7998,-0.76203 -8.32379,2.17569 -8.78485,1.39482 -0.46538,-0.78815 0.45196,-1.88716 -1.0981,-2.32469 -2.19488,-0.61954 -15.16261,5.75785 -16.47164,4.64937 -7.85923,-6.65518 -20.65885,-3.44867 -21.96216,-4.18443 -0.83188,-0.46962 -2.03089,-1.82277 -3.29433,-1.39482 -1.41232,0.47838 -5.47785,3.02747 -7.13771,2.32469 -1.28882,-0.54568 -0.0535,-3.76481 -1.0981,-4.64937 -1.01727,-0.86141 -4.23363,1.22959 -6.0396,0.46494 -2.03059,-0.85975 -6.4458,-4.32582 -8.23581,-3.7195 -0.59248,0.20068 -3.18133,2.42038 -3.29433,2.32468 -4.10136,-3.473 -7.68739,-6.27691 -12.62824,-8.36886 -1.28233,-0.54293 -6.89624,4.90981 -7.68679,5.57924 -1.65234,1.39922 -6.94785,2.93306 -7.68675,4.18444 -1.24317,2.10544 -1.63325,5.00483 -3.29433,6.97405 -0.79869,0.94688 -3.07236,1.20934 -4.39242,0.92988 -1.87579,-0.39711 -9.84772,-0.43509 -10.98109,-1.39481 -0.71993,-0.60964 0.18286,-2.99637 -1.09812,-3.7195 -1.85453,-1.04694 -6.93447,0.63702 -8.2358,-0.46494 -0.53357,-0.45182 0.56653,-1.38741 -0.54906,-1.85975 -1.49635,-0.63355 -4.13647,-0.24819 -5.49054,-1.39481 -2.37353,-2.00989 -1.95188,-3.98915 -4.94149,-5.11431 -2.98084,-1.12184 -14.88044,-2.27728 -17.02068,-0.46493 -2.33727,1.97919 2.14478,8.92091 1.09811,10.69355 -0.77216,1.30772 -2.84813,-1.67083 -4.39244,-2.32469 -2.55738,-1.08278 -8.40027,-0.93661 -10.98108,0 -5.6233,2.04077 1.6304,6.27902 -9.88298,7.90394 -0.57088,0.0805 -1.23792,0.81147 -1.64716,0.46493 -0.9012,-0.76313 -7.73215,-7.22574 -8.23582,-7.43899 -0.39949,-0.16914 -3.60749,0.34955 -3.84338,0 -1.7204,-2.54945 -1.88452,-7.48925 -6.03959,-8.36887 -4.1368,-0.87575 -16.82554,3.00996 -18.66785,0.92988 -3.84562,-4.34194 -4.98219,-10.00476 -12.62825,-11.62343 -1.31301,-0.27796 -9.27792,9.25132 -9.88298,9.76368 -1.00927,0.85464 2.31632,3.20371 1.09811,3.71949 -1.79771,0.76115 -9.29229,1.25382 -9.88297,3.25456 -0.58852,1.9934 0.4225,2.43185 -1.09811,3.7195 -0.78719,0.66659 -2.19903,-0.2963 -3.29433,-0.46494 -13.19753,-2.03193 -2.13621,-3.68138 -10.98108,-9.29874 -1.46808,-0.93237 -5.57612,0.39248 -6.58865,-0.46494 -2.62979,-2.22689 -5.35114,-5.05528 -8.78487,-6.50912 -6.708358,-2.8403 -11.751033,-1.45536 -15.92257,3.25456 -0.603483,0.68138 -0.618847,3.31367 -1.098108,3.7195 -0.823582,0.69741 -4.117909,-0.6974 -4.941491,0 -2.12961,1.80335 -3.714652,5.00531 -6.039596,6.97406 -1.61332,1.36615 -4.879149,-4.78676 -6.039596,-5.11431 -1.012407,-0.28576 -0.579993,2.32468 -1.647163,2.32468 -1.655556,0 -13.642271,-0.72463 -14.275411,-1.39481 -5.028351,-5.32248 -12.074819,-6.9748 -20.315007,-5.57924 -5.597933,0.94806 -4.477523,4.6854 -8.78487,6.50912 -7.801251,3.30304 -15.7919191,-0.11064 -22.5112251,5.57924 -1.62593693,1.37684 3.3051837,7.4298 2.1962171,8.36887 -1.2369239,1.04742 -4.53167213,5.80837 -3.29432573,7.90393 1.06196263,1.79853 5.99460713,2.67533 6.58865143,4.18443 0.6097278,1.54895 -2.6249508,2.52846 -1.647163,4.18444 2.2884566,3.87571 17.8838543,10.10535 24.1583883,11.62343 4.265006,1.03188 13.966817,-2.44076 17.569738,0 1.14133,0.77317 3.315065,4.18442 4.941488,4.18442 2.102035,0 -0.555768,-7.44278 6.039596,-3.71949 1.211392,0.68387 1.997059,2.24036 3.294327,2.78963 0.517652,0.21916 -0.0297,-1.39482 0.549052,-1.39482 5.509917,0 7.912809,0.64728 13.177303,-2.32468 3.344371,-1.888 9.319091,2.7959 10.432032,2.32468 2.048174,-0.86719 2.428158,-3.18643 4.392435,-4.18443 3.160821,-1.60595 6.55098,4.32877 9.333921,5.11431 2.323147,0.65575 1.185017,-5.04071 2.745267,-3.7195 3.89698,3.29995 10.31826,-0.52917 10.43203,-0.46494 1.80999,1.0218 2.98605,2.42663 4.94149,3.25456 1.06452,0.45072 1.09829,-3.71933 2.19621,-2.78962 0.28546,0.24172 11.05983,6.39859 12.0792,6.97405 1.25846,0.71045 12.97769,-1.50754 13.72636,-1.85975 4.29668,-2.02133 2.40734,-2.84921 5.49054,-3.71949 2.21281,-0.6246 5.83811,1.50856 7.68676,0.46493 0.75512,-0.42628 0.41416,-2.84672 1.64716,-2.32468 1.73951,0.73651 3.24789,2.78963 4.94149,2.78963 2.08735,0 5.17545,0.49849 7.13771,0 1.18464,-0.30095 2.87481,-2.18103 4.39243,-1.85975 1.32002,0.27945 3.16521,5.30572 3.84338,5.11431 8.12636,-2.2938 1.61224,-4.21401 10.98109,3.71949 0.4671,0.39555 4.55103,-10.55925 6.03959,-9.29874 1.04405,0.88409 4.36992,1.31525 4.94149,1.85974 10.60092,10.09892 -1.33026,-0.19658 6.58865,6.50912 1.99523,1.68956 -0.82967,-6.39545 2.19622,-5.1143 15.0572,6.37519 5.71729,10.30954 11.53014,0.46494 0.69286,-1.17342 5.56126,3.38195 6.0396,3.7195 1.1505,0.81186 9.70513,-2.91537 12.07919,-3.7195 1.92536,-0.65216 5.5001,3.25455 7.13771,3.25455 2.38487,0 14.35919,-2.71867 16.47162,-0.92987 0.92398,0.78242 -0.17245,1.93948 1.64716,2.32468 1.37073,0.29019 3.15712,-1.44131 4.39243,-1.85974 1.10705,-0.37498 2.89335,1.60587 4.39246,1.85974 2.09497,0.35481 3.24088,-0.67478 4.94149,-1.39481 3.10012,-1.31259 5.94693,1.15155 8.78485,0.46495 3.24781,-0.78579 4.51088,-3.6314 7.13772,-5.11431 0.64606,-0.36474 1.0981,0.92987 1.64716,1.39481 1.2224,1.03513 3.86715,1.98102 5.49053,2.32468 3.2762,0.69357 4.42658,3.84408 8.78488,2.78963 1.41798,-0.34308 4.39777,-2.78661 6.03959,-1.85976 0.62786,0.35446 0.0156,1.40791 0.54906,1.85976 1.33729,1.13241 3.33555,0.47656 4.94149,0.92987 2.5607,0.72279 2.8511,3.76431 4.94147,4.64937 1.50032,0.63522 3.76436,-4.64937 6.03962,-4.64937 2.1781,0 3.63196,1.60946 6.03959,0.92988 5.21319,-1.47151 19.43425,-3.83186 25.25649,-1.85975 2.21654,0.75078 4.31845,4.96591 7.68675,3.25456 2.72846,-1.38627 0.30639,-0.98383 1.09813,-2.32469 0.34046,-0.57664 14.63167,0.006 15.37351,-0.46494 4.01608,-2.5506 -1.41457,-6.59185 6.58865,-7.439 5.67132,-0.6003 12.77194,-0.80819 17.02067,2.78963 0.81439,0.68961 1.43725,2.86142 3.29433,3.25456 3.88988,0.82348 8.83676,-1.07021 12.62824,0 2.2315,0.62987 1.61153,2.4072 5.49056,1.85975 0.67823,-0.0957 5.3277,-0.98116 5.49055,-1.39482 0.14857,-0.37743 0.1184,-4.36676 1.64717,-3.71949 11.22116,4.75102 12.93225,4.76311 25.25648,3.71949 5.1701,-0.43779 10.34458,1.0733 15.37351,0.46495 1.4655,-0.17729 8.65714,-4.07627 9.88298,-5.11431 1.3565,-1.14868 3.10711,-23.58529 2.74527,-26.03648 -0.53295,-3.61052 -3.90734,-7.21931 -6.03959,-10.22861 -3.36905,-4.75485 -12.76181,-7.0193 -18.1188,-8.83381 z"
       id="path1046"
       clip-path="url(#clipPath1056)" />
    <path
       style="opacity:0.203226;fill:#000000;stroke:#000000;stroke-width:0.264583px;stroke-linecap:butt;stroke-linejoin:miter;stroke-opacity:1"
       d="m 464.71317,221.15769 c -2.87969,0.33974 -4.79215,2.02645 -7.29413,2.86045 -0.66719,0.2224 -1.4535,1.53332 -2.43138,1.85928 -1.16342,0.38782 -3.02722,-0.11926 -3.86159,0.71511 -0.60973,0.60974 -1.26162,1.27442 -2.14533,1.71627 -0.7938,0.3969 -4.58126,-2.04846 -6.436,-1.43022 -1.07636,0.35879 -1.42897,1.85866 -2.5744,2.43137 -0.73573,0.36787 -2.04132,0.46809 -2.57438,1.00116 -0.18603,0.18602 -1.61623,0 -2.00232,0 -1.12908,0 -3.20955,0.8266 -4.29065,0.28604 -2.18613,-1.09306 -4.11141,-2.10051 -6.57903,-2.71742 -1.27423,-0.31855 -2.17478,0.91563 -3.2895,1.2872 -1.77041,0.59013 -5.89989,0.12504 -7.29414,-0.57209 -0.527,-0.2635 -0.69867,-0.83348 -1.00114,-1.2872 -0.30089,-0.4513 -0.65491,-1.11407 -1.28721,-1.43022 -0.61577,-0.30788 -1.44959,-0.004 -2.14533,-0.14302 -3.03625,-0.60725 -5.72089,-2.00841 -5.72089,-4.86275 0,-0.45308 -0.18279,-1.49369 0,-1.85929 2.09398,-4.18796 6.7264,-5.9305 10.86968,-7.43715 6.43169,-2.33879 12.70047,-2.30513 19.45102,-3.00346 2.86529,-0.29641 5.84467,-0.76599 8.72434,-0.28604 1.89008,0.31501 4.08046,1.2592 5.8639,2.00231 0.64566,0.26901 1.20399,0.92574 1.8593,1.14417 2.12228,0.70744 4.13316,1.27997 6.14994,2.28836 2.74706,1.37352 5.80272,2.65623 7.86621,4.71972 0.29988,0.29986 0.14303,2.26502 0.14303,2.71742 z"
       id="path1074" />
    <path
       style="opacity:0.319355;fill:#000000;stroke:#000000;stroke-width:0.264583px;stroke-linecap:butt;stroke-linejoin:miter;stroke-opacity:1"
       d="m 304.19517,227.32376 c 4.5678,0.53931 7.60137,3.21689 11.57004,4.54083 1.0583,0.35305 2.30555,2.43408 3.85667,2.95154 1.84545,0.61564 4.80182,-0.18933 6.12531,1.1352 0.96715,0.96794 2.0012,2.02308 3.40294,2.7245 1.25914,0.63006 7.26686,-3.25184 10.20886,-2.27041 1.70734,0.56957 2.26665,2.95054 4.08354,3.8597 1.16703,0.58398 3.23798,0.74307 4.08352,1.58929 0.29508,0.2953 2.56367,0 3.17611,0 1.79095,0 5.09102,1.31219 6.80587,0.45409 3.46766,-1.73519 6.52156,-3.33448 10.43573,-4.31379 2.0212,-0.5057 3.44966,1.45351 5.21785,2.04337 2.80824,0.93681 9.35847,0.19849 11.57004,-0.90817 0.83593,-0.41829 1.10825,-1.32312 1.58802,-2.04337 0.47728,-0.71643 1.03884,-1.76854 2.0418,-2.27041 0.97673,-0.48875 2.29935,-0.006 3.40293,-0.22705 4.81614,-0.96397 9.07455,-3.18826 9.07455,-7.71941 0,-0.71924 0.28995,-2.37117 0,-2.95154 -3.32149,-6.64821 -10.6695,-9.41442 -17.24161,-11.80615 -10.20201,-3.71274 -20.14563,-3.6593 -30.85342,-4.76787 -4.54496,-0.47054 -9.2709,-1.21598 -13.83867,-0.45409 -2.99806,0.50007 -6.47246,1.99893 -9.30138,3.17858 -1.02415,0.42706 -1.90978,1.46959 -2.94923,1.81634 -3.3664,1.12302 -6.55608,2.03188 -9.75512,3.63266 -4.35741,2.18041 -9.20434,4.21666 -12.47748,7.49237 -0.47566,0.47601 -0.22687,3.59562 -0.22687,4.31379 z"
       id="path1072" />
    <path
       style="opacity:0.319355;fill:#000000;stroke:#000000;stroke-width:0.264583px;stroke-linecap:butt;stroke-linejoin:miter;stroke-opacity:1"
       d="m 469.85524,221.45055 c -3.36542,0.39734 -5.60047,2.37011 -8.52447,3.34555 -0.77973,0.26012 -1.69867,1.79336 -2.84149,2.17461 -1.35967,0.45359 -3.53784,-0.13949 -4.51295,0.83638 -0.71257,0.71316 -1.47443,1.49055 -2.50719,2.00734 -0.9277,0.46421 -5.35402,-2.39586 -7.5216,-1.67277 -1.25792,0.41964 -1.67,2.17387 -3.00864,2.84371 -0.85983,0.43026 -2.38565,0.54748 -3.00862,1.17095 -0.2174,0.21757 -1.88884,0 -2.34007,0 -1.31952,0 -3.75091,0.96678 -5.01437,0.33456 -2.55487,-1.27844 -4.8049,-2.45675 -7.68875,-3.17828 -1.48916,-0.37259 -2.54161,1.0709 -3.84436,1.5055 -2.06903,0.69021 -6.89505,0.14624 -8.52448,-0.66912 -0.61589,-0.30818 -0.81652,-0.97483 -1.17,-1.50549 -0.35165,-0.52785 -0.76539,-1.30301 -1.50434,-1.67278 -0.71963,-0.3601 -1.6941,-0.004 -2.50719,-0.16728 -3.54839,-0.71023 -6.68587,-2.34902 -6.68587,-5.68744 0,-0.52992 -0.21362,-1.74701 0,-2.17461 2.44718,-4.89822 7.86099,-6.93628 12.70313,-8.69844 7.51655,-2.73544 14.84273,-2.69607 22.73192,-3.51283 3.3486,-0.34668 6.83054,-0.8959 10.19594,-0.33456 2.20889,0.36844 4.76873,1.47275 6.853,2.34189 0.75456,0.31464 1.40707,1.08275 2.1729,1.33822 2.48027,0.82741 4.83034,1.49703 7.1873,2.67644 3.21041,1.60647 6.7815,3.10672 9.19305,5.52017 0.35045,0.35071 0.16715,2.64915 0.16715,3.17828 z"
       id="path1076" />
    <path
       style="fill:#d38d5f;stroke:none;stroke-width:0.264583px;stroke-linecap:butt;stroke-linejoin:miter;stroke-opacity:1"
       d="m 471.08855,155.60304 c -3.80217,3.8638 -3.4349,9.41778 -7.68676,13.01824 -0.63005,0.53353 -4.91556,-2.92996 -5.49052,-3.25456 -4.82219,-2.72228 -8.8601,-2.28222 -13.72637,0.46494 -1.34618,0.75996 0.51162,-2.29298 -0.54904,-1.39481 -0.86178,0.72974 -1.92831,4.8837 -2.74529,5.11431 -15.42399,4.35366 -12.21886,-7.7148 -19.2169,-6.97406 -5.16387,0.54659 -9.82536,2.66119 -14.82445,3.7195 -0.74993,0.15875 -1.06135,-3.26079 -3.84339,-2.78963 -3.94705,0.66847 -3.27519,4.18714 -6.58865,3.71949 -4.09985,-0.57862 -3.96576,-4.23625 -7.13772,-5.57924 -1.7998,-0.76203 -8.32379,2.17569 -8.78485,1.39482 -0.46538,-0.78815 0.45196,-1.88716 -1.0981,-2.32469 -2.19488,-0.61954 -15.16261,5.75785 -16.47164,4.64937 -7.85923,-6.65518 -20.65885,-3.44867 -21.96216,-4.18443 -0.83188,-0.46962 -2.03089,-1.82277 -3.29433,-1.39482 -1.41232,0.47838 -5.47785,3.02747 -7.13771,2.32469 -1.28882,-0.54568 -0.0535,-3.76481 -1.0981,-4.64937 -1.01727,-0.86141 -4.23363,1.22959 -6.0396,0.46494 -2.03059,-0.85975 -6.4458,-4.32582 -8.23581,-3.7195 -0.59248,0.20068 -3.18133,2.42038 -3.29433,2.32468 -4.10136,-3.473 -7.68739,-6.27691 -12.62824,-8.36886 -1.28233,-0.54293 -6.89624,4.90981 -7.68679,5.57924 -1.65234,1.39922 -6.94785,2.93306 -7.68675,4.18444 -1.24317,2.10544 -1.63325,5.00483 -3.29433,6.97405 -0.79869,0.94688 -3.07236,1.20934 -4.39242,0.92988 -1.87579,-0.39711 -9.84772,-0.43509 -10.98109,-1.39481 -0.71993,-0.60964 0.18286,-2.99637 -1.09812,-3.7195 -1.85453,-1.04694 -6.93447,0.63702 -8.2358,-0.46494 -0.53357,-0.45182 0.56653,-1.38741 -0.54906,-1.85975 -1.49635,-0.63355 -4.13647,-0.24819 -5.49054,-1.39481 -2.37353,-2.00989 -1.95188,-3.98915 -4.94149,-5.11431 -2.98084,-1.12184 -14.88044,-2.27728 -17.02068,-0.46493 -2.33727,1.97919 2.14478,8.92091 1.09811,10.69355 -0.77216,1.30772 -2.84813,-1.67083 -4.39244,-2.32469 -2.55738,-1.08278 -8.40027,-0.93661 -10.98108,0 -5.6233,2.04077 1.6304,6.27902 -9.88298,7.90394 -0.57088,0.0805 -1.23792,0.81147 -1.64716,0.46493 -0.9012,-0.76313 -7.73215,-7.22574 -8.23582,-7.43899 -0.39949,-0.16914 -3.60749,0.34955 -3.84338,0 -1.7204,-2.54945 -1.88452,-7.48925 -6.03959,-8.36887 -4.1368,-0.87575 -16.82554,3.00996 -18.66785,0.92988 -3.84562,-4.34194 -4.98219,-10.00476 -12.62825,-11.62343 -1.31301,-0.27796 -9.27792,9.25132 -9.88298,9.76368 -1.00927,0.85464 2.31632,3.20371 1.09811,3.71949 -1.79771,0.76115 -9.29229,1.25382 -9.88297,3.25456 -0.58852,1.9934 0.4225,2.43185 -1.09811,3.7195 -0.78719,0.66659 -2.19903,-0.2963 -3.29433,-0.46494 -13.19753,-2.03193 -2.13621,-3.68138 -10.98108,-9.29874 -1.46808,-0.93237 -5.57612,0.39248 -6.58865,-0.46494 -2.62979,-2.22689 -5.35114,-5.05528 -8.78487,-6.50912 -6.708358,-2.8403 -11.751033,-1.45536 -15.92257,3.25456 -0.603483,0.68138 -0.618847,3.31367 -1.098108,3.7195 -0.823582,0.69741 -4.117909,-0.6974 -4.941491,0 -2.12961,1.80335 -3.714652,5.00531 -6.039596,6.97406 -1.61332,1.36615 -4.879149,-4.78676 -6.039596,-5.11431 -1.012407,-0.28576 -0.579993,2.32468 -1.647163,2.32468 -1.655556,0 -13.642271,-0.72463 -14.275411,-1.39481 -5.028351,-5.32248 -12.074819,-6.9748 -20.315007,-5.57924 -5.597933,0.94806 -4.477523,4.6854 -8.78487,6.50912 -7.801251,3.30304 -15.7919191,-0.11064 -22.5112251,5.57924 -1.62593693,1.37684 3.3051837,7.4298 2.1962171,8.36887 -1.2369239,1.04742 -4.53167213,5.80837 -3.29432573,7.90393 1.06196263,1.79853 5.99460713,2.67533 6.58865143,4.18443 0.6097278,1.54895 -2.6249508,2.52846 -1.647163,4.18444 2.2884566,3.87571 17.8838543,10.10535 24.1583883,11.62343 4.265006,1.03188 13.966817,-2.44076 17.569738,0 1.14133,0.77317 3.315065,4.18442 4.941488,4.18442 2.102035,0 -0.555768,-7.44278 6.039596,-3.71949 1.211392,0.68387 1.997059,2.24036 3.294327,2.78963 0.517652,0.21916 -0.0297,-1.39482 0.549052,-1.39482 5.509917,0 7.912809,0.64728 13.177303,-2.32468 3.344371,-1.888 9.319091,2.7959 10.432032,2.32468 2.048174,-0.86719 2.428158,-3.18643 4.392435,-4.18443 3.160821,-1.60595 6.55098,4.32877 9.333921,5.11431 2.323147,0.65575 1.185017,-5.04071 2.745267,-3.7195 3.89698,3.29995 10.31826,-0.52917 10.43203,-0.46494 1.80999,1.0218 2.98605,2.42663 4.94149,3.25456 1.06452,0.45072 1.09829,-3.71933 2.19621,-2.78962 0.28546,0.24172 11.05983,6.39859 12.0792,6.97405 1.25846,0.71045 12.97769,-1.50754 13.72636,-1.85975 4.29668,-2.02133 2.40734,-2.84921 5.49054,-3.71949 2.21281,-0.6246 5.83811,1.50856 7.68676,0.46493 0.75512,-0.42628 0.41416,-2.84672 1.64716,-2.32468 1.73951,0.73651 3.24789,2.78963 4.94149,2.78963 2.08735,0 5.17545,0.49849 7.13771,0 1.18464,-0.30095 2.87481,-2.18103 4.39243,-1.85975 1.32002,0.27945 3.16521,5.30572 3.84338,5.11431 8.12636,-2.2938 1.61224,-4.21401 10.98109,3.71949 0.4671,0.39555 4.55103,-10.55925 6.03959,-9.29874 1.04405,0.88409 4.36992,1.31525 4.94149,1.85974 10.60092,10.09892 -1.33026,-0.19658 6.58865,6.50912 1.99523,1.68956 -0.82967,-6.39545 2.19622,-5.1143 15.0572,6.37519 5.71729,10.30954 11.53014,0.46494 0.69286,-1.17342 5.56126,3.38195 6.0396,3.7195 1.1505,0.81186 9.70513,-2.91537 12.07919,-3.7195 1.92536,-0.65216 5.5001,3.25455 7.13771,3.25455 2.38487,0 14.35919,-2.71867 16.47162,-0.92987 0.92398,0.78242 -0.17245,1.93948 1.64716,2.32468 1.37073,0.29019 3.15712,-1.44131 4.39243,-1.85974 1.10705,-0.37498 2.89335,1.60587 4.39246,1.85974 2.09497,0.35481 3.24088,-0.67478 4.94149,-1.39481 3.10012,-1.31259 5.94693,1.15155 8.78485,0.46495 3.24781,-0.78579 4.51088,-3.6314 7.13772,-5.11431 0.64606,-0.36474 1.0981,0.92987 1.64716,1.39481 1.2224,1.03513 3.86715,1.98102 5.49053,2.32468 3.2762,0.69357 4.42658,3.84408 8.78488,2.78963 1.41798,-0.34308 4.39777,-2.78661 6.03959,-1.85976 0.62786,0.35446 0.0156,1.40791 0.54906,1.85976 1.33729,1.13241 3.33555,0.47656 4.94149,0.92987 2.5607,0.72279 2.8511,3.76431 4.94147,4.64937 1.50032,0.63522 3.76436,-4.64937 6.03962,-4.64937 2.1781,0 3.63196,1.60946 6.03959,0.92988 5.21319,-1.47151 19.43425,-3.83186 25.25649,-1.85975 2.21654,0.75078 4.31845,4.96591 7.68675,3.25456 2.72846,-1.38627 0.30639,-0.98383 1.09813,-2.32469 0.34046,-0.57664 14.63167,0.006 15.37351,-0.46494 4.01608,-2.5506 -1.41457,-6.59185 6.58865,-7.439 5.67132,-0.6003 12.77194,-0.80819 17.02067,2.78963 0.81439,0.68961 1.43725,2.86142 3.29433,3.25456 3.88988,0.82348 8.83676,-1.07021 12.62824,0 2.2315,0.62987 1.61153,2.4072 5.49056,1.85975 0.67823,-0.0957 5.3277,-0.98116 5.49055,-1.39482 0.14857,-0.37743 0.1184,-4.36676 1.64717,-3.71949 11.22116,4.75102 12.93225,4.76311 25.25648,3.71949 5.1701,-0.43779 10.34458,1.0733 15.37351,0.46495 1.4655,-0.17729 8.65714,-4.07627 9.88298,-5.11431 1.3565,-1.14868 3.10711,-23.58529 2.74527,-26.03648 -0.53295,-3.61052 -3.90734,-7.21931 -6.03959,-10.22861 -3.36905,-4.75485 -12.76181,-7.0193 -18.1188,-8.83381 z"
       id="path1044"
       clip-path="url(#clipPath1050)" />
    <path
       id="path3083"
       style="fill:#b27750;fill-opacity:1;stroke:none;stroke-width:0.999999px;stroke-linecap:butt;stroke-linejoin:miter;stroke-opacity:1"
       d="m 340.86328,622.02344 c -0.39199,-0.0242 -0.78204,0.023 -1.16992,0.15234 -15.82214,5.27403 -37.90564,16.5734 -48.27148,30.39453 -2.80864,3.74483 -27.57191,-0.28197 -30.39454,5.36328 -1.7411,3.4822 -0.018,19.67501 -3.57422,21.45313 -13.27669,6.63836 -46.8387,3.4876 -60.78906,0 -4.11584,-1.02894 -21.35696,-12.56273 -25.02929,-10.72656 -4.76519,2.38261 -22.39284,18.72826 -28.60547,12.51562 -1.44143,-1.44143 -21.10382,-12.86494 -23.24219,-10.72656 -7.0766,7.0766 -7.74608,16.68493 -19.66602,17.87695 -12.718246,1.27182 -11.143164,-0.0859 -9.953121,-0.66601 -1.391427,0.55087 -6.729083,2.44148 -23.761719,7.51953 4.104402,19.9387 2.37151,27.0031 -1.830078,35.88086 17.710645,7.71426 36.421588,14.27898 47.482418,16.95507 16.11971,3.90002 52.78891,-9.22491 66.40625,0 4.31369,2.92222 12.52867,15.81446 18.67578,15.81446 7.9447,0 -2.10118,-28.13087 22.82618,-14.0586 4.57849,2.58471 7.54811,8.46895 12.45117,10.54493 1.95648,0.82832 -0.11124,-5.27149 2.07617,-5.27149 20.82488,0 29.90543,2.4455 49.80274,-8.78711 12.64014,-7.13575 35.22329,10.5681 39.42968,8.78711 7.74113,-3.27757 9.17753,-12.04444 16.60156,-15.8164 11.94642,-6.06974 24.75915,16.3611 35.27735,19.33007 8.7804,2.47843 4.47799,-19.05214 10.375,-14.05859 14.72874,12.47225 38.99774,-1.99862 39.42773,-1.75586 6.84091,3.86192 11.2871,9.1716 18.67774,12.30078 4.02338,1.70351 4.15116,-14.05878 8.30078,-10.54492 1.0789,0.91359 41.79961,24.18441 45.65234,26.35938 4.75639,2.68516 49.04929,-5.69811 51.87891,-7.0293 16.23942,-7.63967 9.09891,-10.76935 20.75195,-14.0586 8.36338,-2.36069 22.06571,5.70225 29.05274,1.75782 2.85399,-1.61114 1.5664,-10.75822 6.22656,-8.78516 6.57452,2.78366 12.27477,10.54297 18.67578,10.54297 7.8892,0 19.56015,1.88406 26.97656,0 4.47738,-1.13745 10.86568,-8.24358 16.60156,-7.0293 4.98906,1.05619 11.96419,20.05352 14.52735,19.33008 30.7138,-8.66948 6.09213,-15.92824 41.50195,14.05664 1.76542,1.49499 17.20207,-39.90866 22.82813,-35.14453 3.94601,3.34144 16.51551,4.97138 18.67578,7.0293 40.06647,38.16914 -5.0274,-0.74282 24.90234,24.60156 7.54103,6.38574 -3.13565,-24.17222 8.30078,-19.33008 56.90911,24.09521 21.6083,38.96575 43.57813,1.75781 2.61868,-4.43497 21.01827,12.78282 22.82617,14.0586 4.34835,3.06844 36.68147,-11.01936 45.6543,-14.0586 7.27695,-2.46485 20.78717,12.30079 26.97656,12.30079 9.01368,0 54.27187,-10.27645 62.25589,-3.51563 3.4922,2.95718 -0.65269,7.33124 6.2246,8.78711 5.1807,1.09678 11.9327,-5.44783 16.6015,-7.0293 4.1842,-1.41724 10.9357,6.06979 16.6016,7.0293 7.918,1.34101 12.2483,-2.55011 18.6758,-5.27148 11.717,-4.96098 22.4771,4.35283 33.2031,1.75781 12.2752,-2.96992 17.0484,-13.72538 26.9766,-19.33008 2.4418,-1.37855 4.1513,3.51423 6.2265,5.27148 4.6201,3.91231 14.6164,7.48629 20.752,8.78516 12.3825,2.62137 16.7288,14.53024 33.2012,10.54492 5.3593,-1.29668 16.6228,-10.53235 22.8281,-7.02929 2.373,1.33969 0.058,5.32151 2.0742,7.02929 5.0543,4.27998 12.608,1.80038 18.6777,3.51367 9.6783,2.73181 10.7752,14.22716 18.6758,17.57227 5.6705,2.40083 14.2268,-17.57227 22.8262,-17.57227 8.2322,0 13.7284,6.08412 22.8281,3.51563 19.7034,-5.56161 73.4517,-14.48294 95.457,-7.0293 8.3775,2.8376 16.3222,18.76888 29.0528,12.30078 10.3123,-5.23944 1.158,-3.71929 4.1504,-8.78711 1.2867,-2.17942 55.2997,0.0221 58.1035,-1.75781 15.1789,-9.64006 -5.3461,-24.91341 24.9023,-28.11523 21.4349,-2.26885 48.2719,-3.05509 64.3301,10.54297 3.078,2.6064 5.4323,10.81489 12.4512,12.30078 14.7019,3.11236 33.3985,-4.04489 47.7285,0 8.434,2.38061 6.091,9.0984 20.7519,7.02929 2.5634,-0.3617 20.1365,-3.70804 20.752,-5.27148 0.5615,-1.42651 0.4466,-16.50497 6.2246,-14.05859 42.4107,17.95661 48.8792,18.00298 95.459,14.05859 19.5405,-1.65464 39.0965,4.05709 58.1035,1.75781 5.5389,-0.67007 32.7204,-15.40678 37.3535,-19.33008 4.3188,-3.65712 9.6753,-64.25687 10.4453,-88.85547 -5.3113,0.39218 -9.4124,0.72714 -10.705,0.7461 -141.0142,2.07375 -59.8786,4.83877 -210.9668,-7.15234 -28.2361,0.25666 -55.8439,12.43475 -84.0293,10.72656 -23.8808,-1.44733 -30.176,-24.91796 -53.6368,-23.24219 -22.2871,1.59197 -34.0317,14.32171 -53.6347,19.66797 -27.2829,7.44079 -59.4876,0.26622 -87.6055,3.57422 -107.4338,12.63927 32.9138,-3.11722 -75.0898,14.30273 -20.1886,3.25622 -36.6127,-5.06023 -55.4239,-7.15039 -21.3771,-2.37524 -91.4826,-7.64704 -114.4238,0 -16.9462,5.64873 -17.3981,20.80759 -30.3945,28.60547 -12.4192,7.45149 -21.2287,2.17827 -33.9688,5.36328 -10.1895,2.54737 -1.4081,-10.0032 -8.9394,-12.51367 -15.852,-5.28397 -17.4363,-3.80591 -26.8184,-17.87891 -5.4797,-8.21949 -23.5133,12.10063 -26.81638,14.30274 -12.6861,8.45741 -29.42839,8.41706 -44.69727,5.36328 -14.99803,-2.99959 -4.32104,-6.10819 -12.51563,-14.30274 -1.78782,-1.78786 -8.93869,1.78783 -10.72656,0 -6.7022,-6.70223 -17.61241,-36.85124 -35.75781,-23.24218 -9.19404,6.89556 -16.64606,20.83865 -28.60547,26.81836 -6.35002,3.17503 -10.32727,-2.18836 -16.08984,3.57421 -15.90312,15.90309 6.06003,21.45508 -32.18164,21.45508 -1.43252,0 -9.58699,1.14153 -10.72852,0 -7.99385,-7.99385 -21.52809,1.71214 -44.69531,-21.45508 -2.38382,-2.38382 -11.91891,2.38383 -14.30274,0 -5.97101,-5.97101 -8.18545,-22.72465 -21.45507,-16.08984 -6.59445,3.29722 -64.02922,20.00204 -71.51563,12.51563 -8.07723,-8.07723 -58.00564,-9.73611 -64.36133,-16.0918 -2.02919,-2.02919 -9.74188,-37.54492 -17.8789,-37.54492 -3.91866,0 -13.55592,4.32298 -17.87891,0 -1.8881,-1.8881 -4.46786,3.57617 -7.15234,3.57617 -13.46752,0 -21.12769,-1.95079 -35.75586,5.36328 -3.67144,1.83572 -2.52144,-5.11981 -7.15235,-3.57617 -10.95836,3.6528 -11.66963,19.24401 -19.66601,23.24219 -8.26734,4.13367 -12.50633,2.67795 -21.45508,7.15234 -3.81471,1.90738 -5.97673,-4.74987 -7.15039,-3.57617 -4.52217,4.52213 -20.66809,34.23173 -26.81836,32.18164 -5.3125,-1.77082 -36.27843,-29.64673 -39.33398,-35.75781 -0.66524,-1.33047 -8.26507,6.0377 -10.72657,3.57617 -8.79165,-8.79167 -15.27679,-20.64203 -25.02929,-30.39453 -2.82293,-2.82292 -9.04208,-19.4548 -14.92188,-19.81836 z M 90.167969,687.66016 c 0.739218,-0.29267 0.501706,-0.24456 0,0 z"
       transform="scale(0.26458333)"
       clip-path="url(#clipPath3090)" />
    <g
       id="g1134"
       transform="matrix(-0.52592855,0,0,0.52592855,653.34478,136.08825)"
       style="stroke-width:1.9014">
      <ellipse
         style="opacity:1;fill:#732e00;fill-opacity:1;stroke-width:0.503869"
         id="ellipse1078"
         cx="409.86902"
         cy="91.692062"
         rx="28.856232"
         ry="57.636517" />
      <ellipse
         style="opacity:1;fill:#a34200;fill-opacity:1;stroke-width:0.503869"
         id="ellipse1080"
         cx="431.28214"
         cy="94.437332"
         rx="28.856232"
         ry="57.636517" />
      <path
         id="path1082"
         style="opacity:0.225806;fill:#000000;stroke-width:0.503869"
         d="m 482.20574,66.125476 c 4.65019,9.8644 7.34898,21.99699 7.18199,35.209734 -0.54905,43.44159 -22.62455,65.5438 -46.27418,65.5438 -14.98701,1e-5 -25.13357,-12.95743 -30.55731,-30.91853 5.8548,12.48703 14.73863,20.76102 26.71362,20.76101 23.64962,0 45.72564,-22.10221 46.27469,-65.543804 0.11341,-8.97288 -1.09596,-17.44701 -3.33881,-25.05221 z" />
      <ellipse
         style="opacity:1;fill:#a34200;fill-opacity:1;stroke-width:0.503869"
         id="ellipse1084"
         cx="387.35779"
         cy="94.437332"
         rx="28.856232"
         ry="57.636517" />
      <g
         id="g1096"
         transform="matrix(1,0,0,1.0650068,177.4818,-11.401399)"
         style="stroke-width:1.84246">
        <path
           style="fill:#89a02c;stroke:none;stroke-width:0.487482px;stroke-linecap:butt;stroke-linejoin:miter;stroke-opacity:1"
           d="m 215.70744,62.779221 c 0,0 5.90167,-2.275259 7.20921,-5.173072 1.24712,-2.763918 0.36048,-6.35917 -0.43692,-9.336761 -3.01395,-11.254548 -16.33667,-28.53729 -15.88782,-30.203764 0.38751,-1.438742 5.2621,-3.809396 8.24169,-4.493661 3.68258,-0.84571 7.94341,-1.422183 11.25073,0.630863 5.52956,3.432507 8.45306,10.985506 11.1415,17.53797 2.12552,5.180441 1.33093,11.625985 3.71384,16.654766 2.41203,5.090251 10.26767,12.743417 10.26767,12.743417 l -11.35997,5.677761 -19.22455,0.883207 z"
           id="path1086"
           sodipodi:nodetypes="caasaaaacccc" />
        <path
           id="path1088"
           style="fill:url(#linearGradient1136);fill-opacity:1;stroke:none;stroke-width:0.487482px;stroke-linecap:butt;stroke-linejoin:miter;stroke-opacity:1"
           d="m 220.68581,19.468212 c -1.21301,-0.01139 -2.35399,0.341209 -3.17632,1.205575 -1.00943,1.061004 -0.16513,2.705497 -0.0773,4.728714 0.12721,2.930688 7.99645,15.887735 9.73208,24.712814 0.86139,4.379898 1.4821,9.219343 0.23152,13.472203 -0.3638,1.237183 -1.51604,2.793716 -2.44268,3.913598 l 14.8942,-0.684489 4.18506,-2.091463 c -1.77756,-2.00609 -4.36381,-5.134263 -5.43682,-7.472366 -2.63804,-5.748279 -3.09553,-14.866611 -4.17108,-18.913906 -1.67014,-6.2848 -5.89824,-14.55869 -8.72786,-16.951168 -1.31126,-1.108673 -3.23794,-1.902863 -5.0108,-1.919512 z" />
        <path
           id="path1090"
           style="fill:url(#linearGradient1138);fill-opacity:1;stroke:#000000;stroke-width:0.487481px;stroke-linecap:butt;stroke-linejoin:miter;stroke-opacity:0"
           d="m 231.32464,46.121135 c -0.12653,0.007 -0.25218,0.03373 -0.37586,0.08377 -0.63765,0.258009 -1.10558,1.399561 -1.31305,2.431096 -0.37572,1.868198 0.37297,3.919053 0.30884,5.885319 -0.10052,3.081708 -0.12815,6.431473 -1.08112,9.083422 -0.45618,1.269428 -1.3911,2.656431 -2.3263,3.845208 l 13.31016,-0.877349 1.7547,-1.257443 c -1.008,-0.976675 -2.02649,-2.069584 -2.69765,-3.117719 -1.1019,-1.720836 -1.8434,-3.993219 -2.62609,-6.140755 -0.94021,-2.57979 -1.11737,-6.047866 -2.47146,-8.0603 -0.66334,-0.985838 -1.59646,-1.924245 -2.48217,-1.875262 z" />
        <path
           id="path1092"
           style="opacity:0.274194;fill:#ffffff;fill-opacity:1;stroke:none;stroke-width:0.487482px;stroke-linecap:butt;stroke-linejoin:miter;stroke-opacity:1"
           d="m 220.59985,12.800513 c -1.93894,-0.0068 -3.92492,0.348559 -5.76621,0.771414 -2.9796,0.684266 -7.8543,3.054844 -8.2418,4.493585 -0.27368,1.016105 4.57192,7.83969 9.07946,15.560818 -0.2527,-1.384778 -0.81779,-4.265101 -1.40597,-5.81506 -0.89186,-2.350147 -3.4131,-3.951887 -3.55259,-6.512847 -0.0803,-1.473896 0.63716,-3.07287 1.62188,-4.014777 2.33257,-2.231168 6.12684,-0.954464 8.80518,-2.587373 0.67967,-0.414381 1.59043,-0.939624 2.52493,-1.521454 -0.9882,-0.260608 -2.0194,-0.370642 -3.06488,-0.374306 z" />
        <path
           id="path1094"
           style="opacity:0.0935484;fill:#000000;stroke:none;stroke-width:0.487482px;stroke-linecap:butt;stroke-linejoin:miter;stroke-opacity:1"
           d="m 223.76507,13.200944 c -0.0418,0.01257 -0.23111,0.06792 -0.23111,0.06792 0,0 2.85797,3.657517 3.24416,4.103603 0.38619,0.446088 2.9348,4.639693 3.24376,5.442651 0.30895,0.802957 2.24005,5.085033 2.78071,6.15564 0.54066,1.070609 1.77655,3.390484 2.7034,5.264049 0.92685,1.873566 2.39423,9.546096 2.47147,10.884356 0.0773,1.33826 -0.0773,4.372021 1.31305,6.424021 1.39027,2.051999 4.78863,7.226288 5.561,8.20768 0.41484,0.527094 1.98485,1.743611 3.49625,2.817276 l 2.85967,-1.429301 c 0,0 -7.85588,-7.652813 -10.26791,-12.743066 -2.38291,-5.02878 -1.58828,-11.474321 -3.71378,-16.654761 -2.68845,-6.552466 -5.6118,-14.105775 -11.14136,-17.538281 -0.73187,-0.454312 -1.51066,-0.77943 -2.31931,-1.001794 z" />
      </g>
      <path
         id="path1098"
         style="opacity:1;fill:#d45500;stroke-width:0.503869"
         d="m 407.86278,101.33524 c 0,33.2841 11.60099,65.54358 35.25062,65.54357 23.64963,0 45.72531,-22.10198 46.27436,-65.54357 C 489.8084,68.053806 472.0611,41.610448 450.68423,41.069068 421.50221,40.330019 407.86278,68.051146 407.86278,101.33524 Z"
         sodipodi:nodetypes="sssss" />
      <path
         id="path1100"
         style="opacity:0.254839;fill:#000000;stroke-width:0.503869"
         d="m 476.52974,56.496901 c 5.76464,10.437746 9.20229,23.934806 9.01444,38.798666 -0.54907,43.441583 -22.62455,65.543803 -46.2742,65.543803 -8.76776,0 -15.87778,-4.43726 -21.35629,-11.7135 5.83086,10.79018 14.21426,17.75293 25.19947,17.75292 23.64965,0 45.72566,-22.10221 46.2747,-65.5438 0.22654,-17.922585 -4.81769,-33.858778 -12.85812,-44.838089 z" />
      <ellipse
         style="opacity:1;fill:#6a2a00;fill-opacity:1;stroke-width:0.503869"
         id="ellipse1102"
         cx="441.43964"
         cy="108.71274"
         rx="32.513626"
         ry="60.327896" />
      <ellipse
         style="opacity:1;fill:#d45500;stroke-width:0.503869"
         id="ellipse1104"
         cx="441.43964"
         cy="108.71274"
         rx="28.856232"
         ry="57.636517" />
      <path
         id="path1106"
         style="opacity:0.303226;fill:#000000;stroke-width:0.503869"
         d="m 412.86793,100.63778 c -0.18942,2.67506 -0.28447,5.37342 -0.28439,8.07511 6e-5,31.83142 12.9192,57.63592 28.85586,57.63631 15.93688,1.8e-4 28.85634,-25.80449 28.8564,-57.63631 3e-5,-2.70117 -0.095,-5.39902 -0.28441,-8.07358 -2.01394,28.42918 -14.1969,55.54321 -28.57199,55.54287 -14.37514,-2.7e-4 -26.5579,-27.11501 -28.57147,-55.5444 z"
         sodipodi:nodetypes="cccsccc" />
      <path
         id="path1108"
         style="opacity:1;fill:#d45500;stroke-width:0.503869"
         d="m 418.98055,101.06072 c 0,33.2841 -11.60099,65.54358 -35.25061,65.54357 -23.64963,0 -45.72531,-22.10198 -46.27436,-65.54357 -0.42064,-33.281434 17.32666,-59.724798 38.70353,-60.266178 29.18202,-0.739049 42.82144,26.982074 42.82144,60.266178 z"
         sodipodi:nodetypes="sssss" />
      <path
         id="path1110"
         style="opacity:0.225806;fill:#000000;stroke-width:0.503869"
         d="m 344.6376,65.850946 c -4.65019,9.8644 -7.34898,21.997 -7.18199,35.209734 0.54905,43.44159 22.62455,65.5438 46.27418,65.5438 14.98701,1e-5 25.13357,-12.95743 30.55731,-30.91852 -5.8548,12.48702 -14.73863,20.76101 -26.71362,20.76101 -23.64963,0 -45.72564,-22.10222 -46.27469,-65.543814 -0.11341,-8.97288 1.09596,-17.44701 3.33881,-25.05221 z" />
      <ellipse
         style="opacity:1;fill:#6a2a00;fill-opacity:1;stroke-width:0.503869"
         id="ellipse1112"
         cx="388.66144"
         cy="108.71274"
         rx="32.513626"
         ry="60.327896" />
      <ellipse
         style="opacity:1;fill:#d45500;stroke-width:0.503869"
         id="ellipse1114"
         cx="388.66144"
         cy="108.71274"
         rx="28.856232"
         ry="57.636517" />
      <path
         id="path1116"
         style="opacity:0.303226;fill:#000000;stroke-width:0.503869"
         d="m 360.08974,100.63778 c -0.18942,2.67506 -0.28447,5.37342 -0.28439,8.07511 6e-5,31.83142 12.9192,57.63592 28.85586,57.63631 15.93688,1.8e-4 28.85634,-25.80449 28.8564,-57.63631 3e-5,-2.70117 -0.095,-5.39902 -0.28441,-8.07358 -2.01394,28.42918 -14.1969,55.54321 -28.57199,55.54287 -14.37514,-2.7e-4 -26.5579,-27.11501 -28.57147,-55.5444 z"
         sodipodi:nodetypes="cccsccc" />
      <ellipse
         style="opacity:1;fill:#6a2a00;fill-opacity:1;stroke-width:0.503869"
         id="ellipse1118"
         cx="415.08505"
         cy="113.10518"
         rx="32.788155"
         ry="60.917431" />
      <ellipse
         style="opacity:1;fill:#d45500;stroke-width:0.503869"
         id="ellipse1120"
         cx="415.08505"
         cy="113.10518"
         rx="29.099876"
         ry="58.199753" />
      <path
         id="path1122"
         style="opacity:0.303226;fill:#000000;stroke-width:0.503869"
         d="m 386.27208,104.95131 c -0.19103,2.70121 -0.28687,5.42593 -0.2868,8.15403 6e-5,32.14247 13.02828,58.19915 29.09951,58.19954 16.07144,1.8e-4 29.09998,-26.05666 29.10004,-58.19954 3e-5,-2.72758 -0.0958,-5.45178 -0.28681,-8.15248 -2.03093,28.70699 -14.31676,56.08599 -28.81323,56.08564 -14.49652,-2.7e-4 -26.78215,-27.37998 -28.81271,-56.08719 z"
         sodipodi:nodetypes="cccsccc" />
      <path
         style="opacity:0.758064;fill:url(#linearGradient1140);fill-opacity:1;stroke:none;stroke-width:0.503077px;stroke-linecap:butt;stroke-linejoin:miter;stroke-opacity:1"
         d="m 402.35126,70.993366 c 0.98363,-1.80206 4.04302,-4.55862 6.18577,-3.53472 1.667,0.79656 1.70426,3.53421 0.88368,5.4717 -1.02733,2.42567 -3.24861,11.78901 -3.32994,17.83678 -0.0781,5.80603 2.73513,17.203604 2.73513,17.203604 l -16.63698,-1.51964 c 0,0 0.91492,-13.604034 2.80309,-19.496674 1.88817,-5.89264 6.07241,-13.60347 7.35925,-15.96105 z"
         id="path1124"
         sodipodi:nodetypes="sasacczs" />
      <path
         style="opacity:0.658065;fill:url(#linearGradient1142);fill-opacity:1;stroke:none;stroke-width:0.503077px;stroke-linecap:butt;stroke-linejoin:miter;stroke-opacity:1"
         d="m 372.18172,69.021046 c 0.79547,-1.77777 3.26964,-4.49718 5.00251,-3.48708 1.34812,0.78583 1.37824,3.48658 0.71464,5.39795 -0.83081,2.39298 -2.62719,11.63011 -2.69297,17.59636 -0.0631,5.72777 2.21194,16.971714 2.21194,16.971714 l -13.45453,-1.49916 c 0,0 0.73991,-13.420654 2.2669,-19.233864 1.52697,-5.81322 4.91082,-13.42013 5.95151,-15.74592 z"
         id="path1126"
         sodipodi:nodetypes="sasacczs" />
      <path
         style="opacity:0.458065;fill:url(#linearGradient1144);fill-opacity:1;stroke:none;stroke-width:0.503077px;stroke-linecap:butt;stroke-linejoin:miter;stroke-opacity:1"
         d="m 458.29609,69.021046 c -0.79547,-1.77777 -3.26964,-4.49718 -5.00251,-3.48708 -1.34812,0.78583 -1.37824,3.48658 -0.71464,5.39795 0.83081,2.39298 2.62719,11.63011 2.69297,17.59636 0.0631,5.72777 -2.21194,16.971714 -2.21194,16.971714 l 13.45453,-1.49916 c 0,0 -0.73991,-13.420654 -2.2669,-19.233864 -1.52697,-5.81322 -4.91082,-13.42013 -5.95151,-15.74592 z"
         id="path1128"
         sodipodi:nodetypes="sasacczs" />
      <path
         style="opacity:0.825806;fill:url(#linearGradient1146);fill-opacity:1;stroke:none;stroke-width:0.503077px;stroke-linecap:butt;stroke-linejoin:miter;stroke-opacity:1"
         d="m 356.78098,52.726623 c 1.05539,-1.572362 3.77654,-3.715649 5.10008,-2.367128 1.02966,1.049105 0.51659,3.695816 -0.44944,5.426268 -1.2094,2.166473 -4.63612,10.823113 -5.88602,16.642413 -1.19988,5.58672 -1.44373,17.05347 -1.44373,17.05347 l -11.54363,-4.26841 c 0,0 3.3326,-12.9668 5.83813,-18.3321 2.50551,-5.36532 7.00387,-12.097449 8.38458,-14.154515 z"
         id="path1130"
         sodipodi:nodetypes="sasacczs" />
      <path
         style="opacity:0.383871;fill:url(#linearGradient1148);fill-opacity:1;stroke:none;stroke-width:0.503077px;stroke-linecap:butt;stroke-linejoin:miter;stroke-opacity:1"
         d="m 470.52393,52.726623 c -1.05539,-1.572362 -3.77654,-3.715649 -5.10008,-2.367128 -1.02966,1.049105 -0.51659,3.695816 0.44944,5.426268 1.2094,2.166473 4.63612,10.823113 5.88602,16.642413 1.19988,5.58672 1.44373,17.05347 1.44373,17.05347 l 11.54363,-4.26841 c 0,0 -3.3326,-12.9668 -5.83813,-18.3321 -2.50551,-5.36532 -7.00387,-12.097449 -8.38458,-14.154515 z"
         id="path1132"
         sodipodi:nodetypes="sasacczs" />
    </g>
    <path
       id="path908-5"
       style="opacity:0.454839;fill:#000000;stroke-width:1.00157"
       d="m 1530.0723,617.10352 c -20.5375,21.49786 -34.0446,57.44562 -33.5235,98.67578 0.4625,36.58817 8.6083,65.55866 21.418,86.80078 14.4563,-27.82917 23.4648,-64.12477 24.0293,-108.79297 0.352,-27.84899 -4.0159,-53.91845 -11.9238,-76.68359 z"
       transform="scale(0.26458333)" />
    <path
       id="path1062"
       style="opacity:0.0935484;fill:#000000;stroke:none;stroke-width:0.999999px;stroke-linecap:butt;stroke-linejoin:miter;stroke-opacity:1"
       d="m 1191.9988,905.33116 c -0.3691,10.70748 -9.0624,7.37975 -7.3671,0.7832 4.5271,-17.61578 -22.2601,-12.89585 -37.0653,-5.49327 -7.1884,3.59422 -14.4421,-10.45824 -18.6758,-6.22461 -6.4537,6.45374 -8.3183,17.85625 -16.6015,22.82618 -8.2307,4.93836 -29.4505,-6.02673 -33.2032,-4.15039 -2.3669,1.18346 5.5902,-13.43471 3.2468,-24.63287 -3.2537,-15.54772 -16.9813,-29.19392 -22.0189,-26.67513 -8.412,4.20599 -22.7129,-10.49026 -24.9024,-8.30078 -3.8419,3.84189 -4.2691,8.34164 -10.375,10.37695 -6.0517,2.01725 -18.297,-8.67955 -22.8262,-4.15039 -10.31322,10.31327 -35.33552,13.85273 -49.80469,18.67578 -8.54891,2.84961 -16.12148,-4.2694 -24.90234,-2.07422 -16.89895,4.22476 -20.0846,21.43911 -39.42774,18.67578 -21.95943,-3.13704 -26.63549,-35.85506 -37.35351,-39.42773 -17.72209,-5.90736 -38.54566,6.44513 -56.0293,2.07422 -26.81227,-6.70307 -25.40063,-28.92669 -66.40429,-18.67578 -8.97721,2.24428 -41.68273,17.92413 -51.87891,14.52539 -5.48871,-1.8296 -3.9496,-6.12521 -8.30078,-8.30078 -6.5068,-3.25342 -28.56783,8.78768 -31.12891,6.22656 -9.2694,-9.26941 -40.59529,-6.67892 -53.95312,0 -7.99514,3.99757 -8.42841,-10.31314 -16.60157,-6.22656 -10.29732,5.14866 -18.96691,13.63482 -29.05273,18.67773 -16.56752,8.28374 -28.42982,-10.82551 -43.57813,-8.30078 -13.93485,2.32248 -39.37103,14.55376 -47.72851,10.375 -11.83283,-5.9164 -20.33898,37.76649 -26.97852,31.12695 -2.57571,-2.57571 -0.5361,-6.76266 -2.07422,-8.30078 -30.576,-30.57604 -70.03074,1.30005 -72.63086,0 -10.77407,-5.38703 -8.17606,-10.12558 -12.45117,-18.67578 -0.8962,-1.7924 -26.17618,12.61656 -33.20312,2.07617 -8.17665,-12.26498 -11.56808,6.81726 -24.90235,4.15039 -4.48176,-0.89631 10.28022,-68.43416 -10.375,-16.60156 -4.59773,11.53762 -2.99065,62.1895 -17.31708,57.41403 -5.57434,-1.85809 -9.80052,-15.85172 -16.60156,-12.45117 -13.78788,6.89394 -13.8044,52.13098 -22.01617,64.44865 -4.62968,6.94454 -18.44171,-29.28487 -22.82617,-24.90039 -2.65773,2.65773 -2.97774,10.1059 -4.15039,12.45117 -0.94635,1.89272 -7.8038,-2.93325 -10.375,-2.07617 -6.91224,2.30408 -8.64815,8.64818 -12.45117,12.45117 -2.42103,2.42106 -12.10631,-2.42101 -14.52734,0 -1.02951,1.02951 0.48447,10.375 0,10.375 -0.10533,0 -5.0251,-7.42411 -6.22461,-6.22461 -5.51362,5.51362 -3.34645,17.95722 -14.52539,20.75196 -5.44757,1.36189 -9.38504,0.76386 -12.39844,-0.89453 0.4694,5.18328 4.13765,9.19534 8.625,9.19534 H 1786.3398 c 4.8078,0 8.6778,-4.60284 8.6778,-10.32034 v -91.36328 c -1.7499,-5.24981 -11.1215,0.78257 -16.5996,0 -10.5701,-1.51 -4.0282,-4.06824 -10.377,-8.30079 -7.6213,-5.08085 -90.4001,33.78693 -97.5332,37.35352 -7.1395,3.56976 -3.0326,28.73263 -20.7519,22.82617 -8.376,-2.79197 -3.6681,-0.63117 -6.2247,-8.30078 -2.4381,-7.31497 -34.759,13.22869 -43.5781,0 -9.227,-13.84048 5.5215,-30.85931 -10.3769,-43.57812 -7.7899,-6.23192 -26.9893,5.18111 -37.3516,0 -24.6778,-12.33892 -20.8148,12.51204 -35.2793,26.97656 -2.9415,2.94149 -8.3264,-5.18111 -12.4492,-4.15039 -9.4949,2.37369 -16.9766,6.22656 -26.9785,6.22656 -6.298,0 -30.6865,-7.06543 -33.2031,-6.22656 -9.3494,3.11644 -16.335,40.26289 -27.2629,36.62022 -1.6677,-0.55589 -5.8709,-6.58029 -8.3008,-4.15039 -8.3179,8.31957 -25.3968,8.30078 -35.2774,8.30078 -1.806,0 -8.8051,-3.64804 -10.3769,-2.07617 -13.4968,13.49677 -33.2264,22.82308 -53.9531,18.67773 -3.4691,-0.69381 -35.3053,-4.17817 -37.3535,-6.22656 -10.2802,-10.28013 -21.1358,-23.21003 -31.129,-33.20312 -4.3156,-4.31558 -18.0758,-1.96698 -22.8261,-8.30079 -9.2459,-12.32776 -25.316,-40.77366 -25.836,-25.68359 z"
       transform="scale(0.26458333)"
       sodipodi:nodetypes="ssssssssssssssssssssssssssssssssssssssssssscssscssssssssssssscscscsss" />
    <g
       id="g1022"
       transform="matrix(0.71382851,0,0,0.71382851,55.149813,111.46384)"
       style="stroke-width:1.4009">
      <ellipse
         style="opacity:1;fill:#732e00;fill-opacity:1;stroke-width:0.371236"
         id="ellipse916"
         cx="409.86902"
         cy="91.692062"
         rx="28.856232"
         ry="57.636517" />
      <ellipse
         style="opacity:1;fill:#a34200;fill-opacity:1;stroke-width:0.371236"
         id="ellipse914"
         cx="431.28214"
         cy="94.437332"
         rx="28.856232"
         ry="57.636517" />
      <path
         id="path910"
         style="opacity:0.225806;fill:#000000;stroke-width:0.371236"
         d="m 482.20574,66.125476 c 4.65019,9.8644 7.34898,21.99699 7.18199,35.209734 -0.54905,43.44159 -22.62455,65.5438 -46.27418,65.5438 -14.98701,1e-5 -25.13357,-12.95743 -30.55731,-30.91853 5.8548,12.48703 14.73863,20.76102 26.71362,20.76101 23.64962,0 45.72564,-22.10221 46.27469,-65.543804 0.11341,-8.97288 -1.09596,-17.44701 -3.33881,-25.05221 z" />
      <ellipse
         style="opacity:1;fill:#a34200;fill-opacity:1;stroke-width:0.371236"
         id="ellipse912"
         cx="387.35779"
         cy="94.437332"
         rx="28.856232"
         ry="57.636517" />
      <g
         id="g987"
         transform="matrix(1,0,0,1.0650068,177.4818,-11.401399)"
         style="stroke-width:1.35747">
        <path
           style="fill:#89a02c;stroke:none;stroke-width:0.359163px;stroke-linecap:butt;stroke-linejoin:miter;stroke-opacity:1"
           d="m 215.70744,62.779221 c 0,0 5.90167,-2.275259 7.20921,-5.173072 1.24712,-2.763918 0.36048,-6.35917 -0.43692,-9.336761 -3.01395,-11.254548 -16.33667,-28.53729 -15.88782,-30.203764 0.38751,-1.438742 5.2621,-3.809396 8.24169,-4.493661 3.68258,-0.84571 7.94341,-1.422183 11.25073,0.630863 5.52956,3.432507 8.45306,10.985506 11.1415,17.53797 2.12552,5.180441 1.33093,11.625985 3.71384,16.654766 2.41203,5.090251 10.26767,12.743417 10.26767,12.743417 l -11.35997,5.677761 -19.22455,0.883207 z"
           id="path934"
           sodipodi:nodetypes="caasaaaacccc" />
        <path
           id="path938"
           style="fill:url(#linearGradient954);fill-opacity:1;stroke:none;stroke-width:0.359163px;stroke-linecap:butt;stroke-linejoin:miter;stroke-opacity:1"
           d="m 220.68581,19.468212 c -1.21301,-0.01139 -2.35399,0.341209 -3.17632,1.205575 -1.00943,1.061004 -0.16513,2.705497 -0.0773,4.728714 0.12721,2.930688 7.99645,15.887735 9.73208,24.712814 0.86139,4.379898 1.4821,9.219343 0.23152,13.472203 -0.3638,1.237183 -1.51604,2.793716 -2.44268,3.913598 l 14.8942,-0.684489 4.18506,-2.091463 c -1.77756,-2.00609 -4.36381,-5.134263 -5.43682,-7.472366 -2.63804,-5.748279 -3.09553,-14.866611 -4.17108,-18.913906 -1.67014,-6.2848 -5.89824,-14.55869 -8.72786,-16.951168 -1.31126,-1.108673 -3.23794,-1.902863 -5.0108,-1.919512 z" />
        <path
           id="path943"
           style="fill:url(#linearGradient962);fill-opacity:1;stroke:#000000;stroke-width:0.359162px;stroke-linecap:butt;stroke-linejoin:miter;stroke-opacity:0"
           d="m 231.32464,46.121135 c -0.12653,0.007 -0.25218,0.03373 -0.37586,0.08377 -0.63765,0.258009 -1.10558,1.399561 -1.31305,2.431096 -0.37572,1.868198 0.37297,3.919053 0.30884,5.885319 -0.10052,3.081708 -0.12815,6.431473 -1.08112,9.083422 -0.45618,1.269428 -1.3911,2.656431 -2.3263,3.845208 l 13.31016,-0.877349 1.7547,-1.257443 c -1.008,-0.976675 -2.02649,-2.069584 -2.69765,-3.117719 -1.1019,-1.720836 -1.8434,-3.993219 -2.62609,-6.140755 -0.94021,-2.57979 -1.11737,-6.047866 -2.47146,-8.0603 -0.66334,-0.985838 -1.59646,-1.924245 -2.48217,-1.875262 z" />
        <path
           id="path972"
           style="opacity:0.274194;fill:#ffffff;fill-opacity:1;stroke:none;stroke-width:0.359163px;stroke-linecap:butt;stroke-linejoin:miter;stroke-opacity:1"
           d="m 220.59985,12.800513 c -1.93894,-0.0068 -3.92492,0.348559 -5.76621,0.771414 -2.9796,0.684266 -7.8543,3.054844 -8.2418,4.493585 -0.27368,1.016105 4.57192,7.83969 9.07946,15.560818 -0.2527,-1.384778 -0.81779,-4.265101 -1.40597,-5.81506 -0.89186,-2.350147 -3.4131,-3.951887 -3.55259,-6.512847 -0.0803,-1.473896 0.63716,-3.07287 1.62188,-4.014777 2.33257,-2.231168 6.12684,-0.954464 8.80518,-2.587373 0.67967,-0.414381 1.59043,-0.939624 2.52493,-1.521454 -0.9882,-0.260608 -2.0194,-0.370642 -3.06488,-0.374306 z" />
        <path
           id="path977"
           style="opacity:0.0935484;fill:#000000;stroke:none;stroke-width:0.359163px;stroke-linecap:butt;stroke-linejoin:miter;stroke-opacity:1"
           d="m 223.76507,13.200944 c -0.0418,0.01257 -0.23111,0.06792 -0.23111,0.06792 0,0 2.85797,3.657517 3.24416,4.103603 0.38619,0.446088 2.9348,4.639693 3.24376,5.442651 0.30895,0.802957 2.24005,5.085033 2.78071,6.15564 0.54066,1.070609 1.77655,3.390484 2.7034,5.264049 0.92685,1.873566 2.39423,9.546096 2.47147,10.884356 0.0773,1.33826 -0.0773,4.372021 1.31305,6.424021 1.39027,2.051999 4.78863,7.226288 5.561,8.20768 0.41484,0.527094 1.98485,1.743611 3.49625,2.817276 l 2.85967,-1.429301 c 0,0 -7.85588,-7.652813 -10.26791,-12.743066 -2.38291,-5.02878 -1.58828,-11.474321 -3.71378,-16.654761 -2.68845,-6.552466 -5.6118,-14.105775 -11.14136,-17.538281 -0.73187,-0.454312 -1.51066,-0.77943 -2.31931,-1.001794 z" />
      </g>
      <path
         id="path908"
         style="opacity:1;fill:#d45500;stroke-width:0.371236"
         d="m 407.86278,101.33524 c 0,33.2841 11.60099,65.54358 35.25062,65.54357 23.64963,0 45.72531,-22.10198 46.27436,-65.54357 C 489.8084,68.053806 472.0611,41.610448 450.68423,41.069068 421.50221,40.330019 407.86278,68.051146 407.86278,101.33524 Z"
         sodipodi:nodetypes="sssss" />
      <path
         id="path989"
         style="opacity:0.254839;fill:#000000;stroke-width:0.371236"
         d="m 476.52974,56.496901 c 5.76464,10.437746 9.20229,23.934806 9.01444,38.798666 -0.54907,43.441583 -22.62455,65.543803 -46.2742,65.543803 -8.76776,0 -15.87778,-4.43726 -21.35629,-11.7135 5.83086,10.79018 14.21426,17.75293 25.19947,17.75292 23.64965,0 45.72566,-22.10221 46.2747,-65.5438 0.22654,-17.922585 -4.81769,-33.858778 -12.85812,-44.838089 z" />
      <ellipse
         style="opacity:1;fill:#6a2a00;fill-opacity:1;stroke-width:0.371236"
         id="ellipse852"
         cx="441.43964"
         cy="108.71274"
         rx="32.513626"
         ry="60.327896" />
      <ellipse
         style="opacity:1;fill:#d45500;stroke-width:0.371236"
         id="ellipse854"
         cx="441.43964"
         cy="108.71274"
         rx="28.856232"
         ry="57.636517" />
      <path
         id="path856"
         style="opacity:0.303226;fill:#000000;stroke-width:0.371236"
         d="m 412.86793,100.63778 c -0.18942,2.67506 -0.28447,5.37342 -0.28439,8.07511 6e-5,31.83142 12.9192,57.63592 28.85586,57.63631 15.93688,1.8e-4 28.85634,-25.80449 28.8564,-57.63631 3e-5,-2.70117 -0.095,-5.39902 -0.28441,-8.07358 -2.01394,28.42918 -14.1969,55.54321 -28.57199,55.54287 -14.37514,-2.7e-4 -26.5579,-27.11501 -28.57147,-55.5444 z"
         sodipodi:nodetypes="cccsccc" />
      <path
         id="ellipse894"
         style="opacity:1;fill:#d45500;stroke-width:0.371236"
         d="m 418.98055,101.06072 c 0,33.2841 -11.60099,65.54358 -35.25061,65.54357 -23.64963,0 -45.72531,-22.10198 -46.27436,-65.54357 -0.42064,-33.281434 17.32666,-59.724798 38.70353,-60.266178 29.18202,-0.739049 42.82144,26.982074 42.82144,60.266178 z"
         sodipodi:nodetypes="sssss" />
      <path
         id="path903"
         style="opacity:0.225806;fill:#000000;stroke-width:0.371236"
         d="m 344.6376,65.850946 c -4.65019,9.8644 -7.34898,21.997 -7.18199,35.209734 0.54905,43.44159 22.62455,65.5438 46.27418,65.5438 14.98701,1e-5 25.13357,-12.95743 30.55731,-30.91852 -5.8548,12.48702 -14.73863,20.76101 -26.71362,20.76101 -23.64963,0 -45.72564,-22.10222 -46.27469,-65.543814 -0.11341,-8.97288 1.09596,-17.44701 3.33881,-25.05221 z" />
      <ellipse
         style="opacity:1;fill:#6a2a00;fill-opacity:1;stroke-width:0.371236"
         id="ellipse862"
         cx="388.66144"
         cy="108.71274"
         rx="32.513626"
         ry="60.327896" />
      <ellipse
         style="opacity:1;fill:#d45500;stroke-width:0.371236"
         id="ellipse864"
         cx="388.66144"
         cy="108.71274"
         rx="28.856232"
         ry="57.636517" />
      <path
         id="path866"
         style="opacity:0.303226;fill:#000000;stroke-width:0.371236"
         d="m 360.08974,100.63778 c -0.18942,2.67506 -0.28447,5.37342 -0.28439,8.07511 6e-5,31.83142 12.9192,57.63592 28.85586,57.63631 15.93688,1.8e-4 28.85634,-25.80449 28.8564,-57.63631 3e-5,-2.70117 -0.095,-5.39902 -0.28441,-8.07358 -2.01394,28.42918 -14.1969,55.54321 -28.57199,55.54287 -14.37514,-2.7e-4 -26.5579,-27.11501 -28.57147,-55.5444 z"
         sodipodi:nodetypes="cccsccc" />
      <ellipse
         style="opacity:1;fill:#6a2a00;fill-opacity:1;stroke-width:0.371236"
         id="ellipse835"
         cx="415.08505"
         cy="113.10518"
         rx="32.788155"
         ry="60.917431" />
      <ellipse
         style="opacity:1;fill:#d45500;stroke-width:0.371236"
         id="path833"
         cx="415.08505"
         cy="113.10518"
         rx="29.099876"
         ry="58.199753" />
      <path
         id="ellipse839"
         style="opacity:0.303226;fill:#000000;stroke-width:0.371236"
         d="m 386.27208,104.95131 c -0.19103,2.70121 -0.28687,5.42593 -0.2868,8.15403 6e-5,32.14247 13.02828,58.19915 29.09951,58.19954 16.07144,1.8e-4 29.09998,-26.05666 29.10004,-58.19954 3e-5,-2.72758 -0.0958,-5.45178 -0.28681,-8.15248 -2.03093,28.70699 -14.31676,56.08599 -28.81323,56.08564 -14.49652,-2.7e-4 -26.78215,-27.37998 -28.81271,-56.08719 z"
         sodipodi:nodetypes="cccsccc" />
      <path
         style="opacity:0.758064;fill:url(#linearGradient850);fill-opacity:1;stroke:none;stroke-width:0.370653px;stroke-linecap:butt;stroke-linejoin:miter;stroke-opacity:1"
         d="m 402.35126,70.993366 c 0.98363,-1.80206 4.04302,-4.55862 6.18577,-3.53472 1.667,0.79656 1.70426,3.53421 0.88368,5.4717 -1.02733,2.42567 -3.24861,11.78901 -3.32994,17.83678 -0.0781,5.80603 2.73513,17.203604 2.73513,17.203604 l -16.63698,-1.51964 c 0,0 0.91492,-13.604034 2.80309,-19.496674 1.88817,-5.89264 6.07241,-13.60347 7.35925,-15.96105 z"
         id="path842"
         sodipodi:nodetypes="sasacczs" />
      <path
         style="opacity:0.658065;fill:url(#linearGradient870);fill-opacity:1;stroke:none;stroke-width:0.370653px;stroke-linecap:butt;stroke-linejoin:miter;stroke-opacity:1"
         d="m 372.18172,69.021046 c 0.79547,-1.77777 3.26964,-4.49718 5.00251,-3.48708 1.34812,0.78583 1.37824,3.48658 0.71464,5.39795 -0.83081,2.39298 -2.62719,11.63011 -2.69297,17.59636 -0.0631,5.72777 2.21194,16.971714 2.21194,16.971714 l -13.45453,-1.49916 c 0,0 0.73991,-13.420654 2.2669,-19.233864 1.52697,-5.81322 4.91082,-13.42013 5.95151,-15.74592 z"
         id="path868"
         sodipodi:nodetypes="sasacczs" />
      <path
         style="opacity:0.458065;fill:url(#linearGradient920);fill-opacity:1;stroke:none;stroke-width:0.370653px;stroke-linecap:butt;stroke-linejoin:miter;stroke-opacity:1"
         d="m 458.29609,69.021046 c -0.79547,-1.77777 -3.26964,-4.49718 -5.00251,-3.48708 -1.34812,0.78583 -1.37824,3.48658 -0.71464,5.39795 0.83081,2.39298 2.62719,11.63011 2.69297,17.59636 0.0631,5.72777 -2.21194,16.971714 -2.21194,16.971714 l 13.45453,-1.49916 c 0,0 -0.73991,-13.420654 -2.2669,-19.233864 -1.52697,-5.81322 -4.91082,-13.42013 -5.95151,-15.74592 z"
         id="path918"
         sodipodi:nodetypes="sasacczs" />
      <path
         style="opacity:0.825806;fill:url(#linearGradient924);fill-opacity:1;stroke:none;stroke-width:0.370653px;stroke-linecap:butt;stroke-linejoin:miter;stroke-opacity:1"
         d="m 356.78098,52.726623 c 1.05539,-1.572362 3.77654,-3.715649 5.10008,-2.367128 1.02966,1.049105 0.51659,3.695816 -0.44944,5.426268 -1.2094,2.166473 -4.63612,10.823113 -5.88602,16.642413 -1.19988,5.58672 -1.44373,17.05347 -1.44373,17.05347 l -11.54363,-4.26841 c 0,0 3.3326,-12.9668 5.83813,-18.3321 2.50551,-5.36532 7.00387,-12.097449 8.38458,-14.154515 z"
         id="path922"
         sodipodi:nodetypes="sasacczs" />
      <path
         style="opacity:0.383871;fill:url(#linearGradient930);fill-opacity:1;stroke:none;stroke-width:0.370653px;stroke-linecap:butt;stroke-linejoin:miter;stroke-opacity:1"
         d="m 470.52393,52.726623 c -1.05539,-1.572362 -3.77654,-3.715649 -5.10008,-2.367128 -1.02966,1.049105 -0.51659,3.695816 0.44944,5.426268 1.2094,2.166473 4.63612,10.823113 5.88602,16.642413 1.19988,5.58672 1.44373,17.05347 1.44373,17.05347 l 11.54363,-4.26841 c 0,0 -3.3326,-12.9668 -5.83813,-18.3321 -2.50551,-5.36532 -7.00387,-12.097449 -8.38458,-14.154515 z"
         id="path928"
         sodipodi:nodetypes="sasacczs" />
    </g>
    <circle
       style="opacity:1;fill:url(#radialGradient3163);fill-opacity:1;stroke:none;stroke-width:0.264999"
       id="path3155"
       cx="253.72046"
       cy="39.08765"
       r="14.717507" />
  </g>
</svg>
