<?xml version="1.0" encoding="UTF-8" standalone="no"?>
<svg
   xmlns:dc="http://purl.org/dc/elements/1.1/"
   xmlns:cc="http://creativecommons.org/ns#"
   xmlns:rdf="http://www.w3.org/1999/02/22-rdf-syntax-ns#"
   xmlns:svg="http://www.w3.org/2000/svg"
   xmlns="http://www.w3.org/2000/svg"
   xmlns:sodipodi="http://sodipodi.sourceforge.net/DTD/sodipodi-0.dtd"
   xmlns:inkscape="http://www.inkscape.org/namespaces/inkscape"
   width="1080"
   height="1080"
   viewBox="0 0 285.75 285.75"
   version="1.1"
   id="svg8"
   inkscape:version="1.0.2-2 (e86c870879, 2021-01-15)"
   sodipodi:docname="nature-mountaiins.svg">
  <defs
     id="defs2" />
  <sodipodi:namedview
     id="base"
     pagecolor="#ffffff"
     bordercolor="#666666"
     borderopacity="1.0"
     inkscape:pageopacity="0.0"
     inkscape:pageshadow="2"
     inkscape:zoom="0.96377841"
     inkscape:cx="346.62084"
     inkscape:cy="952.88781"
     inkscape:document-units="mm"
     inkscape:current-layer="layer1"
     inkscape:document-rotation="0"
     showgrid="false"
     inkscape:window-width="1920"
     inkscape:window-height="1017"
     inkscape:window-x="1081"
     inkscape:window-y="817"
     inkscape:window-maximized="1"
     units="px"
     inkscape:showpageshadow="false"
     width="1080px" />
  <metadata
     id="metadata5">
    <rdf:RDF>
      <cc:Work
         rdf:about="">
        <dc:format>image/svg+xml</dc:format>
        <dc:type
           rdf:resource="http://purl.org/dc/dcmitype/StillImage" />
        <dc:title></dc:title>
      </cc:Work>
    </rdf:RDF>
  </metadata>
  <g
     inkscape:label="Layer 1"
     inkscape:groupmode="layer"
     id="layer1">
    <rect
       style="opacity:1;fill:#91adda;fill-opacity:1;stroke-width:0.264999"
       id="rect1402"
       width="241.22324"
       height="173.95366"
       x="24.589979"
       y="52.00206" />
    <path
       id="path1412"
       style="fill:#009300;fill-opacity:1;stroke:none;stroke-width:0.264583px;stroke-linecap:butt;stroke-linejoin:miter;stroke-opacity:1"
       d="m 160.84483,185.46436 c -17.53716,-0.10505 -33.82425,2.92986 -51.36107,3.06051 -18.126126,0.13504 -35.80817,-8.68959 -53.851623,-7.44732 -10.609445,0.73045 -22.102251,3.09843 -31.041907,7.25209 v 37.62607 h 241.22299 v -42.16506 c -8.56433,-2.06693 -18.73603,1.90546 -27.7085,1.95087 -12.11558,0.0613 -22.94035,1.83306 -35.0551,1.9515 -14.28873,0.1397 -27.91522,-2.14307 -42.20479,-2.22866 z"
       sodipodi:nodetypes="sssccccsss" />
    <path
       id="path1404"
       style="fill:#00bb00;fill-opacity:1;stroke:none;stroke-width:0.264583px;stroke-linecap:butt;stroke-linejoin:miter;stroke-opacity:1"
       d="m 62.970833,192.35745 c -14.039866,0.16273 -26.580335,1.7987 -38.380603,4.10247 v 29.49579 h 241.22299 v -31.52026 c -11.95897,1.42924 -23.99735,2.67174 -36.44428,2.4868 -13.65779,-0.20294 -24.91763,-4.01432 -38.59351,-4.01713 -26.21674,-0.005 -47.87499,8.20668 -74.02545,7.66897 -20.232233,-0.41601 -33.511961,-8.45153 -53.779147,-8.21664 z" />
    <path
       id="path1428"
       style="fill:#00b000;fill-opacity:1;stroke:none;stroke-width:0.264583px;stroke-linecap:butt;stroke-linejoin:miter;stroke-opacity:1"
       d="m 29.151191,208.73743 c -0.0217,-8.6e-4 -0.03307,0.002 -0.03307,0.008 0,0.19112 2.072862,0.66551 2.329574,0.88488 0.418587,0.35769 1.949111,1.98574 0.970484,2.54324 -0.131265,0.0748 -2.941746,-1.67578 -3.300058,-1.8799 -0.726371,-0.41379 0.202446,2.65423 -0.194302,2.65423 -0.488535,0 -1.925662,-1.06729 -2.08566,-1.48915 -0.376248,0.29035 -1.36808,0.92177 -2.247926,1.5516 v 12.94578 H 265.81322 v -12.73774 c -1.51488,-0.34804 -2.4396,-1.48704 -4.13927,-1.48704 -0.47462,0 -0.47035,1.65878 -0.7767,1.65878 -0.4401,0 -2.62298,-1.71285 -2.91197,-1.54823 -0.19446,0.11079 0.15592,1.32711 0,1.32711 -0.86149,0 -1.4733,-1.32711 -2.52336,-1.32711 -0.43067,0 0.17998,1.04386 0.56276,1.35834 -0.067,-0.01 -0.13271,-0.0193 -0.17467,-0.0312 -0.0999,-0.0284 -2.83734,-2.03277 -3.49384,-1.65878 -0.17735,0.10103 0.71218,0.84925 0.77618,0.99502 0.0506,0.11536 0.14624,0.66796 0.26303,0.89965 -0.58648,-0.39207 -3.06726,-1.864 -3.56309,-2.00523 -0.38509,-0.10968 0.22353,2.33902 -0.58239,1.8799 -0.21192,-0.12072 -3.10576,-2.47156 -3.10576,-1.43767 0,0.0981 -0.0168,0.30891 -0.0181,0.54393 -0.67225,-0.22822 -1.46397,-0.44907 -1.92288,-0.65448 -0.65839,-0.29471 1.00311,1.8799 0.19379,1.8799 -0.3092,0 -0.94805,-0.45925 -1.35858,-0.55279 -1.19759,-0.27289 -1.4484,0.24099 -2.13527,0.11055 -0.30633,-0.0582 -1.25943,-0.38856 -1.55339,-0.22111 -0.32353,0.18432 0.1943,0.51325 0.1943,0.7739 0,0.26834 -3.30698,-1.43367 -4.07624,-0.99544 -0.16867,0.0961 0.15544,1.106 0,1.106 -0.0311,0 -2.32957,-0.66101 -2.32957,-0.55279 0,0.34972 1.19626,0.99502 0.5824,0.99502 -3.25826,0 -5.62037,-0.77017 -7.37682,-1.43725 -1.9794,-0.75176 -1.47933,0.95317 -1.94096,1.21613 -0.0541,0.0308 -2.09815,-0.89613 -2.32958,-0.99501 -2.27044,-0.97008 0.13067,0.95148 -2.32957,0.11055 -0.44765,-0.15301 -3.29403,-1.5516 -4.07624,-1.10599 -0.19447,0.11078 0.15592,1.32711 0,1.32711 -0.48416,0 -1.01209,-0.85589 -1.16478,-0.88488 -1.33608,-0.25371 -3.61301,0.74213 -5.04724,0.44265 0.68647,1.17321 -0.60159,-0.65278 -1.35858,-0.22154 -0.35112,0.20003 -0.0993,1.16247 -0.58239,1.43767 -0.25449,0.14499 -1.54327,-0.71584 -1.74718,-0.7739 -0.7065,-0.20124 -1.12667,0.54552 -1.74718,0.66334 -0.2675,0.0508 -3.36551,-1.43583 -3.68814,-0.88446 -0.0196,0.0335 -0.22708,0.77391 -0.38861,0.77391 -0.92227,0 -1.54609,-1.55027 -2.71767,-1.21656 -0.58403,0.16636 -0.31298,0.99544 -1.55287,0.99544 -0.0581,0 -2.56489,-1.80558 -3.10576,-1.99045 -0.16646,-0.0569 -0.66919,-0.0989 -0.58239,0 0.30888,0.35192 1.88686,1.80022 1.16479,2.21157 -0.0857,0.0489 -5.36563,-2.06697 -5.43533,-2.10102 -0.0167,-0.008 -0.97048,-0.55534 -0.97048,-0.44223 0,0.50703 2.0652,1.6985 0.97048,2.32213 -0.0796,0.0453 -0.59073,-0.5574 -0.7767,-0.66334 -0.4498,-0.25624 -0.95887,-0.52054 -1.55287,-0.77433 -0.15633,-0.0668 -0.423,-0.13694 -0.71417,-0.20508 0.97855,0.60799 1.28997,1.78764 0.90847,1.64275 -0.0759,-0.0288 -1.66538,-0.86736 -1.94148,-0.55279 -0.0619,0.0705 0.14815,0.80945 -0.19379,0.66335 -0.61091,-0.26102 -1.27751,-1.18413 -2.32957,-0.88446 -0.45202,0.12876 -0.46511,0.66335 -0.97049,0.66335 -0.0333,0 -1.76199,-1.36162 -1.94148,-1.106 -0.21762,0.30993 0.22054,0.75941 -0.19379,0.99544 -0.41739,0.23777 -1.66241,-1.04342 -2.32957,-0.66335 -0.28483,0.16226 -0.0335,0.45489 -0.58239,0.66335 -0.69938,0.26561 -2.61285,-2.66309 -2.71767,-2.54367 -0.35693,0.40668 -0.14488,1.39895 0.0315,1.88117 -0.50867,-0.47504 -2.0802,-1.37743 -2.3611,-1.2174 -0.52903,0.30137 0.69042,2.27767 -0.19431,1.43767 -0.68054,-0.64616 -0.41963,-2.44067 -2.13526,-1.65879 -0.72891,0.33219 -1.02235,1.06314 -1.16427,1.54823 -0.0426,0.14545 0.25883,0.44223 0,0.44223 -0.65029,0 0.12198,-0.7378 0.19378,-1.106 0.0364,-0.1864 0.0208,-2.00222 -0.77618,-1.54823 -0.81084,0.46192 -0.39516,1.99451 -0.971,2.32256 -0.31889,0.18167 -1.53768,-1.8884 -1.74666,-1.76935 -0.97474,0.55529 -0.3685,1.76935 -0.5824,1.76935 -1.04034,0 -0.73189,-2.32256 -0.77669,-2.32256 -1.18301,0 -1.93312,1.19354 -2.13527,1.76935 -0.0508,0.14459 0.25883,0.44265 0,0.44265 -0.0364,0 -0.90742,-1.69482 -1.55288,-1.32711 -0.86983,0.49552 -1.38859,2.81672 -1.74718,0.7739 -0.0455,-0.25936 0.12924,-0.5896 -0.1943,-0.7739 -0.61046,-0.34776 0.2809,1.43767 -0.5824,1.43767 -0.36436,0 -2.35579,-1.97547 -3.10575,-1.54823 -0.50183,0.28588 1.99778,1.67988 0.7767,1.21613 -0.16398,-0.0623 -2.41454,-1.49938 -2.71767,-1.32669 -0.61201,0.34865 1.17436,2.43269 0.5824,2.43269 -0.51175,0 -1.53022,-2.0877 -2.13579,-2.43269 -0.92472,-0.52679 -1.73236,1.73808 -2.52336,1.43767 -0.27201,-0.10331 -1.24784,-1.83269 -1.74718,-1.54823 -0.61471,0.35019 0.61472,1.75083 0,2.10102 -0.30363,0.17298 -3.32547,-1.53373 -3.68815,-1.32711 -0.99126,0.5647 0.97049,1.7804 0.97049,1.8799 0,0.30014 -0.95915,-0.8262 -2.32958,-1.21656 -1.04739,-0.29834 -1.18339,1.106 -1.74666,1.106 -0.49765,0 -1.21544,-1.56254 -1.94148,-1.76934 -2.4199,-0.68929 -0.80345,1.76934 -1.74718,1.76934 -0.44291,0 -0.85877,-0.37103 -1.35858,-0.44223 -0.7537,-0.10732 -1.49737,0.0909 -2.91196,-0.11056 -0.16484,-0.0235 -1.06166,-0.0657 -1.16479,0.11056 -0.0614,0.10491 0.18832,0.35854 0,0.33167 -1.15361,-0.16429 -1.63102,-0.66334 -2.91145,-0.66334 -0.58888,0 -0.34941,0.44223 -0.38861,0.44223 -0.15726,0 -0.41235,-0.60121 -0.97048,-0.44223 -0.23435,0.0667 -0.50354,0.92936 -0.97048,0.66334 -0.32349,-0.18428 -1.65457,-1.04788 -2.32958,-0.66334 -0.19172,0.10921 0.0419,1.32669 -0.38809,1.32669 -0.72897,0 -1.40047,-0.85548 -2.13527,-0.99502 -0.4189,-0.0795 -0.99542,0.0141 -1.16478,0.11056 -0.20463,0.11656 -0.18347,0.55879 -0.3881,0.44223 -1.35701,-0.77307 -1.23769,-2.47446 -2.71766,-3.31757 -2.41858,-1.37781 -1.19562,2.9859 -1.55339,2.9859 -0.52292,0 -2.19845,-2.06511 -3.10576,-1.54823 -0.59657,0.33985 0.64937,1.43767 -0.1943,1.43767 -0.67066,0 -0.88878,-0.73356 -1.55287,-0.88488 -1.57364,-0.35859 -0.60849,0.66376 -0.97049,0.66376 -0.2406,0 -0.87968,-1.37908 -1.74718,-0.88488 -0.40286,0.22951 -0.0543,1.07489 -0.19379,0.99544 -1.45905,-0.83119 -1.11345,-1.13516 -2.52387,-0.33167 -0.0905,0.0515 -0.9447,-0.71231 -1.34669,-1.10347 -0.0463,0.19873 -0.24078,0.48357 -0.20619,0.66082 0.0103,0.0527 0.20243,0.52728 0.31213,0.75997 -0.22473,-0.23292 -0.91766,-0.56554 -1.08831,-0.75997 -0.1474,-0.16794 -1.922468,-2.13392 -2.135783,-1.76935 -0.595455,1.01765 0.176012,2.27212 0.350367,2.50063 -0.121137,-0.0794 -0.512824,-0.16019 -0.544153,-0.17808 -0.08896,-0.0507 -0.01027,-1.21068 -0.388091,-0.99544 -0.196725,0.11208 -1.075766,1.32712 -1.164788,1.32712 -0.302699,0 -0.194302,-0.83693 -0.194302,-0.99544 0,-0.23449 -1.34279,0.19784 -1.359091,0.22111 -0.0019,0.003 0.218012,0.90511 -0.193786,0.55321 -0.466442,-0.39857 -1.747181,-3.38372 -1.747181,-0.88488 0,2.35343 -1.188294,-2.30878 -2.52336,-1.54823 -0.447641,0.25502 0.05221,1.81657 0.168984,2.23521 -0.639758,-0.49773 -2.537108,-1.08353 -3.696417,-1.62334 0.328713,0.33073 0.701937,0.7113 1.076939,1.07941 -1.12489,-0.37737 -2.360557,-0.68094 -2.402438,-0.69584 -0.517959,-0.18441 -1.051603,-0.6943 -1.553395,-0.88488 -1.190956,-0.45231 1.747181,1.84733 1.747181,1.88032 0,0.0115 -2.16621,-0.97779 -2.52336,-0.77432 -0.257535,0.1467 0.231767,1.32711 0.193786,1.32711 -0.624417,0 -1.635811,-1.53238 -2.523361,-1.65878 -0.976384,-0.13906 -1.108792,1.2804 -0.776695,1.65878 0.111779,0.12736 -0.499589,-0.41216 -0.581877,-0.55279 -0.185758,-0.31747 -0.05577,-1.46917 -0.388606,-1.65878 -0.194122,-0.11059 -0.353976,0.24492 -0.582396,0.33167 -0.547698,0.20801 -0.950605,0.43639 -1.241266,0.65786 -0.254484,-0.96851 -1.121217,-2.18741 -2.058789,-1.6533 -0.406736,0.23172 -2.357297,1.5322 -1.552877,1.99046 0.368885,0.21015 1.880772,0.44265 1.359091,0.44265 -3.337687,0 -0.784889,-0.55766 -1.941484,-1.21655 -0.311261,-0.17732 -1.345313,1.11334 -1.358574,1.10599 -0.777391,-0.44287 0.393441,-2.54661 -1.359091,-1.54823 -0.509129,0.29004 -0.591857,1.27573 -0.594796,1.68833 -0.06499,-0.39695 -0.569989,-0.76508 -0.569989,-1.13554 0,-0.24972 0.21722,-1.20336 0,-1.32711 -1.878637,-1.07022 -1.746663,2.30106 -1.746663,2.21157 0,-0.79782 -1.468332,-1.81068 -2.523879,-2.21157 -0.08929,-0.0339 -0.906124,-0.0564 -1.115176,-0.0933 0.301966,0.1854 1.984158,1.75204 0.920874,1.75204 -0.636765,0 -1.862807,-1.8141 -2.717665,-1.32711 -0.452583,0.25782 -0.6614,1.03276 -1.515152,1.6225 -0.385181,-0.47602 -0.537491,-1.40138 -0.620118,-1.40138 -0.807159,0 -1.435385,0.19855 -1.746662,0.55321 -0.204619,0.23313 0.01032,1.00703 -0.194305,0.7739 -0.409247,-0.46627 -0.388088,-2.06954 -0.388088,-1.54823 0,0.12626 -1.224227,0.23834 -1.553395,0.3321 -0.388239,0.11058 -0.274942,0.83819 -0.581877,0.66334 -0.09732,-0.0554 -2.639185,-2.80962 -2.911967,-2.65422 -0.603817,0.34398 1.89789,2.67882 1.164788,3.09645 -0.766784,0.43682 0.08652,-2.07064 -2.911967,-1.21655 -0.228941,0.0652 -0.169913,1.32711 -0.194305,1.32711 -1.176634,0 0.611135,-1.97414 -0.193786,-2.43269 -1.103892,-0.62887 -2.329574,2.48816 -2.329574,1.8799 0,-0.49718 -2.172462,-0.61685 -2.523358,-1.21655 -0.04501,-0.0769 -1.101852,-1.03101 -1.35909,-0.88446 -0.213879,0.12185 -0.104513,1.01151 -0.194305,1.21613 -0.07462,0.17004 -1.316204,1.03679 -1.552877,1.21655 -0.499115,0.37912 -1.237842,-2.4837 -3.88245,-2.98589 -1.522659,-0.28914 0,2.46405 0,2.54367 0,0.50139 -1.696477,-1.18763 -3.105754,-1.99046 -1.80922,-1.03067 0.86404,2.10101 -0.388088,2.10101 -0.313401,0 -0.274907,-0.82013 -0.388609,-0.88488 -0.696127,-0.39657 -1.274641,-1.23745 -2.329056,-1.43767 -0.326088,-0.0619 -2.94137,-0.77013 -3.266985,-0.7815 z m 34.76377,1.68368 c -0.02882,-0.0177 -0.04961,-0.0274 -0.04961,-0.0173 0,0.006 0.01873,0.0119 0.04961,0.0173 z m 23.017715,1.0368 c -0.535008,-0.5383 -0.937411,-0.91587 -0.937411,-0.72243 0,0.22072 0.387959,0.46659 0.937411,0.72243 z m 14.409974,0.49666 c 0.0303,-0.12988 -0.002,-0.22364 -0.20619,-0.22364 -0.0159,0 0.0696,0.0908 0.20619,0.22364 z m 83.32773,0.12406 c -0.33245,-0.20655 -0.7411,-0.3477 -1.2268,-0.3477 -0.52804,0 0.43997,0.16358 1.2268,0.3477 z m -157.832224,-0.6203 c 0.132098,-0.10194 0.20198,-0.16963 0.144692,-0.16963 -0.148735,0 -0.184047,0.0659 -0.144692,0.16963 z" />
    <path
       id="path1423"
       style="fill:#009d00;fill-opacity:1;stroke:none;stroke-width:0.264582px;stroke-linecap:butt;stroke-linejoin:miter;stroke-opacity:1"
       d="m 261.86773,218.05892 c -0.0245,0.0789 0.0154,2.02245 0,2.02245 -1.14863,0 -1.56084,-2.50786 -1.74718,-2.6003 -0.11948,-0.0593 -1.49787,1.85882 -1.55287,2.02246 -0.11347,0.33777 0.1123,0.74091 0.1943,1.0593 -0.35471,-0.52791 -0.69942,-1.00312 -0.97048,-1.54101 -0.25636,-0.50871 -0.3816,-0.94629 -0.5824,-1.44435 -0.28784,-0.71398 -2.51077,2.57912 -2.52387,2.69644 -0.23747,2.12051 0.82812,2.22529 -1.74667,0.0964 -1.03422,-0.85512 -8.31932,-3.59095 -8.73538,-3.17815 -0.55561,0.55128 1.01588,4.21492 0.97048,4.23745 -0.9928,0.49252 -4.85293,-3.46708 -4.85293,-3.46708 0,0 0.94455,3.98373 -4.85294,0.77064 -0.39634,-0.2212 -1.16478,-0.9702 -1.16478,-0.67424 0,0.22663 0.88967,0.85456 1.16478,1.05929 0.38861,0.28918 -0.53559,1.19745 -0.58239,1.34823 -0.0534,0.17208 0.25167,1.34822 -0.38861,1.34822 -1.61024,0 -2.13526,-2.579 -2.13526,-2.98537 0,-0.2247 0.32027,-0.83287 0,-0.67398 -1.69953,0.84313 -3.91356,3.85188 -4.07624,3.85188 -1.51674,0 -2.21604,-3.15571 -2.52388,-3.56296 -0.10049,-0.13293 -1.49648,1.64653 -1.55288,1.92607 -0.0711,0.3528 0.69969,1.31002 0.19431,1.0593 -0.85362,-0.42348 -1.68417,-0.99573 -2.71767,-1.25209 -2.69979,-0.66968 -6.02311,-1.73015 -8.43006,-2.65888 -0.6541,-0.25239 -2.0525,-0.51901 -2.0525,-0.51901 0,0 1.37386,0.82674 1.74922,1.10607 0.77061,0.57344 1.74514,2.32731 1.74514,2.8422 0,0.15488 -1.50109,-0.55536 -1.55339,-0.57759 -0.64171,-0.27287 -4.94782,-2.07152 -5.04672,-2.02246 -0.004,0.002 0.298,3.22259 -0.19431,3.46682 -0.25882,0.1284 -0.51786,-0.25666 -0.77669,-0.38506 -1.35235,-0.6709 -3.34545,-3.28188 -3.88246,-3.37068 -1.2632,-0.20889 -2.3033,1.46536 -2.91144,1.73353 -0.6975,0.30758 -1.63906,0.45895 -2.32958,0.77038 -2.54557,0.92421 -1.41583,-0.23716 -2.71766,-0.77038 -0.99887,-0.37165 -2.30439,-0.5927 -3.30006,-0.96316 -0.0226,-0.008 -1.74718,-0.88199 -1.74718,-0.77037 0,0.49099 2.13785,1.76915 2.52388,2.40752 0.13536,0.22384 0.85916,0.67423 0.38809,0.67423 -0.47307,0 -3.76524,-1.46166 -4.27054,-1.63714 -0.79515,-0.27613 -2.32958,-1.34828 -2.32958,-0.86677 0,0.27963 3.55681,4.04467 1.94097,4.04467 -2.14386,0 -4.31447,-2.30328 -5.43533,-3.08176 -0.20276,-0.14082 -1.74666,-1.33876 -1.74666,-1.0593 0,1.78137 0.57087,2.9968 -1.16479,4.7189 -0.16873,0.16742 -0.3156,0.61381 -0.58239,0.48145 -1.94667,-0.96573 1.01369,-5.70659 -4.85293,-2.31112 -1.46687,0.84899 -3.37942,1.39462 -5.04724,2.11859 -0.51765,0.22471 -1.35909,1.11161 -1.35909,0.77038 v -2.1186 c 0,-1.87658 -0.0849,0.17551 0.1943,-1.34822 0.10478,-0.57175 0.10936,-1.38353 0,-1.92607 -0.0594,-0.29448 -0.93725,0.36859 -1.35909,0.57785 -0.98506,0.48869 -2.14965,0.91076 -3.10575,1.44436 -0.27526,0.15362 -0.6223,0.29086 -0.77618,0.48171 -0.19225,0.23844 0.51766,0.77037 0,0.77037 -0.26682,0 -0.1006,-0.26138 -0.1943,-0.38531 -0.2447,-0.32373 -0.532,-0.63919 -0.7767,-0.96291 -0.67652,-0.89498 -1.90088,-1.62598 -2.71766,-2.50391 -0.7371,-0.79229 -0.83594,-2.5481 -2.32906,-1.25183 -0.97611,0.84743 -0.14893,2.16963 0.58187,2.98536 0.11151,0.12446 0.5824,0.15274 0.5824,0.28893 0,0.0773 -4.09094,-1.94912 -4.9165,-2.47545 0.36193,0.47654 1.26484,2.21232 1.74718,2.77822 -0.12242,-0.0367 -0.25045,-0.0735 -0.32452,-0.11024 -0.53295,-0.2644 -0.94093,-0.65198 -1.35909,-0.96316 -8.22129,-3.53144 -6.878,-4.55518 -6.21151,0.28892 0.0463,0.32179 0.84408,0.96316 0.19379,0.96316 -1.24492,0 -4.56237,-2.4834 -6.01772,-2.79283 -2.09366,-0.44514 -2.14577,1.9494 -1.72961,2.89384 -0.84812,-0.4316 -1.75358,-0.96223 -2.73524,-1.44923 -1.01144,-0.50176 -2.10432,-0.9478 -3.10575,-1.44461 -1.17754,-0.58417 3.44876,3.48109 2.52387,2.79283 -0.59443,-0.44234 -8.7625,-2.76618 -9.12399,-2.40752 -0.15414,0.15294 4.41529,3.28986 2.32958,2.60005 -0.83233,-0.27527 -1.84113,-0.90185 -2.52336,-1.15569 -0.75386,-0.28048 -1.30763,-0.76584 -2.13579,-1.0593 -0.33566,-0.11893 -3.08882,-0.6841 -3.4525,-0.83984 0.0362,0.0508 0.0909,0.13531 0.15244,0.16586 0.25109,0.12457 1.15454,1.2617 1.35909,1.54075 0.0712,0.0971 0.13547,0.20321 0.19844,0.31225 -2.23643,-1.33926 -2.32161,-0.91319 -2.32161,-0.91319 0,0 0.37599,0.0338 0.37599,0.50455 0,1.09 -0.49716,0.80083 0.19431,1.82993 0.0858,0.12767 0.19378,0.9294 0.19378,0.86651 0,-0.76378 -8.13588,-4.14928 -8.34678,-4.04466 -0.12941,0.0642 0.32009,0.10848 0.3881,0.19278 0.0884,0.1097 0.32478,0.70953 0.38809,0.86651 0.28873,0.7162 0.39556,1.44547 0.67696,2.16885 -0.88108,-0.40276 -2.44611,-0.71112 -3.39463,-1.10929 -0.80411,-0.33754 -2.32905,-1.58212 -2.32905,-1.05956 0,0.4087 0.10409,4.62251 0,4.62251 -1.36828,0 -1.34953,-3.56794 -2.13579,-3.17789 -0.80012,0.39694 -1.53866,0.75628 -2.13527,1.34822 -0.32229,0.31978 -0.22168,2.82057 -0.97049,0.96316 -0.15228,-0.37773 0,-0.77048 0,-1.15569 0,-0.65529 0.19431,-1.27971 0.19431,-1.92607 0,-0.22533 -0.35315,0.11671 -0.5824,0.19253 -1.2695,0.41987 -3.01017,0.75225 -3.882445,1.44462 -0.391019,0.31037 0.155377,1.0593 -0.582395,1.0593 -0.779595,0 -1.007626,-1.33335 -1.421178,-2.02717 -0.279736,-0.46932 -0.447299,-1.70436 -0.714092,-1.43965 -0.336476,0.33385 -0.572338,1.0977 -0.892213,1.63765 -0.327042,0.55205 -0.792987,0.8738 -1.04927,1.63663 -0.05309,0.15804 -0.04634,0.79337 -0.388091,0.96291 -0.13726,0.0681 0.08681,-0.20278 0,-0.28892 -1.053266,-1.04504 0.199708,-2.49855 -0.776179,-3.46682 -0.126648,-0.12565 -0.674478,0.26358 -0.776697,0.28892 -1.059845,0.2629 -2.978105,0.53093 -3.688147,1.0593 -1.018346,0.7578 -0.35838,2.31138 -0.582392,2.31138 -0.258686,0 -0.05872,-3.6931 -0.582393,-3.56321 -1.553343,0.38531 -1.839651,1.38608 -1.731161,2.16424 -1.143008,-1.22871 -3.525031,-3.16809 -4.28656,-3.60885 -0.518517,-0.3001 -1.594969,-0.54889 -2.290299,-0.71936 0.09008,0.20527 0.139668,0.47349 0.155027,0.52683 0.241509,0.83869 1.105342,1.64333 1.747182,2.40752 0.0027,0.003 0.18403,0.2317 0.391707,0.4853 -0.971761,-0.49617 -2.619369,-0.89802 -3.497979,-1.15954 -1.092875,-0.3253 -2.428343,-0.82852 -2.801895,-0.99725 0.332306,0.35075 0.472839,2.21513 0.472839,2.44186 0,0.10174 0.356918,1.34823 0.193786,1.34823 -0.268205,0 -1.066675,-1.43123 -1.164786,-1.54076 -1.043045,-1.16426 -2.181267,-2.18141 -3.688146,-3.17815 -0.449257,-0.29716 -0.92403,-0.66241 -1.270725,-0.94188 0.630738,1.26877 0.494028,5.11501 0.494028,5.56439 0,0.59089 -2.477035,-3.68233 -2.911451,-3.46682 -0.542682,0.26923 -0.358524,2.30774 -0.582393,2.69645 -0.196218,0.34092 0.31107,1.31001 -0.194302,1.05929 -1.347611,-0.66853 0.294526,-2.55032 -0.776182,-3.0815 -1.543735,-0.76583 -2.135269,3.68007 -2.135269,1.54075 v -1.15569 c 0,-0.37178 0.239347,-0.992 0,-1.34822 -0.244449,-0.3638 -2.924353,0.33283 -4.565613,1.17748 0.526079,-0.68315 1.05165,-1.62037 0.876948,-2.14038 -0.02484,-0.0739 -4.675018,0.75231 -5.241023,0.9629 -0.55304,0.20577 -1.224878,0.6931 -1.35909,1.0593 -0.08103,0.22108 0.452945,0.67424 0,0.67424 -0.162063,0 0.07864,-2.02447 0.194304,-2.31138 0.06681,-0.16571 0.57176,-1.73328 0.388089,-1.73328 -1.655019,0 -4.487874,2.11489 -4.65863,2.79257 -0.04139,0.16426 0.04267,1.63715 0,1.63715 -0.361887,0 -0.71727,-2.50904 -0.648023,-3.19507 -0.312309,0.14846 -0.886759,0.35813 -1.099159,0.49863 -1.064503,0.70413 -1.277583,1.68854 -1.747178,2.50391 -0.09064,0.15739 -0.04623,0.62786 -0.193786,0.48145 -0.354844,-0.35207 -0.885989,-0.89639 -0.582393,-1.34822 0.04458,-0.0664 0.4059,-0.77038 0.193786,-0.77038 -0.537139,0 -2.590096,0.78607 -3.105753,0.96316 -1.20124,0.41258 -2.641762,0.93652 -3.494363,1.54076 -0.0029,0.002 -0.548981,0.65436 -0.582393,0.77037 -0.04575,0.15889 0.323533,0.48145 0,0.48145 -1.02526,0 1.164789,-3.17342 1.164789,-3.17789 0,-0.17287 -0.634307,0.14704 -0.970484,0.19253 -1.366007,0.18483 -2.561225,0.10441 -3.882451,0.38532 -1.644922,0.34973 -3.429394,0.99945 -4.464844,1.73328 -0.145827,0.10335 -0.283009,0.21123 -0.412895,0.32122 0.0037,-0.005 0.02384,-0.0298 0.02479,-0.0323 0.241501,-0.59903 1.539288,-3.71443 -0.194302,-3.37043 -1.893043,0.37566 -3.65844,0.94567 -5.304069,1.62228 v 5.40775 H 265.81322 v -7.56762 c -1.64251,-2.6177 -3.00313,-3.13621 -3.94549,-0.32917 z m -212.626809,-0.3061 c 0.214,-0.10173 0.308197,-0.17535 0.06563,-0.17535 -0.03385,0 -0.05468,0.0669 -0.06563,0.17535 z m 21.118607,-0.73218 c -0.125947,-0.25335 -0.282077,-0.40634 -0.476456,-0.40634 -0.01363,0 0.190357,0.17572 0.476456,0.40634 z m 5.457032,1.8707 c -0.03461,-0.0365 -0.07071,-0.062 -0.109554,-0.062 -0.02125,0 0.02994,0.0261 0.109554,0.062 z m 4.005958,-1.26286 c -0.05934,-0.13522 -0.135633,-0.24354 -0.233061,-0.24354 -0.711412,0 -0.392194,0.0903 0.233061,0.24354 z m 41.738022,0.36097 c -0.024,-0.0336 -0.0413,-0.0555 -0.0413,-0.0269 0,0.007 0.0155,0.0159 0.0413,0.0269 z m 4.43952,3.69215 c 0.2166,0.006 0.37207,0.0352 0.37207,0.13306 0,0.0287 -0.148,-0.0283 -0.37207,-0.13306 z m -10.25932,0.87318 c 0.38763,0.22265 0.73715,0.41557 0.34313,0.41557 -0.0715,0 -0.19891,-0.18958 -0.34313,-0.41557 z m -86.227814,0.5376 c 0.0578,0.16126 0.246087,0.35942 -0.0067,0.35942 -0.153831,0 -0.108574,-0.15932 0.0067,-0.35942 z"
       sodipodi:nodetypes="cssscsscsscccsssssssscssscssccssssccssssssssssssssssssssscsssssccsccsscsssssssccsccsssscccsssssssssssasasssscssscscsccscsscscsscssssscsssssssscsssssssssssssccsccccccsccsccsccsccscccccccccc" />
    <path
       id="path1433"
       style="fill:#00b000;fill-opacity:1;stroke:none;stroke-width:0.999999px;stroke-linecap:butt;stroke-linejoin:miter;stroke-opacity:1"
       d="M 115.29102 759.66797 C 106.96367 759.92202 100.1837 762.99725 92.939453 762.35352 L 92.939453 780.88867 C 93.7242 780.60743 94.356484 780.34616 94.720703 780.12695 C 97.023634 778.74089 107.40967 781.78883 110.12695 782.33398 C 119.14254 784.14272 131.64449 780.47595 138.74023 781.00977 C 147.8796 781.69734 168.66788 791.96478 178.35938 788.07617 C 185.94771 785.03142 193.6273 781.43877 204.03906 782.33398 C 205.47552 782.45757 216.84945 786.1053 217.97852 785.42578 C 221.0691 783.56569 216.78734 778.02873 218.71289 775.71094 C 219.62726 774.61026 222.22796 772.87881 220.91211 771.29492 C 219.98407 770.17781 218.32574 769.25302 216.51172 768.64648 C 207.84218 765.7477 199.98106 769.47118 191.56641 768.20508 C 185.79574 767.33681 176.03751 761.56611 165.15234 760.25586 C 160.34317 759.67695 158.30299 760.65034 154.88086 762.02344 C 147.79786 764.86542 127.63592 760.61413 119.66406 759.81445 C 118.15538 759.66312 116.70118 759.62495 115.29102 759.66797 z "
       transform="scale(0.26458333)" />
    <path
       style="fill:#00b000;fill-opacity:1;stroke:none;stroke-width:0.264583px;stroke-linecap:butt;stroke-linejoin:miter;stroke-opacity:1"
       d="m 70.75537,201.07852 c -0.681466,-0.0109 -5.468668,-1.30863 -5.848725,-0.31227 -0.827161,2.16847 8.226056,4.30154 10.307416,4.35752 4.580512,0.12321 8.276414,2.33288 12.764531,2.53843 1.439348,0.0659 3.37481,-0.69759 4.748813,-0.18216 2.229826,0.83648 3.924296,1.93389 6.482666,2.47275 5.006389,1.0545 9.516479,0.1998 14.455119,0.59543 2.94543,0.23596 6.57193,1.56075 9.48973,0.90087 1.52084,-0.34395 0.76395,-2.07742 1.62366,-2.74537 2.22437,-1.7282 9.87501,2.16681 10.36391,-0.8575 0.0195,-0.1208 0.20792,-0.67894 0.1247,-0.77139 -1.03009,-1.1448 -2.72649,-1.54891 -4.80785,-1.88538 -2.2178,-0.35853 -4.36848,-0.82901 -6.56537,-0.74474 -0.48385,0.0185 -1.05317,0.60976 -1.49107,0.7088 -2.63364,0.59562 -6.4759,1.05334 -9.43069,1.16667 -3.95918,0.15187 -8.30228,-0.19425 -12.34717,-0.25464 -4.912576,-0.0734 -16.279657,-2.03153 -21.271165,-3.43869 -3.87188,-1.09152 -7.795796,-0.79477 -11.472987,-2.01302"
       id="path1435" />
    <path
       style="fill:#00b000;fill-opacity:1;stroke:none;stroke-width:0.264583px;stroke-linecap:butt;stroke-linejoin:miter;stroke-opacity:1"
       d="m 168.84724,203.96918 c -11.30032,0.74117 -4.95904,1.46233 -8.93592,3.05503 -2.31155,0.92576 -11.24188,1.24059 -12.20519,1.96396 -0.48886,0.36709 1.55567,1.4184 3.4872,1.4184 2.8575,0 24.28027,-0.1531 25.28215,-0.65465 0.19336,-0.0968 0,-0.86294 0,-0.98197 0,-3.1195 -4.35815,-3.38194 -6.53849,-4.47344 -0.18163,-0.0909 0.18163,-0.45462 0,-0.54555 -0.27664,-0.13849 -0.73981,0.13063 -1.08975,0.21822 z"
       id="path1437" />
    <path
       style="fill:#00b000;fill-opacity:1;stroke:none;stroke-width:0.264583px;stroke-linecap:butt;stroke-linejoin:miter;stroke-opacity:1"
       d="m 194.46714,201.76537 c -1.30971,0.26194 -2.61825,0.5024 -3.8824,0.9706 -0.69175,0.25621 -6.31223,4.55849 -6.21184,4.65888 2.14478,2.14478 11.66067,3.48743 14.36488,2.13532 1.17366,-0.58683 2.41273,-1.30342 3.68828,-1.9412 0.0699,-0.0349 7.56766,1.38273 8.92952,1.55296 0.93402,0.11676 10.50197,-0.0195 10.87072,-0.38824 0.80471,-0.80471 -0.0381,-2.21332 1.35883,-2.9118 0.89715,-0.44857 2.10825,0.20766 2.91182,-0.19412 1.20401,-0.60202 -4.57028,-4.83823 -5.82361,-5.04712 -2.61731,-0.43622 -4.97609,0.75873 -7.37656,1.35884 -2.25066,0.56267 -16.47125,0.98508 -18.82964,-0.19412 z"
       id="path1439" />
    <path
       style="fill:#00b000;stroke:none;stroke-width:0.264583px;stroke-linecap:butt;stroke-linejoin:miter;stroke-opacity:1;fill-opacity:1"
       d="m 258.33004,197.52228 c -1.89529,1.47201 -4.7967,0.91007 -6.72592,2.19621 -0.7166,0.47774 -0.92844,0.91173 -1.78442,1.37264 -0.67724,0.36467 -2.67457,0.61145 -2.88254,1.23537 -0.29873,0.89621 0.89777,1.08592 -0.41179,1.64716 -1.23973,0.53132 -3.00019,0.47063 -3.70612,1.64717 -0.42966,0.71611 -2.82127,2.80653 -2.47074,3.15706 0.41496,0.41496 0.93756,0.34025 1.5099,0.41179 3.06638,0.3833 2.98433,-0.21695 5.6278,-1.09811 0.53473,-0.17824 1.43211,0.10753 1.92169,-0.13726 2.20436,-1.10218 6.93445,-3.64012 8.51035,-5.21602 0.97919,-0.97919 0.95824,-3.01719 0.96084,-3.0198 0.57051,-0.57051 0.0465,-1.60065 -0.54905,-2.19621 z"
       id="path1446" />
    <path
       id="path1448"
       style="fill:#00b000;fill-opacity:1;stroke:none;stroke-width:0.999999px;stroke-linecap:butt;stroke-linejoin:miter;stroke-opacity:1"
       d="M 1004.6484 754.50977 C 1001.4183 755.70988 998.21569 757.02137 995.04102 758.47266 C 990.06651 760.74672 990.97636 763.66295 986.22266 766.25586 C 970.0696 775.06662 986.27546 782.92664 997.63672 784.93164 C 999.86981 785.32571 1002.2357 785.6704 1004.6484 785.98633 L 1004.6484 754.50977 z "
       transform="scale(0.26458333)" />
    <path
       id="path1453"
       style="fill:#00b000;fill-opacity:1;stroke:none;stroke-width:0.999999px;stroke-linecap:butt;stroke-linejoin:miter;stroke-opacity:1"
       d="M 238 727.01953 C 184.93594 727.63457 137.53889 733.81823 92.939453 742.52539 L 92.939453 750.36523 C 99.728322 750.30026 107.06202 748.42431 109.46484 746.02148 C 110.54967 744.93665 119.02418 747.48749 119.83984 747.57812 C 123.31465 747.96424 136.25188 749.84384 136.96094 749.13477 C 138.90275 747.193 142.97661 745.39975 145.78125 744.46484 C 153.81461 741.78705 163.13929 747.88464 171.20117 746.54102 C 176.54312 745.65067 190.62774 737.70298 196.10352 741.35352 C 197.56066 742.32497 197.78677 744.13817 198.69727 745.50391 C 203.44241 752.62163 216.04041 756.11232 224.11719 753.80469 C 225.73468 753.34253 227.18408 750.43496 228.26758 749.13477 C 236.85855 738.82561 241.74158 734.22822 255.24609 736.68359 C 257.64163 737.11915 260.26548 739.99788 264.06445 740.31445 C 265.59853 740.4422 273.5884 739.46338 274.95898 740.83398 C 278.78133 744.65633 290.73081 750.61389 297.26758 752.24805 C 303.63783 753.84063 310.74175 751.20547 316.98242 752.76562 C 320.42457 753.62615 322.73873 756.36106 326.32031 757.43555 C 333.0364 759.45038 340.46459 758.89691 347.07227 760.54883 C 352.72862 761.96294 359.1976 763.88042 365.74805 764.69922 C 369.13907 765.12309 371.51262 767.81958 375.08594 768.33008 C 379.44003 768.95207 397.91571 771.18181 401.54492 769.36719 C 404.10676 768.08631 416.76655 762.16372 419.70312 763.14258 C 427.04913 765.59126 447.31631 769.85599 455.49805 767.81055 C 457.95432 767.19649 459.04228 765.7575 461.20508 765.2168 C 465.12728 764.23624 494.45519 758.04818 497.00195 758.47266 C 507.60077 760.23913 519.8991 762.3531 530.72461 760.54883 C 541.66464 758.72551 554.4637 757.27463 565.48242 760.0293 C 567.69235 760.58179 582.73801 767.42941 584.1582 768.84961 C 585.03415 769.72555 584.55078 771.83394 585.19727 772.48047 C 586.78259 774.06575 594.74399 773.29809 597.12891 773 C 607.47359 771.70691 615.56335 763.83386 621.51172 756.39844 C 622.92745 754.62879 623.09282 751.18644 624.625 749.6543 C 626.03148 748.24782 630.76931 741.83001 627.73828 740.31445 C 639.60811 741.80994 639.47183 751.17212 655.17773 746.88867 C 659.35457 745.74956 659.63463 750.10766 663.24805 751.65625 C 669.93551 754.5223 678.27684 756.06474 685.625 752.39062 C 686.74208 751.83212 687.01762 750.26367 687.82617 749.45508 C 690.13263 747.14866 695.00612 745.80422 698.46484 745.41992 C 702.97764 744.91853 711.09259 745.4403 714.97266 742.85352 C 719.03194 740.14734 724.73692 732.32744 731.11328 735.51562 C 735.56318 737.7406 739.43539 742.80379 744.6875 745.05469 C 749.92218 747.29814 774.10501 745.35018 777.33594 742.11914 C 779.31856 740.13651 787.88218 743.00608 790.54297 742.11914 C 798.23979 742.88884 789.82128 741.88991 798.98047 743.58594 C 800.33577 743.8369 809.76272 743.73136 810.71875 744.6875 C 815.76741 749.73616 810.00051 751.69235 821.35742 750.55664 C 823.18872 750.37333 825.47936 750.0375 827.22656 749.45508 C 829.2974 748.76482 832.29793 743.60203 834.92969 747.98828 C 840.23354 756.82803 853.24455 754.42976 862.07617 755.69141 C 864.12109 755.98356 870.59243 755.99588 871.61328 757.52734 C 873.83432 760.85892 872.36618 769.16857 873.81445 771.09961 C 874.50664 772.02249 875.9343 772.1179 876.75 772.93359 C 877.7151 773.8987 879.40504 776.57398 881.51953 775.86914 C 885.69818 774.47627 885.3881 768.7547 887.75586 765.59766 C 889.71819 762.98124 892.6032 760.7484 894.72461 758.62695 C 900.46208 752.88948 911.20405 755.21326 918.57031 752.75781 C 926.25009 750.1979 934.61511 743.79239 942.04688 743.2207 C 958.78232 741.93336 976.01406 742.57951 992.67188 739.55078 C 995.04669 739.11901 1000.4898 739.13929 1004.6484 738.58789 L 1004.6484 734.875 C 959.44918 740.27685 913.94976 744.97242 866.90625 744.27344 C 815.28626 743.50642 772.72938 729.10046 721.04102 729.08984 C 621.95412 729.07095 540.09615 760.10846 441.25977 758.07617 C 364.79148 756.50385 314.60039 726.13176 238 727.01953 z "
       transform="scale(0.26458333)" />
  </g>
</svg>
