<?xml version="1.0" encoding="UTF-8" standalone="no"?>
<svg
   xmlns:dc="http://purl.org/dc/elements/1.1/"
   xmlns:cc="http://creativecommons.org/ns#"
   xmlns:rdf="http://www.w3.org/1999/02/22-rdf-syntax-ns#"
   xmlns:svg="http://www.w3.org/2000/svg"
   xmlns="http://www.w3.org/2000/svg"
   xmlns:sodipodi="http://sodipodi.sourceforge.net/DTD/sodipodi-0.dtd"
   xmlns:inkscape="http://www.inkscape.org/namespaces/inkscape"
   width="210mm"
   height="297mm"
   viewBox="0 0 210 297"
   version="1.1"
   id="svg8"
   inkscape:version="1.0.2-2 (e86c870879, 2021-01-15)"
   sodipodi:docname="nature-human.svg">
  <defs
     id="defs2" />
  <sodipodi:namedview
     id="base"
     pagecolor="#ffffff"
     bordercolor="#666666"
     borderopacity="1.0"
     inkscape:pageopacity="0.0"
     inkscape:pageshadow="2"
     inkscape:zoom="0.73218391"
     inkscape:cx="390.1182"
     inkscape:cy="525.89553"
     inkscape:document-units="mm"
     inkscape:current-layer="layer1"
     inkscape:document-rotation="0"
     showgrid="false"
     inkscape:window-width="1920"
     inkscape:window-height="1080"
     inkscape:window-x="1092"
     inkscape:window-y="825"
     inkscape:window-maximized="1"
     inkscape:snap-global="false"
     inkscape:snap-bbox="true"
     inkscape:bbox-nodes="true"
     inkscape:bbox-paths="true"
     inkscape:snap-bbox-edge-midpoints="true"
     inkscape:snap-bbox-midpoints="true"
     inkscape:snap-nodes="true"
     inkscape:object-paths="true"
     inkscape:snap-intersection-paths="true"
     inkscape:snap-smooth-nodes="true"
     inkscape:snap-midpoints="true"
     inkscape:snap-object-midpoints="true"
     inkscape:snap-center="true"
     inkscape:snap-text-baseline="true" />
  <metadata
     id="metadata5">
    <rdf:RDF>
      <cc:Work
         rdf:about="">
        <dc:format>image/svg+xml</dc:format>
        <dc:type
           rdf:resource="http://purl.org/dc/dcmitype/StillImage" />
        <dc:title />
      </cc:Work>
    </rdf:RDF>
  </metadata>
  <g
     inkscape:label="Layer 1"
     inkscape:groupmode="layer"
     id="layer1">
    <path
       id="path897"
       style="fill:#ffffff;stroke:none;stroke-width:0.999999px;stroke-linecap:butt;stroke-linejoin:miter;stroke-opacity:1"
       d="M 373.79492 322.46289 C 371.51645 322.97856 369.44934 323.44121 366.86133 324.03516 L 364.09961 337.16797 L 396.96094 347.71094 L 429.33984 337.44336 L 424.80859 324.58594 L 419.32422 323.24219 L 421.89844 334.88477 L 396.47461 340.85352 L 371.04883 334.88477 L 373.79492 322.46289 z "
       transform="scale(0.26458333)" />
    <path
       id="rect998"
       style="opacity:1;fill:#f1b993;fill-opacity:1;stroke:none;stroke-width:0.264999"
       d="m 100.39456,78.558535 h 9.01153 l 2.22116,10.04641 -6.72693,1.579469 -6.72691,-1.579469 z"
       sodipodi:nodetypes="cccccc" />
    <path
       id="path904"
       style="opacity:0.112903;fill:#000000;stroke:none;stroke-width:0.999999px;stroke-linecap:butt;stroke-linejoin:miter;stroke-opacity:1"
       d="m 421.45898,332.89648 -25.12757,5.67964 -24.88024,-5.51167 -0.40234,1.82032 25.42578,5.96875 25.42383,-5.96875 z"
       transform="scale(0.26458333)"
       sodipodi:nodetypes="ccccccc" />
    <path
       id="path1001"
       style="opacity:0.1;fill:#000000;fill-opacity:1;stroke:none;stroke-width:0.264999"
       d="m 100.39461,78.558535 -0.878646,3.97421 c 1.774026,0.26346 3.574786,0.46771 5.384416,0.46769 1.80957,1e-5 3.61045,-0.20423 5.38442,-0.46769 l -0.87864,-3.97421 z" />
    <path
       id="rect833"
       style="opacity:1;fill:#f1b993;fill-opacity:1;stroke-width:0.264999"
       d="m 89.14883,29.199909 c -3.880653,5.65806 -1.697163,11.017994 -1.668387,18.530987 0.02877,7.51298 -2.601979,21.538451 1.794883,26.495071 4.396862,4.956628 10.333138,6.492778 16.086474,6.464198 5.61479,-0.0279 11.24287,-1.5076 15.63971,-6.464198 4.39684,-4.956594 1.76529,-18.874522 1.79452,-26.495071 0.0284,-7.405424 2.21227,-12.872927 -1.6684,-18.530987 -2.43309,-3.547499 -10.54267,-3.477735 -15.98922,-3.477748 -5.446656,-1.3e-5 -13.165871,-0.273397 -15.98958,3.477748 z"
       sodipodi:nodetypes="czzazcsac" />
    <path
       id="path978"
       style="opacity:0.316129;fill:#000000;fill-opacity:1;stroke-width:0.264999"
       d="m 97.283654,26.151454 c -1.671015,0.03699 -3.460307,2.899714 -4.969229,2.003932 -0.308005,-0.182849 -0.281065,-0.604869 -0.215134,-1.05065 -1.217513,0.518215 -2.239205,1.228211 -2.950286,2.201747 -1.395864,2.097463 -2.004895,4.155675 -2.214062,6.2912 0.293246,-0.448252 0.648412,-0.87717 0.937887,-1.194585 0.564177,-0.618629 2.232908,-1.027602 2.232908,-1.027602 0,0 0.521637,0.594367 0.51011,1.041456 -0.01624,0.62949 -0.687291,2.047066 -0.687291,2.047069 0,-3e-6 1.913823,-0.886584 3.001634,-1.517124 1.154863,-0.66941 3.050734,-2.593914 3.050734,-2.593914 0.999055,-0.02379 0.409104,1.597739 0.02947,2.220311 -0.560482,0.919157 -2.439587,2.092522 -2.439587,2.092522 0,0 5.672046,-0.357275 8.015502,-1.211298 2.70311,-0.985093 7.38226,-3.767715 7.38226,-3.767715 0,0 -0.0674,1.582271 -0.29835,2.292512 -0.31673,0.973848 -1.00972,2.940519 -1.00972,2.940519 0,0 2.62647,-0.963854 3.95163,-1.612329 1.65616,-0.810462 3.48516,-2.408747 5.39674,-2.121976 1.4399,0.216011 2.78024,1.297886 3.41714,2.720839 1.50315,3.35832 1.89817,8.196887 1.68022,11.859328 0.0276,-0.01063 -0.99639,0.856541 -0.96578,0.84608 1.27833,-0.437319 1.67943,-1.969653 1.78035,-2.205132 0.10092,-0.23548 -0.0998,-1.663453 -0.0998,-2.067133 0,-0.403674 1.56569,-1.872539 1.70025,-2.343497 0.13457,-0.470965 -1.79609,-2.200995 -1.62788,-2.638311 0.1682,-0.437316 -0.0675,-2.15292 -0.10122,-2.388401 -0.023,-0.161205 0.28093,-1.09072 0.50993,-1.716832 -0.20071,-1.671582 -0.66115,-3.300325 -1.56173,-4.934208 -0.0736,0.08889 -0.15895,0.192042 -0.15895,0.192042 0,0 0.007,-0.187994 0.004,-0.462593 -0.14344,-0.246875 -0.29332,-0.493814 -0.45797,-0.741228 -0.46673,-0.701334 -1.14365,-1.264577 -1.9693,-1.718372 -0.44881,0.582877 -0.89955,1.248231 -1.51286,1.239998 -0.76013,-0.01021 -1.09923,-1.127119 -1.81651,-1.378929 -1.22779,-0.431024 -2.60404,-0.187555 -3.90242,-0.101218 -1.41635,0.09419 -2.78858,0.767756 -4.2049,0.67311 -1.55397,-0.103845 -2.91743,-1.303723 -4.47429,-1.345833 -1.56863,-0.04243 -3.13507,1.734499 -4.574759,1.110303 -0.543647,-0.235703 -0.320206,-1.338781 -0.874773,-1.547497 -0.169895,-0.06394 -0.3413,-0.09042 -0.514164,-0.08659 z"
       sodipodi:nodetypes="sscccscssscscscscsasccsssssccccscsssssssss" />
    <path
       style="fill:#784421;stroke:none;stroke-width:0.264582px;stroke-linecap:butt;stroke-linejoin:miter;stroke-opacity:1"
       d="M 84.373081,52.143632 C 83.326451,51.2873 80.555001,34.078237 82.37497,25.288073 c 0.209423,-1.011479 0.67568,-2.047972 1.438068,-2.744902 0.84938,-0.776454 3.189269,-1.321933 3.189269,-1.321933 0,0 -0.946193,0.731713 -1.319808,1.191947 -0.288365,0.355221 -0.690954,1.186007 -0.690954,1.186007 0,0 1.415737,-0.78675 3.470155,-2.626932 2.054418,-1.84018 5.897276,-2.104247 5.897276,-2.104247 0,0 -0.870903,0.667739 -0.863755,1.379 0.0071,0.711262 0.297526,1.639512 0.297526,1.639512 0,0 2.144328,-1.497751 3.299398,-2.27977 1.354619,-0.917123 3.954775,-1.534557 3.954775,-1.534557 0,0 -0.84762,0.718075 -0.9815,1.721877 -0.0862,0.646103 0.38769,1.807006 0.38769,1.807006 0,0 2.37895,-1.733444 3.67396,-2.711562 1.85296,-1.399543 4.88722,-0.805488 4.88722,-0.805488 l -1.7933,2.128977 -1.05899,1.958962 c 0,0 0.43191,-0.613959 2.53171,-1.862856 2.75277,-1.637264 6.67284,-1.327238 6.67284,-1.327238 0,0 -1.30733,1.04923 -1.73308,1.751641 -0.27539,0.454333 -0.48583,1.517977 -0.48583,1.517977 0,0 3.2881,-1.843974 5.06776,-2.42854 1.47282,-0.483778 4.5689,-0.868535 4.5689,-0.868535 0,0 -1.13242,1.054738 -1.39846,1.753395 -0.20784,0.545831 -0.0953,1.749599 -0.0953,1.749599 0,0 1.9018,-0.01603 2.59148,0.533687 0.84287,0.671836 1.34208,2.941951 1.34208,2.941951 l 0.82385,26.210581 -4.50181,-0.318089 c 0,0 1.25059,-11.232642 -0.95346,-16.156883 -0.63691,-1.422952 -3.29836,-3.31584 -3.29836,-3.31584 0,0 -2.9793,2.144238 -4.63546,2.9547 -1.32516,0.648476 -4.30846,1.422111 -4.30846,1.422111 0,0 0.71655,-1.919343 1.03328,-2.893189 0.23099,-0.710242 0.6318,-2.149659 0.6318,-2.149659 0,0 -4.67912,2.782727 -7.38223,3.767818 -2.34346,0.854023 -8.562822,1.139978 -8.562822,1.139978 0,0 1.879205,-1.197168 2.439687,-2.116325 0.37963,-0.622572 0.517657,-2.125434 0.517657,-2.125434 0,0 -1.896019,1.924522 -3.050883,2.593931 -1.087809,0.630542 -3.548474,1.279273 -3.548474,1.279273 0,0 0.52807,-1.179492 0.5443,-1.808981 0.01152,-0.447092 -0.319866,-1.303038 -0.319866,-1.303038 0,0 -1.169126,0.670296 -1.733302,1.288927 -0.564177,0.61863 -1.384234,1.660027 -1.490369,2.445109 -0.648712,4.798546 0.994451,15.581033 0.994451,15.581033 z"
       id="path844"
       sodipodi:nodetypes="caacaczczcscscscccscacacacacccacscacscacacaczscc" />
    <path
       id="path971"
       style="opacity:0.067742;fill:#000000;fill-opacity:1;stroke-width:0.265001"
       d="m 123.42762,59.083954 c -0.11212,0.05954 -0.22632,0.11518 -0.34308,0.165912 0.16549,5.685598 -0.16791,11.228181 -2.54684,13.990723 -4.2683,4.956606 -9.73193,6.436006 -15.18259,6.463896 -5.585146,0.0286 -11.347821,-1.50727 -15.616152,-6.463896 -2.322849,-2.697423 -2.694705,-8.080798 -2.556458,-13.638485 -0.122017,-0.01304 -0.242187,-0.03078 -0.36037,-0.05322 -0.283351,5.915807 -0.08984,11.810477 2.453093,14.677152 4.396862,4.956629 10.333211,6.492619 16.086547,6.464049 5.6148,-0.0279 11.24283,-1.50745 15.63967,-6.464049 2.61554,-2.948536 2.74474,-9.065211 2.42618,-15.142072 z" />
    <path
       id="path867"
       style="opacity:0.0516129;fill:#000000;stroke:none;stroke-width:0.264582px;stroke-linecap:butt;stroke-linejoin:miter;stroke-opacity:1"
       d="m 92.957515,25.699635 c -1.779633,-0.781789 -3.52476,1.800107 -4.877632,3.195824 -1.271589,1.311859 -2.433948,2.899218 -2.859462,4.675971 -1.12912,4.714685 1.143783,14.498973 1.143783,14.498973 0,0 0.606564,0.671344 1.527099,0.285559 -0.412305,-3.568306 -0.852908,-8.617884 -0.462208,-11.50789 0.106136,-0.785083 0.926361,-1.826343 1.490536,-2.444974 0.564178,-0.618629 1.733382,-1.28926 1.733382,-1.28926 0,0 0.331341,0.856023 0.319814,1.303114 -0.01624,0.62949 -0.54457,1.809198 -0.54457,1.809198 0,-3e-6 2.460925,-0.648713 3.548735,-1.279253 1.154863,-0.66941 3.050734,-2.593914 3.050734,-2.593914 0,10e-7 -0.137996,1.50259 -0.517627,2.125161 -0.560483,0.919158 -2.439587,2.116312 -2.439587,2.116312 0,0 6.219148,-0.285915 8.562598,-1.139938 2.70312,-0.985093 7.38226,-3.767715 7.38226,-3.767715 0,0 -0.40055,1.43955 -0.63154,2.14979 -0.31673,0.973848 -1.03333,2.892943 -1.03333,2.892943 0,0 2.98329,-0.773556 4.30843,-1.422031 1.65616,-0.810462 4.63557,-2.954522 4.63557,-2.954522 0,0 2.66129,1.892562 3.29819,3.315514 1.50316,3.358323 1.39905,9.6458 1.18112,13.308234 0.0276,-0.01063 0.0498,-0.02146 0.0804,-0.03196 1.27832,-0.437319 0.94203,-1.446331 1.04296,-1.681811 0.10091,-0.235485 0.47105,-2.186773 0.47105,-2.590454 0,-0.403674 0.0671,-2.657511 0.20167,-3.128469 0.13457,-0.470965 0.20203,-1.74904 0.37022,-2.186357 0.1682,-0.437316 -0.0675,-2.152919 -0.10122,-2.388401 -0.0337,-0.23548 0.63916,-2.153011 0.74009,-2.28757 0.10089,-0.134561 0.13469,-2.153009 0.13469,-2.287569 0,-0.134558 -0.63924,-2.994123 -0.63924,-3.330521 0,-0.3364 -1.44628,1.446663 -1.44628,1.446663 0,0 0.14748,-3.309756 -1.07644,-3.734233 -1.10841,-0.384426 -1.68637,2.067784 -2.85946,2.052037 -0.76013,-0.01021 -1.09922,-1.127119 -1.8165,-1.378928 -1.22779,-0.431024 -2.60405,-0.187557 -3.90242,-0.101218 -1.41636,0.09418 -2.78859,0.767756 -4.20491,0.673109 -1.55398,-0.103845 -2.91743,-1.303723 -4.47431,-1.345833 -1.56861,-0.04243 -3.13505,1.734499 -4.574746,1.110303 -0.54365,-0.235703 -0.32021,-1.33878 -0.874775,-1.547496 -1.812217,-0.682042 -3.818376,2.905789 -5.483392,1.91734 -0.71334,-0.423479 0.355804,-2.122096 -0.403712,-2.45575 z"
       sodipodi:nodetypes="aaaccsscscscscscscscscssssscssscaaaaaaaaaa" />
    <path
       id="path851"
       style="opacity:1;fill:#f1b993;fill-opacity:1;stroke:none;stroke-width:0.264999"
       d="m 85.153294,47.859347 c -2.501629,0.01141 -4.61769,0.688021 -3.333218,5.917895 0.618463,2.518141 2.619944,5.851314 5.851699,5.851314 0.275511,0 0.546281,-0.02054 0.811656,-0.05733 V 47.982908 c -0.265375,-0.03685 -0.536145,-0.05733 -0.811656,-0.05733 -0.80794,0 -1.684604,-0.07001 -2.518481,-0.0662 z" />
    <path
       style="opacity:0.0935484;fill:#000000;stroke:none;stroke-width:0.264582px;stroke-linecap:butt;stroke-linejoin:miter;stroke-opacity:1"
       d="m 83.811261,49.337251 c 0,0 0.843438,0.312918 1.173435,0.607275 0.514073,0.458567 0.966674,0.998565 1.161143,1.720354 0.139506,0.517785 0.04556,1.113191 -0.0571,1.645551 -0.14665,0.760431 -0.565799,1.387089 -0.780439,2.119274 -0.11372,0.387931 -0.26664,0.781222 -0.266492,1.196766 1.26e-4,0.355042 0.0018,0.810178 0.228422,1.022238 0.411415,0.385009 1.193018,0.469524 1.541844,-0.02498 0.388413,-0.550569 -0.109111,-1.494325 -0.11421,-2.243937 -0.0093,-1.364549 0.419098,-2.769853 0.15228,-4.088946 -0.127126,-0.628478 -0.357041,-1.231214 -0.799476,-1.645557 -0.53536,-0.501363 -2.030014,-0.815899 -2.030014,-0.815899 z"
       id="path854"
       sodipodi:nodetypes="caaaaaasaaacc" />
    <path
       id="path861"
       style="opacity:1;fill:#f1b993;fill-opacity:1;stroke:none;stroke-width:0.264999"
       d="m 123.78527,47.859347 c 2.50162,0.01141 4.61769,0.688021 3.33322,5.917895 -0.61847,2.518141 -2.61995,5.851314 -5.85171,5.851314 -0.27551,0 -0.54628,-0.02054 -0.81165,-0.05733 V 47.982908 c 0.26537,-0.03685 0.53614,-0.05733 0.81165,-0.05733 0.80794,0 1.68461,-0.07001 2.51849,-0.0662 z" />
    <path
       style="opacity:0.0935484;fill:#000000;stroke:none;stroke-width:0.264582px;stroke-linecap:butt;stroke-linejoin:miter;stroke-opacity:1"
       d="m 125.1273,49.337251 c 0,0 -0.84344,0.312918 -1.17344,0.607275 -0.51407,0.458567 -0.96666,0.998565 -1.16114,1.720354 -0.13951,0.517785 -0.0456,1.113191 0.0571,1.645551 0.14665,0.760431 0.5658,1.387089 0.78044,2.119274 0.11372,0.387931 0.26663,0.781222 0.26649,1.196766 -1.3e-4,0.355042 -10e-4,0.810178 -0.22843,1.022238 -0.41141,0.385009 -1.19301,0.469524 -1.54184,-0.02498 -0.3884,-0.550569 0.10912,-1.494325 0.11422,-2.243937 0.009,-1.364549 -0.4191,-2.769853 -0.15228,-4.088946 0.12712,-0.628478 0.35703,-1.231214 0.79947,-1.645557 0.53536,-0.501363 2.03002,-0.815899 2.03002,-0.815899 z"
       id="path863"
       sodipodi:nodetypes="caaaaaasaaacc" />
    <ellipse
       style="fill:#ffffff;fill-opacity:1;stroke:none;stroke-width:0.264999"
       id="path865"
       cx="60.367359"
       cy="89.570015"
       rx="5.3718181"
       ry="3.3199668"
       transform="rotate(-30.000001)" />
    <circle
       style="fill:#00ccff;fill-opacity:1;stroke:none;stroke-width:0.265001"
       id="path874"
       cx="97.942001"
       cy="47.743034"
       r="2.616574" />
    <circle
       style="fill:#0055d4;fill-opacity:1;stroke:none;stroke-width:0.265001"
       id="circle876"
       cx="97.942001"
       cy="47.743034"
       r="1.9908713" />
    <circle
       style="fill:#ffffff;fill-opacity:1;stroke:none;stroke-width:0.264999"
       id="circle878"
       cx="96.514771"
       cy="46.64473"
       r="1.379648" />
    <ellipse
       style="fill:#ffffff;fill-opacity:1;stroke:none;stroke-width:0.264999"
       id="ellipse894"
       cx="-121.73745"
       cy="-15.568248"
       rx="5.3718181"
       ry="3.3199668"
       transform="matrix(-0.8660254,-0.50000001,-0.50000001,0.8660254,0,0)" />
    <circle
       style="fill:#00ccff;fill-opacity:1;stroke:none;stroke-width:0.265001"
       id="circle896"
       cx="-112.33453"
       cy="47.743034"
       r="2.616574"
       transform="scale(-1,1)" />
    <circle
       style="fill:#0055d4;fill-opacity:1;stroke:none;stroke-width:0.265001"
       id="circle898"
       cx="-112.33453"
       cy="47.743034"
       r="1.9908713"
       transform="scale(-1,1)" />
    <circle
       style="fill:#ffffff;fill-opacity:1;stroke:none;stroke-width:0.264999"
       id="circle900"
       cx="-113.76176"
       cy="46.64473"
       r="1.379648"
       transform="scale(-1,1)" />
    <path
       id="path936"
       style="opacity:0.13871;fill:#000000;fill-opacity:1;stroke:none;stroke-width:0.264999"
       d="m 107.80811,57.629496 a 4.5305059,4.3281542 0 0 1 -2.82127,0.941839 4.5305059,4.3281542 0 0 1 -2.82128,-0.94163 3.3075473,4.3281542 0 0 0 2.82128,2.06905 3.3075473,4.3281542 0 0 0 2.82127,-2.069259 z" />
    <path
       id="path946"
       style="opacity:1;fill:#000000;fill-opacity:1;stroke:none;stroke-width:0.264999"
       d="m 94.6134,66.37622 a 11.845942,11.845942 0 0 0 10.31176,6.015641 11.845942,11.845942 0 0 0 10.31138,-6.015641 22.217089,11.845942 0 0 1 -10.31138,1.353534 A 22.217089,11.845942 0 0 1 94.6134,66.37622 Z" />
    <path
       id="path951"
       style="opacity:1;fill:#ffffff;fill-opacity:1;stroke:none;stroke-width:0.264999"
       d="m 111.87691,67.32475 a 22.217089,11.845942 0 0 1 -6.95161,0.595373 22.217089,11.845942 0 0 1 -6.951987,-0.594982 12.226535,14.081924 0 0 0 6.951607,2.497696 12.226535,14.081924 0 0 0 6.95199,-2.498087 z" />
    <path
       id="path957"
       style="opacity:1;fill:#752727;fill-opacity:1;stroke:none;stroke-width:0.264999"
       d="m 104.92492,71.090526 c -1.36408,7.8e-5 -2.70059,-0.02139 -3.85662,0.655816 1.24104,0.427329 2.54446,0.645434 3.857,0.645395 1.31229,-5.2e-5 2.61544,-0.218158 3.85624,-0.645395 -1.15604,-0.677155 -2.49254,-0.655738 -3.85662,-0.655816 z"
       sodipodi:nodetypes="ccscc" />
    <path
       id="path962"
       style="opacity:1;fill:#784421;fill-opacity:1;stroke:none;stroke-width:0.264999"
       d="m 94.702312,41.236248 c -2.629165,1.526666 -3.68108,2.818166 -4.639495,4.811852 1.182241,-1.680833 2.957164,-3.026176 5.019649,-3.804777 2.062705,-0.778555 4.284098,-0.941597 6.282244,-0.461084 -2.026416,-1.172336 -4.03323,-2.072654 -6.662398,-0.545991 z"
       sodipodi:nodetypes="zcccz" />
    <path
       id="path967"
       style="opacity:1;fill:#784421;fill-opacity:1;stroke:none;stroke-width:0.264999"
       d="m 114.3752,41.236248 c 2.62916,1.526666 3.68107,2.818166 4.63949,4.811852 -1.18225,-1.680833 -2.95717,-3.026176 -5.01965,-3.804777 -2.0627,-0.778555 -4.2841,-0.941597 -6.28225,-0.461084 2.02642,-1.172336 4.03323,-2.072654 6.66241,-0.545991 z"
       sodipodi:nodetypes="zcccz" />
    <path
       id="path974"
       style="opacity:0.0741936;fill:#000000;fill-opacity:1;stroke:none;stroke-width:0.264999"
       d="m 101.66104,77.694385 a 6.4555786,10.846887 0 0 0 3.26392,1.48861 6.4555786,10.846887 0 0 0 3.26394,-1.48861 11.552088,10.846887 0 0 1 -3.26394,0.4422 11.552088,10.846887 0 0 1 -3.26392,-0.4422 z" />
    <path
       id="path934"
       style="fill:#ff6600;fill-opacity:1;stroke:none;stroke-width:0.999999px;stroke-linecap:butt;stroke-linejoin:miter;stroke-opacity:1"
       d="M 262.22852 351.6875 L 241.4375 361.67383 L 182.52734 552.4082 L 247.77734 552.96875 L 262.22852 351.6875 z "
       transform="scale(0.26458333)" />
    <path
       id="path940"
       style="opacity:0.11290323;fill:#000000;stroke:none;stroke-width:0.999999px;stroke-linecap:butt;stroke-linejoin:miter;stroke-opacity:1"
       d="M 262.22852 351.6875 L 254.54883 355.375 L 254.54883 355.37695 L 248.28125 358.38672 L 251.0957 369.64062 L 247.95703 377.60742 L 247.71484 388.71484 C 247.71484 388.71484 248.43945 399.09702 248.43945 400.78711 C 248.43945 402.47716 247.95628 418.6534 247.71484 419.61914 C 247.47341 420.58492 246.02509 429.51803 245.30078 432.17383 C 244.57647 434.82966 237.60547 480.70313 237.60547 480.70312 L 242.47852 495.74414 C 242.43925 496.29223 242.39311 496.87711 242.375 497.30664 C 241.92727 507.92466 246.405 525.6214 241.92773 543.31836 C 241.16272 546.34217 240.44017 549.58059 239.77148 552.90039 L 247.77734 552.96875 L 250.17969 519.51562 L 250.17969 519.51367 L 262.22852 351.6875 z "
       transform="scale(0.26458333)" />
    <g
       id="g977"
       transform="translate(14.303692,5.679254)">
      <path
         id="rect959"
         style="opacity:1;fill:#782121;fill-opacity:1;stroke:none;stroke-width:0.264999"
         transform="rotate(-8.7429282)"
         d="M -2.2108893,135.51689 H 39.546786 v 25.80766 H -2.2108893 Z" />
      <path
         style="fill:#ffffff;stroke:none;stroke-width:0.264583px;stroke-linecap:butt;stroke-linejoin:miter;stroke-opacity:1"
         d="m 18.940525,134.73963 39.839176,-5.94928 1.692309,4.25155 -36.547682,5.42864 -4.006481,1.40432 z"
         id="path970"
         sodipodi:nodetypes="cccccc" />
      <path
         style="fill:#cccccc;stroke:none;stroke-width:0.264583px;stroke-linecap:butt;stroke-linejoin:miter;stroke-opacity:1"
         d="m 18.940525,134.73963 3.792896,24.8814 c 0,0 0.008,1.27761 1.301562,1.67686 0.244655,0.0755 0.452876,0.49613 0.759189,0.61063 1.313268,0.49089 3.041692,0.90652 3.041692,0.90652 l -3.911536,-24.3445 c 0,0 -1.937419,-0.56781 -2.739771,-1.1481 -0.924137,-0.66836 -2.244032,-2.58281 -2.244032,-2.58281 z"
         id="path968"
         sodipodi:nodetypes="ccssccac" />
      <path
         style="fill:#a02c2c;fill-opacity:1;stroke:none;stroke-width:0.264583px;stroke-linecap:butt;stroke-linejoin:miter;stroke-opacity:1"
         d="m 22.336357,159.78606 c 0,0 0.849017,1.59592 1.558695,2.10405 1.083355,0.77568 3.807257,1.21774 3.807257,1.21774 l -0.122812,-0.8466 c 0,0 -2.466833,-0.31849 -3.464642,-0.98652 -0.852416,-0.57069 -1.906891,-2.41546 -1.906891,-2.41546 z"
         id="path965"
         sodipodi:nodetypes="caccacc" />
      <path
         id="rect961"
         style="opacity:1;fill:#a02c2c;fill-opacity:1;stroke:none;stroke-width:0.264999"
         transform="rotate(-8.7429282)"
         d="M 2.5877945,139.61571 H 44.34547 v 25.80766 H 2.5877945 Z" />
    </g>
    <path
       style="fill:#deaa87;stroke:none;stroke-width:0.264583px;stroke-linecap:butt;stroke-linejoin:miter;stroke-opacity:1"
       d="m 49.720133,167.58289 3.362256,-0.53563 c 0,0 0.623951,-2.21752 0.57082,-3.80768 -0.05313,-1.59017 -1.111984,-4.86127 -1.114011,-5.16211 -0.002,-0.30083 0.622263,-1.33841 1.176816,-1.62048 0.611855,-0.31121 1.997863,0.11132 1.997863,0.11132 0,0 1.014395,-0.85917 1.609645,-0.99052 0.673052,-0.14852 2.041763,0.26781 2.041763,0.26781 0,0 0.795821,-0.83636 1.295563,-0.95084 0.514392,-0.11784 1.548693,0.31845 1.548693,0.31845 0,0 0.947486,-1.07137 1.5388,-1.04118 0.873487,0.0446 2.151044,1.76391 2.151044,1.76391 l 3.870297,9.11083 c 0,0 -1.128654,1.07514 -1.8029,1.34128 -0.730553,0.28837 -2.303887,0.22721 -2.303887,0.22721 0,0 -1.055519,1.10375 -1.759347,1.20547 -0.645005,0.0932 -1.945903,-0.1409 -1.945903,-0.1409 0,0 -1.211589,0.8435 -1.889821,0.9054 -0.906591,0.0828 -2.654825,-0.73737 -2.654825,-0.73737 0,0 -2.271399,0.79972 -3.718107,0.62295 -1.685425,-0.73014 -3.974759,-0.88792 -3.974759,-0.88792 z"
       id="path985"
       sodipodi:nodetypes="cczzacacacaccscscaccc" />
    <path
       id="path993"
       style="opacity:0.0709677;fill:#000000;stroke:none;stroke-width:0.999995px;stroke-linecap:butt;stroke-linejoin:miter;stroke-opacity:1"
       d="M 251.08789 612.51172 C 251.08789 612.51172 247.23916 619.09973 244.88281 619.79883 C 241.35894 620.8444 235.2207 618.36133 235.2207 618.36133 C 235.2207 618.36133 230.22976 622.75209 227.03906 623.55664 C 222.71944 624.64601 215.74805 621.77734 215.74805 621.77734 C 215.74805 621.77734 211.52504 625.01341 208.96875 625.1582 C 206.52195 625.29676 204.16866 622.67784 202.38281 622.79492 C 201.75592 627.28929 200.62695 631.35938 200.62695 631.35938 L 187.91797 633.38477 C 187.91797 633.38477 196.5713 633.98065 202.94141 636.74023 C 208.40928 637.40834 216.99414 634.38477 216.99414 634.38477 C 216.99414 634.38477 223.60086 637.48482 227.02734 637.17188 C 229.59074 636.93792 234.16992 633.75 234.16992 633.75 C 234.16992 633.75 239.08758 634.63546 241.52539 634.2832 C 244.18553 633.89875 248.17383 629.72656 248.17383 629.72656 C 248.17383 629.72656 254.12167 629.95904 256.88281 628.86914 C 259.43114 627.86326 263.69727 623.79883 263.69727 623.79883 L 259.66992 614.31836 C 255.80132 613.75477 251.08789 612.51172 251.08789 612.51172 z "
       transform="scale(0.26458333)" />
    <path
       style="opacity:0.14193548;fill:#000000;stroke:none;stroke-width:0.264583px;stroke-linecap:butt;stroke-linejoin:miter;stroke-opacity:1"
       d="m 63.239296,156.12991 c 0.200689,0.65814 2.077874,5.39448 2.077874,5.39448 l 1.191148,3.76423 -1.156773,-4.73984 z"
       id="path991" />
    <path
       style="fill:#2c5aa0;stroke:none;stroke-width:0.264583px;stroke-linecap:butt;stroke-linejoin:miter;stroke-opacity:1"
       d="m 65.381595,163.45886 -0.115368,1.25466 0.188268,1.04011 c 0,0 -0.141467,1.0311 -0.121861,1.64828 0.0124,0.3902 0.205977,0.99952 0.219318,1.41948 0.0148,0.46603 -0.127941,0.99437 -0.112131,1.49203 0.01308,0.41174 0.184571,0.78823 0.198234,1.21832 l 0.790691,24.88939 c 0,0 -0.488037,14.17155 -1.214229,23.89689 -0.05846,0.78288 -0.321724,1.31109 -0.383137,2.02663 -0.06388,0.74422 0.07399,1.67261 0.0072,2.32256 -0.0884,0.86029 -0.608337,1.5155 -0.701238,2.16615 -0.159071,1.11407 0.104875,1.9966 -0.06469,2.29451 -1.308934,2.29969 -2.617877,3.83282 -2.617877,3.83282 0,0 20.818404,4.13157 34.032412,2.55521 4.026574,-0.48035 17.277993,-3.06626 17.277993,-3.06626 0,0 16.77374,1.67329 25.13164,1.02209 4.7937,-0.3735 14.13654,-1.78865 14.13654,-2.81074 0,-0.76401 -2.93952,-34.76352 -4.91993,-57.75433 -0.0742,-0.8609 -0.37282,-2.42909 -0.44408,-3.2568 -0.0891,-1.0345 0.54701,-0.73132 0.46319,-1.70579 -0.0762,-0.88619 -0.647,-2.3329 -0.71827,-3.16229 -0.0216,-0.25114 0.22429,-0.63334 0.19728,-0.94611 -0.13949,-1.61555 -0.59932,-3.69859 -0.59932,-3.69859 z"
       id="path1011"
       sodipodi:nodetypes="cccsssscssssscscssssssscc" />
    <path
       id="rect1023"
       style="opacity:0.0967742;fill:#000000;fill-opacity:1;stroke:none;stroke-width:1.00157"
       d="m 553.96875,617.77344 c -0.19771,0.60249 -0.38893,1.18537 -0.34961,1.64258 0.0359,0.41762 0.12209,0.898 0.22266,1.39648 0.17252,-0.53924 0.32465,-1.08919 0.28125,-1.5918 -0.0405,-0.46937 -0.1008,-0.96139 -0.1543,-1.44726 z m -306.8457,2.52539 -0.20703,2.24023 0.71289,3.93164 c 0,0 -0.53504,3.89587 -0.46094,6.22852 0.0469,1.47477 0.7777,3.77798 0.82812,5.36523 0.0559,1.76138 -0.48358,3.75971 -0.42382,5.64063 0.0494,1.55618 0.69836,2.97798 0.75,4.60351 l 2.98828,94.07032 c 0,0 -1.84518,53.56117 -4.58985,90.31836 -0.22095,2.95891 -1.21515,4.95575 -1.44726,7.66015 -0.24144,2.8128 0.27982,6.32279 0.0273,8.7793 -0.33411,3.25149 -2.29927,5.7264 -2.65039,8.18555 -0.60121,4.21065 0.39674,7.54591 -0.24414,8.67187 -4.94715,8.69174 -9.89453,14.48633 -9.89453,14.48633 0,0 38.26205,7.58742 78.35742,10.16406 1.2e-4,0.004 -1.2e-4,0.009 0,0.0137 17.32682,1.10444 34.98042,1.27549 50.02734,-0.51953 15.21855,-1.81549 65.30274,-11.58789 65.30274,-11.58789 0,0 4.5267,0.44387 11.55273,1.04297 -3.3e-4,-5.8e-4 -0.0116,-0.0213 -0.0117,-0.0215 4.77889,0.40829 10.83627,0.89411 17.55665,1.36914 0.29717,0.021 0.58493,0.0416 0.88476,0.0625 9.94744,0.69518 21.31602,1.35527 32.39844,1.70898 0.71198,0.0224 1.42397,0.0447 2.13281,0.0644 1.28846,0.0365 2.56947,0.0686 3.84375,0.0957 1.43153,0.0298 2.84646,0.0517 4.25195,0.0684 0.7418,0.009 1.49546,0.024 2.22852,0.0293 2.26419,0.0151 4.48053,0.008 6.63672,-0.0176 0.32992,-0.004 0.64763,-0.0109 0.97461,-0.0156 2.00577,-0.0307 3.95929,-0.0782 5.83594,-0.15039 0.27778,-0.0104 0.55932,-0.0199 0.83398,-0.0312 0.9455,-0.0401 1.87985,-0.0828 2.78516,-0.13477 0.01,-5.6e-4 0.0193,-0.001 0.0293,-0.002 0.0288,-0.002 0.0552,-0.004 0.084,-0.006 1.01607,-0.059 2.00875,-0.12637 2.96875,-0.20117 18.11792,-1.41165 53.42968,-6.76003 53.42968,-10.62305 0,-2.88759 -11.11068,-131.3888 -18.5957,-218.2832 -0.28044,-3.2538 -1.4084,-9.18024 -1.67773,-12.30859 -0.33676,-3.90993 2.0668,-2.76423 1.75,-6.44727 -0.28723,-3.34042 -2.43224,-8.78705 -2.71094,-11.92578 l -53.53516,8.21875 -4.17382,7.31836 -11.83008,56.2539 c 0,0 20.27956,-25.83293 30.41992,-24.86718 10.1404,0.96574 25.83398,13.51953 25.83398,13.51953 l -19.55664,26.80078 -15.45117,53.59961 c 0,0 10.86359,-17.38409 17.86523,-17.14258 7.00173,0.24144 20.52341,6.51784 23.66211,13.51953 3.13868,7.00169 -4.58819,23.17789 -5.3125,25.10938 -0.7243,1.93149 -15.45117,20.03906 -15.45117,20.03906 l -12.07226,28.00781 c 0,0 21.24711,-13.27975 25.35156,-12.79687 4.10442,0.48287 16.41617,7.24354 18.34766,8.93359 1.93152,1.69005 7.00195,32.5951 7.00195,34.28516 0,1.69009 -16.41707,12.31317 -17.38281,12.55468 -0.96575,0.24144 -50.94336,2.89649 -50.94336,2.89649 0,0 -16.65836,-3.86268 -18.58985,-5.55274 -1.93149,-1.69009 -41.79644,-4.16285 -45.41802,-5.37003 -0.47785,-0.15928 -1.52683,-0.1418 -2.94726,-0.006 -0.8623,-8.75288 -1.95189,-19.49184 -2.39453,-21.70508 -0.68289,-3.41442 -1.36524,-4.09701 -1.36524,-20.48632 0,-16.38936 -1.36488,-14.34116 -4.77929,-30.73047 -3.41447,-16.38936 -6.82955,-14.34033 -8.19532,-20.48633 -1.36577,-6.146 -1.36585,-4.43944 -2.04877,-7.17098 -0.68289,-2.73158 -6.14521,-13.65673 -6.82813,-19.80274 -0.68285,-6.146 -7.5e-4,-10.24446 -0.68359,-14.34179 -0.68293,-4.09732 -3.41477,-19.12016 -4.09766,-23.9004 -0.68288,-4.78023 -5.46289,0.68165 -5.46289,0.68164 0,0 -4.78068,10.24404 -6.14648,25.26758 -1.36577,15.02355 -1.36481,7.51286 -12.29102,21.85352 -10.92622,14.34066 -10.92644,12.29096 -19.12109,19.80273 -8.19468,7.51178 -2.04883,10.24414 -2.04883,10.24414 0,0 -2.04953,9.56067 -2.73242,19.1211 -0.68289,9.56043 0.68321,10.24332 4.09765,24.58398 3.41444,14.34066 10.24476,9.56013 25.95117,20.48633 15.70647,10.92624 2.04688,14.33984 2.04688,14.33984 0,0 -21.16776,6.83008 -26.63086,6.83008 -5.10378,0 -37.01293,5.36078 -44.53125,6.06641 -6.285,-2.28856 -11.39798,-4.41396 -11.58984,-5.27735 -0.48288,-2.17296 -9.13768,-16.80768 -17.14063,-21.00586 -5.36268,-2.81312 -13.81562,2.82114 -18.10937,-1.44921 -8.7049,-8.65745 -5.35563,-24.62201 -3.13868,-36.69727 1.70957,-9.31167 7.07021,-17.71164 12.31446,-25.59375 7.92614,-11.913 28.48828,-32.10937 28.48828,-32.10937 l -19.55469,4.58593 c 0,0 -15.04496,1.907 -19.55664,-2.89648 -7.18826,-7.65319 -3.57981,-20.92778 -2.65625,-31.38672 0.76929,-8.71187 1.20108,-18.59956 6.75977,-25.35156 7.00037,-8.50317 29.69726,-14.48633 29.69726,-14.48633 0,0 -21.63174,-11.8636 -28.73047,-21.48828 -8.20159,-11.11998 -7.72317,-27.22966 -13.13086,-39.60938 l -8.13281,-1.44922 c 0.0765,-0.66421 0.17188,-1.49414 0.17188,-1.49414 z"
       transform="scale(0.26458333)"
       sodipodi:nodetypes="cscsccccsssccssssscccscccsccccccccccssssssssccccscccsssccsssscsscsssssssscssscssscscsssssccssscscccc" />
    <path
       id="path1016"
       style="opacity:0.219355;fill:#000000;stroke:none;stroke-width:0.264583px;stroke-linecap:butt;stroke-linejoin:miter;stroke-opacity:1"
       d="m 146.07635,159.24267 -80.630732,3.32176 -0.115755,1.2547 0.188619,1.04025 c 0,0 -0.02523,0.21958 -0.04548,0.39532 l 36.069638,6.42339 45.10629,-6.92516 c -0.0818,-0.31999 -0.14962,-0.62217 -0.17053,-0.86558 -0.0216,-0.25115 0.22389,-0.63343 0.19688,-0.9462 -0.13949,-1.61555 -0.59893,-3.69848 -0.59893,-3.69848 z" />
    <path
       style="fill:#ff6600;stroke:none;stroke-width:0.264583px;stroke-linecap:butt;stroke-linejoin:miter;stroke-opacity:1"
       d="m 69.381475,93.050674 -4.047114,56.370516 c 0,0 -0.752447,3.5319 -0.924375,5.32534 -0.09801,1.02241 -0.0594,3.08072 -0.0594,3.08072 0,0 -0.37115,1.43271 -0.399536,2.16651 -0.04564,1.17978 0.371354,3.52247 0.371354,3.52247 l 37.220276,6.62851 45.53159,-6.98987 c 0,0 0.23399,-3.68345 0.10485,-5.51887 -0.15079,-2.14303 -1.02357,-6.3632 -1.02357,-6.3632 0,0 0.30497,-3.7381 0.1543,-5.59907 -0.14096,-1.74098 -0.98515,-5.14658 -0.98515,-5.14658 l -3.67085,-47.476475 -36.85891,-9.034047 c 0,0 -23.884393,5.085249 -35.41347,9.034046 z"
       id="path895"
       sodipodi:nodetypes="ccacacccscsccccc" />
    <path
       id="path917"
       style="opacity:0.112903;fill:#000000;stroke:none;stroke-width:0.999999px;stroke-linecap:butt;stroke-linejoin:miter;stroke-opacity:1"
       d="M 396.07617 317.54297 C 396.07617 317.54297 391.76271 318.48989 389.05273 319.08203 C 387.02662 319.52168 384.13603 320.15238 380.74609 320.90234 C 380.73651 320.90448 380.72248 320.90802 380.71289 320.91016 C 380.69249 320.91451 380.67361 320.91783 380.64648 320.92383 C 380.61118 320.93183 380.59585 320.93556 380.56055 320.94336 C 380.53965 320.94836 380.53077 320.95038 380.50977 320.95508 C 376.7843 321.7853 372.34119 322.79058 367.64844 323.86133 C 367.57414 323.87833 367.49443 323.89706 367.41992 323.91406 C 366.13199 324.2082 364.81504 324.51077 363.46875 324.82031 C 358.09127 326.05707 352.34374 327.39413 346.25391 328.8418 C 342.39659 329.75863 338.45487 330.7039 334.42773 331.68555 C 334.35368 331.7036 334.27722 331.72216 334.20312 331.74023 C 334.16324 331.74998 334.12332 331.75993 334.08398 331.76953 C 333.92704 331.8081 333.77017 331.84693 333.61523 331.88477 C 333.29233 331.96457 332.9701 332.04479 332.65039 332.12305 C 332.45348 332.17125 332.25183 332.22316 332.05469 332.27148 C 328.77591 333.07519 325.47002 333.89352 322.14453 334.72852 C 320.68264 335.09561 319.21989 335.46983 317.75586 335.8418 C 314.89264 336.56925 312.03439 337.30457 309.18555 338.04688 C 309.18432 338.04719 309.18286 338.04656 309.18164 338.04688 C 307.69514 338.43418 306.21437 338.82265 304.73828 339.21289 C 304.71918 339.21789 304.70074 339.22352 304.68164 339.22852 C 301.86552 339.97329 299.08799 340.72303 296.33203 341.47461 C 295.1259 341.80352 293.90902 342.13147 292.71875 342.46094 C 292.53296 342.51237 292.33967 342.56185 292.1543 342.61328 C 292.0443 342.64289 291.93389 342.67319 291.82617 342.70312 C 291.76005 342.72122 291.69231 342.73964 291.62695 342.75781 C 291.61795 342.75981 291.61016 342.76264 291.60156 342.76562 C 290.96954 342.94149 290.3457 343.11708 289.71875 343.29297 C 286.57425 344.17509 283.47247 345.05781 280.49023 345.93555 C 277.58262 346.79132 274.8094 347.63864 272.10156 348.48242 C 272.05346 348.49742 272.00366 348.51234 271.95508 348.52734 C 271.93958 348.53234 271.9237 348.53632 271.9082 348.54102 C 271.86407 348.55467 271.81974 348.56834 271.77539 348.58203 C 271.76811 348.58428 271.7612 348.58759 271.75391 348.58984 C 271.34207 348.71699 270.92237 348.84448 270.52148 348.9707 C 270.51427 348.97298 270.50721 348.97429 270.5 348.97656 C 270.49546 348.97775 270.49093 348.97891 270.48633 348.98047 C 270.47573 348.98347 270.46518 348.98723 270.45508 348.99023 C 269.90022 349.16539 269.36883 349.33931 268.82422 349.51367 C 268.79182 349.52407 268.76267 349.53472 268.73047 349.54492 C 266.49036 350.26417 264.2915 350.98091 262.22852 351.6875 L 246.93359 564.74219 C 246.93359 564.74219 244.08926 578.09078 243.43945 584.86914 C 243.34685 585.8352 243.28646 587.04563 243.24805 588.31836 C 243.20959 589.59212 243.19241 590.92595 243.1875 592.14062 C 243.17768 594.56851 243.21484 596.51172 243.21484 596.51172 C 243.21484 596.51172 241.81236 601.92775 241.70508 604.70117 C 241.66195 605.81592 241.72818 607.20505 241.85156 608.66211 C 242.22205 613.03352 243.10742 618.01367 243.10742 618.01367 L 383.7832 643.06641 L 398.21094 640.85156 C 384.60854 640.93517 371.02529 640.00504 360.61719 638.29883 C 331.5879 632.87087 299.82746 624.6318 279.10156 603.59375 C 273.12338 597.52554 265.48852 584.45794 269.44336 579.93359 C 278.44626 569.63423 332.58984 546.63477 332.58984 546.63477 C 332.58984 546.63477 300.48128 555.06442 292.75977 538.99023 C 288.53584 530.19711 295.32234 522.59603 300.21289 516.32422 C 313.59588 499.16142 355.39453 481.42578 355.39453 481.42578 C 355.39453 481.42578 298.20295 493.59789 282 475.14844 C 262.75666 453.23705 271.35815 413.04771 285.86133 387.74805 C 301.3059 360.80622 364.09961 337.16797 364.09961 337.16797 C 364.09961 337.16797 381.20443 336.40815 402.49609 336.37109 C 423.78775 336.33409 449.26625 337.01974 466.00977 339.91016 C 479.14064 342.17693 494.09914 343.39647 504.01758 352.29492 C 509.32956 357.06062 512.50351 364.68469 512.8125 371.81445 C 513.55085 388.85154 505.64718 406.10028 495.91211 420.10156 C 486.12371 434.17953 456.31641 452.9375 456.31641 452.9375 C 456.31641 452.9375 505.64326 447.39759 521.50586 462.59375 C 530.73784 471.43786 533.63302 488.4432 528.74805 500.25781 C 524.8076 509.78803 511.95875 512.26966 503.15625 517.64258 C 491.10571 524.99806 465.97266 537.92383 465.97266 537.92383 C 465.97266 537.92383 521.39884 527.55827 534.06055 546.61523 C 545.70879 564.14683 531.46921 592.02039 517.16016 607.45703 C 508.55781 616.73726 492.38972 623.825 476.49023 628.83398 L 555.87109 616.64844 C 555.87109 616.64844 556.75567 602.72608 556.26758 595.78906 C 556.1963 594.7761 556.08235 593.64167 555.9375 592.42969 C 555.79274 591.21842 555.6166 589.93236 555.42188 588.61523 C 555.03248 585.98089 554.5671 583.22657 554.11914 580.72656 C 553.2231 575.72681 552.39844 571.74023 552.39844 571.74023 C 552.39844 571.74023 552.68732 568.20814 552.9043 563.79688 C 553.01279 561.59124 553.10288 559.16518 553.13086 556.85156 C 553.15884 554.53794 553.12479 552.33652 552.98242 550.57812 C 552.84927 548.93361 552.54966 546.89499 552.17578 544.76367 C 552.17567 544.76305 552.17589 544.76234 552.17578 544.76172 C 551.05365 538.36562 549.25781 531.12695 549.25781 531.12695 L 535.38477 351.6875 L 532.36523 350.94727 L 459.54883 333.09961 L 396.07617 317.54297 z "
       transform="scale(0.26458333)" />
    <path
       style="opacity:0.14193548;fill:#000000;stroke:none;stroke-width:0.264583px;stroke-linecap:butt;stroke-linejoin:miter;stroke-opacity:1"
       d="m 55.182002,157.19172 c 0,0 1.622237,3.80725 1.911341,5.83267 0.193404,1.35496 -0.135922,4.10384 -0.135922,4.10384 0,0 0.618446,-2.83505 0.427907,-4.24409 -0.272655,-2.0163 -2.142311,-5.48144 -2.203328,-5.69242 z"
       id="path987"
       sodipodi:nodetypes="cacacc" />
    <path
       style="opacity:0.14193548;fill:#000000;stroke:none;stroke-width:0.264583px;stroke-linecap:butt;stroke-linejoin:miter;stroke-opacity:1"
       d="m 59.657017,156.48476 c 0,0 1.654132,3.48035 2.115379,5.33785 0.381309,1.53557 0.518603,4.71821 0.518603,4.71821 0,0 0.125318,-3.24228 -0.253827,-4.7985 -0.455366,-1.86907 -2.380151,-5.25756 -2.380151,-5.25756 z"
       id="path989"
       sodipodi:nodetypes="cacacc" />
    <path
       id="path1043"
       style="opacity:0.280645;fill:#000000;stroke:#000000;stroke-width:0.999999px;stroke-linecap:butt;stroke-linejoin:miter;stroke-opacity:1"
       d="M 403.84961 746.54492 C 403.84961 746.54492 415.4396 847.53013 417.37109 857.74219 C 419.30258 867.95424 419.30273 867.95407 419.30273 879.30078 C 419.30273 879.54317 419.29395 879.6596 419.29297 879.88281 C 423.05083 879.16082 426.19922 878.55078 426.19922 878.55078 C 426.19922 878.55078 429.20847 878.82168 430.4082 878.93555 C 430.37972 878.89001 429.92578 878.16602 429.92578 878.16602 L 411.57617 748.81445 L 403.84961 746.54492 z "
       transform="scale(0.26458333)" />
  </g>
</svg>
