<?xml version="1.0" encoding="UTF-8" standalone="no"?>
<svg
   xmlns:dc="http://purl.org/dc/elements/1.1/"
   xmlns:cc="http://creativecommons.org/ns#"
   xmlns:rdf="http://www.w3.org/1999/02/22-rdf-syntax-ns#"
   xmlns:svg="http://www.w3.org/2000/svg"
   xmlns="http://www.w3.org/2000/svg"
   xmlns:xlink="http://www.w3.org/1999/xlink"
   xmlns:sodipodi="http://sodipodi.sourceforge.net/DTD/sodipodi-0.dtd"
   xmlns:inkscape="http://www.inkscape.org/namespaces/inkscape"
   width="1920"
   height="1080"
   viewBox="0 0 508 285.75"
   version="1.1"
   id="svg8"
   inkscape:version="1.0.2-2 (e86c870879, 2021-01-15)"
   sodipodi:docname="nature-fields.svg">
  <defs
     id="defs2">
    <linearGradient
       inkscape:collect="always"
       id="linearGradient1173">
      <stop
         style="stop-color:#5aa02c;stop-opacity:1"
         offset="0"
         id="stop1169" />
      <stop
         style="stop-color:#2d5016;stop-opacity:1"
         offset="1"
         id="stop1171" />
    </linearGradient>
    <linearGradient
       inkscape:collect="always"
       id="linearGradient1032">
      <stop
         style="stop-color:#d7eef4;stop-opacity:1"
         offset="0"
         id="stop1028" />
      <stop
         style="stop-color:#aaccff;stop-opacity:1"
         offset="1"
         id="stop1030" />
    </linearGradient>
    <linearGradient
       inkscape:collect="always"
       id="linearGradient960">
      <stop
         style="stop-color:#22280b;stop-opacity:1;"
         offset="0"
         id="stop956" />
      <stop
         style="stop-color:#22280b;stop-opacity:0;"
         offset="1"
         id="stop958" />
    </linearGradient>
    <linearGradient
       inkscape:collect="always"
       id="linearGradient952">
      <stop
         style="stop-color:#445500;stop-opacity:1;"
         offset="0"
         id="stop948" />
      <stop
         style="stop-color:#445500;stop-opacity:0;"
         offset="1"
         id="stop950" />
    </linearGradient>
    <linearGradient
       inkscape:collect="always"
       id="linearGradient848">
      <stop
         style="stop-color:#ffffff;stop-opacity:1"
         offset="0"
         id="stop844" />
      <stop
         style="stop-color:#ffffff;stop-opacity:0"
         offset="1"
         id="stop846" />
    </linearGradient>
    <linearGradient
       inkscape:collect="always"
       xlink:href="#linearGradient848"
       id="linearGradient850"
       x1="208.42839"
       y1="95.244942"
       x2="204.04602"
       y2="129.41006"
       gradientUnits="userSpaceOnUse"
       gradientTransform="matrix(1.1380607,0,0,1.1380607,170.82674,-40.681865)" />
    <linearGradient
       inkscape:collect="always"
       xlink:href="#linearGradient848"
       id="linearGradient870"
       gradientUnits="userSpaceOnUse"
       gradientTransform="matrix(0.92036357,0,0,1.1227206,184.94501,-41.1489)"
       x1="208.42839"
       y1="95.244942"
       x2="204.04602"
       y2="129.41006" />
    <linearGradient
       inkscape:collect="always"
       xlink:href="#linearGradient848"
       id="linearGradient920"
       gradientUnits="userSpaceOnUse"
       gradientTransform="matrix(-0.92036357,0,0,1.1227206,645.5328,-41.1489)"
       x1="208.42839"
       y1="95.244942"
       x2="204.04602"
       y2="129.41006" />
    <linearGradient
       inkscape:collect="always"
       xlink:href="#linearGradient848"
       id="linearGradient924"
       gradientUnits="userSpaceOnUse"
       gradientTransform="matrix(0.81013599,0.19172187,-0.22430763,1.0976475,213.97952,-93.986427)"
       x1="208.42839"
       y1="95.244942"
       x2="204.04602"
       y2="129.41006" />
    <linearGradient
       inkscape:collect="always"
       xlink:href="#linearGradient848"
       id="linearGradient930"
       gradientUnits="userSpaceOnUse"
       gradientTransform="matrix(-0.81013599,0.19172187,0.22430763,1.0976475,613.3254,-93.986427)"
       x1="208.42839"
       y1="95.244942"
       x2="204.04602"
       y2="129.41006" />
    <linearGradient
       inkscape:collect="always"
       xlink:href="#linearGradient952"
       id="linearGradient954"
       x1="827.46039"
       y1="314.26398"
       x2="765.74127"
       y2="140.38135"
       gradientUnits="userSpaceOnUse"
       gradientTransform="matrix(0.21054789,0,0,0.24320457,59.944826,-13.050423)" />
    <linearGradient
       inkscape:collect="always"
       xlink:href="#linearGradient960"
       id="linearGradient962"
       x1="825.34863"
       y1="332.97827"
       x2="817.66174"
       y2="269.88162"
       gradientUnits="userSpaceOnUse"
       gradientTransform="matrix(0.21054789,0,0,0.34875959,59.944826,-47.958131)" />
    <radialGradient
       inkscape:collect="always"
       xlink:href="#linearGradient1032"
       id="radialGradient1034"
       cx="251.88588"
       cy="166.83455"
       fx="251.88588"
       fy="166.83455"
       r="222.91602"
       gradientTransform="matrix(1.0589392,-0.00737684,0.00502974,0.72201498,-15.555056,40.62681)"
       gradientUnits="userSpaceOnUse" />
    <clipPath
       clipPathUnits="userSpaceOnUse"
       id="clipPath1038">
      <rect
         style="opacity:1;fill:url(#radialGradient1042);fill-opacity:1;stroke:none;stroke-width:0.264999"
         id="rect1040"
         width="445.83203"
         height="250.36873"
         x="29.09988"
         y="14.275413"
         rx="2.2961414"
         ry="2.7306087" />
    </clipPath>
    <radialGradient
       inkscape:collect="always"
       xlink:href="#linearGradient1032"
       id="radialGradient1042"
       gradientUnits="userSpaceOnUse"
       gradientTransform="matrix(1.0589392,-0.00737684,0.00502974,0.72201498,-15.555056,40.626811)"
       cx="251.88588"
       cy="166.83455"
       fx="251.88588"
       fy="166.83455"
       r="222.91602" />
    <clipPath
       clipPathUnits="userSpaceOnUse"
       id="clipPath1050">
      <rect
         style="opacity:1;fill:url(#radialGradient1054);fill-opacity:1;stroke:none;stroke-width:0.264999"
         id="rect1052"
         width="445.83203"
         height="250.36873"
         x="29.09988"
         y="14.275413"
         rx="2.2961414"
         ry="2.7306087" />
    </clipPath>
    <radialGradient
       inkscape:collect="always"
       xlink:href="#linearGradient1032"
       id="radialGradient1054"
       gradientUnits="userSpaceOnUse"
       gradientTransform="matrix(1.0589392,-0.00737684,0.00502974,0.72201498,-15.555056,40.626811)"
       cx="251.88588"
       cy="166.83455"
       fx="251.88588"
       fy="166.83455"
       r="222.91602" />
    <clipPath
       clipPathUnits="userSpaceOnUse"
       id="clipPath1056">
      <rect
         style="opacity:1;fill:url(#radialGradient1060);fill-opacity:1;stroke:none;stroke-width:0.264999"
         id="rect1058"
         width="445.83203"
         height="250.36873"
         x="29.09988"
         y="14.275413"
         rx="2.2961414"
         ry="2.7306087" />
    </clipPath>
    <radialGradient
       inkscape:collect="always"
       xlink:href="#linearGradient1032"
       id="radialGradient1060"
       gradientUnits="userSpaceOnUse"
       gradientTransform="matrix(1.0589392,-0.00737684,0.00502974,0.72201498,-15.555056,40.626811)"
       cx="251.88588"
       cy="166.83455"
       fx="251.88588"
       fy="166.83455"
       r="222.91602" />
    <linearGradient
       inkscape:collect="always"
       xlink:href="#linearGradient952"
       id="linearGradient1136"
       gradientUnits="userSpaceOnUse"
       gradientTransform="matrix(0.21054789,0,0,0.24320457,59.944826,-13.050423)"
       x1="827.46039"
       y1="314.26398"
       x2="765.74127"
       y2="140.38135" />
    <linearGradient
       inkscape:collect="always"
       xlink:href="#linearGradient960"
       id="linearGradient1138"
       gradientUnits="userSpaceOnUse"
       gradientTransform="matrix(0.21054789,0,0,0.34875959,59.944826,-47.958131)"
       x1="825.34863"
       y1="332.97827"
       x2="817.66174"
       y2="269.88162" />
    <linearGradient
       inkscape:collect="always"
       xlink:href="#linearGradient848"
       id="linearGradient1140"
       gradientUnits="userSpaceOnUse"
       gradientTransform="matrix(1.1380607,0,0,1.1380607,170.82674,-40.681865)"
       x1="208.42839"
       y1="95.244942"
       x2="204.04602"
       y2="129.41006" />
    <linearGradient
       inkscape:collect="always"
       xlink:href="#linearGradient848"
       id="linearGradient1142"
       gradientUnits="userSpaceOnUse"
       gradientTransform="matrix(0.92036357,0,0,1.1227206,184.94501,-41.1489)"
       x1="208.42839"
       y1="95.244942"
       x2="204.04602"
       y2="129.41006" />
    <linearGradient
       inkscape:collect="always"
       xlink:href="#linearGradient848"
       id="linearGradient1144"
       gradientUnits="userSpaceOnUse"
       gradientTransform="matrix(-0.92036357,0,0,1.1227206,645.5328,-41.1489)"
       x1="208.42839"
       y1="95.244942"
       x2="204.04602"
       y2="129.41006" />
    <linearGradient
       inkscape:collect="always"
       xlink:href="#linearGradient848"
       id="linearGradient1146"
       gradientUnits="userSpaceOnUse"
       gradientTransform="matrix(0.81013599,0.19172187,-0.22430763,1.0976475,213.97952,-93.986427)"
       x1="208.42839"
       y1="95.244942"
       x2="204.04602"
       y2="129.41006" />
    <linearGradient
       inkscape:collect="always"
       xlink:href="#linearGradient848"
       id="linearGradient1148"
       gradientUnits="userSpaceOnUse"
       gradientTransform="matrix(-0.81013599,0.19172187,0.22430763,1.0976475,613.3254,-93.986427)"
       x1="208.42839"
       y1="95.244942"
       x2="204.04602"
       y2="129.41006" />
    <clipPath
       clipPathUnits="userSpaceOnUse"
       id="clipPath1154">
      <rect
         style="opacity:1;fill:url(#radialGradient1158);fill-opacity:1;stroke:none;stroke-width:0.264999"
         id="rect1156"
         width="445.83203"
         height="250.36873"
         x="29.09988"
         y="14.275413"
         rx="2.2961414"
         ry="2.7306087" />
    </clipPath>
    <radialGradient
       inkscape:collect="always"
       xlink:href="#linearGradient1032"
       id="radialGradient1158"
       gradientUnits="userSpaceOnUse"
       gradientTransform="matrix(1.0589392,-0.00737684,0.00502974,0.72201498,-15.555056,40.626811)"
       cx="251.88588"
       cy="166.83455"
       fx="251.88588"
       fy="166.83455"
       r="222.91602" />
    <radialGradient
       inkscape:collect="always"
       xlink:href="#linearGradient1173"
       id="radialGradient1175"
       cx="258.60455"
       cy="3.3425155"
       fx="258.60455"
       fy="3.3425155"
       r="222.91602"
       gradientTransform="matrix(1,0,0,0.2807882,0,114.91193)"
       gradientUnits="userSpaceOnUse" />
  </defs>
  <sodipodi:namedview
     id="base"
     pagecolor="#ffffff"
     bordercolor="#666666"
     borderopacity="1.0"
     inkscape:pageopacity="0.0"
     inkscape:pageshadow="2"
     inkscape:zoom="0.68149425"
     inkscape:cx="1032.5761"
     inkscape:cy="571.96453"
     inkscape:document-units="mm"
     inkscape:current-layer="layer1"
     inkscape:document-rotation="0"
     showgrid="false"
     inkscape:window-width="1920"
     inkscape:window-height="1017"
     inkscape:window-x="1077"
     inkscape:window-y="817"
     inkscape:window-maximized="1"
     units="px"
     inkscape:snap-global="true"
     inkscape:snap-bbox="true"
     inkscape:bbox-paths="true"
     inkscape:bbox-nodes="true"
     inkscape:snap-bbox-edge-midpoints="true"
     inkscape:snap-bbox-midpoints="true"
     inkscape:object-paths="true"
     inkscape:snap-intersection-paths="true"
     inkscape:snap-smooth-nodes="true"
     inkscape:snap-midpoints="true" />
  <metadata
     id="metadata5">
    <rdf:RDF>
      <cc:Work
         rdf:about="">
        <dc:format>image/svg+xml</dc:format>
        <dc:type
           rdf:resource="http://purl.org/dc/dcmitype/StillImage" />
        <dc:title></dc:title>
      </cc:Work>
    </rdf:RDF>
  </metadata>
  <g
     inkscape:label="Layer 1"
     inkscape:groupmode="layer"
     id="layer1">
    <rect
       style="opacity:1;fill:url(#radialGradient1034);fill-opacity:1;stroke:none;stroke-width:0.264999"
       id="rect1026"
       width="445.83203"
       height="250.36873"
       x="29.09988"
       y="14.275413"
       rx="2.2961414"
       ry="2.7306087" />
    <ellipse
       style="opacity:1;fill:url(#radialGradient1175);fill-opacity:1;stroke:none;stroke-width:0.264999"
       id="path1150"
       cx="247.07442"
       cy="159.77481"
       rx="312.96094"
       ry="62.592186"
       clip-path="url(#clipPath1154)"
       transform="translate(0,14.392471)" />
    <path
       style="fill:#a05a2c;stroke:none;stroke-width:0.264583px;stroke-linecap:butt;stroke-linejoin:miter;stroke-opacity:1"
       d="m 18.667845,191.61994 c -0.549054,-1.46414 -1.426021,-2.84444 -1.647162,-4.39243 -0.157439,-1.10207 0.256137,-2.2203 0.549054,-3.29433 3.727913,-13.66901 6.998246,-2.05675 8.784868,-3.84338 1.178929,-1.17893 0.495478,-2.70955 2.196217,-3.84338 1.63871,-1.09247 8.008064,3.29433 10.432031,3.29433 3.351602,0 6.136479,-2.51919 8.784868,-3.84338 1.701697,-0.85085 5.39601,1.00358 6.039599,1.64716 1.497885,1.49789 4.49893,-1.39926 5.490543,-1.64716 3.146102,-0.78653 7.518477,0.6332 9.882976,-0.54906 3.625752,-1.81287 10.734278,2.64453 15.373519,1.09811 1.449914,-0.4833 13.128043,-6.53939 13.177303,-6.58865 1.299395,-1.29939 4.666659,-7.96098 7.137709,-10.43203 1.29297,-1.29297 8.34859,0 10.43203,0 0.59137,0 6.26629,-3.38999 7.1377,-1.64716 0.73885,1.47768 3.27124,3.82029 4.39244,4.94149 1.5556,1.5556 0.78955,7.3782 2.19621,8.78486 0.45153,0.45153 2.70141,0.50519 3.29433,1.09811 0.73147,0.73147 1.31576,2.96292 2.19622,3.84338 2.43233,2.43233 7.79373,1.20509 9.88297,3.29433 0.69692,0.69691 0.73208,-1.83018 1.09811,-2.74527 0.47765,-1.19411 2.94037,-1.25697 2.19622,-2.74527 -0.2523,-0.50461 -2.79656,-2.69398 -2.19622,-3.29433 3.82777,-3.82777 13.91912,2.00346 17.02069,-1.09811 0.95839,-0.95839 1.03673,-6.38518 1.64716,-6.58865 11.94346,-3.98115 -4.47638,15.91058 14.82446,18.66785 6.82271,0.97467 3.38717,-5.37649 8.23582,-6.58866 3.49992,-0.87498 5.94865,2.44801 9.33392,3.29433 1.97637,0.49409 4.66939,-2.60679 7.68676,-1.09811 4.67198,2.33599 9.21348,3.23411 13.72636,5.49054 2.31323,1.15662 4.78415,-0.47092 7.1377,1.09811 0.58543,0.39029 3.66046,0.18264 3.84338,-0.54905 0.0951,-0.38052 -0.40124,-4.674 0,-4.94149 3.98178,-2.65452 6.49097,-5.49054 12.0792,-5.49054 1.64716,0 4.09403,-1.41243 4.94149,0 1.09765,1.82941 1.70147,4.9958 3.29432,6.58865 1.4316,1.4316 2.96001,-0.7638 3.29433,-1.09811 0.29845,-0.29845 21.50264,1.84888 25.2565,1.09811 0.11819,-0.0236 9.31724,-9.36725 10.98108,-6.0396 3.65596,7.31192 2.80471,1.15756 8.23581,6.58865 0.88945,0.88945 0.0685,2.88232 0.54907,3.84338 1.67912,3.35827 13.28399,3.7497 16.47161,3.29433 3.2944,-0.47063 -1.90275,-6.23839 12.0792,-8.23582 2.28466,-0.32638 14.55518,-1.08764 15.92258,1.64717 1.03237,2.06477 -0.15153,3.70326 3.29432,4.39243 2.32437,0.46488 32.57315,-0.45652 35.13947,-1.09811 2.46513,-0.61628 4.14322,-3.56041 6.58866,-2.74527 4.27265,1.42422 8.41396,3.71974 12.07918,4.94149 3.29433,1.09811 7.68678,-1.09811 10.98108,0 7.99031,2.66343 19.26087,0.94751 28.00178,2.19622 1.14284,0.16326 7.95938,2.47266 9.33392,1.09811 1.2528,-1.25281 1.12641,-4.13206 2.74529,-4.94149 0.59425,-0.29714 5.29182,-1.95048 5.49053,-2.74527 0.38282,-1.5313 -0.22202,-4.55596 1.64716,-5.49055 1.85637,-0.92818 4.57425,1.55626 6.58865,0.54906 1.9933,-0.99666 0.9306,-5.95584 3.29433,-7.13771 0.1845,-0.0923 -0.0241,5.77111 3.29433,4.94149 4.29845,-1.07461 13.44633,-0.96358 17.56973,1.09811 3.88414,1.94207 0.25416,7.81384 3.29433,9.33392 2.82927,1.41463 6.71719,0.3388 9.33392,1.64716 0,1.7e-4 0.43757,2.08474 0.54906,2.19622 1.29633,1.29634 11.97282,2.6389 13.17728,3.84338 0.62458,0.62456 -0.2219,4.05382 0,4.94149 0.50049,2.00186 2.71063,2.64131 3.29433,4.39243 0.61137,1.83407 -0.67593,2.3231 -1.64716,3.29433 -1.31078,1.31079 1.45534,6.89289 1.64716,8.23581 0.65884,4.61176 -2.4788,8.89389 -1.0981,13.72636 1.51284,5.29494 7.01162,8.53269 9.33392,13.1773 0.43235,0.8647 -1.86452,2.74153 -2.1962,3.29433 -2.40131,4.00218 -4.09379,11.12582 -3.29433,15.92257 1.33848,8.03089 6.42363,13.0693 4.94149,21.96219 -0.6935,4.16089 -3.80113,0.7602 -5.49055,1.0981 -0.9793,0.19584 -4.16293,12.19538 -9.88298,14.2754 -12.28125,4.46591 -24.61911,4.76885 -37.88474,7.13772 -12.24007,2.18573 -24.47507,4.21566 -36.78663,6.03959 -27.34583,4.05122 -56.31908,10.36556 -84.00532,6.03959 -14.52242,-2.26912 -27.18834,-7.91175 -41.17906,-12.07918 -15.67492,-4.66913 -32.10396,-6.89967 -48.31678,-8.78488 -20.25171,-2.35484 -40.74007,-1.06672 -60.94503,1.0981 -8.98055,0.96221 -18.32964,3.88567 -27.45271,2.74529 -3.63578,-0.45447 -7.55072,-7.06969 -10.98108,-8.78488 -4.4777,-2.23885 -11.14889,-2.57479 -15.92258,-2.74526 -45.46548,-1.62378 -89.611866,15.09418 -135.06735,16.47163 -13.801933,0.41823 -31.471942,2.52995 -43.924342,-4.94149 -2.58912,-1.55347 -0.866627,-10.1977 -1.098108,-12.62827 -0.48364,-5.0782 -2.69236,-9.19282 -4.392435,-13.72634 -3.609615,-9.62565 1.526312,-28.78258 8.235815,-36.23759 5.030376,-5.58931 12.438515,-8.71491 17.020682,-14.82446 5.1159589,-6.82128 -4.443074,-17.96688 -3.84338,-19.76596 0.873481,-2.62044 3.177684,-2.11845 4.941488,-3.29432 13.658097,-9.1054 14.0576792,-11.17278 30.197985,-7.13771 z"
       id="path1024"
       clip-path="url(#clipPath1038)" />
    <path
       style="opacity:0.203226;fill:#000000;stroke:#000000;stroke-width:0.264583px;stroke-linecap:butt;stroke-linejoin:miter;stroke-opacity:1"
       d="m 311.17436,226.92628 c 3.90853,0.46111 6.50426,2.75044 9.90013,3.8824 0.90556,0.30186 1.97279,2.08114 3.30004,2.52356 1.57909,0.52637 4.10877,-0.16187 5.24124,0.9706 0.82756,0.82758 1.71236,1.72973 2.91179,2.32944 1.07741,0.5387 6.21803,-2.78032 8.73541,-1.9412 1.46092,0.48698 1.9395,2.52271 3.49416,3.30004 0.99859,0.4993 2.77064,0.63532 3.49414,1.35884 0.25249,0.25248 2.19366,0 2.7177,0 1.53246,0 4.35623,1.12192 5.82358,0.38824 2.96717,-1.48358 5.5803,-2.85097 8.92953,-3.68828 1.72948,-0.43237 2.95177,1.24275 4.46476,1.74708 2.40292,0.80097 8.00775,0.16971 9.90013,-0.77648 0.71528,-0.35764 0.94829,-1.13127 1.35882,-1.74708 0.40839,-0.61255 0.8889,-1.5121 1.7471,-1.9412 0.83576,-0.41788 1.96749,-0.005 2.91179,-0.19412 4.12102,-0.8242 7.76481,-2.72596 7.76481,-6.60008 0,-0.61495 0.2481,-2.02735 0,-2.52356 -2.8421,-5.68421 -9.12956,-8.04931 -14.75312,-10.09424 -8.72955,-3.17438 -17.238,-3.12869 -26.40033,-4.07652 -3.88898,-0.40231 -7.93282,-1.03966 -11.84132,-0.38824 -2.56535,0.42756 -5.53829,1.70908 -7.95891,2.71768 -0.87633,0.36513 -1.63414,1.25649 -2.52357,1.55296 -2.88052,0.96018 -5.60983,1.73726 -8.34715,3.10592 -3.72851,1.86425 -7.87588,3.60524 -10.6766,6.40596 -0.40701,0.40699 -0.19413,3.07425 -0.19413,3.68828 z"
       id="path1070" />
    <path
       style="opacity:0.216129;fill:#000000;stroke:none;stroke-width:0.264583px;stroke-linecap:butt;stroke-linejoin:miter;stroke-opacity:1"
       d="m 471.08855,159.44642 c -3.80217,3.8638 -3.4349,9.41778 -7.68676,13.01824 -0.63005,0.53353 -4.91556,-2.92996 -5.49052,-3.25456 -4.82219,-2.72228 -8.8601,-2.28222 -13.72637,0.46494 -1.34618,0.75996 0.51162,-2.29298 -0.54904,-1.39481 -0.86178,0.72974 -1.92831,4.8837 -2.74529,5.11431 -15.42399,4.35366 -12.21886,-7.7148 -19.2169,-6.97406 -5.16387,0.54659 -9.82536,2.66119 -14.82445,3.7195 -0.74993,0.15875 -1.06135,-3.26079 -3.84339,-2.78963 -3.94705,0.66847 -3.27519,4.18714 -6.58865,3.71949 -4.09985,-0.57862 -3.96576,-4.23625 -7.13772,-5.57924 -1.7998,-0.76203 -8.32379,2.17569 -8.78485,1.39482 -0.46538,-0.78815 0.45196,-1.88716 -1.0981,-2.32469 -2.19488,-0.61954 -15.16261,5.75785 -16.47164,4.64937 -7.85923,-6.65518 -20.65885,-3.44867 -21.96216,-4.18443 -0.83188,-0.46962 -2.03089,-1.82277 -3.29433,-1.39482 -1.41232,0.47838 -5.47785,3.02747 -7.13771,2.32469 -1.28882,-0.54568 -0.0535,-3.76481 -1.0981,-4.64937 -1.01727,-0.86141 -4.23363,1.22959 -6.0396,0.46494 -2.03059,-0.85975 -6.4458,-4.32582 -8.23581,-3.7195 -0.59248,0.20068 -3.18133,2.42038 -3.29433,2.32468 -4.10136,-3.473 -7.68739,-6.27691 -12.62824,-8.36886 -1.28233,-0.54293 -6.89624,4.90981 -7.68679,5.57924 -1.65234,1.39922 -6.94785,2.93306 -7.68675,4.18444 -1.24317,2.10544 -1.63325,5.00483 -3.29433,6.97405 -0.79869,0.94688 -3.07236,1.20934 -4.39242,0.92988 -1.87579,-0.39711 -9.84772,-0.43509 -10.98109,-1.39481 -0.71993,-0.60964 0.18286,-2.99637 -1.09812,-3.7195 -1.85453,-1.04694 -6.93447,0.63702 -8.2358,-0.46494 -0.53357,-0.45182 0.56653,-1.38741 -0.54906,-1.85975 -1.49635,-0.63355 -4.13647,-0.24819 -5.49054,-1.39481 -2.37353,-2.00989 -1.95188,-3.98915 -4.94149,-5.11431 -2.98084,-1.12184 -14.88044,-2.27728 -17.02068,-0.46493 -2.33727,1.97919 2.14478,8.92091 1.09811,10.69355 -0.77216,1.30772 -2.84813,-1.67083 -4.39244,-2.32469 -2.55738,-1.08278 -8.40027,-0.93661 -10.98108,0 -5.6233,2.04077 1.6304,6.27902 -9.88298,7.90394 -0.57088,0.0805 -1.23792,0.81147 -1.64716,0.46493 -0.9012,-0.76313 -7.73215,-7.22574 -8.23582,-7.43899 -0.39949,-0.16914 -3.60749,0.34955 -3.84338,0 -1.7204,-2.54945 -1.88452,-7.48925 -6.03959,-8.36887 -4.1368,-0.87575 -16.82554,3.00996 -18.66785,0.92988 -3.84562,-4.34194 -4.98219,-10.00476 -12.62825,-11.62343 -1.31301,-0.27796 -9.27792,9.25132 -9.88298,9.76368 -1.00927,0.85464 2.31632,3.20371 1.09811,3.71949 -1.79771,0.76115 -9.29229,1.25382 -9.88297,3.25456 -0.58852,1.9934 0.4225,2.43185 -1.09811,3.7195 -0.78719,0.66659 -2.19903,-0.2963 -3.29433,-0.46494 -13.19753,-2.03193 -2.13621,-3.68138 -10.98108,-9.29874 -1.46808,-0.93237 -5.57612,0.39248 -6.58865,-0.46494 -2.62979,-2.22689 -5.35114,-5.05528 -8.78487,-6.50912 -6.708358,-2.8403 -11.751033,-1.45536 -15.92257,3.25456 -0.603483,0.68138 -0.618847,3.31367 -1.098108,3.7195 -0.823582,0.69741 -4.117909,-0.6974 -4.941491,0 -2.12961,1.80335 -3.714652,5.00531 -6.039596,6.97406 -1.61332,1.36615 -4.879149,-4.78676 -6.039596,-5.11431 -1.012407,-0.28576 -0.579993,2.32468 -1.647163,2.32468 -1.655556,0 -13.642271,-0.72463 -14.275411,-1.39481 -5.028351,-5.32248 -12.074819,-6.9748 -20.315007,-5.57924 -5.597933,0.94806 -4.477523,4.6854 -8.78487,6.50912 -7.801251,3.30304 -15.7919191,-0.11064 -22.5112251,5.57924 -1.62593693,1.37684 3.3051837,7.4298 2.1962171,8.36887 -1.2369239,1.04742 -4.53167213,5.80837 -3.29432573,7.90393 1.06196263,1.79853 5.99460713,2.67533 6.58865143,4.18443 0.6097278,1.54895 -2.6249508,2.52846 -1.647163,4.18444 2.2884566,3.87571 17.8838543,10.10535 24.1583883,11.62343 4.265006,1.03188 13.966817,-2.44076 17.569738,0 1.14133,0.77317 3.315065,4.18442 4.941488,4.18442 2.102035,0 -0.555768,-7.44278 6.039596,-3.71949 1.211392,0.68387 1.997059,2.24036 3.294327,2.78963 0.517652,0.21916 -0.0297,-1.39482 0.549052,-1.39482 5.509917,0 7.912809,0.64728 13.177303,-2.32468 3.344371,-1.888 9.319091,2.7959 10.432032,2.32468 2.048174,-0.86719 2.428158,-3.18643 4.392435,-4.18443 3.160821,-1.60595 6.55098,4.32877 9.333921,5.11431 2.323147,0.65575 1.185017,-5.04071 2.745267,-3.7195 3.89698,3.29995 10.31826,-0.52917 10.43203,-0.46494 1.80999,1.0218 2.98605,2.42663 4.94149,3.25456 1.06452,0.45072 1.09829,-3.71933 2.19621,-2.78962 0.28546,0.24172 11.05983,6.39859 12.0792,6.97405 1.25846,0.71045 12.97769,-1.50754 13.72636,-1.85975 4.29668,-2.02133 2.40734,-2.84921 5.49054,-3.71949 2.21281,-0.6246 5.83811,1.50856 7.68676,0.46493 0.75512,-0.42628 0.41416,-2.84672 1.64716,-2.32468 1.73951,0.73651 3.24789,2.78963 4.94149,2.78963 2.08735,0 5.17545,0.49849 7.13771,0 1.18464,-0.30095 2.87481,-2.18103 4.39243,-1.85975 1.32002,0.27945 3.16521,5.30572 3.84338,5.11431 8.12636,-2.2938 1.61224,-4.21401 10.98109,3.71949 0.4671,0.39555 4.55103,-10.55925 6.03959,-9.29874 1.04405,0.88409 4.36992,1.31525 4.94149,1.85974 10.60092,10.09892 -1.33026,-0.19658 6.58865,6.50912 1.99523,1.68956 -0.82967,-6.39545 2.19622,-5.1143 15.0572,6.37519 5.71729,10.30954 11.53014,0.46494 0.69286,-1.17342 5.56126,3.38195 6.0396,3.7195 1.1505,0.81186 9.70513,-2.91537 12.07919,-3.7195 1.92536,-0.65216 5.5001,3.25455 7.13771,3.25455 2.38487,0 14.35919,-2.71867 16.47162,-0.92987 0.92398,0.78242 -0.17245,1.93948 1.64716,2.32468 1.37073,0.29019 3.15712,-1.44131 4.39243,-1.85974 1.10705,-0.37498 2.89335,1.60587 4.39246,1.85974 2.09497,0.35481 3.24088,-0.67478 4.94149,-1.39481 3.10012,-1.31259 5.94693,1.15155 8.78485,0.46495 3.24781,-0.78579 4.51088,-3.6314 7.13772,-5.11431 0.64606,-0.36474 1.0981,0.92987 1.64716,1.39481 1.2224,1.03513 3.86715,1.98102 5.49053,2.32468 3.2762,0.69357 4.42658,3.84408 8.78488,2.78963 1.41798,-0.34308 4.39777,-2.78661 6.03959,-1.85976 0.62786,0.35446 0.0156,1.40791 0.54906,1.85976 1.33729,1.13241 3.33555,0.47656 4.94149,0.92987 2.5607,0.72279 2.8511,3.76431 4.94147,4.64937 1.50032,0.63522 3.76436,-4.64937 6.03962,-4.64937 2.1781,0 3.63196,1.60946 6.03959,0.92988 5.21319,-1.47151 19.43425,-3.83186 25.25649,-1.85975 2.21654,0.75078 4.31845,4.96591 7.68675,3.25456 2.72846,-1.38627 0.30639,-0.98383 1.09813,-2.32469 0.34046,-0.57664 14.63167,0.006 15.37351,-0.46494 4.01608,-2.5506 -1.41457,-6.59185 6.58865,-7.439 5.67132,-0.6003 12.77194,-0.80819 17.02067,2.78963 0.81439,0.68961 1.43725,2.86142 3.29433,3.25456 3.88988,0.82348 8.83676,-1.07021 12.62824,0 2.2315,0.62987 1.61153,2.4072 5.49056,1.85975 0.67823,-0.0957 5.3277,-0.98116 5.49055,-1.39482 0.14857,-0.37743 0.1184,-4.36676 1.64717,-3.71949 11.22116,4.75102 12.93225,4.76311 25.25648,3.71949 5.1701,-0.43779 10.34458,1.0733 15.37351,0.46495 1.4655,-0.17729 8.65714,-4.07627 9.88298,-5.11431 1.3565,-1.14868 3.10711,-23.58529 2.74527,-26.03648 -0.53295,-3.61052 -3.90734,-7.21931 -6.03959,-10.22861 -3.36905,-4.75485 -12.76181,-7.0193 -18.1188,-8.83381 z"
       id="path1046"
       clip-path="url(#clipPath1056)" />
    <path
       style="opacity:0.203226;fill:#000000;stroke:#000000;stroke-width:0.264583px;stroke-linecap:butt;stroke-linejoin:miter;stroke-opacity:1"
       d="m 464.71317,221.15769 c -2.87969,0.33974 -4.79215,2.02645 -7.29413,2.86045 -0.66719,0.2224 -1.4535,1.53332 -2.43138,1.85928 -1.16342,0.38782 -3.02722,-0.11926 -3.86159,0.71511 -0.60973,0.60974 -1.26162,1.27442 -2.14533,1.71627 -0.7938,0.3969 -4.58126,-2.04846 -6.436,-1.43022 -1.07636,0.35879 -1.42897,1.85866 -2.5744,2.43137 -0.73573,0.36787 -2.04132,0.46809 -2.57438,1.00116 -0.18603,0.18602 -1.61623,0 -2.00232,0 -1.12908,0 -3.20955,0.8266 -4.29065,0.28604 -2.18613,-1.09306 -4.11141,-2.10051 -6.57903,-2.71742 -1.27423,-0.31855 -2.17478,0.91563 -3.2895,1.2872 -1.77041,0.59013 -5.89989,0.12504 -7.29414,-0.57209 -0.527,-0.2635 -0.69867,-0.83348 -1.00114,-1.2872 -0.30089,-0.4513 -0.65491,-1.11407 -1.28721,-1.43022 -0.61577,-0.30788 -1.44959,-0.004 -2.14533,-0.14302 -3.03625,-0.60725 -5.72089,-2.00841 -5.72089,-4.86275 0,-0.45308 -0.18279,-1.49369 0,-1.85929 2.09398,-4.18796 6.7264,-5.9305 10.86968,-7.43715 6.43169,-2.33879 12.70047,-2.30513 19.45102,-3.00346 2.86529,-0.29641 5.84467,-0.76599 8.72434,-0.28604 1.89008,0.31501 4.08046,1.2592 5.8639,2.00231 0.64566,0.26901 1.20399,0.92574 1.8593,1.14417 2.12228,0.70744 4.13316,1.27997 6.14994,2.28836 2.74706,1.37352 5.80272,2.65623 7.86621,4.71972 0.29988,0.29986 0.14303,2.26502 0.14303,2.71742 z"
       id="path1074" />
    <path
       style="opacity:0.319355;fill:#000000;stroke:#000000;stroke-width:0.264583px;stroke-linecap:butt;stroke-linejoin:miter;stroke-opacity:1"
       d="m 304.19517,227.32376 c 4.5678,0.53931 7.60137,3.21689 11.57004,4.54083 1.0583,0.35305 2.30555,2.43408 3.85667,2.95154 1.84545,0.61564 4.80182,-0.18933 6.12531,1.1352 0.96715,0.96794 2.0012,2.02308 3.40294,2.7245 1.25914,0.63006 7.26686,-3.25184 10.20886,-2.27041 1.70734,0.56957 2.26665,2.95054 4.08354,3.8597 1.16703,0.58398 3.23798,0.74307 4.08352,1.58929 0.29508,0.2953 2.56367,0 3.17611,0 1.79095,0 5.09102,1.31219 6.80587,0.45409 3.46766,-1.73519 6.52156,-3.33448 10.43573,-4.31379 2.0212,-0.5057 3.44966,1.45351 5.21785,2.04337 2.80824,0.93681 9.35847,0.19849 11.57004,-0.90817 0.83593,-0.41829 1.10825,-1.32312 1.58802,-2.04337 0.47728,-0.71643 1.03884,-1.76854 2.0418,-2.27041 0.97673,-0.48875 2.29935,-0.006 3.40293,-0.22705 4.81614,-0.96397 9.07455,-3.18826 9.07455,-7.71941 0,-0.71924 0.28995,-2.37117 0,-2.95154 -3.32149,-6.64821 -10.6695,-9.41442 -17.24161,-11.80615 -10.20201,-3.71274 -20.14563,-3.6593 -30.85342,-4.76787 -4.54496,-0.47054 -9.2709,-1.21598 -13.83867,-0.45409 -2.99806,0.50007 -6.47246,1.99893 -9.30138,3.17858 -1.02415,0.42706 -1.90978,1.46959 -2.94923,1.81634 -3.3664,1.12302 -6.55608,2.03188 -9.75512,3.63266 -4.35741,2.18041 -9.20434,4.21666 -12.47748,7.49237 -0.47566,0.47601 -0.22687,3.59562 -0.22687,4.31379 z"
       id="path1072" />
    <path
       style="opacity:0.319355;fill:#000000;stroke:#000000;stroke-width:0.264583px;stroke-linecap:butt;stroke-linejoin:miter;stroke-opacity:1"
       d="m 469.85524,221.45055 c -3.36542,0.39734 -5.60047,2.37011 -8.52447,3.34555 -0.77973,0.26012 -1.69867,1.79336 -2.84149,2.17461 -1.35967,0.45359 -3.53784,-0.13949 -4.51295,0.83638 -0.71257,0.71316 -1.47443,1.49055 -2.50719,2.00734 -0.9277,0.46421 -5.35402,-2.39586 -7.5216,-1.67277 -1.25792,0.41964 -1.67,2.17387 -3.00864,2.84371 -0.85983,0.43026 -2.38565,0.54748 -3.00862,1.17095 -0.2174,0.21757 -1.88884,0 -2.34007,0 -1.31952,0 -3.75091,0.96678 -5.01437,0.33456 -2.55487,-1.27844 -4.8049,-2.45675 -7.68875,-3.17828 -1.48916,-0.37259 -2.54161,1.0709 -3.84436,1.5055 -2.06903,0.69021 -6.89505,0.14624 -8.52448,-0.66912 -0.61589,-0.30818 -0.81652,-0.97483 -1.17,-1.50549 -0.35165,-0.52785 -0.76539,-1.30301 -1.50434,-1.67278 -0.71963,-0.3601 -1.6941,-0.004 -2.50719,-0.16728 -3.54839,-0.71023 -6.68587,-2.34902 -6.68587,-5.68744 0,-0.52992 -0.21362,-1.74701 0,-2.17461 2.44718,-4.89822 7.86099,-6.93628 12.70313,-8.69844 7.51655,-2.73544 14.84273,-2.69607 22.73192,-3.51283 3.3486,-0.34668 6.83054,-0.8959 10.19594,-0.33456 2.20889,0.36844 4.76873,1.47275 6.853,2.34189 0.75456,0.31464 1.40707,1.08275 2.1729,1.33822 2.48027,0.82741 4.83034,1.49703 7.1873,2.67644 3.21041,1.60647 6.7815,3.10672 9.19305,5.52017 0.35045,0.35071 0.16715,2.64915 0.16715,3.17828 z"
       id="path1076" />
    <path
       style="fill:#d38d5f;stroke:none;stroke-width:0.264583px;stroke-linecap:butt;stroke-linejoin:miter;stroke-opacity:1"
       d="m 471.08855,155.60304 c -3.80217,3.8638 -3.4349,9.41778 -7.68676,13.01824 -0.63005,0.53353 -4.91556,-2.92996 -5.49052,-3.25456 -4.82219,-2.72228 -8.8601,-2.28222 -13.72637,0.46494 -1.34618,0.75996 0.51162,-2.29298 -0.54904,-1.39481 -0.86178,0.72974 -1.92831,4.8837 -2.74529,5.11431 -15.42399,4.35366 -12.21886,-7.7148 -19.2169,-6.97406 -5.16387,0.54659 -9.82536,2.66119 -14.82445,3.7195 -0.74993,0.15875 -1.06135,-3.26079 -3.84339,-2.78963 -3.94705,0.66847 -3.27519,4.18714 -6.58865,3.71949 -4.09985,-0.57862 -3.96576,-4.23625 -7.13772,-5.57924 -1.7998,-0.76203 -8.32379,2.17569 -8.78485,1.39482 -0.46538,-0.78815 0.45196,-1.88716 -1.0981,-2.32469 -2.19488,-0.61954 -15.16261,5.75785 -16.47164,4.64937 -7.85923,-6.65518 -20.65885,-3.44867 -21.96216,-4.18443 -0.83188,-0.46962 -2.03089,-1.82277 -3.29433,-1.39482 -1.41232,0.47838 -5.47785,3.02747 -7.13771,2.32469 -1.28882,-0.54568 -0.0535,-3.76481 -1.0981,-4.64937 -1.01727,-0.86141 -4.23363,1.22959 -6.0396,0.46494 -2.03059,-0.85975 -6.4458,-4.32582 -8.23581,-3.7195 -0.59248,0.20068 -3.18133,2.42038 -3.29433,2.32468 -4.10136,-3.473 -7.68739,-6.27691 -12.62824,-8.36886 -1.28233,-0.54293 -6.89624,4.90981 -7.68679,5.57924 -1.65234,1.39922 -6.94785,2.93306 -7.68675,4.18444 -1.24317,2.10544 -1.63325,5.00483 -3.29433,6.97405 -0.79869,0.94688 -3.07236,1.20934 -4.39242,0.92988 -1.87579,-0.39711 -9.84772,-0.43509 -10.98109,-1.39481 -0.71993,-0.60964 0.18286,-2.99637 -1.09812,-3.7195 -1.85453,-1.04694 -6.93447,0.63702 -8.2358,-0.46494 -0.53357,-0.45182 0.56653,-1.38741 -0.54906,-1.85975 -1.49635,-0.63355 -4.13647,-0.24819 -5.49054,-1.39481 -2.37353,-2.00989 -1.95188,-3.98915 -4.94149,-5.11431 -2.98084,-1.12184 -14.88044,-2.27728 -17.02068,-0.46493 -2.33727,1.97919 2.14478,8.92091 1.09811,10.69355 -0.77216,1.30772 -2.84813,-1.67083 -4.39244,-2.32469 -2.55738,-1.08278 -8.40027,-0.93661 -10.98108,0 -5.6233,2.04077 1.6304,6.27902 -9.88298,7.90394 -0.57088,0.0805 -1.23792,0.81147 -1.64716,0.46493 -0.9012,-0.76313 -7.73215,-7.22574 -8.23582,-7.43899 -0.39949,-0.16914 -3.60749,0.34955 -3.84338,0 -1.7204,-2.54945 -1.88452,-7.48925 -6.03959,-8.36887 -4.1368,-0.87575 -16.82554,3.00996 -18.66785,0.92988 -3.84562,-4.34194 -4.98219,-10.00476 -12.62825,-11.62343 -1.31301,-0.27796 -9.27792,9.25132 -9.88298,9.76368 -1.00927,0.85464 2.31632,3.20371 1.09811,3.71949 -1.79771,0.76115 -9.29229,1.25382 -9.88297,3.25456 -0.58852,1.9934 0.4225,2.43185 -1.09811,3.7195 -0.78719,0.66659 -2.19903,-0.2963 -3.29433,-0.46494 -13.19753,-2.03193 -2.13621,-3.68138 -10.98108,-9.29874 -1.46808,-0.93237 -5.57612,0.39248 -6.58865,-0.46494 -2.62979,-2.22689 -5.35114,-5.05528 -8.78487,-6.50912 -6.708358,-2.8403 -11.751033,-1.45536 -15.92257,3.25456 -0.603483,0.68138 -0.618847,3.31367 -1.098108,3.7195 -0.823582,0.69741 -4.117909,-0.6974 -4.941491,0 -2.12961,1.80335 -3.714652,5.00531 -6.039596,6.97406 -1.61332,1.36615 -4.879149,-4.78676 -6.039596,-5.11431 -1.012407,-0.28576 -0.579993,2.32468 -1.647163,2.32468 -1.655556,0 -13.642271,-0.72463 -14.275411,-1.39481 -5.028351,-5.32248 -12.074819,-6.9748 -20.315007,-5.57924 -5.597933,0.94806 -4.477523,4.6854 -8.78487,6.50912 -7.801251,3.30304 -15.7919191,-0.11064 -22.5112251,5.57924 -1.62593693,1.37684 3.3051837,7.4298 2.1962171,8.36887 -1.2369239,1.04742 -4.53167213,5.80837 -3.29432573,7.90393 1.06196263,1.79853 5.99460713,2.67533 6.58865143,4.18443 0.6097278,1.54895 -2.6249508,2.52846 -1.647163,4.18444 2.2884566,3.87571 17.8838543,10.10535 24.1583883,11.62343 4.265006,1.03188 13.966817,-2.44076 17.569738,0 1.14133,0.77317 3.315065,4.18442 4.941488,4.18442 2.102035,0 -0.555768,-7.44278 6.039596,-3.71949 1.211392,0.68387 1.997059,2.24036 3.294327,2.78963 0.517652,0.21916 -0.0297,-1.39482 0.549052,-1.39482 5.509917,0 7.912809,0.64728 13.177303,-2.32468 3.344371,-1.888 9.319091,2.7959 10.432032,2.32468 2.048174,-0.86719 2.428158,-3.18643 4.392435,-4.18443 3.160821,-1.60595 6.55098,4.32877 9.333921,5.11431 2.323147,0.65575 1.185017,-5.04071 2.745267,-3.7195 3.89698,3.29995 10.31826,-0.52917 10.43203,-0.46494 1.80999,1.0218 2.98605,2.42663 4.94149,3.25456 1.06452,0.45072 1.09829,-3.71933 2.19621,-2.78962 0.28546,0.24172 11.05983,6.39859 12.0792,6.97405 1.25846,0.71045 12.97769,-1.50754 13.72636,-1.85975 4.29668,-2.02133 2.40734,-2.84921 5.49054,-3.71949 2.21281,-0.6246 5.83811,1.50856 7.68676,0.46493 0.75512,-0.42628 0.41416,-2.84672 1.64716,-2.32468 1.73951,0.73651 3.24789,2.78963 4.94149,2.78963 2.08735,0 5.17545,0.49849 7.13771,0 1.18464,-0.30095 2.87481,-2.18103 4.39243,-1.85975 1.32002,0.27945 3.16521,5.30572 3.84338,5.11431 8.12636,-2.2938 1.61224,-4.21401 10.98109,3.71949 0.4671,0.39555 4.55103,-10.55925 6.03959,-9.29874 1.04405,0.88409 4.36992,1.31525 4.94149,1.85974 10.60092,10.09892 -1.33026,-0.19658 6.58865,6.50912 1.99523,1.68956 -0.82967,-6.39545 2.19622,-5.1143 15.0572,6.37519 5.71729,10.30954 11.53014,0.46494 0.69286,-1.17342 5.56126,3.38195 6.0396,3.7195 1.1505,0.81186 9.70513,-2.91537 12.07919,-3.7195 1.92536,-0.65216 5.5001,3.25455 7.13771,3.25455 2.38487,0 14.35919,-2.71867 16.47162,-0.92987 0.92398,0.78242 -0.17245,1.93948 1.64716,2.32468 1.37073,0.29019 3.15712,-1.44131 4.39243,-1.85974 1.10705,-0.37498 2.89335,1.60587 4.39246,1.85974 2.09497,0.35481 3.24088,-0.67478 4.94149,-1.39481 3.10012,-1.31259 5.94693,1.15155 8.78485,0.46495 3.24781,-0.78579 4.51088,-3.6314 7.13772,-5.11431 0.64606,-0.36474 1.0981,0.92987 1.64716,1.39481 1.2224,1.03513 3.86715,1.98102 5.49053,2.32468 3.2762,0.69357 4.42658,3.84408 8.78488,2.78963 1.41798,-0.34308 4.39777,-2.78661 6.03959,-1.85976 0.62786,0.35446 0.0156,1.40791 0.54906,1.85976 1.33729,1.13241 3.33555,0.47656 4.94149,0.92987 2.5607,0.72279 2.8511,3.76431 4.94147,4.64937 1.50032,0.63522 3.76436,-4.64937 6.03962,-4.64937 2.1781,0 3.63196,1.60946 6.03959,0.92988 5.21319,-1.47151 19.43425,-3.83186 25.25649,-1.85975 2.21654,0.75078 4.31845,4.96591 7.68675,3.25456 2.72846,-1.38627 0.30639,-0.98383 1.09813,-2.32469 0.34046,-0.57664 14.63167,0.006 15.37351,-0.46494 4.01608,-2.5506 -1.41457,-6.59185 6.58865,-7.439 5.67132,-0.6003 12.77194,-0.80819 17.02067,2.78963 0.81439,0.68961 1.43725,2.86142 3.29433,3.25456 3.88988,0.82348 8.83676,-1.07021 12.62824,0 2.2315,0.62987 1.61153,2.4072 5.49056,1.85975 0.67823,-0.0957 5.3277,-0.98116 5.49055,-1.39482 0.14857,-0.37743 0.1184,-4.36676 1.64717,-3.71949 11.22116,4.75102 12.93225,4.76311 25.25648,3.71949 5.1701,-0.43779 10.34458,1.0733 15.37351,0.46495 1.4655,-0.17729 8.65714,-4.07627 9.88298,-5.11431 1.3565,-1.14868 3.10711,-23.58529 2.74527,-26.03648 -0.53295,-3.61052 -3.90734,-7.21931 -6.03959,-10.22861 -3.36905,-4.75485 -12.76181,-7.0193 -18.1188,-8.83381 z"
       id="path1044"
       clip-path="url(#clipPath1050)" />
    <g
       id="g1134"
       transform="matrix(-0.52592855,0,0,0.52592855,653.34478,136.08825)"
       style="stroke-width:1.9014">
      <ellipse
         style="opacity:1;fill:#732e00;fill-opacity:1;stroke-width:0.503869"
         id="ellipse1078"
         cx="409.86902"
         cy="91.692062"
         rx="28.856232"
         ry="57.636517" />
      <ellipse
         style="opacity:1;fill:#a34200;fill-opacity:1;stroke-width:0.503869"
         id="ellipse1080"
         cx="431.28214"
         cy="94.437332"
         rx="28.856232"
         ry="57.636517" />
      <path
         id="path1082"
         style="opacity:0.225806;fill:#000000;stroke-width:0.503869"
         d="m 482.20574,66.125476 c 4.65019,9.8644 7.34898,21.99699 7.18199,35.209734 -0.54905,43.44159 -22.62455,65.5438 -46.27418,65.5438 -14.98701,1e-5 -25.13357,-12.95743 -30.55731,-30.91853 5.8548,12.48703 14.73863,20.76102 26.71362,20.76101 23.64962,0 45.72564,-22.10221 46.27469,-65.543804 0.11341,-8.97288 -1.09596,-17.44701 -3.33881,-25.05221 z" />
      <ellipse
         style="opacity:1;fill:#a34200;fill-opacity:1;stroke-width:0.503869"
         id="ellipse1084"
         cx="387.35779"
         cy="94.437332"
         rx="28.856232"
         ry="57.636517" />
      <g
         id="g1096"
         transform="matrix(1,0,0,1.0650068,177.4818,-11.401399)"
         style="stroke-width:1.84246">
        <path
           style="fill:#89a02c;stroke:none;stroke-width:0.487482px;stroke-linecap:butt;stroke-linejoin:miter;stroke-opacity:1"
           d="m 215.70744,62.779221 c 0,0 5.90167,-2.275259 7.20921,-5.173072 1.24712,-2.763918 0.36048,-6.35917 -0.43692,-9.336761 -3.01395,-11.254548 -16.33667,-28.53729 -15.88782,-30.203764 0.38751,-1.438742 5.2621,-3.809396 8.24169,-4.493661 3.68258,-0.84571 7.94341,-1.422183 11.25073,0.630863 5.52956,3.432507 8.45306,10.985506 11.1415,17.53797 2.12552,5.180441 1.33093,11.625985 3.71384,16.654766 2.41203,5.090251 10.26767,12.743417 10.26767,12.743417 l -11.35997,5.677761 -19.22455,0.883207 z"
           id="path1086"
           sodipodi:nodetypes="caasaaaacccc" />
        <path
           id="path1088"
           style="fill:url(#linearGradient1136);fill-opacity:1;stroke:none;stroke-width:0.487482px;stroke-linecap:butt;stroke-linejoin:miter;stroke-opacity:1"
           d="m 220.68581,19.468212 c -1.21301,-0.01139 -2.35399,0.341209 -3.17632,1.205575 -1.00943,1.061004 -0.16513,2.705497 -0.0773,4.728714 0.12721,2.930688 7.99645,15.887735 9.73208,24.712814 0.86139,4.379898 1.4821,9.219343 0.23152,13.472203 -0.3638,1.237183 -1.51604,2.793716 -2.44268,3.913598 l 14.8942,-0.684489 4.18506,-2.091463 c -1.77756,-2.00609 -4.36381,-5.134263 -5.43682,-7.472366 -2.63804,-5.748279 -3.09553,-14.866611 -4.17108,-18.913906 -1.67014,-6.2848 -5.89824,-14.55869 -8.72786,-16.951168 -1.31126,-1.108673 -3.23794,-1.902863 -5.0108,-1.919512 z" />
        <path
           id="path1090"
           style="fill:url(#linearGradient1138);fill-opacity:1;stroke:#000000;stroke-width:0.487481px;stroke-linecap:butt;stroke-linejoin:miter;stroke-opacity:0"
           d="m 231.32464,46.121135 c -0.12653,0.007 -0.25218,0.03373 -0.37586,0.08377 -0.63765,0.258009 -1.10558,1.399561 -1.31305,2.431096 -0.37572,1.868198 0.37297,3.919053 0.30884,5.885319 -0.10052,3.081708 -0.12815,6.431473 -1.08112,9.083422 -0.45618,1.269428 -1.3911,2.656431 -2.3263,3.845208 l 13.31016,-0.877349 1.7547,-1.257443 c -1.008,-0.976675 -2.02649,-2.069584 -2.69765,-3.117719 -1.1019,-1.720836 -1.8434,-3.993219 -2.62609,-6.140755 -0.94021,-2.57979 -1.11737,-6.047866 -2.47146,-8.0603 -0.66334,-0.985838 -1.59646,-1.924245 -2.48217,-1.875262 z" />
        <path
           id="path1092"
           style="opacity:0.274194;fill:#ffffff;fill-opacity:1;stroke:none;stroke-width:0.487482px;stroke-linecap:butt;stroke-linejoin:miter;stroke-opacity:1"
           d="m 220.59985,12.800513 c -1.93894,-0.0068 -3.92492,0.348559 -5.76621,0.771414 -2.9796,0.684266 -7.8543,3.054844 -8.2418,4.493585 -0.27368,1.016105 4.57192,7.83969 9.07946,15.560818 -0.2527,-1.384778 -0.81779,-4.265101 -1.40597,-5.81506 -0.89186,-2.350147 -3.4131,-3.951887 -3.55259,-6.512847 -0.0803,-1.473896 0.63716,-3.07287 1.62188,-4.014777 2.33257,-2.231168 6.12684,-0.954464 8.80518,-2.587373 0.67967,-0.414381 1.59043,-0.939624 2.52493,-1.521454 -0.9882,-0.260608 -2.0194,-0.370642 -3.06488,-0.374306 z" />
        <path
           id="path1094"
           style="opacity:0.0935484;fill:#000000;stroke:none;stroke-width:0.487482px;stroke-linecap:butt;stroke-linejoin:miter;stroke-opacity:1"
           d="m 223.76507,13.200944 c -0.0418,0.01257 -0.23111,0.06792 -0.23111,0.06792 0,0 2.85797,3.657517 3.24416,4.103603 0.38619,0.446088 2.9348,4.639693 3.24376,5.442651 0.30895,0.802957 2.24005,5.085033 2.78071,6.15564 0.54066,1.070609 1.77655,3.390484 2.7034,5.264049 0.92685,1.873566 2.39423,9.546096 2.47147,10.884356 0.0773,1.33826 -0.0773,4.372021 1.31305,6.424021 1.39027,2.051999 4.78863,7.226288 5.561,8.20768 0.41484,0.527094 1.98485,1.743611 3.49625,2.817276 l 2.85967,-1.429301 c 0,0 -7.85588,-7.652813 -10.26791,-12.743066 -2.38291,-5.02878 -1.58828,-11.474321 -3.71378,-16.654761 -2.68845,-6.552466 -5.6118,-14.105775 -11.14136,-17.538281 -0.73187,-0.454312 -1.51066,-0.77943 -2.31931,-1.001794 z" />
      </g>
      <path
         id="path1098"
         style="opacity:1;fill:#d45500;stroke-width:0.503869"
         d="m 407.86278,101.33524 c 0,33.2841 11.60099,65.54358 35.25062,65.54357 23.64963,0 45.72531,-22.10198 46.27436,-65.54357 C 489.8084,68.053806 472.0611,41.610448 450.68423,41.069068 421.50221,40.330019 407.86278,68.051146 407.86278,101.33524 Z"
         sodipodi:nodetypes="sssss" />
      <path
         id="path1100"
         style="opacity:0.254839;fill:#000000;stroke-width:0.503869"
         d="m 476.52974,56.496901 c 5.76464,10.437746 9.20229,23.934806 9.01444,38.798666 -0.54907,43.441583 -22.62455,65.543803 -46.2742,65.543803 -8.76776,0 -15.87778,-4.43726 -21.35629,-11.7135 5.83086,10.79018 14.21426,17.75293 25.19947,17.75292 23.64965,0 45.72566,-22.10221 46.2747,-65.5438 0.22654,-17.922585 -4.81769,-33.858778 -12.85812,-44.838089 z" />
      <ellipse
         style="opacity:1;fill:#6a2a00;fill-opacity:1;stroke-width:0.503869"
         id="ellipse1102"
         cx="441.43964"
         cy="108.71274"
         rx="32.513626"
         ry="60.327896" />
      <ellipse
         style="opacity:1;fill:#d45500;stroke-width:0.503869"
         id="ellipse1104"
         cx="441.43964"
         cy="108.71274"
         rx="28.856232"
         ry="57.636517" />
      <path
         id="path1106"
         style="opacity:0.303226;fill:#000000;stroke-width:0.503869"
         d="m 412.86793,100.63778 c -0.18942,2.67506 -0.28447,5.37342 -0.28439,8.07511 6e-5,31.83142 12.9192,57.63592 28.85586,57.63631 15.93688,1.8e-4 28.85634,-25.80449 28.8564,-57.63631 3e-5,-2.70117 -0.095,-5.39902 -0.28441,-8.07358 -2.01394,28.42918 -14.1969,55.54321 -28.57199,55.54287 -14.37514,-2.7e-4 -26.5579,-27.11501 -28.57147,-55.5444 z"
         sodipodi:nodetypes="cccsccc" />
      <path
         id="path1108"
         style="opacity:1;fill:#d45500;stroke-width:0.503869"
         d="m 418.98055,101.06072 c 0,33.2841 -11.60099,65.54358 -35.25061,65.54357 -23.64963,0 -45.72531,-22.10198 -46.27436,-65.54357 -0.42064,-33.281434 17.32666,-59.724798 38.70353,-60.266178 29.18202,-0.739049 42.82144,26.982074 42.82144,60.266178 z"
         sodipodi:nodetypes="sssss" />
      <path
         id="path1110"
         style="opacity:0.225806;fill:#000000;stroke-width:0.503869"
         d="m 344.6376,65.850946 c -4.65019,9.8644 -7.34898,21.997 -7.18199,35.209734 0.54905,43.44159 22.62455,65.5438 46.27418,65.5438 14.98701,1e-5 25.13357,-12.95743 30.55731,-30.91852 -5.8548,12.48702 -14.73863,20.76101 -26.71362,20.76101 -23.64963,0 -45.72564,-22.10222 -46.27469,-65.543814 -0.11341,-8.97288 1.09596,-17.44701 3.33881,-25.05221 z" />
      <ellipse
         style="opacity:1;fill:#6a2a00;fill-opacity:1;stroke-width:0.503869"
         id="ellipse1112"
         cx="388.66144"
         cy="108.71274"
         rx="32.513626"
         ry="60.327896" />
      <ellipse
         style="opacity:1;fill:#d45500;stroke-width:0.503869"
         id="ellipse1114"
         cx="388.66144"
         cy="108.71274"
         rx="28.856232"
         ry="57.636517" />
      <path
         id="path1116"
         style="opacity:0.303226;fill:#000000;stroke-width:0.503869"
         d="m 360.08974,100.63778 c -0.18942,2.67506 -0.28447,5.37342 -0.28439,8.07511 6e-5,31.83142 12.9192,57.63592 28.85586,57.63631 15.93688,1.8e-4 28.85634,-25.80449 28.8564,-57.63631 3e-5,-2.70117 -0.095,-5.39902 -0.28441,-8.07358 -2.01394,28.42918 -14.1969,55.54321 -28.57199,55.54287 -14.37514,-2.7e-4 -26.5579,-27.11501 -28.57147,-55.5444 z"
         sodipodi:nodetypes="cccsccc" />
      <ellipse
         style="opacity:1;fill:#6a2a00;fill-opacity:1;stroke-width:0.503869"
         id="ellipse1118"
         cx="415.08505"
         cy="113.10518"
         rx="32.788155"
         ry="60.917431" />
      <ellipse
         style="opacity:1;fill:#d45500;stroke-width:0.503869"
         id="ellipse1120"
         cx="415.08505"
         cy="113.10518"
         rx="29.099876"
         ry="58.199753" />
      <path
         id="path1122"
         style="opacity:0.303226;fill:#000000;stroke-width:0.503869"
         d="m 386.27208,104.95131 c -0.19103,2.70121 -0.28687,5.42593 -0.2868,8.15403 6e-5,32.14247 13.02828,58.19915 29.09951,58.19954 16.07144,1.8e-4 29.09998,-26.05666 29.10004,-58.19954 3e-5,-2.72758 -0.0958,-5.45178 -0.28681,-8.15248 -2.03093,28.70699 -14.31676,56.08599 -28.81323,56.08564 -14.49652,-2.7e-4 -26.78215,-27.37998 -28.81271,-56.08719 z"
         sodipodi:nodetypes="cccsccc" />
      <path
         style="opacity:0.758064;fill:url(#linearGradient1140);fill-opacity:1;stroke:none;stroke-width:0.503077px;stroke-linecap:butt;stroke-linejoin:miter;stroke-opacity:1"
         d="m 402.35126,70.993366 c 0.98363,-1.80206 4.04302,-4.55862 6.18577,-3.53472 1.667,0.79656 1.70426,3.53421 0.88368,5.4717 -1.02733,2.42567 -3.24861,11.78901 -3.32994,17.83678 -0.0781,5.80603 2.73513,17.203604 2.73513,17.203604 l -16.63698,-1.51964 c 0,0 0.91492,-13.604034 2.80309,-19.496674 1.88817,-5.89264 6.07241,-13.60347 7.35925,-15.96105 z"
         id="path1124"
         sodipodi:nodetypes="sasacczs" />
      <path
         style="opacity:0.658065;fill:url(#linearGradient1142);fill-opacity:1;stroke:none;stroke-width:0.503077px;stroke-linecap:butt;stroke-linejoin:miter;stroke-opacity:1"
         d="m 372.18172,69.021046 c 0.79547,-1.77777 3.26964,-4.49718 5.00251,-3.48708 1.34812,0.78583 1.37824,3.48658 0.71464,5.39795 -0.83081,2.39298 -2.62719,11.63011 -2.69297,17.59636 -0.0631,5.72777 2.21194,16.971714 2.21194,16.971714 l -13.45453,-1.49916 c 0,0 0.73991,-13.420654 2.2669,-19.233864 1.52697,-5.81322 4.91082,-13.42013 5.95151,-15.74592 z"
         id="path1126"
         sodipodi:nodetypes="sasacczs" />
      <path
         style="opacity:0.458065;fill:url(#linearGradient1144);fill-opacity:1;stroke:none;stroke-width:0.503077px;stroke-linecap:butt;stroke-linejoin:miter;stroke-opacity:1"
         d="m 458.29609,69.021046 c -0.79547,-1.77777 -3.26964,-4.49718 -5.00251,-3.48708 -1.34812,0.78583 -1.37824,3.48658 -0.71464,5.39795 0.83081,2.39298 2.62719,11.63011 2.69297,17.59636 0.0631,5.72777 -2.21194,16.971714 -2.21194,16.971714 l 13.45453,-1.49916 c 0,0 -0.73991,-13.420654 -2.2669,-19.233864 -1.52697,-5.81322 -4.91082,-13.42013 -5.95151,-15.74592 z"
         id="path1128"
         sodipodi:nodetypes="sasacczs" />
      <path
         style="opacity:0.825806;fill:url(#linearGradient1146);fill-opacity:1;stroke:none;stroke-width:0.503077px;stroke-linecap:butt;stroke-linejoin:miter;stroke-opacity:1"
         d="m 356.78098,52.726623 c 1.05539,-1.572362 3.77654,-3.715649 5.10008,-2.367128 1.02966,1.049105 0.51659,3.695816 -0.44944,5.426268 -1.2094,2.166473 -4.63612,10.823113 -5.88602,16.642413 -1.19988,5.58672 -1.44373,17.05347 -1.44373,17.05347 l -11.54363,-4.26841 c 0,0 3.3326,-12.9668 5.83813,-18.3321 2.50551,-5.36532 7.00387,-12.097449 8.38458,-14.154515 z"
         id="path1130"
         sodipodi:nodetypes="sasacczs" />
      <path
         style="opacity:0.383871;fill:url(#linearGradient1148);fill-opacity:1;stroke:none;stroke-width:0.503077px;stroke-linecap:butt;stroke-linejoin:miter;stroke-opacity:1"
         d="m 470.52393,52.726623 c -1.05539,-1.572362 -3.77654,-3.715649 -5.10008,-2.367128 -1.02966,1.049105 -0.51659,3.695816 0.44944,5.426268 1.2094,2.166473 4.63612,10.823113 5.88602,16.642413 1.19988,5.58672 1.44373,17.05347 1.44373,17.05347 l 11.54363,-4.26841 c 0,0 -3.3326,-12.9668 -5.83813,-18.3321 -2.50551,-5.36532 -7.00387,-12.097449 -8.38458,-14.154515 z"
         id="path1132"
         sodipodi:nodetypes="sasacczs" />
    </g>
    <path
       id="path908-5"
       style="opacity:0.45483871;fill:#000000;stroke-width:1.00157"
       d="m 1530.0723,617.10352 c -20.5375,21.49786 -34.0446,57.44562 -33.5235,98.67578 0.4625,36.58817 8.6083,65.55866 21.418,86.80078 14.4563,-27.82917 23.4648,-64.12477 24.0293,-108.79297 0.352,-27.84899 -4.0159,-53.91845 -11.9238,-76.68359 z"
       transform="scale(0.26458333)" />
    <path
       id="path1062"
       style="opacity:0.0935484;fill:#000000;stroke:none;stroke-width:0.999999px;stroke-linecap:butt;stroke-linejoin:miter;stroke-opacity:1"
       d="m 1190.2109,874.9375 c -2.1569,-0.0197 -4.5927,0.2283 -7.3671,0.7832 -17.835,3.56697 -20.4722,17.49781 -35.2774,24.90039 -7.1884,3.59422 -14.4421,-10.45824 -18.6758,-6.22461 -6.4537,6.45374 -8.3183,17.85625 -16.6015,22.82618 -8.2307,4.93836 -29.4505,-6.0267 -33.2032,-4.15039 -5.6532,2.82659 -3.7852,16.41902 -12.4511,20.75195 -8.412,4.20601 -22.7129,-10.49026 -24.9024,-8.30078 -3.8419,3.84189 -4.2691,8.34164 -10.375,10.37695 -6.0517,2.01725 -18.297,-8.67955 -22.8262,-4.15039 -10.31317,10.31327 -35.33547,13.85273 -49.80464,18.67578 -8.54891,2.84961 -16.12148,-4.2694 -24.90234,-2.07422 -16.89895,4.22476 -20.0846,21.43911 -39.42774,18.67578 -21.95943,-3.13704 -26.63549,-35.85506 -37.35351,-39.42773 -17.72209,-5.90736 -38.54566,6.44513 -56.0293,2.07422 -26.81227,-6.70307 -25.40063,-28.92669 -66.40429,-18.67578 -8.97721,2.24428 -41.68273,17.92413 -51.87891,14.52539 -5.48871,-1.8296 -3.9496,-6.12521 -8.30078,-8.30078 -6.5068,-3.25342 -28.56783,8.78768 -31.12891,6.22656 -9.2694,-9.26941 -40.59529,-6.67892 -53.95312,0 -7.99514,3.99757 -8.42841,-10.31314 -16.60157,-6.22656 -10.29732,5.14866 -18.96691,13.63482 -29.05273,18.67773 -16.56752,8.28374 -28.42982,-10.82551 -43.57813,-8.30078 -13.93485,2.32248 -39.37103,14.55376 -47.72851,10.375 -11.83283,-5.9164 -20.33898,37.76649 -26.97852,31.12695 -2.57571,-2.57571 -0.5361,-6.76266 -2.07422,-8.30078 -30.576,-30.57604 -70.03074,1.30005 -72.63086,0 -10.77407,-5.38703 -8.17606,-10.12558 -12.45117,-18.67578 -0.8962,-1.7924 -26.17618,12.61656 -33.20312,2.07617 -8.17665,-12.26498 -11.56808,6.81726 -24.90235,4.15039 -4.48176,-0.89631 -9.94713,-16.60156 -10.375,-16.60156 -12.41998,0 -10.57591,25.52742 -24.90234,20.75195 -5.57434,-1.85809 -9.80052,-15.85172 -16.60156,-12.45117 -13.78788,6.89394 -12.54019,16.73311 -20.75196,29.05078 -4.62968,6.94454 -18.44171,-29.28487 -22.82617,-24.90039 -2.65773,2.65773 -2.97774,10.1059 -4.15039,12.45117 -0.94635,1.89272 -7.8038,-2.93325 -10.375,-2.07617 -6.91224,2.30408 -8.64815,8.64818 -12.45117,12.45117 -2.42103,2.42106 -12.10631,-2.42101 -14.52734,0 -1.02951,1.02951 0.48447,10.375 0,10.375 -0.10533,0 -5.0251,-7.42411 -6.22461,-6.22461 -5.51362,5.51362 -3.34645,17.95722 -14.52539,20.75196 -5.44757,1.36189 -9.38504,0.76386 -12.39844,-0.89453 0.4694,5.18328 4.13765,9.19534 8.625,9.19534 H 1786.3398 c 4.8078,0 8.6778,-4.60284 8.6778,-10.32034 v -91.36328 c -1.7499,-5.24981 -11.1215,0.78257 -16.5996,0 -10.5701,-1.51 -4.0282,-4.06824 -10.377,-8.30079 -7.6213,-5.08085 -90.4001,33.78693 -97.5332,37.35352 -7.1395,3.56976 -3.0326,28.73263 -20.7519,22.82617 -8.376,-2.79197 -3.6681,-0.63117 -6.2247,-8.30078 -2.4381,-7.31497 -34.759,13.22869 -43.5781,0 -9.227,-13.84048 5.5215,-30.85931 -10.3769,-43.57812 -7.7899,-6.23192 -26.9893,5.18111 -37.3516,0 -24.6778,-12.33892 -20.8148,12.51204 -35.2793,26.97656 -2.9415,2.94149 -8.3264,-5.18111 -12.4492,-4.15039 -9.4949,2.37369 -16.9766,6.22656 -26.9785,6.22656 -6.298,0 -30.6865,-7.06543 -33.2031,-6.22656 -9.3494,3.11644 -18.1229,9.86923 -29.0508,6.22656 -1.6677,-0.55589 -5.8709,-6.58029 -8.3008,-4.15039 -8.3179,8.31957 -25.3968,8.30078 -35.2774,8.30078 -1.806,0 -8.8051,-3.64804 -10.3769,-2.07617 -13.4968,13.49677 -33.2264,22.82308 -53.9531,18.67773 -3.4691,-0.69381 -35.3053,-4.17817 -37.3535,-6.22656 -10.2802,-10.28013 -21.1358,-23.21003 -31.129,-33.20312 -4.3156,-4.31558 -18.0758,-1.96698 -22.8261,-8.30079 -9.2459,-12.32776 -10.7376,-25.54553 -25.836,-25.68359 z"
       transform="scale(0.26458333)" />
    <g
       id="g1022"
       transform="matrix(0.71382851,0,0,0.71382851,55.149813,111.46384)"
       style="stroke-width:1.4009">
      <ellipse
         style="opacity:1;fill:#732e00;fill-opacity:1;stroke-width:0.371236"
         id="ellipse916"
         cx="409.86902"
         cy="91.692062"
         rx="28.856232"
         ry="57.636517" />
      <ellipse
         style="opacity:1;fill:#a34200;fill-opacity:1;stroke-width:0.371236"
         id="ellipse914"
         cx="431.28214"
         cy="94.437332"
         rx="28.856232"
         ry="57.636517" />
      <path
         id="path910"
         style="opacity:0.225806;fill:#000000;stroke-width:0.371236"
         d="m 482.20574,66.125476 c 4.65019,9.8644 7.34898,21.99699 7.18199,35.209734 -0.54905,43.44159 -22.62455,65.5438 -46.27418,65.5438 -14.98701,1e-5 -25.13357,-12.95743 -30.55731,-30.91853 5.8548,12.48703 14.73863,20.76102 26.71362,20.76101 23.64962,0 45.72564,-22.10221 46.27469,-65.543804 0.11341,-8.97288 -1.09596,-17.44701 -3.33881,-25.05221 z" />
      <ellipse
         style="opacity:1;fill:#a34200;fill-opacity:1;stroke-width:0.371236"
         id="ellipse912"
         cx="387.35779"
         cy="94.437332"
         rx="28.856232"
         ry="57.636517" />
      <g
         id="g987"
         transform="matrix(1,0,0,1.0650068,177.4818,-11.401399)"
         style="stroke-width:1.35747">
        <path
           style="fill:#89a02c;stroke:none;stroke-width:0.359163px;stroke-linecap:butt;stroke-linejoin:miter;stroke-opacity:1"
           d="m 215.70744,62.779221 c 0,0 5.90167,-2.275259 7.20921,-5.173072 1.24712,-2.763918 0.36048,-6.35917 -0.43692,-9.336761 -3.01395,-11.254548 -16.33667,-28.53729 -15.88782,-30.203764 0.38751,-1.438742 5.2621,-3.809396 8.24169,-4.493661 3.68258,-0.84571 7.94341,-1.422183 11.25073,0.630863 5.52956,3.432507 8.45306,10.985506 11.1415,17.53797 2.12552,5.180441 1.33093,11.625985 3.71384,16.654766 2.41203,5.090251 10.26767,12.743417 10.26767,12.743417 l -11.35997,5.677761 -19.22455,0.883207 z"
           id="path934"
           sodipodi:nodetypes="caasaaaacccc" />
        <path
           id="path938"
           style="fill:url(#linearGradient954);fill-opacity:1;stroke:none;stroke-width:0.359163px;stroke-linecap:butt;stroke-linejoin:miter;stroke-opacity:1"
           d="m 220.68581,19.468212 c -1.21301,-0.01139 -2.35399,0.341209 -3.17632,1.205575 -1.00943,1.061004 -0.16513,2.705497 -0.0773,4.728714 0.12721,2.930688 7.99645,15.887735 9.73208,24.712814 0.86139,4.379898 1.4821,9.219343 0.23152,13.472203 -0.3638,1.237183 -1.51604,2.793716 -2.44268,3.913598 l 14.8942,-0.684489 4.18506,-2.091463 c -1.77756,-2.00609 -4.36381,-5.134263 -5.43682,-7.472366 -2.63804,-5.748279 -3.09553,-14.866611 -4.17108,-18.913906 -1.67014,-6.2848 -5.89824,-14.55869 -8.72786,-16.951168 -1.31126,-1.108673 -3.23794,-1.902863 -5.0108,-1.919512 z" />
        <path
           id="path943"
           style="fill:url(#linearGradient962);fill-opacity:1;stroke:#000000;stroke-width:0.359162px;stroke-linecap:butt;stroke-linejoin:miter;stroke-opacity:0"
           d="m 231.32464,46.121135 c -0.12653,0.007 -0.25218,0.03373 -0.37586,0.08377 -0.63765,0.258009 -1.10558,1.399561 -1.31305,2.431096 -0.37572,1.868198 0.37297,3.919053 0.30884,5.885319 -0.10052,3.081708 -0.12815,6.431473 -1.08112,9.083422 -0.45618,1.269428 -1.3911,2.656431 -2.3263,3.845208 l 13.31016,-0.877349 1.7547,-1.257443 c -1.008,-0.976675 -2.02649,-2.069584 -2.69765,-3.117719 -1.1019,-1.720836 -1.8434,-3.993219 -2.62609,-6.140755 -0.94021,-2.57979 -1.11737,-6.047866 -2.47146,-8.0603 -0.66334,-0.985838 -1.59646,-1.924245 -2.48217,-1.875262 z" />
        <path
           id="path972"
           style="opacity:0.274194;fill:#ffffff;fill-opacity:1;stroke:none;stroke-width:0.359163px;stroke-linecap:butt;stroke-linejoin:miter;stroke-opacity:1"
           d="m 220.59985,12.800513 c -1.93894,-0.0068 -3.92492,0.348559 -5.76621,0.771414 -2.9796,0.684266 -7.8543,3.054844 -8.2418,4.493585 -0.27368,1.016105 4.57192,7.83969 9.07946,15.560818 -0.2527,-1.384778 -0.81779,-4.265101 -1.40597,-5.81506 -0.89186,-2.350147 -3.4131,-3.951887 -3.55259,-6.512847 -0.0803,-1.473896 0.63716,-3.07287 1.62188,-4.014777 2.33257,-2.231168 6.12684,-0.954464 8.80518,-2.587373 0.67967,-0.414381 1.59043,-0.939624 2.52493,-1.521454 -0.9882,-0.260608 -2.0194,-0.370642 -3.06488,-0.374306 z" />
        <path
           id="path977"
           style="opacity:0.0935484;fill:#000000;stroke:none;stroke-width:0.359163px;stroke-linecap:butt;stroke-linejoin:miter;stroke-opacity:1"
           d="m 223.76507,13.200944 c -0.0418,0.01257 -0.23111,0.06792 -0.23111,0.06792 0,0 2.85797,3.657517 3.24416,4.103603 0.38619,0.446088 2.9348,4.639693 3.24376,5.442651 0.30895,0.802957 2.24005,5.085033 2.78071,6.15564 0.54066,1.070609 1.77655,3.390484 2.7034,5.264049 0.92685,1.873566 2.39423,9.546096 2.47147,10.884356 0.0773,1.33826 -0.0773,4.372021 1.31305,6.424021 1.39027,2.051999 4.78863,7.226288 5.561,8.20768 0.41484,0.527094 1.98485,1.743611 3.49625,2.817276 l 2.85967,-1.429301 c 0,0 -7.85588,-7.652813 -10.26791,-12.743066 -2.38291,-5.02878 -1.58828,-11.474321 -3.71378,-16.654761 -2.68845,-6.552466 -5.6118,-14.105775 -11.14136,-17.538281 -0.73187,-0.454312 -1.51066,-0.77943 -2.31931,-1.001794 z" />
      </g>
      <path
         id="path908"
         style="opacity:1;fill:#d45500;stroke-width:0.371236"
         d="m 407.86278,101.33524 c 0,33.2841 11.60099,65.54358 35.25062,65.54357 23.64963,0 45.72531,-22.10198 46.27436,-65.54357 C 489.8084,68.053806 472.0611,41.610448 450.68423,41.069068 421.50221,40.330019 407.86278,68.051146 407.86278,101.33524 Z"
         sodipodi:nodetypes="sssss" />
      <path
         id="path989"
         style="opacity:0.254839;fill:#000000;stroke-width:0.371236"
         d="m 476.52974,56.496901 c 5.76464,10.437746 9.20229,23.934806 9.01444,38.798666 -0.54907,43.441583 -22.62455,65.543803 -46.2742,65.543803 -8.76776,0 -15.87778,-4.43726 -21.35629,-11.7135 5.83086,10.79018 14.21426,17.75293 25.19947,17.75292 23.64965,0 45.72566,-22.10221 46.2747,-65.5438 0.22654,-17.922585 -4.81769,-33.858778 -12.85812,-44.838089 z" />
      <ellipse
         style="opacity:1;fill:#6a2a00;fill-opacity:1;stroke-width:0.371236"
         id="ellipse852"
         cx="441.43964"
         cy="108.71274"
         rx="32.513626"
         ry="60.327896" />
      <ellipse
         style="opacity:1;fill:#d45500;stroke-width:0.371236"
         id="ellipse854"
         cx="441.43964"
         cy="108.71274"
         rx="28.856232"
         ry="57.636517" />
      <path
         id="path856"
         style="opacity:0.303226;fill:#000000;stroke-width:0.371236"
         d="m 412.86793,100.63778 c -0.18942,2.67506 -0.28447,5.37342 -0.28439,8.07511 6e-5,31.83142 12.9192,57.63592 28.85586,57.63631 15.93688,1.8e-4 28.85634,-25.80449 28.8564,-57.63631 3e-5,-2.70117 -0.095,-5.39902 -0.28441,-8.07358 -2.01394,28.42918 -14.1969,55.54321 -28.57199,55.54287 -14.37514,-2.7e-4 -26.5579,-27.11501 -28.57147,-55.5444 z"
         sodipodi:nodetypes="cccsccc" />
      <path
         id="ellipse894"
         style="opacity:1;fill:#d45500;stroke-width:0.371236"
         d="m 418.98055,101.06072 c 0,33.2841 -11.60099,65.54358 -35.25061,65.54357 -23.64963,0 -45.72531,-22.10198 -46.27436,-65.54357 -0.42064,-33.281434 17.32666,-59.724798 38.70353,-60.266178 29.18202,-0.739049 42.82144,26.982074 42.82144,60.266178 z"
         sodipodi:nodetypes="sssss" />
      <path
         id="path903"
         style="opacity:0.225806;fill:#000000;stroke-width:0.371236"
         d="m 344.6376,65.850946 c -4.65019,9.8644 -7.34898,21.997 -7.18199,35.209734 0.54905,43.44159 22.62455,65.5438 46.27418,65.5438 14.98701,1e-5 25.13357,-12.95743 30.55731,-30.91852 -5.8548,12.48702 -14.73863,20.76101 -26.71362,20.76101 -23.64963,0 -45.72564,-22.10222 -46.27469,-65.543814 -0.11341,-8.97288 1.09596,-17.44701 3.33881,-25.05221 z" />
      <ellipse
         style="opacity:1;fill:#6a2a00;fill-opacity:1;stroke-width:0.371236"
         id="ellipse862"
         cx="388.66144"
         cy="108.71274"
         rx="32.513626"
         ry="60.327896" />
      <ellipse
         style="opacity:1;fill:#d45500;stroke-width:0.371236"
         id="ellipse864"
         cx="388.66144"
         cy="108.71274"
         rx="28.856232"
         ry="57.636517" />
      <path
         id="path866"
         style="opacity:0.303226;fill:#000000;stroke-width:0.371236"
         d="m 360.08974,100.63778 c -0.18942,2.67506 -0.28447,5.37342 -0.28439,8.07511 6e-5,31.83142 12.9192,57.63592 28.85586,57.63631 15.93688,1.8e-4 28.85634,-25.80449 28.8564,-57.63631 3e-5,-2.70117 -0.095,-5.39902 -0.28441,-8.07358 -2.01394,28.42918 -14.1969,55.54321 -28.57199,55.54287 -14.37514,-2.7e-4 -26.5579,-27.11501 -28.57147,-55.5444 z"
         sodipodi:nodetypes="cccsccc" />
      <ellipse
         style="opacity:1;fill:#6a2a00;fill-opacity:1;stroke-width:0.371236"
         id="ellipse835"
         cx="415.08505"
         cy="113.10518"
         rx="32.788155"
         ry="60.917431" />
      <ellipse
         style="opacity:1;fill:#d45500;stroke-width:0.371236"
         id="path833"
         cx="415.08505"
         cy="113.10518"
         rx="29.099876"
         ry="58.199753" />
      <path
         id="ellipse839"
         style="opacity:0.303226;fill:#000000;stroke-width:0.371236"
         d="m 386.27208,104.95131 c -0.19103,2.70121 -0.28687,5.42593 -0.2868,8.15403 6e-5,32.14247 13.02828,58.19915 29.09951,58.19954 16.07144,1.8e-4 29.09998,-26.05666 29.10004,-58.19954 3e-5,-2.72758 -0.0958,-5.45178 -0.28681,-8.15248 -2.03093,28.70699 -14.31676,56.08599 -28.81323,56.08564 -14.49652,-2.7e-4 -26.78215,-27.37998 -28.81271,-56.08719 z"
         sodipodi:nodetypes="cccsccc" />
      <path
         style="opacity:0.758064;fill:url(#linearGradient850);fill-opacity:1;stroke:none;stroke-width:0.370653px;stroke-linecap:butt;stroke-linejoin:miter;stroke-opacity:1"
         d="m 402.35126,70.993366 c 0.98363,-1.80206 4.04302,-4.55862 6.18577,-3.53472 1.667,0.79656 1.70426,3.53421 0.88368,5.4717 -1.02733,2.42567 -3.24861,11.78901 -3.32994,17.83678 -0.0781,5.80603 2.73513,17.203604 2.73513,17.203604 l -16.63698,-1.51964 c 0,0 0.91492,-13.604034 2.80309,-19.496674 1.88817,-5.89264 6.07241,-13.60347 7.35925,-15.96105 z"
         id="path842"
         sodipodi:nodetypes="sasacczs" />
      <path
         style="opacity:0.658065;fill:url(#linearGradient870);fill-opacity:1;stroke:none;stroke-width:0.370653px;stroke-linecap:butt;stroke-linejoin:miter;stroke-opacity:1"
         d="m 372.18172,69.021046 c 0.79547,-1.77777 3.26964,-4.49718 5.00251,-3.48708 1.34812,0.78583 1.37824,3.48658 0.71464,5.39795 -0.83081,2.39298 -2.62719,11.63011 -2.69297,17.59636 -0.0631,5.72777 2.21194,16.971714 2.21194,16.971714 l -13.45453,-1.49916 c 0,0 0.73991,-13.420654 2.2669,-19.233864 1.52697,-5.81322 4.91082,-13.42013 5.95151,-15.74592 z"
         id="path868"
         sodipodi:nodetypes="sasacczs" />
      <path
         style="opacity:0.458065;fill:url(#linearGradient920);fill-opacity:1;stroke:none;stroke-width:0.370653px;stroke-linecap:butt;stroke-linejoin:miter;stroke-opacity:1"
         d="m 458.29609,69.021046 c -0.79547,-1.77777 -3.26964,-4.49718 -5.00251,-3.48708 -1.34812,0.78583 -1.37824,3.48658 -0.71464,5.39795 0.83081,2.39298 2.62719,11.63011 2.69297,17.59636 0.0631,5.72777 -2.21194,16.971714 -2.21194,16.971714 l 13.45453,-1.49916 c 0,0 -0.73991,-13.420654 -2.2669,-19.233864 -1.52697,-5.81322 -4.91082,-13.42013 -5.95151,-15.74592 z"
         id="path918"
         sodipodi:nodetypes="sasacczs" />
      <path
         style="opacity:0.825806;fill:url(#linearGradient924);fill-opacity:1;stroke:none;stroke-width:0.370653px;stroke-linecap:butt;stroke-linejoin:miter;stroke-opacity:1"
         d="m 356.78098,52.726623 c 1.05539,-1.572362 3.77654,-3.715649 5.10008,-2.367128 1.02966,1.049105 0.51659,3.695816 -0.44944,5.426268 -1.2094,2.166473 -4.63612,10.823113 -5.88602,16.642413 -1.19988,5.58672 -1.44373,17.05347 -1.44373,17.05347 l -11.54363,-4.26841 c 0,0 3.3326,-12.9668 5.83813,-18.3321 2.50551,-5.36532 7.00387,-12.097449 8.38458,-14.154515 z"
         id="path922"
         sodipodi:nodetypes="sasacczs" />
      <path
         style="opacity:0.383871;fill:url(#linearGradient930);fill-opacity:1;stroke:none;stroke-width:0.370653px;stroke-linecap:butt;stroke-linejoin:miter;stroke-opacity:1"
         d="m 470.52393,52.726623 c -1.05539,-1.572362 -3.77654,-3.715649 -5.10008,-2.367128 -1.02966,1.049105 -0.51659,3.695816 0.44944,5.426268 1.2094,2.166473 4.63612,10.823113 5.88602,16.642413 1.19988,5.58672 1.44373,17.05347 1.44373,17.05347 l 11.54363,-4.26841 c 0,0 -3.3326,-12.9668 -5.83813,-18.3321 -2.50551,-5.36532 -7.00387,-12.097449 -8.38458,-14.154515 z"
         id="path928"
         sodipodi:nodetypes="sasacczs" />
    </g>
  </g>
</svg>
