<?xml version="1.0" encoding="UTF-8" standalone="no"?>
<svg
   xmlns:dc="http://purl.org/dc/elements/1.1/"
   xmlns:cc="http://creativecommons.org/ns#"
   xmlns:rdf="http://www.w3.org/1999/02/22-rdf-syntax-ns#"
   xmlns:svg="http://www.w3.org/2000/svg"
   xmlns="http://www.w3.org/2000/svg"
   xmlns:sodipodi="http://sodipodi.sourceforge.net/DTD/sodipodi-0.dtd"
   xmlns:inkscape="http://www.inkscape.org/namespaces/inkscape"
   width="210mm"
   height="297mm"
   viewBox="0 0 210 297"
   version="1.1"
   id="svg8"
   inkscape:version="1.0.2-2 (e86c870879, 2021-01-15)"
   sodipodi:docname="nature-human.svg">
  <defs
     id="defs2" />
  <sodipodi:namedview
     id="base"
     pagecolor="#ffffff"
     bordercolor="#666666"
     borderopacity="1.0"
     inkscape:pageopacity="0.0"
     inkscape:pageshadow="2"
     inkscape:zoom="0.51773221"
     inkscape:cx="-201.36694"
     inkscape:cy="940.08951"
     inkscape:document-units="mm"
     inkscape:current-layer="layer1"
     inkscape:document-rotation="0"
     showgrid="false"
     inkscape:window-width="1920"
     inkscape:window-height="1080"
     inkscape:window-x="1092"
     inkscape:window-y="825"
     inkscape:window-maximized="1"
     inkscape:snap-global="false" />
  <metadata
     id="metadata5">
    <rdf:RDF>
      <cc:Work
         rdf:about="">
        <dc:format>image/svg+xml</dc:format>
        <dc:type
           rdf:resource="http://purl.org/dc/dcmitype/StillImage" />
        <dc:title></dc:title>
      </cc:Work>
    </rdf:RDF>
  </metadata>
  <g
     inkscape:label="Layer 1"
     inkscape:groupmode="layer"
     id="layer1">
    <path
       id="rect998"
       style="opacity:1;fill:#f1b993;fill-opacity:1;stroke:none;stroke-width:0.264999"
       d="m 89.145642,238.65701 h 31.491798 l 7.76207,35.10831 -23.50797,5.5196 -23.507964,-5.5196 z"
       sodipodi:nodetypes="cccccc" />
    <path
       id="path1001"
       style="opacity:0.1;fill:#000000;fill-opacity:1;stroke:none;stroke-width:0.264999"
       d="m 89.145808,238.65704 -3.070515,13.8883 c 6.199517,0.92067 12.492508,1.63444 18.816447,1.63439 6.32375,4e-5 12.61708,-0.71372 18.81644,-1.63439 l -3.07051,-13.8883 z" />
    <path
       id="rect833"
       style="opacity:1;fill:#f1b993;fill-opacity:1;stroke-width:0.264999"
       d="m 49.846193,66.167884 c -13.561367,19.77271 -5.930922,38.503586 -5.830361,64.758556 0.100562,26.25495 -9.092903,75.26849 6.272414,92.58994 15.365317,17.32148 36.110291,22.68972 56.215964,22.58985 19.62152,-0.0973 39.28947,-5.26848 54.65467,-22.58985 15.36524,-17.32135 6.16902,-65.95908 6.27117,-92.58994 0.0991,-25.87906 7.73103,-44.985846 -5.8304,-64.758556 -8.5027,-12.397127 -36.84251,-12.153327 -55.87608,-12.153373 -19.033988,-4.5e-5 -46.009616,-0.955418 -55.877377,12.153373 z"
       sodipodi:nodetypes="czzazcsac" />
    <path
       id="path978"
       style="opacity:0.316129;fill:#000000;fill-opacity:1;stroke-width:0.264999"
       d="M 78.274228,55.514722 C 72.434685,55.643965 66.181804,65.648092 60.908713,62.517683 59.832355,61.8787 59.9265,60.403901 60.156904,58.846071 c -4.254734,1.810957 -7.825149,4.292118 -10.310098,7.694248 -4.878003,7.329816 -7.006328,14.522463 -7.737286,21.985289 1.024783,-1.566466 2.265948,-3.065366 3.27755,-4.17461 1.971579,-2.161866 7.803143,-3.591066 7.803143,-3.591066 0,0 1.822918,2.077079 1.782635,3.639481 -0.05674,2.199822 -2.401814,7.153696 -2.401814,7.153707 0,-1.1e-5 6.688066,-3.098266 10.48954,-5.301757 4.035795,-2.339324 10.661123,-9.064718 10.661123,-9.064718 3.491309,-0.08311 1.429662,5.583476 0.103003,7.759121 -1.958668,3.212097 -8.525404,7.312547 -8.525404,7.312547 0,0 19.821592,-1.248534 28.011063,-4.233012 9.446321,-3.442515 25.798111,-13.166694 25.798111,-13.166694 0,0 -0.23539,5.529421 -1.04262,8.011435 -1.10684,3.403218 -3.52857,10.275967 -3.52857,10.275967 0,0 9.1785,-3.368294 13.8094,-5.634462 5.78764,-2.832247 12.17928,-8.41763 18.85952,-7.415476 5.03189,0.754872 9.71583,4.535605 11.94155,9.50827 5.25295,11.736019 6.63337,28.644929 5.87174,41.443719 0.0965,-0.0371 -3.482,2.99328 -3.37504,2.95671 4.46726,-1.52825 5.86897,-6.88315 6.22164,-7.70606 0.35268,-0.82291 -0.34886,-5.81311 -0.34886,-7.22382 0,-1.4107 5.47146,-6.5438 5.94169,-8.18962 0.47027,-1.64583 -6.2766,-7.69161 -5.6888,-9.21986 0.58778,-1.52825 -0.23606,-7.523614 -0.35371,-8.346529 -0.0805,-0.563348 0.98174,-3.81164 1.782,-5.999659 -0.70138,-5.841526 -2.31046,-11.533346 -5.45765,-17.243131 -0.25712,0.310619 -0.55546,0.671112 -0.55546,0.671112 0,0 0.0248,-0.656968 0.0148,-1.616581 -0.50128,-0.862734 -1.02504,-1.725689 -1.60045,-2.590303 -1.63105,-2.45089 -3.99662,-4.419205 -6.88191,-6.005041 -1.56842,2.036927 -3.14361,4.36208 -5.28685,4.33331 -2.65639,-0.03567 -3.84139,-3.938841 -6.34802,-4.818818 -4.29062,-1.506261 -9.1001,-0.655433 -13.63742,-0.353717 -4.94962,0.329141 -9.74502,2.683008 -14.69452,2.352255 -5.4305,-0.362897 -10.19526,-4.556002 -15.635911,-4.703162 -5.481704,-0.148268 -10.955804,6.061396 -15.986985,3.880077 -1.899834,-0.823691 -1.118995,-4.678517 -3.056991,-5.407898 -0.593715,-0.223449 -1.19271,-0.315976 -1.796801,-0.302603 z"
       sodipodi:nodetypes="sscccscssscscscscsasccsssssccccscsssssssss" />
    <path
       style="fill:#784421;stroke:none;stroke-width:0.264582px;stroke-linecap:butt;stroke-linejoin:miter;stroke-opacity:1"
       d="M 33.156812,146.34725 C 29.49925,143.35469 19.814115,83.215735 26.174197,52.497541 c 0.731852,-3.534722 2.361237,-7.156861 5.025484,-9.592359 2.968251,-2.713404 11.145252,-4.61964 11.145252,-4.61964 0,0 -3.306578,2.55705 -4.612215,4.16539 -1.007724,1.241359 -2.414616,4.144632 -2.414616,4.144632 0,0 4.947451,-2.749386 12.126841,-9.180101 7.179388,-6.430713 20.608675,-7.353523 20.608675,-7.353523 0,0 -3.043464,2.333486 -3.018487,4.819067 0.02498,2.48558 1.039738,5.729453 1.039738,5.729453 0,0 7.493593,-5.234053 11.530109,-7.966905 4.733866,-3.204987 13.820404,-5.36268 13.820404,-5.36268 0,0 -2.962092,2.509391 -3.42995,6.017288 -0.30114,2.257881 1.35483,6.314784 1.35483,6.314784 0,0 8.313507,-6.057711 12.839038,-9.475855 6.47537,-4.890855 17.07893,-2.814864 17.07893,-2.814864 l -6.26687,7.439946 -3.70076,6.845806 c 0,0 1.50938,-2.145547 8.84735,-6.509958 9.61984,-5.721595 23.31896,-4.638176 23.31896,-4.638176 0,0 -4.5686,3.666648 -6.05643,6.1213 -0.96237,1.587718 -1.69781,5.304739 -1.69781,5.304739 0,0 11.49064,-6.443969 17.70986,-8.486798 5.14694,-1.690618 15.96653,-3.035194 15.96653,-3.035194 0,0 -3.95736,3.685898 -4.88707,6.127433 -0.72635,1.907467 -0.333,6.114167 -0.333,6.114167 0,0 6.64604,-0.05603 9.05618,1.865025 2.94552,2.347805 4.69005,10.280971 4.69005,10.280971 l 2.87906,91.595761 -15.73209,-1.11162 c 0,0 4.37031,-39.25369 -3.33198,-56.461987 -2.22572,-4.972662 -11.52645,-11.587566 -11.52645,-11.587566 0,0 -10.41151,7.493275 -16.19915,10.325522 -4.63088,2.266171 -15.05639,4.969726 -15.05639,4.969726 0,0 2.50409,-6.707355 3.61093,-10.110568 0.80723,-2.482018 2.20791,-7.512219 2.20791,-7.512219 0,0 -16.35171,9.724543 -25.798031,13.167054 -8.189476,2.984477 -29.923736,3.983777 -29.923736,3.983777 0,0 6.567087,-4.183635 8.525752,-7.395729 1.326661,-2.175646 1.809011,-7.427563 1.809011,-7.427563 0,0 -6.625848,6.725454 -10.661647,9.064778 -3.801468,2.203495 -12.400529,4.470558 -12.400529,4.470558 0,0 1.845396,-4.121863 1.902113,-6.32168 0.04028,-1.562415 -1.117807,-4.553611 -1.117807,-4.553611 0,0 -4.085638,2.342424 -6.057214,4.504294 -1.971577,2.161873 -4.837355,5.801148 -5.208256,8.544704 -2.266999,16.76905 3.475218,54.44964 3.475218,54.44964 z"
       id="path844"
       sodipodi:nodetypes="caacaczczcscscscccscacacacacccacscacscacacaczscc" />
    <path
       id="path971"
       style="opacity:0.067742;fill:#000000;fill-opacity:1;stroke-width:1.00158"
       d="M 641.14844 644.79102 C 639.66762 645.57755 638.15933 646.31231 636.61719 646.98242 C 638.80289 722.07767 634.39934 795.28395 602.97852 831.77148 C 546.60289 897.23812 474.43938 916.77813 402.44727 917.14648 C 328.67872 917.52444 252.56547 897.2385 196.18945 831.77148 C 165.50932 796.14404 160.59787 725.04053 162.42383 651.63477 C 160.81223 651.46228 159.22502 651.22808 157.66406 650.93164 C 153.92158 729.06747 156.47745 806.92419 190.06445 844.78711 C 248.1381 910.25412 326.54525 930.54152 402.53516 930.16406 C 476.69531 929.79631 551.03028 910.2537 609.10352 844.78711 C 643.64962 805.84301 645.35608 725.05406 641.14844 644.79102 z "
       transform="scale(0.26458333)" />
    <path
       id="path867"
       style="opacity:0.0516129;fill:#000000;stroke:none;stroke-width:0.264582px;stroke-linecap:butt;stroke-linejoin:miter;stroke-opacity:1"
       d="m 63.156061,53.935793 c -6.219125,-2.73205 -12.317664,6.290671 -17.045422,11.168157 -4.443706,4.584435 -8.505696,10.131636 -9.992704,16.340693 -3.94583,16.475983 3.997076,50.668257 3.997076,50.668257 0,0 2.119704,2.34609 5.336615,0.99792 -1.440845,-12.46984 -2.980579,-30.11615 -1.615238,-40.215592 0.370904,-2.743558 3.237273,-6.382357 5.208845,-8.54423 1.97158,-2.161866 6.057491,-4.505459 6.057491,-4.505459 0,0 1.157908,2.991465 1.117625,4.553874 -0.05674,2.199822 -1.903058,6.32244 -1.903058,6.32244 0,-10e-6 8.599972,-2.266999 12.401445,-4.47049 4.035796,-2.339324 10.661124,-9.064718 10.661124,-9.064718 0,6e-6 -0.482244,5.250966 -1.808905,7.426611 -1.958669,3.212098 -8.525404,7.395683 -8.525404,7.395683 0,0 21.733497,-0.99916 29.922968,-3.983638 9.446331,-3.442515 25.798111,-13.166694 25.798111,-13.166694 0,0 -1.39976,5.030664 -2.207,7.512679 -1.10683,3.403217 -3.61109,10.109706 -3.61109,10.109706 0,0 10.42543,-2.703277 15.05631,-4.969445 5.78763,-2.832247 16.19947,-10.324902 16.19947,-10.324902 0,0 9.30019,6.613766 11.52591,11.58643 5.25295,11.736025 4.88914,33.708295 4.12753,46.507085 0.0964,-0.0371 0.17423,-0.075 0.28109,-0.11162 4.46722,-1.52826 3.29204,-5.05436 3.64472,-5.87727 0.35267,-0.82292 1.64617,-7.64191 1.64617,-9.05261 0,-1.41069 0.2345,-9.28698 0.70473,-10.93279 0.47026,-1.64583 0.70602,-6.11221 1.2938,-7.64046 0.5878,-1.52825 -0.23607,-7.523614 -0.35371,-8.346529 -0.11755,-0.822913 2.23359,-7.523933 2.58628,-7.994168 0.35259,-0.470235 0.47071,-7.523924 0.47071,-7.994159 0,-0.470227 -2.2339,-10.46329 -2.2339,-11.638873 0,-1.175584 -5.05418,5.055522 -5.05418,5.055522 0,0 0.51537,-11.566303 -3.76172,-13.049688 -3.8735,-1.343415 -5.89322,7.226099 -9.99271,7.171073 -2.65636,-0.03567 -3.84135,-3.938841 -6.34798,-4.818818 -4.29062,-1.506261 -9.10011,-0.655439 -13.63742,-0.353717 -4.94961,0.329135 -9.74503,2.683008 -14.69452,2.352255 -5.43055,-0.362897 -10.19528,-4.556002 -15.63596,-4.703162 -5.481691,-0.148274 -10.955796,6.061396 -15.986976,3.880077 -1.899835,-0.823691 -1.118996,-4.678517 -3.056993,-5.407898 -6.33299,-2.38347 -13.343732,10.1546 -19.162315,6.700358 -2.492846,-1.479896 1.243396,-7.415898 -1.410815,-8.58189 z"
       sodipodi:nodetypes="aaaccsscscscscscscscscssssscssscaaaaaaaaaa" />
    <path
       id="path851"
       style="opacity:1;fill:#f1b993;fill-opacity:1;stroke:none;stroke-width:0.264999"
       d="m 35.883351,131.37534 c -8.742215,0.0399 -16.13702,2.40435 -11.648294,20.68073 2.161287,8.79993 9.155682,20.44805 20.449405,20.44805 0.962806,0 1.909039,-0.0717 2.836419,-0.20039 v -40.49667 c -0.92738,-0.12873 -1.873613,-0.2004 -2.836419,-0.2004 -2.823435,0 -5.887036,-0.24465 -8.801111,-0.23132 z" />
    <path
       style="opacity:0.0935484;fill:#000000;stroke:none;stroke-width:0.264582px;stroke-linecap:butt;stroke-linejoin:miter;stroke-opacity:1"
       d="m 31.193473,136.54003 c 0,0 2.947487,1.09352 4.100696,2.1222 1.796486,1.60251 3.378151,3.48959 4.057741,6.01195 0.48752,1.80947 0.159224,3.89017 -0.199565,5.75057 -0.512484,2.6574 -1.977247,4.84732 -2.72733,7.40604 -0.397409,1.35566 -0.931804,2.73007 -0.931287,4.18223 4.41e-4,1.24073 0.0062,2.83124 0.798247,3.57232 1.437737,1.34546 4.169135,1.6408 5.388141,-0.0872 1.357354,-1.92403 -0.381298,-5.22209 -0.399119,-7.84168 -0.03246,-4.76857 1.464587,-9.67957 0.532161,-14.28929 -0.444255,-2.19628 -1.247719,-4.3026 -2.793856,-5.75056 -1.870875,-1.75208 -7.09411,-2.85126 -7.09411,-2.85126 z"
       id="path854"
       sodipodi:nodetypes="caaaaaasaaacc" />
    <path
       id="path861"
       style="opacity:1;fill:#f1b993;fill-opacity:1;stroke:none;stroke-width:0.264999"
       d="m 170.88704,131.37534 c 8.7422,0.0399 16.13703,2.40435 11.64831,20.68073 -2.16131,8.79993 -9.15571,20.44805 -20.44943,20.44805 -0.9628,0 -1.90904,-0.0717 -2.83641,-0.20039 v -40.49667 c 0.92737,-0.12873 1.87361,-0.2004 2.83641,-0.2004 2.82344,0 5.88705,-0.24465 8.80112,-0.23132 z" />
    <path
       style="opacity:0.0935484;fill:#000000;stroke:none;stroke-width:0.264582px;stroke-linecap:butt;stroke-linejoin:miter;stroke-opacity:1"
       d="m 175.57692,136.54003 c 0,0 -2.94749,1.09352 -4.10071,2.1222 -1.79648,1.60251 -3.37813,3.48959 -4.05774,6.01195 -0.48751,1.80947 -0.15928,3.89017 0.19962,5.75057 0.5125,2.6574 1.97724,4.84732 2.72733,7.40604 0.39741,1.35566 0.93179,2.73007 0.9313,4.18223 -4.4e-4,1.24073 -0.005,2.83124 -0.79826,3.57232 -1.43774,1.34546 -4.16913,1.6408 -5.38814,-0.0872 -1.35734,-1.92403 0.38131,-5.22209 0.39913,-7.84168 0.0326,-4.76857 -1.46459,-9.67957 -0.53217,-14.28929 0.44425,-2.19628 1.24772,-4.3026 2.79385,-5.75056 1.87088,-1.75208 7.09413,-2.85126 7.09413,-2.85126 z"
       id="path863"
       sodipodi:nodetypes="caaaaaasaaacc" />
    <ellipse
       style="fill:#ffffff;fill-opacity:1;stroke:none;stroke-width:0.264999"
       id="path865"
       cx="2.2637589"
       cy="151.097"
       rx="18.772408"
       ry="11.601988"
       transform="rotate(-30)" />
    <circle
       style="fill:#00ccff;fill-opacity:1;stroke:none;stroke-width:0.265001"
       id="path874"
       cx="80.574875"
       cy="130.96886"
       r="9.1439047" />
    <circle
       style="fill:#0055d4;fill-opacity:1;stroke:none;stroke-width:0.265001"
       id="circle876"
       cx="80.574875"
       cy="130.96886"
       r="6.9573183" />
    <circle
       style="fill:#ffffff;fill-opacity:1;stroke:none;stroke-width:0.264999"
       id="circle878"
       cx="75.587265"
       cy="127.13074"
       r="4.8213315" />
    <ellipse
       style="fill:#ffffff;fill-opacity:1;stroke:none;stroke-width:0.264999"
       id="ellipse894"
       cx="-180.85387"
       cy="45.373993"
       rx="18.772408"
       ry="11.601988"
       transform="matrix(-0.8660254,-0.5,-0.5,0.8660254,0,0)" />
    <circle
       style="fill:#00ccff;fill-opacity:1;stroke:none;stroke-width:0.265001"
       id="circle896"
       cx="-130.87114"
       cy="130.96886"
       r="9.1439047"
       transform="scale(-1,1)" />
    <circle
       style="fill:#0055d4;fill-opacity:1;stroke:none;stroke-width:0.265001"
       id="circle898"
       cx="-130.87114"
       cy="130.96886"
       r="6.9573183"
       transform="scale(-1,1)" />
    <circle
       style="fill:#ffffff;fill-opacity:1;stroke:none;stroke-width:0.264999"
       id="circle900"
       cx="-135.85875"
       cy="127.13074"
       r="4.8213315"
       transform="scale(-1,1)" />
    <path
       id="path936"
       style="opacity:0.13871;fill:#000000;fill-opacity:1;stroke:none;stroke-width:0.264999"
       d="m 115.05311,165.51819 a 15.83235,15.12521 0 0 1 -9.85925,3.29136 15.83235,15.12521 0 0 1 -9.859251,-3.29063 11.558587,15.12521 0 0 0 9.859251,7.23052 11.558587,15.12521 0 0 0 9.85925,-7.23125 z" />
    <path
       id="path946"
       style="opacity:1;fill:#000000;fill-opacity:1;stroke:none;stroke-width:0.264999"
       d="m 68.942732,196.08459 a 41.396944,41.396944 0 0 0 36.035598,21.0223 41.396944,41.396944 0 0 0 36.03425,-21.0223 77.640057,41.396944 0 0 1 -36.03425,4.73006 77.640057,41.396944 0 0 1 -36.035598,-4.73006 z" />
    <path
       id="path951"
       style="opacity:1;fill:#ffffff;fill-opacity:1;stroke:none;stroke-width:0.264999"
       d="m 129.272,199.39933 a 77.640057,41.396944 0 0 1 -24.29318,2.08059 77.640057,41.396944 0 0 1 -24.294505,-2.07924 42.726969,49.210827 0 0 0 24.293165,8.72849 42.726969,49.210827 0 0 0 24.29452,-8.72984 z" />
    <path
       id="path957"
       style="opacity:1;fill:#752727;fill-opacity:1;stroke:none;stroke-width:0.264999"
       d="m 104.97748,212.55925 c -4.76692,2.7e-4 -9.437491,-0.0747 -13.477373,2.29181 4.336922,1.49336 8.891883,2.25554 13.478713,2.25541 4.58593,-1.8e-4 9.13995,-0.76237 13.47603,-2.25541 -4.03987,-2.3664 -8.71044,-2.29154 -13.47737,-2.29181 z"
       sodipodi:nodetypes="ccscc" />
    <path
       id="path962"
       style="opacity:1;fill:#784421;fill-opacity:1;stroke:none;stroke-width:0.264999"
       d="m 69.253447,108.23019 c -9.187909,5.3351 -12.863942,9.8484 -16.213225,16.81555 4.131469,-5.87385 10.334132,-10.57532 17.541715,-13.29621 7.208349,-2.72075 14.971253,-3.29051 21.954006,-1.61131 -7.081532,-4.09685 -14.094584,-7.24312 -23.282496,-1.90803 z"
       sodipodi:nodetypes="zcccz" />
    <path
       id="path967"
       style="opacity:1;fill:#784421;fill-opacity:1;stroke:none;stroke-width:0.264999"
       d="m 138.00251,108.23019 c 9.18791,5.3351 12.86393,9.8484 16.21322,16.81555 -4.13147,-5.87385 -10.33413,-10.57532 -17.54171,-13.29621 -7.20835,-2.72075 -14.97125,-3.29051 -21.95401,-1.61131 7.08153,-4.09685 14.09458,-7.24312 23.2825,-1.90803 z"
       sodipodi:nodetypes="zcccz" />
    <path
       id="path974"
       style="opacity:0.0741936;fill:#000000;fill-opacity:1;stroke:none;stroke-width:0.264999"
       d="m 93.571504,235.63715 a 22.559728,37.905639 0 0 0 11.406146,5.20212 22.559728,37.905639 0 0 0 11.40616,-5.20212 40.370039,37.905639 0 0 1 -11.40616,1.54531 40.370039,37.905639 0 0 1 -11.406146,-1.54531 z" />
  </g>
</svg>
